<svg width="16" height="18" viewBox="0 0 16 18" fill="none" xmlns="http://www.w3.org/2000/svg">
<path d="M5.5 8.33337V10H3.83333V8.33337H5.5ZM8.83333 8.33337V10H7.16667V8.33337H8.83333ZM12.1667 8.33337V10H10.5V8.33337H12.1667ZM13.8333 2.50004C14.2754 2.50004 14.6993 2.67564 15.0118 2.9882C15.3244 3.30076 15.5 3.72468 15.5 4.16671V15.8334C15.5 16.2754 15.3244 16.6993 15.0118 17.0119C14.6993 17.3244 14.2754 17.5 13.8333 17.5H2.16667C1.72464 17.5 1.30072 17.3244 0.988155 17.0119C0.675595 16.6993 0.5 16.2754 0.5 15.8334V4.16671C0.5 3.72468 0.675595 3.30076 0.988155 2.9882C1.30072 2.67564 1.72464 2.50004 2.16667 2.50004H3V0.833374H4.66667V2.50004H11.3333V0.833374H13V2.50004H13.8333ZM13.8333 15.8334V6.66671H2.16667V15.8334H13.8333ZM5.5 11.6667V13.3334H3.83333V11.6667H5.5ZM8.83333 11.6667V13.3334H7.16667V11.6667H8.83333ZM12.1667 11.6667V13.3334H10.5V11.6667H12.1667Z" fill="#756FB3"/>
</svg>
