<svg width="24" height="24" viewBox="0 0 24 24" fill="none" xmlns="http://www.w3.org/2000/svg">
<path d="M24 18C24 18.7073 23.719 19.3856 23.219 19.8857C22.7189 20.3858 22.0406 20.6667 21.3333 20.6667H2.66667C1.95942 20.6667 1.28115 20.3858 0.781049 19.8857C0.280952 19.3856 0 18.7073 0 18V6.00004C0 5.2928 0.280952 4.61452 0.781049 4.11442C1.28115 3.61433 1.95942 3.33337 2.66667 3.33337H21.3333C22.0406 3.33337 22.7189 3.61433 23.219 4.11442C23.719 4.61452 24 5.2928 24 6.00004V18Z" fill="#E8112D"/>
<path d="M12.3153 7.99061C12.3246 7.29395 12.9419 6.81461 12.9679 5.88661C13.4099 6.44261 12.6793 7.48461 12.9386 8.08928C13.0573 7.40328 13.7406 7.02595 13.9126 6.11395C14.2626 6.73261 13.3773 7.64728 13.5386 8.28461C13.7626 7.62461 14.4973 7.35995 14.8093 6.48528C15.0579 7.15128 14.0413 7.91595 14.1013 8.57061C14.4253 7.95461 15.1926 7.80795 15.6379 6.99261C15.7799 7.68928 14.6546 8.28528 14.6119 8.94195C15.0286 8.38395 15.8099 8.35861 16.3766 7.62328C16.4079 8.33395 15.2033 8.74595 15.0586 9.38795C15.5573 8.90195 16.3319 8.99928 17.0066 8.36128C16.9273 9.06795 15.6733 9.28728 15.4286 9.89861C15.9979 9.49661 16.7486 9.71395 17.5146 9.18995C17.3259 9.87528 16.0526 9.89595 15.7166 10.4613C16.3406 10.1533 17.0473 10.4853 17.8873 10.0873C17.5933 10.7339 16.3313 10.5553 15.9106 11.0613C16.5759 10.8546 17.2233 11.2939 18.1139 11.0319C17.7206 11.6253 16.5046 11.2506 16.0099 11.6846C16.6986 11.5846 17.2693 12.1186 18.1893 11.9999C17.7099 12.5246 16.5659 11.9646 16.0099 12.3153C16.7066 12.3246 17.1859 12.9426 18.1126 12.9673C17.5566 13.4113 16.5153 12.6779 15.9106 12.9386C16.5979 13.0573 16.9746 13.7406 17.8873 13.9126C17.2686 14.2626 16.3533 13.3773 15.7153 13.5386C16.3753 13.7626 16.6413 14.4973 17.5146 14.8093C16.8493 15.0593 16.0853 14.0413 15.4286 14.1013C16.0459 14.4253 16.1933 15.1926 17.0066 15.6379C16.3099 15.7799 15.7146 14.6546 15.0573 14.6119C15.6159 15.0286 15.6406 15.8099 16.3766 16.3766C15.6666 16.4079 15.2526 15.2033 14.6119 15.0586C15.0979 15.5573 14.9999 16.3319 15.6379 17.0066C14.9306 16.9273 14.7119 15.6733 14.1013 15.4286C14.5026 15.9979 14.2846 16.7486 14.8093 17.5146C14.1233 17.3259 14.1033 16.0526 13.5386 15.7166C13.8473 16.3406 13.5139 17.0473 13.9126 17.8873C13.2653 17.5933 13.4439 16.3313 12.9386 15.9106C13.1446 16.5759 12.7066 17.2233 12.9679 18.1139C12.3746 17.7206 12.7493 16.5046 12.3153 16.0099C12.4153 16.6986 11.8813 17.2693 11.9999 18.1893C11.4753 17.7099 12.0353 16.5659 11.6846 16.0099C11.6753 16.7066 11.0579 17.1859 11.0319 18.1126C10.5886 17.5579 11.3206 16.5153 11.0606 15.9106C10.9426 16.5979 10.2586 16.9746 10.0873 17.8873C9.73728 17.2686 10.6226 16.3533 10.4606 15.7166C10.2366 16.3753 9.50195 16.6413 9.18995 17.5146C8.94061 16.8493 9.95861 16.0853 9.89861 15.4286C9.57395 16.0459 8.80661 16.1933 8.36195 17.0066C8.21995 16.3099 9.34528 15.7146 9.38795 15.0586C8.97128 15.6159 8.19061 15.6406 7.62395 16.3766C7.59195 15.6666 8.79728 15.2526 8.94195 14.6119C8.44328 15.0979 7.66795 14.9999 6.99328 15.6379C7.07328 14.9306 8.32795 14.7119 8.57128 14.1013C8.00261 14.5026 7.25195 14.2846 6.48595 14.8093C6.67528 14.1233 7.94861 14.1033 8.28461 13.5386C7.65995 13.8473 6.95328 13.5153 6.11395 13.9126C6.40861 13.2653 7.66928 13.4439 8.08995 12.9386C7.42461 13.1446 6.77861 12.7066 5.88728 12.9673C6.27928 12.3753 7.49661 12.7486 7.99061 12.3153C7.30128 12.4153 6.73195 11.8806 5.81128 11.9999C6.29128 11.4759 7.43461 12.0353 7.99061 11.6846C7.29461 11.6753 6.81528 11.0579 5.88728 11.0319C6.44328 10.5886 7.48528 11.3206 8.08995 11.0606C7.40328 10.9426 7.02661 10.2586 6.11461 10.0873C6.73328 9.73661 7.64795 10.6226 8.28528 10.4606C7.62528 10.2366 7.36061 9.50195 6.48595 9.18995C7.15195 8.94061 7.91661 9.95861 8.57128 9.89861C7.95461 9.57395 7.80861 8.80661 6.99328 8.36195C7.68995 8.21995 8.28595 9.34528 8.94261 9.38795C8.38461 8.97128 8.35928 8.19061 7.62395 7.62395C8.33395 7.59261 8.74661 8.79728 9.38861 8.94195C8.90261 8.44328 8.99995 7.66795 8.36195 6.99328C9.06795 7.07328 9.28795 8.32795 9.89928 8.57128C9.49661 8.00261 9.71461 7.25261 9.19061 6.48595C9.87595 6.67528 9.89661 7.94861 10.4619 8.28461C10.1539 7.65995 10.4859 6.95328 10.0879 6.11461C10.7346 6.40861 10.5559 7.66928 11.0619 8.08995C10.8553 7.42461 11.2946 6.77861 11.0326 5.88728C11.6259 6.27928 11.2513 7.49661 11.6853 7.99061C11.5846 7.30128 12.1193 6.73195 12.0006 5.81128C12.5246 6.29061 11.9646 7.43461 12.3153 7.99061Z" fill="#FFCC4D"/>
<path d="M12.0007 15.2707C12.4302 15.2706 12.8555 15.1859 13.2523 15.0215C13.6491 14.857 14.0096 14.616 14.3132 14.3123C14.6169 14.0085 14.8577 13.6479 15.022 13.2511C15.1863 12.8542 15.2708 12.4289 15.2707 11.9994C15.2706 11.5699 15.1859 11.1446 15.0215 10.7478C14.857 10.351 14.616 9.9905 14.3123 9.68685C14.0085 9.38321 13.6479 9.14237 13.2511 8.97808C12.8542 8.81379 12.4289 8.72928 11.9994 8.72937C11.1319 8.72955 10.3001 9.0743 9.68685 9.6878C9.07361 10.3013 8.72919 11.1333 8.72937 12.0007C8.72955 12.8681 9.0743 13.7 9.6878 14.3132C10.3013 14.9265 11.1333 15.2709 12.0007 15.2707Z" fill="#E8112D"/>
<path d="M12 8.96729C12.8347 8.96729 13.5847 9.32462 14.1067 9.89595C13.2873 9.97862 12.5927 10.172 12 10.466C11.4073 10.172 10.712 9.97862 9.89402 9.89595C10.1609 9.60292 10.4862 9.36893 10.8488 9.209C11.2115 9.04907 11.6036 8.96674 12 8.96729ZM11.7847 10.582C11.7193 10.6184 11.6549 10.6564 11.5913 10.696C11.06 10.414 10.4233 10.232 9.66668 10.178C9.7012 10.1291 9.73744 10.0815 9.77535 10.0353C10.5613 10.1053 11.2247 10.2933 11.7847 10.582ZM12.2173 10.582C12.2833 10.6186 12.3473 10.6566 12.41 10.696C12.942 10.414 13.578 10.232 14.3347 10.178C14.3004 10.1291 14.2644 10.0815 14.2267 10.0353C13.44 10.1053 12.7773 10.2933 12.2173 10.582ZM9.57135 10.3246C9.54111 10.3737 9.51243 10.4237 9.48535 10.4746C10.1893 10.4906 10.78 10.6533 11.2653 10.9213C11.316 10.883 11.3676 10.8459 11.42 10.81C10.9133 10.5333 10.3007 10.3606 9.57135 10.3246ZM9.48468 13.1633C9.23935 12.7413 9.14868 12.342 9.14868 11.8193C9.14868 11.3926 9.24068 10.99 9.40735 10.628C10.0887 10.6233 10.6587 10.772 11.124 11.0306C10.4353 11.5953 9.87602 12.2566 9.48468 13.1633ZM10.838 14.422C10.71 14.3726 10.5707 14.2333 10.452 14.1666C10.5193 13.0953 11.0207 12.214 11.7193 11.4726C11.7713 11.5233 11.8213 11.574 11.8693 11.628C11.22 12.3873 10.8027 13.3726 10.838 14.422ZM14.4307 10.3246C14.4607 10.3733 14.4893 10.4233 14.5167 10.4746C13.812 10.4906 13.2213 10.6533 12.7367 10.9213C12.6859 10.8828 12.6341 10.8457 12.5813 10.81C13.0887 10.5333 13.7007 10.3606 14.4307 10.3246Z" fill="#FFCC4D"/>
<path d="M14.5167 13.1639C14.7613 12.7419 14.8527 12.3419 14.8527 11.8192C14.8527 11.3926 14.76 10.9899 14.5933 10.6279C13.9127 10.6232 13.342 10.7719 12.8767 11.0306C13.5667 11.5952 14.1267 12.2572 14.5167 13.1639ZM12.0007 11.8719C12.512 12.6946 12.61 13.5946 12.582 14.6112C12.36 14.6659 12.24 14.6712 12.0007 14.6712C11.7613 14.6712 11.6413 14.6659 11.4193 14.6112C11.3913 13.6466 11.4893 12.7259 12.0007 11.8719ZM13.16 14.4219C13.2873 14.3726 13.4307 14.2746 13.5493 14.2086C13.482 13.1372 12.98 12.2139 12.2813 11.4732C12.2299 11.5234 12.1801 11.5752 12.132 11.6286C12.7827 12.3872 13.1953 13.3726 13.16 14.4219ZM11.5493 11.3206C11.4863 11.2685 11.4212 11.2191 11.354 11.1726C10.6307 11.8139 10.0933 12.5592 9.79199 13.5692C9.90333 13.6966 9.90133 13.7906 10.0333 13.8959C10.22 12.8339 10.8247 12.0212 11.5493 11.3206ZM12.4527 11.3206C12.5133 11.2706 12.582 11.2179 12.648 11.1726C13.3713 11.8139 13.9067 12.5726 14.2087 13.5832C14.0967 13.7106 14.0807 13.7912 13.9473 13.8966C13.7613 12.8339 13.1773 12.0212 12.4527 11.3206ZM12.0007 10.7026C12.0367 10.7239 12.16 10.8012 12.1913 10.8219C12.1427 10.8519 12.0313 10.9272 12.0007 10.9479C11.9381 10.9044 11.8745 10.8624 11.81 10.8219C11.8413 10.8012 11.9647 10.7232 12.0007 10.7026ZM11.64 10.9406C11.5913 10.9772 11.5173 11.0339 11.4893 11.0579C11.5593 11.1039 11.6533 11.1752 11.6833 11.1986C11.72 11.1672 11.792 11.1032 11.8327 11.0739C11.7704 11.0267 11.7061 10.9822 11.64 10.9406ZM12.3613 10.9406C12.41 10.9772 12.484 11.0339 12.512 11.0579C12.4458 11.1027 12.3811 11.1496 12.318 11.1986C12.282 11.1672 12.2093 11.1032 12.1687 11.0739C12.2187 11.0372 12.324 10.9612 12.3613 10.9406ZM12.0007 11.2066C12.032 11.2332 12.1247 11.3152 12.1493 11.3399C12.0975 11.3855 12.0479 11.4336 12.0007 11.4839C11.9538 11.4334 11.9044 11.3854 11.8527 11.3399C11.8767 11.3152 11.97 11.2339 12.0007 11.2066Z" fill="#FFCC4D"/>
</svg>
