<svg width="64" height="64" viewBox="0 0 64 64" fill="none" xmlns="http://www.w3.org/2000/svg">
<rect width="64" height="64" rx="10" fill="#756FB3" fill-opacity="0.25"/>
<path d="M42 36V24C42 23.4696 41.7893 22.9609 41.4142 22.5858C41.0391 22.2107 40.5304 22 40 22H28C27.4696 22 26.9609 22.2107 26.5858 22.5858C26.2107 22.9609 26 23.4696 26 24V36C26 36.5304 26.2107 37.0391 26.5858 37.4142C26.9609 37.7893 27.4696 38 28 38H40C40.5304 38 41.0391 37.7893 41.4142 37.4142C41.7893 37.0391 42 36.5304 42 36ZM31 32L33.03 34.71L36 31L40 36H28M22 26V40C22 40.5304 22.2107 41.0391 22.5858 41.4142C22.9609 41.7893 23.4696 42 24 42H38V40H24V26" fill="#756FB3"/>
</svg>
