<svg width="56" height="14" viewBox="0 0 56 14" fill="none" xmlns="http://www.w3.org/2000/svg">
<path d="M22.1 8.19995L25.19 12H22.75L20 8.51003V12H18V2.00003H20V7.88003L22.54 4.99997H25.09L22.1 8.19995ZM14.1 4.80003C13.6621 4.80659 13.2323 4.91918 12.8474 5.12816C12.4625 5.33714 12.134 5.63629 11.89 5.99998V4.99997H10V12H12V8.72998C11.9737 8.49264 11.9966 8.25242 12.0672 8.0243C12.1377 7.79617 12.2545 7.58501 12.4102 7.40397C12.5659 7.22293 12.7573 7.07587 12.9723 6.97196C13.1873 6.86804 13.4213 6.80949 13.66 6.79995C14.82 6.79995 15 7.93997 15 8.72998V12H17V8.28997C17 6.09 16.27 4.80003 14.14 4.80003H14.1ZM32 8.65998C32.0076 8.80655 32.0076 8.95344 32 9.1H26.75V9.17C26.8352 9.58701 27.0662 9.96 27.4016 10.2221C27.737 10.4841 28.1548 10.6181 28.58 10.6C28.9174 10.6146 29.2542 10.5611 29.5704 10.4426C29.8865 10.324 30.1755 10.1429 30.42 9.91003L31.75 10.91C31.3285 11.3402 30.8215 11.6772 30.2617 11.8994C29.7019 12.1216 29.1018 12.224 28.5 12.2C28.0016 12.2315 27.5022 12.1557 27.0357 11.9777C26.5691 11.7996 26.1462 11.5236 25.7955 11.1681C25.4447 10.8126 25.1744 10.386 25.0027 9.91711C24.8309 9.4482 24.7618 8.94789 24.8 8.44998C24.7898 7.95846 24.8809 7.4701 25.0677 7.01533C25.2544 6.56056 25.5329 6.14914 25.8856 5.8067C26.2384 5.46426 26.6579 5.19816 27.118 5.02496C27.5781 4.85177 28.069 4.7752 28.56 4.80003C30.44 4.80003 32 6.13003 32 8.65998ZM30.14 7.79997C30.1327 7.60189 30.0851 7.40739 30.0001 7.22831C29.9151 7.04923 29.7946 6.88932 29.6459 6.75833C29.4971 6.62735 29.3232 6.52802 29.1348 6.46641C28.9464 6.4048 28.7475 6.38219 28.55 6.39997C27.6707 6.30492 26.8743 6.92431 26.75 7.79997H30.14ZM2.00003 2.00003H0V12H5.99998V10.0002H2.00003V2.00003ZM38 2.00003H40V12H38.11V11.3C37.87 11.5957 37.5641 11.8311 37.2168 11.9873C36.8696 12.1436 36.4905 12.2165 36.11 12.2C35.6452 12.1881 35.1877 12.0812 34.7657 11.886C34.3437 11.6907 33.9661 11.4113 33.6561 11.0647C33.3461 10.7182 33.1102 10.3119 32.963 9.87081C32.8158 9.42976 32.7603 8.96325 32.8 8.49997C32.7528 8.03603 32.8027 7.56735 32.9465 7.12374C33.0903 6.68013 33.3248 6.27131 33.6352 5.92329C33.9456 5.57527 34.3251 5.29567 34.7494 5.10229C35.1737 4.9089 35.6337 4.80597 36.1 4.80003C36.4473 4.78481 36.7942 4.83887 37.1204 4.95905C37.4466 5.07923 37.7456 5.26313 38 5.50003V2.00003ZM38.15 8.49997C38.1814 8.26905 38.163 8.03408 38.0959 7.8109C38.0289 7.58771 37.9147 7.3815 37.7612 7.20617C37.6077 7.03085 37.4183 6.89048 37.206 6.79454C36.9936 6.69859 36.7631 6.64931 36.53 6.65C35.5733 6.71945 34.8484 7.54217 34.9 8.49997C34.8484 9.45777 35.5733 10.2806 36.53 10.35C36.7631 10.3507 36.9936 10.3015 37.206 10.2055C37.4184 10.1096 37.6077 9.96918 37.7612 9.79384C37.9148 9.6185 38.0289 9.41227 38.096 9.18908C38.163 8.96588 38.1815 8.73089 38.15 8.49997ZM8.00002 1.79998C7.6784 1.80454 7.3705 1.93097 7.13848 2.15373C6.90646 2.37649 6.76761 2.67899 6.74997 3.00016C6.74997 3.69042 7.30964 4.25009 8.00002 4.25009C8.69039 4.25009 9.24984 3.69031 9.24984 3.00016C9.23218 2.67903 9.09333 2.37657 8.86134 2.15383C8.62934 1.9311 8.32148 1.80468 7.99991 1.80009L8.00002 1.79998ZM7 12H9.00003V4.99997H7V12ZM56 1.00002V13C56 13.2652 55.8946 13.5196 55.7071 13.7071C55.5196 13.8946 55.2652 14 55 14H43C42.7348 14 42.4804 13.8946 42.2929 13.7071C42.1054 13.5196 42 13.2652 42 13V1.00002C42 0.734795 42.1054 0.480437 42.2929 0.292898C42.4804 0.105358 42.7348 0 43 0L55 0C55.2652 0 55.5196 0.105358 55.7071 0.292898C55.8946 0.480437 56 0.734795 56 1.00002ZM46 4.99997H44V12H46V4.99997ZM46.25 3.00005C46.25 2.30967 45.6903 1.75 45 1.75C44.3097 1.75 43.75 2.30967 43.75 3.00005C43.75 3.69031 44.3097 4.24998 45 4.24998C45.6903 4.24998 46.25 3.69031 46.25 3.00005ZM54 8.28997C54 6.09 53.27 4.80003 51.14 4.80003C50.6953 4.80007 50.2574 4.90955 49.865 5.11882C49.4726 5.32808 49.1378 5.63071 48.89 5.99998V4.99997H47V12H49V8.72998C48.9737 8.49264 48.9966 8.25242 49.0672 8.0243C49.1378 7.79617 49.2546 7.58501 49.4103 7.40397C49.566 7.22293 49.7573 7.07587 49.9723 6.97196C50.1873 6.86804 50.4214 6.80949 50.66 6.79995C51.82 6.79995 52 7.93997 52 8.72998V12H54V8.28997Z" fill="#0A66C2"/>
</svg>
