<svg width="32" height="32" viewBox="0 0 32 32" fill="none" xmlns="http://www.w3.org/2000/svg">
<path d="M12 13.3333V16H9.33333V13.3333H12ZM17.3333 13.3333V16H14.6667V13.3333H17.3333ZM22.6667 13.3333V16H20V13.3333H22.6667ZM25.3333 4.00001C26.0406 4.00001 26.7189 4.28096 27.219 4.78106C27.719 5.28116 28 5.95943 28 6.66668V25.3333C28 26.0406 27.719 26.7189 27.219 27.219C26.7189 27.7191 26.0406 28 25.3333 28H6.66667C5.95942 28 5.28115 27.7191 4.78105 27.219C4.28095 26.7189 4 26.0406 4 25.3333V6.66668C4 5.95943 4.28095 5.28116 4.78105 4.78106C5.28115 4.28096 5.95942 4.00001 6.66667 4.00001H8V1.33334H10.6667V4.00001H21.3333V1.33334H24V4.00001H25.3333ZM25.3333 25.3333V10.6667H6.66667V25.3333H25.3333ZM12 18.6667V21.3333H9.33333V18.6667H12ZM17.3333 18.6667V21.3333H14.6667V18.6667H17.3333ZM22.6667 18.6667V21.3333H20V18.6667H22.6667Z" fill="#252525"/>
</svg>
