<svg width="32" height="32" viewBox="0 0 32 32" fill="none" xmlns="http://www.w3.org/2000/svg">
<path d="M18 10.6667H16V17.3333L21.7067 20.72L22.6667 19.1067L18 16.3333V10.6667ZM17.3333 4C14.1507 4 11.0985 5.26428 8.84806 7.51472C6.59763 9.76515 5.33334 12.8174 5.33334 16H1.33334L6.61334 21.3733L12 16H8.00001C8.00001 13.5246 8.98334 11.1507 10.7337 9.40034C12.484 7.65 14.858 6.66667 17.3333 6.66667C19.8087 6.66667 22.1827 7.65 23.933 9.40034C25.6833 11.1507 26.6667 13.5246 26.6667 16C26.6667 18.4754 25.6833 20.8493 23.933 22.5997C22.1827 24.35 19.8087 25.3333 17.3333 25.3333C14.76 25.3333 12.4267 24.28 10.7467 22.5867L8.85334 24.48C9.96197 25.6008 11.2829 26.4894 12.7389 27.0938C14.195 27.6982 15.7569 28.0063 17.3333 28C20.5159 28 23.5682 26.7357 25.8186 24.4853C28.0691 22.2348 29.3333 19.1826 29.3333 16C29.3333 12.8174 28.0691 9.76515 25.8186 7.51472C23.5682 5.26428 20.5159 4 17.3333 4Z" fill="#252525"/>
</svg>
