<svg width="32" height="32" viewBox="0 0 32 32" fill="none" xmlns="http://www.w3.org/2000/svg">
<rect width="32" height="32" rx="12" fill="#756FB3"/>
<path d="M25 14V13L19 7H9C7.89 7 7 7.89 7 9V23C7 23.5304 7.21071 24.0391 7.58579 24.4142C7.96086 24.7893 8.46957 25 9 25H15V23.13L23.39 14.74C23.83 14.3 24.39 14.06 25 14ZM18 8.5L23.5 14H18V8.5ZM26.85 18.19L25.87 19.17L23.83 17.13L24.81 16.15C25 15.95 25.33 15.95 25.53 16.15L26.85 17.47C27.05 17.67 27.05 18 26.85 18.19ZM23.13 17.83L25.17 19.87L19.04 26H17V23.96L23.13 17.83Z" fill="white"/>
</svg>
