<svg width="56" height="19" viewBox="0 0 56 19" fill="none" xmlns="http://www.w3.org/2000/svg">
<g clip-path="url(#clip0_1758_5167)">
<path d="M28.9618 5.94364C28.9299 8.53359 31.2069 9.97879 32.9221 10.8381C34.6843 11.7197 35.2763 12.2851 35.2693 13.0736C35.2562 14.2802 33.8636 14.8128 32.5605 14.8335C30.287 14.8697 28.9651 14.2024 27.9142 13.6977L27.0952 17.6377C28.1496 18.1372 30.102 18.5729 32.1265 18.592C36.8788 18.592 39.9879 16.1802 40.0048 12.4408C40.0234 7.69494 33.6199 7.43225 33.6637 5.311C33.6788 4.66779 34.2757 3.98139 35.5838 3.80687C36.2313 3.71871 38.0187 3.65124 40.0452 4.61066L40.8406 0.798615C39.7508 0.390648 38.3502 -3.8147e-06 36.6063 -3.8147e-06C32.1333 -3.8147e-06 28.9872 2.44465 28.9618 5.94364ZM48.4833 0.32835C47.6155 0.32835 46.8843 0.848766 46.5579 1.64738L39.7694 18.312H44.5182L45.4632 15.6269H51.2663L51.8144 18.312H56L52.3475 0.32835H48.4833ZM49.1477 5.18641L50.5181 11.9395H46.7648L49.1477 5.18641ZM23.2041 0.328573L19.4609 18.3118H23.9862L27.7277 0.328125H23.2041M16.5097 0.328125L11.7996 12.5687L9.89428 2.16106C9.67072 0.999226 8.78784 0.32835 7.80741 0.32835H0.107844L0 0.850565C1.58069 1.20321 3.37663 1.77198 4.46469 2.38056C5.13056 2.75232 5.32044 3.0773 5.53919 3.9607L9.14791 18.312H13.93L21.2616 0.32835L16.5097 0.328125Z" fill="url(#paint0_linear_1758_5167)"/>
</g>
<defs>
<linearGradient id="paint0_linear_1758_5167" x1="2574.54" y1="55.8875" x2="2629.87" y2="-1853.45" gradientUnits="userSpaceOnUse">
<stop stop-color="#222357"/>
<stop offset="1" stop-color="#254AA5"/>
</linearGradient>
<clipPath id="clip0_1758_5167">
<rect width="56" height="18.6667" fill="white"/>
</clipPath>
</defs>
</svg>
