<svg width="25" height="22" viewBox="0 0 25 22" fill="none" xmlns="http://www.w3.org/2000/svg">
<path d="M14.75 6.33333H13V12.1667L17.9933 15.13L18.8333 13.7183L14.75 11.2917V6.33333ZM14.1667 0.5C11.3819 0.5 8.71118 1.60625 6.74205 3.57538C4.77292 5.54451 3.66667 8.21523 3.66667 11H0.166672L4.78667 15.7017L9.5 11H6C6 8.83407 6.86042 6.75684 8.39197 5.22529C9.92351 3.69375 12.0007 2.83333 14.1667 2.83333C16.3326 2.83333 18.4098 3.69375 19.9414 5.22529C21.4729 6.75684 22.3333 8.83407 22.3333 11C22.3333 13.1659 21.4729 15.2432 19.9414 16.7747C18.4098 18.3063 16.3326 19.1667 14.1667 19.1667C11.915 19.1667 9.87334 18.245 8.40334 16.7633L6.74667 18.42C7.71672 19.4007 8.87255 20.1782 10.1466 20.7071C11.4206 21.2359 12.7873 21.5055 14.1667 21.5C16.9514 21.5 19.6222 20.3938 21.5913 18.4246C23.5604 16.4555 24.6667 13.7848 24.6667 11C24.6667 8.21523 23.5604 5.54451 21.5913 3.57538C19.6222 1.60625 16.9514 0.5 14.1667 0.5Z" fill="#252525"/>
</svg>
