<svg width="17" height="15" viewBox="0 0 17 15" fill="none" xmlns="http://www.w3.org/2000/svg">
<path d="M12.125 9.615L13.955 10.6725L13.3925 11.6475L11 10.2675V7.5H12.125V9.615ZM17 9.75C17 12.6525 14.6525 15 11.75 15C8.8475 15 6.5 12.6525 6.5 9.75C6.5 9.495 6.5225 9.2475 6.56 9H0.5V0H14V5.01C15.77 5.8575 17 7.6575 17 9.75ZM7.01 7.5C7.145 7.23 7.2875 6.975 7.46 6.7275C7.3925 6.75 7.325 6.75 7.25 6.75C6.005 6.75 5 5.745 5 4.5C5 3.255 6.005 2.25 7.25 2.25C8.495 2.25 9.5 3.255 9.5 4.5C9.5 4.6875 9.47 4.875 9.425 5.0475C10.13 4.7025 10.9175 4.5 11.75 4.5C12.005 4.5 12.2525 4.5225 12.5 4.56V3C12.1022 3 11.7206 2.84196 11.4393 2.56066C11.158 2.27936 11 1.89782 11 1.5H3.5C3.5 2.3325 2.8325 3 2 3V6C2.39782 6 2.77936 6.15804 3.06066 6.43934C3.34196 6.72064 3.5 7.10217 3.5 7.5H7.01ZM15.5 9.75C15.5 7.68 13.82 6 11.75 6C9.68 6 8 7.68 8 9.75C8 11.82 9.68 13.5 11.75 13.5C13.82 13.5 15.5 11.82 15.5 9.75Z" fill="#252525"/>
</svg>
