<svg width="20" height="20" viewBox="0 0 20 20" fill="none" xmlns="http://www.w3.org/2000/svg">
<path d="M0 10C0 12.6522 1.05357 15.1957 2.92893 17.0711C4.8043 18.9464 7.34784 20 10 20C11.3132 20 12.6136 19.7413 13.8268 19.2388C15.0401 18.7362 16.1425 17.9997 17.0711 17.0711C18.9464 15.1957 20 12.6522 20 10C20 7.34784 18.9464 4.8043 17.0711 2.92893C15.1957 1.05357 12.6522 0 10 0C8.68678 0 7.38642 0.258658 6.17317 0.761205C4.95991 1.26375 3.85752 2.00035 2.92893 2.92893C2.00035 3.85752 1.26375 4.95991 0.761204 6.17317C0.258657 7.38642 0 8.68678 0 10ZM12 16L6 10L12 4L13.4 5.4L8.8 10L13.4 14.6L12 16Z" fill="#756FB3"/>
</svg>
