<svg width="94" height="97" viewBox="0 0 94 97" fill="none" xmlns="http://www.w3.org/2000/svg">
<path d="M92.7764 12.3349V26.6791H71.3575L70.5857 12.4354L92.7764 12.3349Z" fill="#E0E0E0"/>
<path d="M70.5857 12.4332V26.6485H92.0045V12.4332L70.5857 12.4332Z" fill="#AAAAAA"/>
<path d="M92.1045 26.7468H70.4768V12.3328H92.0977L92.1045 26.7468ZM70.6879 26.5524H91.9025V12.5402H70.6879V26.5524Z" fill="#E0E0E0"/>
<path d="M89.6842 14.2H72.9055V24.8839H89.6842V14.2Z" fill="#AAAAAA"/>
<path d="M89.6846 14.2H89.6006H89.3623H88.4406L84.9832 14.2131L72.906 14.2372L72.9536 14.1891C72.9536 17.465 72.9536 21.0707 72.9536 24.8708L72.9014 24.8206H89.6801L89.637 24.8621C89.637 21.6102 89.6551 18.9458 89.6597 17.0894C89.6597 16.1612 89.6597 15.4362 89.671 14.9404C89.671 14.6936 89.671 14.5036 89.671 14.3748C89.671 14.2459 89.671 14.1782 89.671 14.1782C89.671 14.1782 89.671 14.2415 89.671 14.366C89.671 14.4905 89.671 14.6805 89.671 14.9229C89.671 15.4187 89.671 16.1394 89.6824 17.0632C89.6824 18.9261 89.6937 21.5992 89.7028 24.8621V24.9014H89.6619L72.8833 24.9123H72.8311V24.8621C72.8311 21.062 72.8311 17.4366 72.8311 14.1804V14.1345H72.881L84.99 14.1564L88.4361 14.1695H89.3441H89.6551L89.6846 14.2Z" fill="#E0E0E0"/>
<path d="M70.5857 12.3939C70.7167 12.4527 70.8401 12.526 70.9535 12.6123C71.1805 12.7652 71.471 12.9814 71.7934 13.2282C72.1158 13.475 72.3995 13.7108 72.5993 13.8834C72.7147 13.9705 72.8177 14.0719 72.9058 14.1848C72.4981 13.9128 72.1048 13.6212 71.7276 13.3112C71.3266 13.0296 70.9452 12.7232 70.5857 12.3939Z" fill="#E0E0E0"/>
<path d="M92.0046 12.4354C91.6493 12.7679 91.27 13.0759 90.8696 13.3571C90.4934 13.6647 90.0951 13.9464 89.6777 14.2001C90.0327 13.8671 90.412 13.5591 90.8128 13.2784C91.1874 12.9689 91.5858 12.6871 92.0046 12.4354Z" fill="#E0E0E0"/>
<path d="M91.9863 26.6507L89.5981 24.79L91.9863 26.6507Z" fill="#AAAAAA"/>
<path d="M89.5981 24.79C90.0278 25.0602 90.4381 25.3578 90.8263 25.681C91.2349 25.9792 91.6224 26.3031 91.9863 26.6507C91.556 26.3814 91.1456 26.0837 90.7582 25.7597C90.349 25.4622 89.9614 25.1383 89.5981 24.79Z" fill="#E0E0E0"/>
<path d="M70.5857 26.6507C70.9332 26.3196 71.3057 26.0137 71.7003 25.7356C72.0726 25.4315 72.4671 25.1534 72.8808 24.9036C72.5322 25.2329 72.1598 25.538 71.7662 25.8165C71.394 26.1215 70.9995 26.4003 70.5857 26.6507Z" fill="#E0E0E0"/>
<path d="M76.3132 17.5283V21.1057H86.8694V17.5283H76.3132Z" fill="#E0E0E0"/>
<path d="M33.5662 4.29364C33.5662 4.29364 33.5481 4.29364 33.514 4.27835L33.3619 4.22157L32.7898 4.00317L30.6922 3.12959L23.7887 0.235866L23.5503 0.135405H23.6003L16.8352 2.91775L14.7921 3.74328L14.2336 3.96168C14.17 3.98978 14.1039 4.01244 14.0361 4.02938C14.0967 3.99533 14.1596 3.96541 14.2246 3.93984L14.7717 3.6996L16.8148 2.82603L23.5639 0.0109196L23.5889 0L23.6139 0.0109196L23.8523 0.111381L30.7399 3.03787L32.8239 3.93766L33.3869 4.18663L33.5322 4.25433C33.5444 4.26667 33.5558 4.27981 33.5662 4.29364Z" fill="#E0E0E0"/>
<path d="M44.3337 3.34149H0V35.2773H44.3337V3.34149Z" fill="#E0E0E0"/>
<path d="M42.9512 4.82648H1.55054V33.9647H42.9512V4.82648Z" fill="#FAFAFA"/>
<path d="M10.6946 17.5632C10.6946 17.5632 10.7377 22.4553 10.9965 23.9469L17.3734 23.6564C17.3734 23.6564 16.8126 18.8518 17.0283 17.5632H10.6946Z" fill="#E0E0E0"/>
<path d="M13.8341 18.2491C13.8341 18.2491 13.8341 18.2491 13.8591 18.2491H13.9272C14.016 18.2459 14.1049 18.2502 14.1928 18.2622C14.3332 18.2824 14.47 18.3213 14.5992 18.3779C14.7687 18.4593 14.9187 18.5739 15.0396 18.7142C15.1864 18.887 15.2911 19.0893 15.3461 19.3061C15.395 19.56 15.3714 19.8219 15.278 20.0639C15.23 20.1947 15.17 20.3212 15.0986 20.4417C15.0282 20.5662 14.9556 20.6885 14.8943 20.8239C14.7669 21.1022 14.6805 21.3962 14.6378 21.6975V21.7172H14.6173L13.9885 21.7281H13.3279H13.3052V21.7128C13.2777 21.4133 13.1731 21.1251 13.001 20.8742C12.9238 20.7497 12.8398 20.6317 12.7604 20.5116C12.6809 20.3915 12.5992 20.2932 12.5333 20.16C12.4156 19.9284 12.3805 19.6659 12.4335 19.4131C12.4698 19.195 12.5533 18.9867 12.6786 18.8016C12.7876 18.6533 12.9295 18.5303 13.0941 18.4412C13.2169 18.3765 13.3482 18.328 13.4845 18.2971C13.5703 18.2767 13.6576 18.2628 13.7456 18.2556H13.8137C13.8296 18.2556 13.8364 18.2556 13.8364 18.2556H13.8137H13.7456C13.659 18.2657 13.5733 18.2817 13.4891 18.3037C13.3548 18.3374 13.2258 18.388 13.1054 18.4543C12.946 18.5425 12.8095 18.6642 12.7059 18.8103C12.5877 18.9932 12.5104 19.1977 12.4789 19.4109C12.4293 19.6559 12.4644 19.9098 12.5787 20.1338C12.6483 20.2531 12.7241 20.369 12.8058 20.481C12.8829 20.5968 12.9692 20.7169 13.0464 20.8436C13.2239 21.1007 13.3316 21.3966 13.3597 21.7041L13.337 21.68H13.9976H14.6264L14.6037 21.7019C14.6483 21.3967 14.737 21.099 14.8671 20.8174C14.9284 20.682 15.0033 20.5531 15.0736 20.4308C15.1459 20.3133 15.2053 20.1889 15.2507 20.0595C15.3432 19.8202 15.3645 19.5608 15.312 19.3105C15.2607 19.0989 15.1606 18.9011 15.0192 18.7317C14.9023 18.5932 14.757 18.4795 14.5924 18.3976C14.4665 18.3397 14.3327 18.2993 14.1951 18.2774C14.1079 18.2646 14.0199 18.2573 13.9318 18.2556H13.8387L13.8341 18.2491Z" fill="#AAAAAA"/>
<path d="M14.1633 21.656C14.1629 21.6494 14.1629 21.6429 14.1633 21.6363V21.5795C14.1633 21.5293 14.1429 21.4551 14.127 21.3611C14.0998 21.1711 14.0566 20.8938 14.0271 20.5509C14.0271 20.4657 14.0271 20.3762 14.0112 20.2823C13.9953 20.1884 14.0112 20.0901 14.0112 19.9874C14.0145 19.8819 14.0391 19.7781 14.0839 19.6817C14.1313 19.5771 14.2181 19.4936 14.3268 19.448C14.3847 19.4246 14.4486 19.4181 14.5104 19.4294C14.5721 19.4406 14.6291 19.4691 14.6741 19.5113C14.6975 19.5332 14.7162 19.5594 14.729 19.5882C14.7419 19.6171 14.7487 19.6481 14.749 19.6795C14.7469 19.743 14.7239 19.8042 14.6832 19.8542C14.6431 19.9062 14.59 19.9475 14.5288 19.9743C14.4689 20.0018 14.4056 20.0216 14.3404 20.0333C14.2083 20.0607 14.0737 20.076 13.9386 20.0792C13.8028 20.0836 13.6669 20.0771 13.5322 20.0595C13.4663 20.0511 13.4021 20.0334 13.3415 20.0071C13.2809 19.9812 13.2261 19.9441 13.1804 19.8979C13.1347 19.8522 13.1026 19.7957 13.0873 19.7341C13.0741 19.6722 13.082 19.6078 13.11 19.5507C13.1368 19.4945 13.1846 19.4501 13.2439 19.4262C13.3021 19.4031 13.3674 19.4031 13.4255 19.4262C13.4806 19.4508 13.5276 19.4893 13.5617 19.5375C13.5936 19.584 13.616 19.6359 13.6276 19.6904C13.6488 19.7933 13.6602 19.8978 13.6616 20.0027C13.6616 20.2037 13.6821 20.3915 13.6911 20.564C13.7093 20.9069 13.7229 21.1842 13.7343 21.3786C13.7343 21.4725 13.7343 21.5468 13.7343 21.597V21.6538C13.7348 21.6603 13.7348 21.6669 13.7343 21.6734C13.7333 21.6669 13.7333 21.6603 13.7343 21.6538C13.7343 21.6407 13.7343 21.621 13.7343 21.597C13.7343 21.573 13.7343 21.4725 13.7184 21.3786C13.7184 21.1864 13.6911 20.9069 13.6707 20.564C13.6707 20.3937 13.6503 20.2058 13.6367 20.0027C13.6349 19.8987 13.6242 19.795 13.6049 19.6926C13.592 19.6405 13.5697 19.591 13.539 19.5463C13.5062 19.5019 13.4625 19.4659 13.4119 19.4415C13.358 19.4208 13.2979 19.4208 13.2439 19.4415C13.1889 19.4631 13.1449 19.5047 13.1213 19.5572C13.0934 19.6097 13.0854 19.67 13.0986 19.7276C13.1134 19.7858 13.144 19.8393 13.1872 19.8826C13.2802 19.9701 13.4008 20.0254 13.53 20.0399C13.7961 20.0719 14.0658 20.0631 14.3291 20.0136C14.3934 20.0016 14.456 19.9818 14.5152 19.9547C14.5721 19.9281 14.6218 19.8892 14.6605 19.8411C14.699 19.7944 14.7205 19.7369 14.7218 19.6773C14.7225 19.6483 14.7168 19.6195 14.705 19.5928C14.6933 19.566 14.6758 19.542 14.6537 19.5223C14.6111 19.4828 14.5576 19.4561 14.4996 19.4452C14.4416 19.4344 14.3816 19.4399 14.3268 19.4611C14.2268 19.506 14.1464 19.5833 14.0998 19.6795C14.0559 19.7746 14.0312 19.8769 14.0271 19.9809C14.0271 20.0814 14.0271 20.1796 14.0271 20.2714C14.0271 20.3631 14.0271 20.4548 14.0407 20.5422C14.068 20.885 14.1088 21.1602 14.1361 21.3502C14.1361 21.4463 14.1588 21.5184 14.1656 21.5686V21.6254C14.1624 21.6353 14.1616 21.6458 14.1633 21.656Z" fill="#AAAAAA"/>
<path d="M13.3235 21.6888C13.3235 21.6888 13.3235 21.7652 13.3394 21.8919C13.3553 22.0186 13.3575 22.2173 13.3689 22.4226V22.4095L13.7979 22.8856H13.7775L14.2724 22.8594H14.252L14.4994 22.5689L14.622 22.4226V22.4423C14.622 22.1627 14.6084 21.8963 14.6016 21.656L14.6288 21.6801H13.7026H13.3348C13.3643 21.6773 13.3939 21.6773 13.4234 21.6801L13.6844 21.667L14.6288 21.632H14.6538V21.6582C14.6538 21.9006 14.6697 22.1649 14.6765 22.4444L14.5539 22.5886L14.3065 22.8791L13.8093 22.9031H13.7957L13.3757 22.4204C13.3757 22.202 13.3757 22.0273 13.3757 21.8744C13.3532 21.814 13.3357 21.7519 13.3235 21.6888Z" fill="#AAAAAA"/>
<path d="M14.6037 22.3791L14.5561 22.3595C14.514 22.3409 14.4708 22.3248 14.4267 22.3113C14.281 22.2621 14.1269 22.2399 13.9726 22.2457C13.8205 22.25 13.6705 22.2812 13.53 22.3376C13.4872 22.3541 13.4455 22.3731 13.4051 22.3945L13.3574 22.4163C13.3697 22.4042 13.3844 22.3946 13.4006 22.3879C13.44 22.3643 13.4809 22.3431 13.5231 22.3245C13.6665 22.2638 13.8207 22.2304 13.9772 22.226C14.1318 22.2229 14.2858 22.2474 14.4312 22.2982C14.4748 22.3137 14.5173 22.332 14.5583 22.3529C14.5743 22.3603 14.5895 22.3691 14.6037 22.3791Z" fill="#AAAAAA"/>
<path d="M14.6038 22.1891L14.5561 22.1694C14.5266 22.1563 14.4834 22.1388 14.4267 22.1191C14.1367 22.0226 13.8201 22.032 13.5368 22.1454C13.4823 22.1672 13.4392 22.1869 13.4097 22.2022C13.3801 22.2175 13.3665 22.2263 13.3643 22.2241L13.4074 22.1957C13.4467 22.1724 13.4876 22.152 13.53 22.1344C13.673 22.0727 13.8274 22.0393 13.984 22.036C14.1389 22.0299 14.2934 22.0545 14.438 22.1082C14.4825 22.1233 14.5258 22.1416 14.5674 22.1629C14.5804 22.1704 14.5926 22.1792 14.6038 22.1891Z" fill="#AAAAAA"/>
<path d="M14.5926 22.0057C14.5926 22.0057 14.5745 22.0057 14.545 21.9882C14.5154 21.9707 14.4723 21.9576 14.4156 21.9379C14.2695 21.89 14.1157 21.8678 13.9615 21.8723C13.8055 21.875 13.6515 21.9062 13.5075 21.9642C13.453 21.986 13.4099 22.0057 13.3804 22.021C13.3665 22.0306 13.3512 22.0379 13.335 22.0429L13.3781 22.0145C13.4169 21.9904 13.4579 21.9699 13.5007 21.9532C13.6438 21.8915 13.798 21.8573 13.9547 21.8526C14.1094 21.8492 14.2634 21.8736 14.4087 21.9248C14.4524 21.9409 14.4949 21.9599 14.5359 21.9817L14.5926 22.0057Z" fill="#AAAAAA"/>
<path d="M3.59131 9.5592C3.59131 9.5592 3.63444 14.4512 3.89324 15.9429L10.2701 15.6546C10.2701 15.6546 9.70936 10.8499 9.92502 9.5592H3.59131Z" fill="#EBEBEB"/>
<path d="M8.95574 11.6142C8.24799 11.7155 7.53471 11.7768 6.81953 11.798C6.10713 11.86 5.39157 11.8819 4.67651 11.8636C5.38413 11.7609 6.09746 11.6988 6.81272 11.6777C7.52521 11.617 8.24073 11.5958 8.95574 11.6142Z" fill="#AAAAAA"/>
<path d="M8.96697 12.6516C8.25905 12.7514 7.54585 12.8128 6.83076 12.8354C6.11828 12.8961 5.40276 12.9173 4.68774 12.8988C5.3955 12.7976 6.10878 12.7362 6.82395 12.7151C7.53636 12.653 8.25196 12.6319 8.96697 12.6516Z" fill="#AAAAAA"/>
<path d="M7.88174 13.6673C7.48274 13.7516 7.07569 13.7956 6.66721 13.7985C6.26039 13.8383 5.85043 13.8383 5.4436 13.7985C5.84358 13.7154 6.25125 13.6714 6.6604 13.6673C7.06647 13.6274 7.47568 13.6274 7.88174 13.6673Z" fill="#AAAAAA"/>
<path d="M3.28027 23.9514C3.28027 23.9514 3.32341 28.8412 3.5822 30.335L9.95905 30.0446C9.95905 30.0446 9.39832 25.2399 9.61399 23.9514H3.28027Z" fill="#EBEBEB"/>
<path d="M8.66277 26.0064C7.95486 26.1063 7.24166 26.1677 6.52657 26.1901C5.81408 26.2508 5.09856 26.272 4.38354 26.2536C5.0913 26.1523 5.80458 26.091 6.51975 26.0698C7.23207 26.0064 7.94776 25.9853 8.66277 26.0064Z" fill="#AAAAAA"/>
<path d="M8.66522 27.0416C7.95745 27.1427 7.24417 27.2041 6.52901 27.2253C5.8166 27.2874 5.101 27.3085 4.38599 27.2888C5.09374 27.1875 5.80702 27.1262 6.5222 27.105C7.23468 27.0443 7.95021 27.0231 8.66522 27.0416Z" fill="#AAAAAA"/>
<path d="M7.58023 28.0594C7.18101 28.1424 6.7741 28.1864 6.3657 28.1907C5.95885 28.2299 5.54894 28.2299 5.14209 28.1907C5.54204 28.1077 5.94978 28.0644 6.35889 28.0616C6.76488 28.0211 7.17409 28.0203 7.58023 28.0594Z" fill="#AAAAAA"/>
<path d="M20.7173 10.8564L21.3484 24.9647L39.6571 25.1766L38.8353 11.0421L20.7173 10.8564Z" fill="#EBEBEB"/>
<path d="M38.6923 10.7559H20.5061V23.9666H38.6923V10.7559Z" fill="#F5F5F5"/>
<path d="M38.6947 23.9666C38.6947 23.9666 38.6947 23.8814 38.6947 23.7198C38.6947 23.5582 38.6947 23.3223 38.6947 23.0166C38.6947 22.3964 38.6947 21.4878 38.6834 20.3434C38.6834 18.0394 38.6675 14.7438 38.6561 10.7559L38.7061 10.804H20.5222L20.5835 10.745C20.5835 15.4951 20.5835 19.994 20.5835 23.9557L20.5267 23.9011L33.6436 23.9273L37.3735 23.9426H38.3656H38.6221H38.7106H38.6289H38.3792H37.3985L33.68 23.9557L20.5267 23.9819H20.47V23.9273C20.47 19.9656 20.47 15.4667 20.47 10.7166V10.6555H20.5335H38.7174H38.7696V10.7057C38.7583 14.7067 38.7492 18.0132 38.7424 20.3151C38.7424 21.4616 38.7424 22.3592 38.7288 22.9773C38.7288 23.2787 38.7288 23.5102 38.7288 23.6718C38.7288 23.8334 38.6947 23.9666 38.6947 23.9666Z" fill="#E0E0E0"/>
<path d="M30.0704 13.5536H22.6992V22.4794H30.0704V13.5536Z" fill="#F5F5F5"/>
<path d="M30.0682 22.4793C30.0672 22.4641 30.0672 22.4487 30.0682 22.4335V22.3068C30.0682 22.1889 30.0682 22.0273 30.0682 21.8198C30.0682 21.383 30.0682 20.7693 30.0523 19.9875C30.0523 18.4172 30.0364 16.1939 30.025 13.5535L30.0795 13.6081H22.7083C22.6947 13.6213 22.8264 13.4946 22.7719 13.5492V14.1607C22.7719 14.366 22.7719 14.5691 22.7719 14.7722V15.9755C22.7719 16.7683 22.7719 17.5414 22.7719 18.2905C22.7719 19.7909 22.7719 21.1952 22.7719 22.4706L22.7197 22.4204L28.0568 22.4466L29.5551 22.4597H29.9524C30.0432 22.4597 30.0909 22.4597 30.0909 22.4597C30.0486 22.4628 30.0061 22.4628 29.9637 22.4597H29.5755L28.0909 22.4728L22.7197 22.499H22.6675V22.4488C22.6675 21.1733 22.6675 19.7691 22.6675 18.2687C22.6675 17.5196 22.6675 16.7399 22.6675 15.9537V13.5579L22.731 13.4968H30.1022H30.159V13.5492C30.159 16.2049 30.1385 18.439 30.1317 20.018C30.1317 20.7955 30.1317 21.4092 30.1158 21.8373C30.1158 22.0411 30.1158 22.2005 30.1158 22.3155C30.1158 22.3636 30.1158 22.4051 30.1158 22.4357C30.1158 22.4662 30.0682 22.4815 30.0682 22.4793Z" fill="#E0E0E0"/>
<path d="M37.1078 11.5115H22.9807V12.7979H37.1078V11.5115Z" fill="#F5F5F5"/>
<path d="M37.1056 12.7979C37.1023 12.7689 37.1023 12.7396 37.1056 12.7106C37.1056 12.6472 37.1056 12.5642 37.1056 12.4594C37.1056 12.241 37.1056 11.92 37.092 11.5116L37.1169 11.5356C34.7333 11.5574 29.3031 11.5727 22.9898 11.5727L23.0534 11.5116V12.7935L22.9898 12.7324L32.9966 12.7586L36.0023 12.7761H36.8196H37.0329H37.1101H37.042H36.8354H36.0318L33.042 12.7935L22.9807 12.8176H22.9194V11.5159L22.9807 11.457C29.294 11.457 34.7242 11.4701 37.1079 11.4919H37.1328V11.5159C37.1328 11.9309 37.1283 12.2519 37.1192 12.4791C37.1192 12.5817 37.1192 12.6603 37.1192 12.7237C37.1192 12.787 37.1056 12.8001 37.1056 12.7979Z" fill="#E0E0E0"/>
<path d="M37.1103 13.5536H30.9741V18.9326H37.1103V13.5536Z" fill="#F5F5F5"/>
<path d="M37.1055 18.9326C37.1029 18.8984 37.1029 18.8641 37.1055 18.8299V18.5373C37.1055 18.2752 37.1055 17.9061 37.0919 17.4453C37.0919 16.4997 37.076 15.1631 37.0647 13.5579L37.1191 13.6103H30.9897L31.051 13.5513V16.3905C31.051 17.2924 31.051 18.1376 31.051 18.937L30.9761 18.8736L35.4029 18.8998L36.6583 18.9151H36.992H37.1123C37.0768 18.9183 37.0411 18.9183 37.0056 18.9151H36.681L35.437 18.9282L30.9761 18.9566H30.9216V18.902C30.9216 18.1136 30.9216 17.2575 30.9216 16.3555V14.9993C30.9216 14.7634 30.9216 14.5232 30.9216 14.283V13.5557L30.9852 13.4946H37.1146H37.1668V13.5448C37.1555 15.1631 37.1464 16.5106 37.1396 17.4759C37.1396 17.9345 37.1396 18.2992 37.1259 18.5679C37.1259 18.6844 37.1259 18.7783 37.1259 18.8496C37.1224 18.8779 37.1155 18.9057 37.1055 18.9326Z" fill="#E0E0E0"/>
<path d="M37.1103 19.7756H30.9741V22.4794H37.1103V19.7756Z" fill="#F5F5F5"/>
<path d="M37.1057 22.4794C37.1006 22.4139 37.1006 22.3482 37.1057 22.2828V21.7412C37.1057 21.2629 37.0898 20.5968 37.0807 19.7756L37.1261 19.8193L30.9967 19.8368C30.9399 19.8914 31.0716 19.7625 31.058 19.7778V21.1646C31.058 21.6167 31.058 22.0557 31.058 22.475L30.999 22.4182L35.3872 22.4444L36.6653 22.4619H37.0103H37.1352C37.0982 22.465 37.061 22.465 37.0239 22.4619H36.6925L35.4258 22.4772L30.999 22.5034H30.9399V22.4466C30.9399 22.0273 30.9399 21.5883 30.9399 21.1362C30.9399 20.9178 30.9399 20.682 30.9399 20.4483V19.7494C30.9263 19.7494 31.0603 19.6337 31.0035 19.6883L37.1329 19.7036H37.1783V19.7451C37.167 20.5771 37.1602 21.2542 37.1533 21.7368C37.1533 21.9552 37.1533 22.1365 37.142 22.2697C37.1357 22.3404 37.1236 22.4105 37.1057 22.4794Z" fill="#E0E0E0"/>
<path d="M29.8888 13.5688C27.6073 16.6023 24.9807 19.448 22.6992 22.4793L29.8888 13.5688Z" fill="#AAAAAA"/>
<path d="M22.6992 22.4793C22.7143 22.4438 22.735 22.4106 22.7605 22.3811L22.9512 22.1081C23.1215 21.8722 23.3735 21.5381 23.689 21.1297C24.3246 20.3085 25.2304 19.199 26.2452 17.987C27.2599 16.7749 28.1771 15.6742 28.8286 14.8683L29.5959 13.9139L29.8071 13.654C29.857 13.5972 29.8842 13.5667 29.8888 13.5688C29.8735 13.605 29.8529 13.6389 29.8275 13.6693C29.7753 13.7436 29.714 13.8331 29.6368 13.9401C29.4665 14.176 29.2145 14.5101 28.899 14.9207C28.2656 15.7397 27.3576 16.8491 26.3428 18.0634C25.3281 19.2777 24.4109 20.374 23.7594 21.1799L22.9921 22.1365C22.9058 22.2391 22.8377 22.3243 22.7809 22.3942C22.7242 22.464 22.7038 22.4815 22.6992 22.4793Z" fill="#E0E0E0"/>
<path d="M30.0683 22.4794C30.041 22.5012 28.3702 20.5138 26.3339 18.0547C24.2975 15.5956 22.6698 13.5754 22.7016 13.5536C22.7334 13.5317 24.3997 15.5191 26.436 17.9804C28.4723 20.4418 30.0978 22.4597 30.0683 22.4794Z" fill="#E0E0E0"/>
<path d="M21.3485 13.5732C21.3485 13.7926 21.2808 14.0071 21.1541 14.1896C21.0274 14.372 20.8473 14.5142 20.6366 14.5982C20.4258 14.6822 20.1939 14.7041 19.9702 14.6613C19.7465 14.6185 19.5411 14.5128 19.3798 14.3577C19.2185 14.2025 19.1086 14.0048 19.0642 13.7896C19.0197 13.5744 19.0425 13.3513 19.1298 13.1486C19.2171 12.9459 19.3649 12.7726 19.5545 12.6507C19.7442 12.5288 19.9671 12.4637 20.1952 12.4637C20.5011 12.4637 20.7944 12.5806 21.0107 12.7887C21.227 12.9968 21.3485 13.2789 21.3485 13.5732Z" fill="#E0E0E0"/>
<path d="M40.2113 10.8804C40.2113 11.0998 40.1436 11.3143 40.0169 11.4968C39.8902 11.6792 39.7101 11.8214 39.4993 11.9054C39.2886 11.9893 39.0567 12.0113 38.833 11.9685C38.6093 11.9257 38.4038 11.82 38.2426 11.6649C38.0813 11.5097 37.9714 11.312 37.9269 11.0968C37.8824 10.8816 37.9053 10.6585 37.9926 10.4558C38.0799 10.2531 38.2277 10.0798 38.4173 9.95791C38.607 9.836 38.8299 9.77094 39.058 9.77094C39.3639 9.77094 39.6572 9.88782 39.8735 10.0959C40.0898 10.3039 40.2113 10.5861 40.2113 10.8804Z" fill="#E0E0E0"/>
<path d="M73.6778 87.812V92.7849H72.8152V93.3265H73.6778V96.6548H89.8118V93.6257H88.6177V92.9705H89.8118V91.9812H90.343V91.5313H89.7119V87.8186L73.6778 87.812Z" fill="#F5F5F5"/>
<path d="M85.5276 87.8273V96.598H89.8114V93.5689H88.6173V92.9661L89.8114 92.9858V91.9965H90.3539L90.3426 91.4854L89.7115 91.4701V87.812L85.5276 87.8273Z" fill="#E0E0E0"/>
<path d="M85.832 93.2551C85.832 93.2859 82.9126 93.3102 79.3121 93.3102C75.7116 93.3102 72.7922 93.2859 72.7922 93.2551C72.7922 93.2242 75.7116 93.2 79.3121 93.2C82.9126 93.2 85.832 93.2242 85.832 93.2551Z" fill="#E0E0E0"/>
<path d="M85.832 92.75C85.832 92.7806 82.9126 92.8047 79.3121 92.8047C75.7116 92.8047 72.7922 92.7806 72.7922 92.75C72.7922 92.7194 75.7116 92.6931 79.3121 92.6931C82.9126 92.6931 85.832 92.7194 85.832 92.75Z" fill="#E0E0E0"/>
<path d="M86.6696 91.3813C86.6696 91.4122 83.7502 91.4364 80.1497 91.4364C76.5493 91.4364 73.6299 91.4122 73.6299 91.3813C73.6299 91.3504 76.5493 91.3262 80.1497 91.3262C83.7502 91.3262 86.6696 91.3592 86.6696 91.3813Z" fill="#E0E0E0"/>
<path d="M86.7515 95.0935C86.7515 95.1241 83.8321 95.1504 80.2316 95.1504C76.6312 95.1504 73.7095 95.1241 73.7095 95.0935C73.7095 95.0629 76.6289 95.0388 80.2316 95.0388C83.8343 95.0388 86.7515 95.0651 86.7515 95.0935Z" fill="#E0E0E0"/>
<path d="M24.9649 72.0331H37.2736C37.6891 72.0331 38.0875 71.8744 38.3813 71.5918C38.675 71.3092 38.84 70.9259 38.84 70.5262V66.8768C38.84 66.543 38.7717 66.2124 38.6389 65.904C38.5061 65.5956 38.3115 65.3153 38.0661 65.0793C37.8207 64.8432 37.5294 64.656 37.2088 64.5282C36.8882 64.4005 36.5446 64.3347 36.1976 64.3347H24.8718L24.9649 72.0331Z" fill="#EBEBEB"/>
<path d="M37.0668 74.3285H12.8647C12.55 74.3262 12.2489 74.2045 12.027 73.9898C11.8051 73.7751 11.6803 73.4847 11.6797 73.182C11.6803 72.8775 11.8063 72.5856 12.0301 72.3703C12.2539 72.155 12.5573 72.0338 12.8738 72.0332H37.0668C37.3831 72.0338 37.6862 72.1551 37.9096 72.3704C38.1331 72.5858 38.2586 72.8777 38.2586 73.182C38.2586 73.4861 38.133 73.7777 37.9095 73.9927C37.686 74.2077 37.3829 74.3285 37.0668 74.3285Z" fill="#EBEBEB"/>
<path d="M7.93173 41.4644L21.2462 41.246L29.6979 71.9763L11.6797 72.1401L4.8693 45.2033C4.7563 44.7577 4.7502 44.2931 4.85148 43.8449C4.95276 43.3967 5.15875 42.9765 5.45385 42.6162C5.74895 42.2559 6.12542 41.965 6.55473 41.7654C6.98404 41.5658 7.45493 41.4629 7.93173 41.4644Z" fill="#E0E0E0"/>
<path d="M14.5654 74.3284L10.5813 96.6002H11.6732L16.9105 74.3284H14.5654Z" fill="#EBEBEB"/>
<path d="M23.957 74.3284L19.7231 96.6002H20.8151L26.302 74.3284H23.957Z" fill="#E0E0E0"/>
<path d="M34.3449 74.3284L39.0668 96.6002H37.9749L31.9976 74.3284H34.3449Z" fill="#EBEBEB"/>
<path d="M19.7231 41.2373L26.3066 72.0004H31.3599L26.0818 44.819C25.8883 43.8132 25.3348 42.9044 24.5175 42.2501C23.7002 41.5959 22.6706 41.2376 21.6074 41.2373H19.7231Z" fill="#EBEBEB"/>
<path d="M93.9998 96.7228C93.9998 96.7534 72.9987 96.7796 47.0963 96.7796C21.1939 96.7796 0.188232 96.7534 0.188232 96.7228C0.188232 96.6921 21.1848 96.6659 47.0963 96.6659C73.0078 96.6659 93.9998 96.6899 93.9998 96.7228Z" fill="#263238"/>
<path d="M34.5016 96.786H17.144L18.4562 84.6301L34.5016 84.5297V96.786Z" fill="#AAAAAA"/>
<g opacity="0.4">
<path d="M34.5016 96.786H17.144L18.4562 84.6301L34.5016 84.5297V96.786Z" fill="black"/>
</g>
<path d="M37.0328 84.5298H19.6753V96.7839H37.0328V84.5298Z" fill="#AAAAAA"/>
<g opacity="0.2">
<path d="M37.0328 84.5298H19.6753V96.7839H37.0328V84.5298Z" fill="black"/>
</g>
<path d="M37.1782 90.4636C37.1782 90.4942 33.2735 90.5205 28.4586 90.5205C23.6436 90.5205 19.7344 90.4942 19.7344 90.4636C19.7344 90.433 23.639 90.4045 28.4586 90.4045C33.2781 90.4045 37.1782 90.4308 37.1782 90.4636Z" fill="#263238"/>
<path d="M22.7672 91.6429C22.6886 91.033 22.6886 90.416 22.7672 89.8062C22.8459 90.416 22.8459 91.033 22.7672 91.6429Z" fill="#263238"/>
<path d="M34.8351 91.5773C34.7565 91.0332 34.7565 90.4812 34.8351 89.9371C34.9137 90.4812 34.9137 91.0332 34.8351 91.5773Z" fill="#263238"/>
<path d="M31.0123 84.593C31.0123 84.593 31.0123 84.4598 30.9715 84.2305C30.911 83.9055 30.7794 83.5965 30.5855 83.3241C30.2994 82.9197 29.9027 82.5992 29.4391 82.3981C28.8679 82.1562 28.2466 82.0434 27.623 82.0683C26.9957 82.0733 26.3766 82.2065 25.8069 82.4593C25.3457 82.6666 24.9466 82.9829 24.6468 83.3787C24.4459 83.646 24.3016 83.9488 24.2223 84.2698C24.1678 84.4991 24.1656 84.6301 24.1542 84.6301C24.1507 84.5982 24.1507 84.566 24.1542 84.534C24.1545 84.4424 24.1636 84.351 24.1815 84.261C24.2451 83.9276 24.3821 83.6112 24.5833 83.3329C24.8825 82.917 25.2894 82.5835 25.7637 82.3654C26.3423 82.1014 26.9736 81.9613 27.6139 81.9548C28.2551 81.9293 28.8935 82.049 29.4777 82.3042C29.9549 82.5176 30.3601 82.8559 30.6468 83.2804C30.841 83.564 30.9646 83.8869 31.0078 84.2239C31.0161 84.3147 31.0161 84.4061 31.0078 84.4969C31.015 84.5284 31.0166 84.561 31.0123 84.593Z" fill="#263238"/>
<path d="M24.5015 37.2626C25.3309 36.8878 26.2636 36.7791 27.1621 36.9525C27.6456 37.0289 28.1496 37.1708 28.4765 37.5159C28.8034 37.861 28.867 38.479 28.4901 38.7782C28.2469 38.9366 27.9539 39.0084 27.6615 38.9813C26.9578 38.9813 26.1791 38.8547 25.6184 39.2609C25.2983 39.4924 25.0849 39.8789 24.7103 39.9925C24.5187 40.0349 24.3179 40.0163 24.1382 39.9395C23.9584 39.8627 23.8095 39.7319 23.7137 39.5666C23.5319 39.2301 23.4913 38.8392 23.6002 38.4747C23.6433 38.2195 23.7471 37.9774 23.9034 37.7672C24.0598 37.5569 24.2644 37.3843 24.5015 37.2626Z" fill="#AAAAAA"/>
<path d="M22.649 33.8184C23.1439 34.4998 24.1042 34.2748 24.5514 33.8599C24.9987 33.445 25.1848 32.8422 25.3573 32.27C25.7478 30.9596 26.1428 29.5837 25.8522 28.2493C25.7816 27.8452 25.5971 27.4675 25.3187 27.1574C25.1775 27.0048 24.997 26.8905 24.7954 26.8261C24.5938 26.7617 24.3781 26.7494 24.17 26.7905C23.6842 26.9128 23.3823 27.3692 23.1644 27.806C22.5228 29.0894 22.187 30.4943 22.1814 31.9184C22.1814 32.5736 22.2586 33.2746 22.649 33.8206" fill="#AAAAAA"/>
<path d="M21.2892 34.7946C21.5437 34.4754 21.7132 34.1012 21.7829 33.7045C21.8525 33.3079 21.8202 32.9008 21.6888 32.5189C21.4196 31.7518 20.9348 31.0715 20.2881 30.5534C19.555 29.9288 18.7021 29.448 17.7773 29.1382C17.4177 28.997 17.0302 28.9336 16.6422 28.9525C16.4495 28.9632 16.2624 29.0191 16.0974 29.1154C15.9324 29.2117 15.7944 29.3455 15.6956 29.5051C15.43 29.9899 15.6956 30.5774 15.9566 31.0557C16.4402 31.9012 16.992 32.7088 17.607 33.4711C18.0997 34.0848 18.6672 34.6898 19.4232 34.965C20.1791 35.2401 20.9601 35.2096 21.3596 34.7072" fill="#AAAAAA"/>
<path d="M22.6151 44.0763C22.6402 43.9746 22.6554 43.8707 22.6605 43.7662C22.6832 43.5478 22.7104 43.2595 22.7445 42.9232C22.7886 42.5082 22.8545 42.0957 22.942 41.6871C23.0562 41.1894 23.2126 40.7014 23.4096 40.2282C23.6012 39.7547 23.8619 39.3098 24.1837 38.9069C24.446 38.5788 24.7811 38.3109 25.1644 38.1229C25.4216 37.9993 25.6974 37.9153 25.9817 37.8739C26.0897 37.8701 26.1969 37.8555 26.3018 37.8303C26.1931 37.819 26.0835 37.819 25.9749 37.8303C25.6778 37.8544 25.3874 37.9283 25.1168 38.0486C24.7129 38.2318 24.3586 38.5024 24.0816 38.8392C23.7461 39.2474 23.476 39.7016 23.2802 40.1867C23.0848 40.6675 22.9329 41.1637 22.8262 41.6696C22.7432 42.0838 22.6863 42.5024 22.6559 42.9232C22.6287 43.2814 22.6173 43.5784 22.6128 43.7706C22.6023 43.8723 22.6031 43.9748 22.6151 44.0763Z" fill="#263238"/>
<path d="M22.674 43.4277C22.6808 43.3799 22.6808 43.3314 22.674 43.2836V42.873C22.674 42.5192 22.674 41.9994 22.6922 41.3683C22.724 40.095 22.8398 38.7279 23.0577 36.7973C23.2665 34.9846 23.5458 32.8662 23.8409 31.499C23.9045 31.1867 23.968 30.9072 24.027 30.6604C24.0861 30.4136 24.1337 30.2018 24.1814 30.0292C24.2291 29.8567 24.2541 29.7366 24.2813 29.6318C24.2954 29.5856 24.3038 29.5379 24.3063 29.4898C24.2829 29.5326 24.2654 29.5781 24.2541 29.6252L24.1315 30.0161C24.077 30.1865 24.0202 30.3983 23.9567 30.6451C23.8931 30.8919 23.8182 31.1693 23.7501 31.4816C23.3838 33.1048 23.1087 34.7459 22.926 36.3976C22.699 38.3304 22.6082 40.0907 22.5991 41.3661C22.5991 42.0038 22.5991 42.5192 22.6218 42.8752C22.6218 43.0412 22.64 43.1766 22.6468 43.2858C22.6512 43.3338 22.6603 43.3814 22.674 43.4277Z" fill="#263238"/>
<path d="M22.6831 40.0317C22.6959 39.8864 22.6959 39.7403 22.6831 39.5949C22.6672 39.3198 22.6263 38.9223 22.5469 38.4353C22.4494 37.8651 22.3183 37.3007 22.1541 36.7449C21.9626 36.0609 21.7167 35.3921 21.4186 34.7444C20.9097 33.5499 20.1789 32.4546 19.262 31.5121C19.1032 31.35 18.9333 31.1982 18.7534 31.0579C18.6763 30.9945 18.6081 30.9312 18.5264 30.881L18.3289 30.7499C18.2106 30.6672 18.0853 30.5941 17.9543 30.5316C18.3866 30.8569 18.7969 31.2085 19.1825 31.5842C20.0694 32.535 20.781 33.6244 21.2869 34.8055C21.5785 35.45 21.8249 36.1125 22.0247 36.7886C22.1937 37.3389 22.3331 37.8973 22.4424 38.4615C22.5355 38.9441 22.5877 39.335 22.6195 39.6102C22.6299 39.752 22.6512 39.8929 22.6831 40.0317Z" fill="#263238"/>
<path d="M19.2734 46.0222L19.6253 50.6828H25.8501L26.2042 46.0222H19.2734Z" fill="#263238"/>
<path d="M26.9466 44.1833H18.6719V46.02H26.9466V44.1833Z" fill="#263238"/>
<path d="M18.6719 50.5037V51.0133H19.0601H26.8104V50.5037H18.6719Z" fill="#455A64"/>
<path d="M19.4412 51.9103L19.0598 51.0127H26.5127L26.0678 51.9103H19.4412Z" fill="#455A64"/>
<path d="M26.0882 47.5445C26.0882 47.5445 26.0882 47.5598 26.0587 47.5882L25.9657 47.7061L25.6047 48.1429L25.5865 48.1648L25.5729 48.1429L24.6808 46.9571H24.733L23.8544 48.1517L23.8272 48.191L23.7977 48.1539C23.473 47.7848 23.1166 47.3829 22.7579 46.9636H22.817L22.7602 47.0335L21.8294 48.1539L21.7977 48.191L21.7704 48.1517L20.8919 46.9592H20.9441L19.8635 48.1429L19.8431 48.1648L19.8294 48.1407L19.4912 47.5926L19.4049 47.4484C19.3934 47.4322 19.3843 47.4146 19.3777 47.396C19.3913 47.4102 19.4035 47.4255 19.414 47.4419L19.5094 47.5817L19.8658 48.1189H19.8317L20.8941 46.9199L20.9214 46.8893L20.9464 46.9221C21.2142 47.2825 21.5116 47.6843 21.8317 48.1102H21.7704L22.6989 46.9854L22.7557 46.9177L22.7852 46.8806L22.817 46.9156C23.1802 47.3349 23.5298 47.7389 23.8544 48.1102H23.7954L24.6808 46.9199L24.708 46.885L24.733 46.9199L25.6047 48.1189H25.5729C25.7318 47.9376 25.859 47.7913 25.9498 47.6821L26.0519 47.5707C26.0629 47.5606 26.0751 47.5518 26.0882 47.5445Z" fill="#E0E0E0"/>
<path d="M26.2906 45.9924C26.2906 46.0124 24.731 46.0302 22.8082 46.0302C20.8853 46.0302 19.3235 46.0124 19.3235 45.9924C19.3235 45.9724 20.8831 45.9546 22.8036 45.9546C24.7242 45.9546 26.2906 45.9701 26.2906 45.9924Z" fill="#455A64"/>
<path d="M26.6061 51.0634C26.6061 51.0857 24.9103 51.1012 22.8195 51.1012C20.7287 51.1012 19.0352 51.0857 19.0352 51.0634C19.0352 51.0412 20.7287 51.0256 22.8195 51.0256C24.9103 51.0256 26.6061 51.0434 26.6061 51.0634Z" fill="#263238"/>
<path d="M58.808 52.0128H77.0327V51.1611H58.808V52.0128Z" fill="#263238"/>
<path d="M79.8569 52.0129L83.2757 39.691H69.0442L65.95 52.0129H79.8569Z" fill="#263238"/>
<path d="M66.8037 51.0803H79.5143L82.4745 40.261H69.6959L66.8037 51.0803Z" fill="#455A64"/>
<path d="M79.6027 51.1961H66.6628L69.614 40.1562H82.6265L79.6027 51.1961ZM66.9489 50.9777H79.4347L82.3337 40.3746H69.7956L66.9489 50.9777Z" fill="#263238"/>
<path d="M22.1671 54.4065H21.2485V96.679H22.1671V54.4065Z" fill="#455A64"/>
<path d="M23.089 54.5266H22.1704V96.6768H23.089V54.5266Z" fill="#263238"/>
<path d="M78.8685 54.4065H77.95V96.679H78.8685V54.4065Z" fill="#455A64"/>
<path d="M79.7879 54.5266H78.8694V96.6768H79.7879V54.5266Z" fill="#263238"/>
<path d="M92.6313 51.9496H10.5813V55.4177H92.6313V51.9496Z" fill="#455A64"/>
<path d="M78.4109 55.4176H47.6345V61.157H78.4109V55.4176Z" fill="#455A64"/>
<path d="M64.3948 57.8898C64.3948 58.0194 64.3549 58.1461 64.28 58.2538C64.2052 58.3615 64.0988 58.4455 63.9744 58.4951C63.8499 58.5447 63.713 58.5577 63.5809 58.5324C63.4488 58.5071 63.3274 58.4447 63.2322 58.3531C63.1369 58.2615 63.0721 58.1447 63.0458 58.0176C63.0195 57.8905 63.033 57.7588 63.0846 57.6391C63.1361 57.5194 63.2234 57.417 63.3354 57.345C63.4474 57.273 63.5791 57.2346 63.7138 57.2346C63.8944 57.2346 64.0676 57.3037 64.1953 57.4265C64.3231 57.5494 64.3948 57.716 64.3948 57.8898Z" fill="#263238"/>
<path d="M85.1145 55.4177C85.1145 55.4483 74.4448 55.4746 61.3007 55.4746C48.1565 55.4746 37.4868 55.4483 37.4868 55.4177C37.4868 55.3871 48.1565 55.3608 61.3007 55.3608C74.4448 55.3608 85.1145 55.3871 85.1145 55.4177Z" fill="#263238"/>
<path d="M56.7152 14.6194C56.8377 14.6194 58.4972 14.8858 58.4972 14.8858L60.7424 17.607L61.0806 18.1224L58.0523 19.9853L56.7152 18.0809L55.5801 17.3712C55.749 17.247 55.9503 17.1701 56.1618 17.1489C56.3733 17.1277 56.5868 17.163 56.7787 17.251C57.2262 17.4321 57.7076 17.5227 58.193 17.5175L57.7935 16.4255L56.563 16.1896L56.7152 14.6194Z" fill="#EB996E"/>
<path d="M56.856 12.7149C56.9031 12.7031 56.9522 12.7009 57.0003 12.7085C57.0483 12.7161 57.0941 12.7333 57.1348 12.759C57.1755 12.7848 57.2101 12.8185 57.2363 12.8579C57.2626 12.8973 57.28 12.9416 57.2873 12.9879C57.4712 14.1039 58.0274 17.4628 58.1953 18.4478C58.2095 18.5262 58.1927 18.6069 58.1481 18.674C58.1036 18.7411 58.0346 18.7897 57.9547 18.8103L55.2827 19.5288C55.2366 19.5415 55.1882 19.5444 55.1408 19.5373C55.0935 19.5302 55.0483 19.5133 55.0083 19.4877C54.9684 19.4622 54.9347 19.4286 54.9096 19.3894C54.8845 19.3501 54.8685 19.306 54.8628 19.2602L54.1318 13.6846C54.1208 13.603 54.1414 13.5204 54.1895 13.4524C54.2376 13.3844 54.3099 13.3357 54.3928 13.3155L56.856 12.7149Z" fill="#263238"/>
<path d="M55.0625 18.8409L57.7867 18.1093L57.0648 13.4706C57.0552 13.4081 57.0319 13.3483 56.9966 13.295C56.9613 13.2418 56.9146 13.1964 56.8597 13.1617C56.8048 13.1271 56.7429 13.104 56.6781 13.094C56.6133 13.084 56.547 13.0873 56.4836 13.1037L54.302 13.6606L55.0625 18.8409Z" fill="#EBEBEB"/>
<path d="M57.7297 15.4471L56.5061 16.3207C56.5061 16.3207 56.6083 16.6308 56.7944 16.6526C57.1909 16.6027 57.5826 16.5224 57.9658 16.4124L57.7297 15.4471Z" fill="#EB996E"/>
<path d="M57.5827 14.7417L56.3001 15.2833C56.3001 15.2833 56.2184 15.6852 56.6974 15.6284L56.2683 15.9254C56.2683 15.9254 56.375 16.1045 56.9108 16.1263C57.4465 16.1482 57.9664 15.4318 57.9664 15.4318L57.5827 14.7417Z" fill="#EB996E"/>
<path d="M58.8561 16.1153C58.8561 16.1306 58.6994 16.1022 58.5292 15.9493C58.4354 15.8649 58.3369 15.7854 58.2341 15.7113C58.1763 15.6704 58.1086 15.6445 58.0374 15.6361C57.9662 15.6277 57.894 15.637 57.8277 15.6632C57.4716 15.8605 57.0996 16.0299 56.7153 16.1699C57.0474 15.9273 57.4068 15.7214 57.7868 15.5562C57.8738 15.5221 57.9688 15.5116 58.0615 15.5256C58.1434 15.5442 58.2206 15.5783 58.2885 15.6261C58.3948 15.7049 58.4922 15.7942 58.5791 15.8925C58.666 15.9729 58.7585 16.0473 58.8561 16.1153Z" fill="#D1734A"/>
<path d="M58.6036 19.1904C58.384 18.9349 58.2475 18.6227 58.2112 18.2929C58.1749 17.9631 58.2404 17.6303 58.3995 17.3362C58.3374 17.6469 58.3138 17.9636 58.3292 18.2796C58.3825 18.5927 58.4747 18.8984 58.6036 19.1904Z" fill="#D1734A"/>
<path d="M58.4451 15.2859C58.4292 15.299 58.3611 15.2049 58.1976 15.1546C57.979 15.0958 57.7452 15.1217 57.5461 15.2268C57.3054 15.3384 57.0921 15.4805 56.9218 15.5483C56.7515 15.6161 56.6312 15.6315 56.6289 15.6183C56.6267 15.6052 56.7288 15.5658 56.8832 15.4762C57.0376 15.3865 57.2373 15.2421 57.4984 15.124C57.6216 15.0646 57.7559 15.0296 57.8934 15.0212C58.008 15.0147 58.1224 15.035 58.2271 15.0803C58.3974 15.1612 58.4451 15.2815 58.4451 15.2859Z" fill="#D1734A"/>
<path d="M58.3384 23.0232L65.0103 27.1443L63.2419 32.0101C63.2419 32.0101 58.6766 30.6539 58.7606 30.5119C58.8446 30.37 58.3384 23.0232 58.3384 23.0232Z" fill="#AAAAAA"/>
<path d="M56.6134 88.8867L55.5623 93.5363C55.5623 93.5363 60.123 96.1243 60.0163 97L50.5725 95.3664L51.8983 88.0568L56.6134 88.8867Z" fill="#263238"/>
<path d="M50.5725 95.3664L50.736 94.6348L59.7303 96.4758C59.7303 96.4758 60.1162 96.7248 60.0163 97L50.5725 95.3664Z" fill="#455A64"/>
<path d="M45.8709 89.3977L45.7143 94.1522C45.7143 94.1522 50.6881 95.8993 50.7472 96.7838L41.1513 96.8253L41.0786 89.3999L45.8709 89.3977Z" fill="#263238"/>
<g opacity="0.6">
<path d="M41.1511 96.8253L41.1738 96.0762L50.3657 96.3186C50.3657 96.3186 50.7947 96.4955 50.747 96.7838L41.1511 96.8253Z" fill="#455A64"/>
</g>
<path d="M47.2623 11.4177L48.2408 22.3374L53.9161 21.9006C53.9502 21.2629 53.9025 18.795 53.9025 18.795C53.9025 18.795 56.2657 18.4412 56.2952 16.1743C56.3089 15.0692 56.1454 12.7892 55.9729 10.7341C55.8839 9.63703 55.3515 8.6172 54.49 7.89333C53.6285 7.16946 52.5065 6.7992 51.3645 6.86195C50.7815 6.89464 50.2112 7.03936 49.6873 7.28755C49.1634 7.53575 48.6965 7.8824 48.3141 8.30704C47.9317 8.73168 47.6417 9.22571 47.461 9.75997C47.2804 10.2942 47.2128 10.8579 47.2623 11.4177Z" fill="#EB996E"/>
<path d="M53.9048 18.7536C52.8138 18.7726 51.7415 18.4792 50.8242 17.9106C50.8242 17.9106 51.5529 19.5464 53.9093 19.3411L53.9048 18.7536Z" fill="#D1734A"/>
<path d="M55.062 12.3223C55.0627 12.4072 55.0289 12.4891 54.9679 12.5503C54.9069 12.6116 54.8235 12.6475 54.7354 12.6504C54.6926 12.6536 54.6495 12.6486 54.6087 12.6355C54.5679 12.6225 54.5302 12.6017 54.4979 12.5744C54.4655 12.5471 54.4392 12.5138 54.4204 12.4765C54.4016 12.4392 54.3907 12.3987 54.3884 12.3573C54.3878 12.2727 54.4212 12.1912 54.4818 12.1299C54.5423 12.0687 54.6251 12.0326 54.7128 12.0292C54.7557 12.0259 54.799 12.0309 54.8399 12.0439C54.8808 12.057 54.9187 12.0777 54.9512 12.105C54.9837 12.1323 55.0103 12.1656 55.0293 12.2029C55.0483 12.2402 55.0595 12.2808 55.062 12.3223Z" fill="#263238"/>
<path d="M55.4712 11.8638C55.4303 11.9075 55.1738 11.7238 54.8105 11.7259C54.4473 11.7281 54.1817 11.9009 54.1431 11.8594C54.1045 11.8178 54.1658 11.7631 54.2816 11.6822C54.4391 11.5776 54.626 11.5218 54.8174 11.5225C55.0066 11.5219 55.191 11.5793 55.344 11.6866C55.4553 11.7675 55.4939 11.8463 55.4712 11.8638Z" fill="#263238"/>
<path d="M51.575 12.3223C51.5762 12.407 51.5429 12.4889 51.4823 12.5502C51.4216 12.6116 51.3385 12.6475 51.2506 12.6504C51.2077 12.6537 51.1644 12.6486 51.1235 12.6356C51.0826 12.6226 51.0447 12.6018 51.0122 12.5745C50.9797 12.5472 50.9531 12.514 50.9341 12.4767C50.9151 12.4394 50.9039 12.3988 50.9014 12.3573C50.9013 12.2725 50.9353 12.191 50.9962 12.1298C51.057 12.0686 51.1401 12.0326 51.228 12.0292C51.2708 12.0262 51.3137 12.0315 51.3544 12.0446C51.3951 12.0578 51.4326 12.0786 51.4649 12.1059C51.4972 12.1331 51.5235 12.1663 51.5424 12.2034C51.5613 12.2406 51.5724 12.281 51.575 12.3223Z" fill="#263238"/>
<path d="M51.9026 11.9292C51.8617 11.9708 51.6052 11.7892 51.2419 11.7914C50.8787 11.7936 50.6131 11.9664 50.5745 11.9226C50.5359 11.8789 50.5972 11.8286 50.713 11.7477C50.8696 11.6413 51.0572 11.5854 51.2488 11.588C51.4381 11.5866 51.6228 11.6441 51.7754 11.752C51.8867 11.833 51.923 11.9095 51.9026 11.9292Z" fill="#263238"/>
<path d="M53.2237 14.5189C53.4153 14.4613 53.6135 14.4269 53.8139 14.4162C53.9048 14.4162 53.9933 14.39 54.0092 14.3289C54.0166 14.2369 53.9952 14.1448 53.9479 14.0646C53.8593 13.8462 53.7685 13.6278 53.6732 13.3854C53.2918 12.4179 53.0171 11.6229 53.058 11.6098C53.0988 11.5967 53.4394 12.3677 53.8208 13.333C53.9116 13.5732 54.0001 13.8003 54.0818 14.0166C54.1405 14.1246 54.1581 14.2489 54.1318 14.3682C54.1183 14.3998 54.0973 14.4279 54.0705 14.4503C54.0437 14.4726 54.0118 14.4886 53.9774 14.497C53.9264 14.5109 53.8737 14.5182 53.8208 14.5189C53.6226 14.5438 53.4219 14.5438 53.2237 14.5189Z" fill="#263238"/>
<path d="M52.1524 14.7613C52.2115 14.7613 52.2115 15.137 52.5497 15.4165C52.888 15.6961 53.3057 15.6349 53.3102 15.6982C53.3147 15.7616 53.2171 15.7703 53.0378 15.7747C52.8065 15.776 52.5822 15.6987 52.4044 15.5563C52.2282 15.4217 52.1147 15.2253 52.0889 15.0103C52.0889 14.8531 52.1252 14.7591 52.1524 14.7613Z" fill="#263238"/>
<path d="M51.9978 10.5598C51.9615 10.656 51.5983 10.6101 51.1715 10.6604C50.7447 10.7107 50.4019 10.8223 50.3452 10.737C50.3202 10.6954 50.3792 10.6057 50.52 10.5182C50.705 10.4047 50.9146 10.3336 51.1327 10.3105C51.3507 10.2873 51.5714 10.3128 51.7776 10.3848C51.9343 10.4395 52.0115 10.516 51.9978 10.5598Z" fill="#263238"/>
<path d="M55.3393 10.8526C55.2757 10.9335 55.0237 10.8526 54.7241 10.8526C54.4244 10.8526 54.1679 10.9073 54.1089 10.8241C54.0839 10.7826 54.1248 10.7038 54.236 10.6273C54.3857 10.5376 54.5596 10.4927 54.7357 10.4981C54.9119 10.5036 55.0824 10.5592 55.2258 10.6579C55.3325 10.7323 55.3665 10.8154 55.3393 10.8526Z" fill="#263238"/>
<path d="M49.8186 8.92577H49.805C49.4318 9.21303 49.1879 9.62755 49.1239 10.0833V10.1291C49.0309 10.7843 49.049 11.4395 48.9491 12.0947C48.8493 12.7499 48.6177 13.405 48.1183 13.8418C47.914 14.0253 47.553 14.152 47.385 13.9379C47.3275 13.8489 47.2983 13.7457 47.301 13.6409C47.1739 12.075 46.7289 10.686 46.7335 9.05462C46.731 8.8353 46.7831 8.61858 46.8854 8.42255C46.9877 8.22652 47.1372 8.05686 47.3214 7.9277C47.6779 7.6831 48.1115 7.42758 48.5087 7.60885C48.906 7.79011 49.4168 8.50208 49.7233 8.80347" fill="#263238"/>
<path d="M48.0592 12.4463C48.0184 12.4288 46.4361 11.9833 46.486 13.5382C46.536 15.0932 48.15 14.7219 48.15 14.6783C48.15 14.6346 48.0592 12.4463 48.0592 12.4463Z" fill="#EB996E"/>
<path d="M47.6363 14.1039C47.6363 14.1039 47.6091 14.1236 47.5637 14.1454C47.4975 14.1753 47.4219 14.1792 47.3528 14.1564C47.2466 14.0961 47.1589 14.0097 47.0988 13.9061C47.0386 13.8025 47.0081 13.6854 47.0103 13.5667C47.0019 13.4333 47.0244 13.2998 47.0761 13.1758C47.0891 13.1261 47.1144 13.0803 47.15 13.0422C47.1856 13.0041 47.2303 12.975 47.2802 12.9574C47.3123 12.9484 47.3466 12.9502 47.3776 12.9625C47.4085 12.9748 47.4341 12.9969 47.4503 13.0251C47.473 13.0688 47.4639 13.0993 47.473 13.1015C47.482 13.1037 47.5047 13.0753 47.4911 13.012C47.4807 12.9733 47.4566 12.9394 47.4231 12.9159C47.3771 12.8862 47.3214 12.8738 47.2666 12.8809C47.2009 12.8964 47.1403 12.9275 47.0904 12.9714C47.0405 13.0153 47.0028 13.0705 46.9808 13.1321C46.9166 13.269 46.8886 13.419 46.8992 13.5689C46.9196 13.8834 47.0965 14.1695 47.3301 14.2241C47.374 14.2347 47.4198 14.2358 47.4642 14.2271C47.5085 14.2184 47.5503 14.2002 47.5864 14.1738C47.6363 14.1411 47.6431 14.1061 47.6363 14.1039Z" fill="#D1734A"/>
<path d="M48.4565 7.84916C48.0593 7.22674 49.1489 6.33351 49.9457 6.10201C50.7426 5.87051 51.7936 6.23304 52.5859 6.48638C53.0876 6.64581 53.5848 6.86857 54.1137 6.84892C54.4658 6.81283 54.8106 6.72825 55.1376 6.59776C55.4642 6.46484 55.8158 6.39794 56.1705 6.40121C56.3476 6.40482 56.5203 6.45495 56.67 6.54618C56.8196 6.63741 56.9405 6.76626 57.0195 6.9188C57.1535 7.23329 56.9628 7.66571 56.6109 7.71157C56.7231 7.65292 56.8483 7.62122 56.976 7.61918C57.1037 7.61713 57.23 7.6448 57.3441 7.69982C57.4583 7.75484 57.5569 7.83559 57.6316 7.93519C57.7064 8.03479 57.755 8.15029 57.7733 8.27185C57.7916 8.39341 57.7791 8.51743 57.7369 8.63335C57.6947 8.74927 57.624 8.85366 57.5308 8.93761C57.4376 9.02157 57.3246 9.08262 57.2016 9.11556C57.0786 9.14849 56.9492 9.15234 56.8243 9.12677C57.0513 8.95861 57.4055 9.23597 57.3759 9.51115C57.3451 9.64703 57.278 9.77286 57.1813 9.87624C57.0845 9.97963 56.9615 10.057 56.8243 10.1008C56.1432 10.3847 55.3646 10.293 54.6677 10.0681C53.9707 9.84311 53.3237 9.49149 52.6245 9.24907C51.9253 9.00665 50.7744 8.56987 50.082 8.81228C49.5712 8.987 49.2148 9.57885 48.9265 9.44781C48.7904 9.37792 48.6733 9.27827 48.5846 9.15688C48.4959 9.0355 48.438 8.89577 48.4157 8.74895C48.3775 8.458 48.3883 8.16304 48.4475 7.87537" fill="#263238"/>
<path d="M56.8038 7.66124C56.7901 7.66124 56.722 7.77481 56.5472 7.95608C56.3 8.2093 55.9922 8.4005 55.6505 8.51298C55.1483 8.6867 54.5954 8.66555 54.1091 8.45402C53.5597 8.21597 53.0898 7.7355 52.5427 7.29871C52.0411 6.84657 51.407 6.55379 50.7266 6.46007C50.4456 6.42693 50.1605 6.45594 49.893 6.54488C49.6255 6.63383 49.3826 6.78035 49.1829 6.9733C49.054 7.10807 48.955 7.26661 48.8918 7.4393C48.8286 7.61199 48.8025 7.79523 48.8151 7.97792C48.824 8.07606 48.8477 8.17244 48.8855 8.26401C48.915 8.32516 48.9331 8.35574 48.9377 8.35355C48.9071 8.22934 48.8866 8.10302 48.8764 7.97573C48.8767 7.62979 49.0158 7.29731 49.2646 7.04755C49.4577 6.87198 49.6893 6.74039 49.9424 6.66252C50.1954 6.58464 50.4634 6.56248 50.7266 6.59766C51.3736 6.69662 51.9747 6.98045 52.4519 7.41227C52.9831 7.84906 53.4689 8.33608 54.0569 8.58287C54.4904 8.76109 54.972 8.80018 55.4304 8.69436C55.8888 8.58854 56.2995 8.34344 56.6017 7.99539C56.6663 7.92118 56.7226 7.84066 56.7697 7.75515C56.7947 7.69619 56.8083 7.66343 56.8038 7.66124Z" fill="#455A64"/>
<path d="M47.6462 12.3787C47.6462 12.3787 47.7166 12.335 47.7779 12.2127C47.8576 12.0354 47.8858 11.8407 47.8596 11.6492C47.8233 11.1491 47.3624 10.6119 47.3034 9.91956C47.2624 9.59978 47.325 9.27561 47.4827 8.99138C47.6205 8.76683 47.8311 8.59192 48.0821 8.49345C48.2525 8.4243 48.4388 8.39945 48.6224 8.42137C48.7518 8.44321 48.8221 8.4716 48.8289 8.4585C48.7749 8.41064 48.7081 8.37813 48.636 8.36459C48.4403 8.31555 48.2337 8.32469 48.0435 8.3908C47.7603 8.48682 47.5199 8.67337 47.3624 8.91931C47.1813 9.2275 47.1073 9.58334 47.1513 9.93485C47.1933 10.2763 47.2986 10.6077 47.4623 10.9133C47.592 11.1509 47.6875 11.4043 47.7461 11.6667C47.7907 11.9083 47.7558 12.1572 47.6462 12.3787Z" fill="#455A64"/>
<path d="M57.1284 92.8745C57.1284 92.8745 62.0478 69.6592 62.0523 69.1962L53.2646 64.7366L49.8594 91.9813L57.1284 92.8745Z" fill="#263238"/>
<path d="M46.0638 93.6519L52.8583 53.417V44.738L43.0195 45.4151C42.9014 45.7536 40.4202 93.7043 40.4202 93.7043L41.3782 93.6519H46.0638Z" fill="#263238"/>
<path d="M58.2001 44.1245L62.0525 69.1962L53.4396 67.187L49.9299 44.9413L58.2001 44.1245Z" fill="#263238"/>
<path d="M59.6846 54.9241C59.6846 54.9241 61.1829 53.6858 61.3305 52.7532C61.478 51.8207 59.5348 36.8104 59.5348 36.8104L58.5427 24.4013C58.5427 24.6197 58.57 22.8376 58.2703 22.7305C57.3622 22.4008 55.4962 21.8024 55.4962 21.8024L54.4292 20.8807C54.4292 20.8807 56.3452 28.7604 56.7175 30.9138L59.6846 54.9241Z" fill="#AAAAAA"/>
<path d="M47.3826 20.0246L45.7708 21.0576L39.7254 23.3442L42.4109 33.0868L42.05 38.7476L41.7072 42.3402C41.7072 42.3402 39.907 51.2354 38.3179 56.6406C38.3179 56.6406 40.0909 59.8729 41.5483 60.3228L42.1544 60.67L44.3156 45.4457L46.1703 43.0434C46.3497 42.8119 46.5154 42.5738 46.672 42.3292C47.126 41.6151 48.1658 39.9924 48.9944 38.741C50.0886 37.0878 51.4915 33.3314 51.0761 31.7284C50.6607 30.1253 47.3826 20.0246 47.3826 20.0246Z" fill="#AAAAAA"/>
<path d="M43.2759 53.6116C44.6913 52.5097 45.867 51.1501 46.7356 49.6106L43.2759 53.6116Z" fill="#263238"/>
<path d="M47.3826 20.0246L48.8377 29.0071C48.7982 30.1556 48.6005 31.2939 48.2498 32.3923L45.6527 40.4729C45.6527 40.4729 43.6096 44.8779 44.3156 45.4413C45.0216 46.0048 50.5131 45.4413 50.5131 45.4413L57.9456 44.404C58.1114 44.3806 58.2615 44.2969 58.3651 44.1701C58.4686 44.0433 58.5175 43.8831 58.5018 43.7226L57.3985 32.7548C57.0262 31.997 56.8741 30.4464 56.7174 29.896L54.4291 20.8829L53.9615 20.8239L52.9444 21.4944L52.4087 21.5359L47.9115 19.4415L47.3826 20.0246Z" fill="#EBEBEB"/>
<path d="M46.0273 39.3001C47.2283 35.6988 48.7833 29.8436 48.7833 29.8436C49.2669 32.9012 48.7379 36.0351 47.5552 38.9179C46.5881 41.2679 45.4189 43.0456 44.6153 45.4545L44.5903 45.5528C44.5903 45.5528 44.1363 45.5768 44.1681 44.9325C44.1999 44.2883 44.8491 42.3707 45.2827 41.3093C45.7163 40.2479 46.0273 39.3001 46.0273 39.3001Z" fill="#E0E0E0"/>
<path d="M53.2035 22.2567H52.1933L51.8914 23.5867L52.7744 24.6153L53.6643 24.5301L53.9549 23.5758L53.7166 23.0429L53.2035 22.2567Z" fill="#AAAAAA"/>
<path d="M59.0945 30.0227C59.4123 30.0838 62.922 32.3551 64.1978 32.1105C65.4736 31.8659 66.5065 30.7084 66.6428 30.5534C67.3669 29.7279 66.9129 28.0135 66.7041 27.367C66.6532 27.2093 66.5839 27.0576 66.4975 26.9149L61.0786 17.9608L57.8845 19.828L61.1989 25.6439L59.0945 30.0227Z" fill="#AAAAAA"/>
<path d="M32.9582 40.8485C32.7482 40.3202 32.657 39.7551 32.6907 39.1904C32.7243 38.6257 32.882 38.0743 33.1534 37.5726C33.8889 36.1727 35.0558 33.9123 35.301 33.1697C35.6642 32.0668 39.0603 23.6041 39.7255 23.342L42.6767 32.9273L39.2488 39.8723L43.2669 47.1557L39.9185 50.6282C39.9185 50.6282 33.5825 42.1283 33.0603 41.0778C33.024 41.0021 32.99 40.9257 32.9582 40.8485Z" fill="#AAAAAA"/>
<path d="M43.4259 52.8384C44.0596 52.2679 44.6225 51.6289 45.1035 50.934C45.0991 50.9247 45.0968 50.9147 45.0968 50.9045C45.0968 50.8943 45.0991 50.8842 45.1035 50.875C45.1113 50.8641 45.1214 50.855 45.1331 50.8482C45.1449 50.8414 45.158 50.8371 45.1717 50.8357C45.364 50.5489 45.5398 50.2522 45.6983 49.9468C45.1376 49.5952 44.4043 49.0732 45.2012 48.9553C46.1841 48.8199 46.8856 48.3613 46.9855 48.1101C47.0854 47.859 46.7585 47.634 46.4997 47.7934C46.2018 47.9404 45.8839 48.0463 45.5553 48.1079C45.2929 48.1675 45.022 48.1837 44.7539 48.156C44.4429 48.1232 43.1648 47.5903 42.9378 47.551L40.5474 49.9708C40.5474 49.9708 42.3839 51.8512 43.4259 52.8384Z" fill="#EB996E"/>
<path d="M59.0711 30.2892C59.0319 30.2032 59.0037 30.113 58.9872 30.0205C58.9395 29.8458 58.8806 29.5838 58.8148 29.2715C58.6468 28.4446 58.5234 27.61 58.4451 26.7708C58.3671 25.9315 58.3353 25.0888 58.3498 24.2462C58.3498 23.923 58.368 23.6631 58.3816 23.4818C58.3835 23.3879 58.3941 23.2944 58.4133 23.2023C58.4294 23.2953 58.434 23.3899 58.427 23.484C58.427 23.6871 58.427 23.9426 58.427 24.2462C58.427 24.9014 58.4655 25.775 58.5562 26.7621C58.647 27.7492 58.783 28.6228 58.8919 29.2584C58.9441 29.5576 58.9894 29.8109 59.0257 30.0118C59.0499 30.1027 59.0651 30.1955 59.0711 30.2892Z" fill="#263238"/>
<path d="M61.8506 30.8068C61.8506 30.8068 61.8234 30.8068 61.7734 30.7893C61.7033 30.7647 61.6357 30.734 61.5714 30.6976C61.3351 30.5568 61.1374 30.3636 60.9948 30.1341C60.7953 29.7946 60.6557 29.4256 60.5816 29.0421C60.4654 28.5791 60.3752 28.1103 60.3115 27.6379C60.2161 26.6289 60.1367 25.7225 60.0845 25.063C60.0618 24.7507 60.0436 24.4886 60.0277 24.2811C60.0168 24.1853 60.0168 24.0887 60.0277 23.9929C60.0532 24.0859 60.0699 24.1809 60.0776 24.2768C60.1003 24.4952 60.1321 24.7441 60.1684 25.0543C60.2434 25.7094 60.3364 26.6245 60.4295 27.6248C60.4953 28.1227 60.593 28.5944 60.6906 29.0181C60.7562 29.3988 60.8834 29.7672 61.0674 30.1101C61.1997 30.3341 61.3809 30.5279 61.5986 30.6779C61.7621 30.7631 61.862 30.798 61.8506 30.8068Z" fill="#263238"/>
<g opacity="0.3">
<path d="M60.0207 24.0016C59.7441 25.0079 59.5528 26.034 59.4486 27.07C59.3529 27.6883 59.3868 28.3188 59.5485 28.9242C59.7437 29.5182 60.2 30.0664 60.8266 30.2346C60.5405 28.2079 60.2885 26.1775 60.0706 24.1435" fill="black"/>
</g>
<g opacity="0.3">
<path d="M41.4326 43.6375C41.4326 43.6375 42.495 45.7319 43.083 46.8282C44.3089 41.9558 42.7538 36.8279 43.2601 31.8398L42.3747 33.5586L42.125 37.5355L41.9343 39.868C41.9343 39.868 41.7527 42.3773 41.4326 43.6375Z" fill="black"/>
</g>
<path d="M42.2908 23.4337C42.3594 23.5183 42.4195 23.609 42.4701 23.7045C42.5269 23.7941 42.5904 23.9054 42.6585 24.0365C42.7266 24.1675 42.8106 24.3182 42.8856 24.4886C43.0707 24.8866 43.2306 25.295 43.3646 25.7116C43.6876 26.7353 43.8498 27.7997 43.8458 28.8696C43.8446 29.3078 43.8135 29.7456 43.7527 30.1799C43.7346 30.3656 43.6983 30.5315 43.671 30.6757C43.6438 30.8198 43.6165 30.9465 43.5916 31.047C43.5713 31.153 43.5401 31.2569 43.4985 31.3571C43.5046 31.2496 43.5206 31.1429 43.5462 31.0382C43.5643 30.9356 43.587 30.8198 43.6075 30.6648C43.6279 30.5097 43.6551 30.3546 43.671 30.1712C43.7177 29.741 43.7397 29.3086 43.7369 28.8761C43.7298 28.3478 43.6881 27.8204 43.612 27.2971C43.5282 26.7745 43.4106 26.2573 43.2601 25.7487C43.1332 25.3337 42.9816 24.9261 42.8061 24.5279C42.738 24.3553 42.6585 24.2068 42.5972 24.0714C42.5359 23.936 42.4769 23.8246 42.427 23.7329C42.3712 23.6378 42.3256 23.5376 42.2908 23.4337Z" fill="#263238"/>
<path d="M39.2169 39.9313C39.201 39.9422 39.0489 39.7129 38.7629 39.3526C38.3813 38.8985 37.9287 38.5043 37.4212 38.1842C37.1494 38.0075 36.8209 37.93 36.495 37.9658C36.2304 38.0127 35.9799 38.1157 35.7617 38.2672C35.3781 38.5205 35.1692 38.7192 35.1533 38.7039C35.1902 38.6471 35.2362 38.5963 35.2895 38.5533C35.4222 38.4258 35.564 38.3076 35.714 38.1995C35.9371 38.0372 36.1956 37.9259 36.47 37.874C36.821 37.8259 37.1782 37.9036 37.4734 38.0924C37.9937 38.4177 38.4496 38.8297 38.8196 39.3089C38.9318 39.4528 39.0349 39.603 39.1284 39.7588C39.167 39.8115 39.1969 39.8697 39.2169 39.9313Z" fill="#263238"/>
<path d="M38.4679 37.6359C38.9181 38.2973 39.1765 39.0626 39.2164 39.8526C39.1801 39.8526 39.0916 39.3415 38.883 38.7322C38.6743 38.1229 38.443 37.6555 38.4679 37.6359Z" fill="#263238"/>
<path d="M41.3623 43.502C41.4275 43.5901 41.4845 43.6837 41.5325 43.7815L41.9639 44.5655C42.3248 45.2316 42.8175 46.1598 43.3646 47.2016L43.385 47.2387L43.3555 47.2671L43.1285 47.4855C42.2363 48.3787 41.4259 49.1846 40.8333 49.7611L40.1273 50.4425C40.0443 50.5296 39.9539 50.61 39.8572 50.6828C39.9249 50.5866 40.0008 50.496 40.0842 50.412L40.7652 49.7065C41.3419 49.1125 42.1455 48.3001 43.0354 47.4068L43.2624 47.1885V47.254C42.7176 46.21 42.2363 45.2884 41.9003 44.6005L41.503 43.8012C41.4461 43.7061 41.3989 43.6059 41.3623 43.502Z" fill="#263238"/>
<path d="M45.7848 39.108C45.7789 39.0447 45.7789 38.9812 45.7848 38.918C45.7848 38.7847 45.7848 38.6056 45.7848 38.3785C45.7961 37.9002 45.812 37.2232 45.8325 36.3933C45.8529 35.5634 45.8756 34.5588 45.9233 33.4515C45.9522 32.2445 46.1228 31.0444 46.4318 29.8742C46.6034 29.2745 46.844 28.6951 47.1492 28.1467L47.1923 28.2297C46.9097 28.1832 46.6528 28.0434 46.4658 27.8344C46.2876 27.6386 46.1579 27.4063 46.0867 27.1552C45.9828 26.6905 45.9431 26.2147 45.9687 25.74C45.9687 24.8512 45.9687 24.0562 45.9687 23.3923C45.9687 22.7284 45.9687 22.2108 45.9687 21.8351C45.9687 21.6604 45.9687 21.5206 45.9687 21.4158C45.9633 21.3679 45.9633 21.3196 45.9687 21.2717C45.9773 21.3193 45.9811 21.3675 45.98 21.4158C45.98 21.5206 45.98 21.6604 45.9914 21.8351C45.9914 22.2108 46.005 22.7371 46.0163 23.3901C46.0277 24.0431 46.0322 24.849 46.0413 25.74C46.0186 26.2055 46.0598 26.6718 46.1639 27.1268C46.2317 27.361 46.3536 27.5775 46.5203 27.7602C46.6895 27.9499 46.9225 28.0766 47.1787 28.1183L47.2604 28.1314L47.2218 28.2013C46.921 28.742 46.6842 29.3134 46.5158 29.9048C46.2102 31.0669 46.0382 32.2577 46.0027 33.4559C45.9505 34.561 45.921 35.559 45.8847 36.3977C45.8484 37.2363 45.8211 37.9002 45.8007 38.3807L45.7734 38.9201C45.7805 38.9825 45.7843 39.0452 45.7848 39.108Z" fill="#263238"/>
<path d="M55.512 21.9312C55.5346 21.9692 55.5529 22.0095 55.5665 22.0513C55.5982 22.1431 55.6436 22.2697 55.6959 22.4029L56.1658 23.7133C56.361 24.2746 56.5948 24.9407 56.8468 25.6789C56.9717 26.0567 57.126 26.4411 57.2418 26.8669C57.3041 27.0884 57.3141 27.3204 57.2713 27.5461C57.2492 27.6666 57.2019 27.7815 57.1325 27.8839C57.0631 27.9864 56.9728 28.0743 56.8672 28.1424L56.8854 28.0616C57.0761 28.3345 57.2781 28.625 57.4666 28.9351C57.7498 29.3741 57.964 29.851 58.1022 30.3503C58.2083 30.8206 58.2427 31.3032 58.2044 31.783C58.1499 32.6893 58.0886 33.5039 58.0386 34.1853C57.9887 34.8667 57.9456 35.4127 57.9138 35.808C57.8979 35.9893 57.8843 36.1356 57.8752 36.2448C57.8729 36.2963 57.8653 36.3476 57.8525 36.3977C57.8471 36.3461 57.8471 36.2942 57.8525 36.2426C57.8525 36.1312 57.8638 35.9827 57.8707 35.8058C57.8911 35.4083 57.9206 34.8558 57.9569 34.181C57.9932 33.5061 58.0455 32.6762 58.0999 31.7786C58.1314 31.3095 58.0955 30.8384 57.9932 30.3787C57.8554 29.8911 57.6443 29.4253 57.3667 28.9963C57.1805 28.6949 56.9808 28.4066 56.7901 28.1227L56.756 28.0747L56.8082 28.0441C56.9004 27.9844 56.9791 27.9074 57.0396 27.8177C57.1001 27.728 57.1411 27.6275 57.1601 27.5221C57.2006 27.3118 57.1921 27.0955 57.1351 26.8888C57.0262 26.4782 56.8718 26.0829 56.7492 25.7094C56.4995 24.9603 56.2747 24.2921 56.084 23.7286C55.8934 23.1651 55.7549 22.7305 55.6504 22.4182C55.6028 22.2719 55.5665 22.1518 55.5369 22.0601C55.5254 22.0178 55.517 21.9747 55.512 21.9312Z" fill="#263238"/>
<path d="M46.6768 49.0688C46.6517 49.1333 46.6165 49.1937 46.5723 49.2479C46.4997 49.3593 46.3907 49.5166 46.2522 49.7087C45.973 50.0931 45.5712 50.6151 45.1172 51.1785C44.6631 51.742 44.2227 52.2356 43.9004 52.585C43.7392 52.7597 43.6053 52.8995 43.5099 52.9934C43.4146 53.0873 43.3601 53.1375 43.3533 53.1332C43.5005 52.9229 43.6621 52.7223 43.8368 52.5326C44.1433 52.1701 44.5655 51.659 45.0241 51.1087C45.4827 50.5583 45.889 50.0342 46.1841 49.6607C46.3347 49.4533 46.4993 49.2556 46.6768 49.0688Z" fill="#455A64"/>
<path d="M50.2339 46.2516C50.2339 46.2516 50.2339 46.2931 50.2339 46.3739C50.2339 46.4547 50.2112 46.5792 50.193 46.7342C50.1567 47.0531 50.0999 47.5183 50.0295 48.1145C49.882 49.3135 49.6618 51.0497 49.3712 53.19C48.7969 57.4727 47.9251 63.3803 46.9875 69.9059C46.5199 73.1709 46.0795 76.2808 45.7253 79.1156C45.6323 79.8232 45.5574 80.5155 45.4529 81.186C45.3485 81.8565 45.2418 82.4964 45.1419 83.1297L44.5925 86.624C44.2588 88.7599 43.9955 90.4874 43.823 91.6842C43.7367 92.2804 43.6731 92.7456 43.6345 93.0623C43.6164 93.2195 43.6028 93.3397 43.5982 93.4205C43.5962 93.451 43.5962 93.4816 43.5982 93.5122C43.5982 93.5384 43.6141 93.5122 43.6141 93.5122C43.6141 93.5122 43.5959 93.5122 43.5982 93.5013C43.5939 93.4708 43.5939 93.44 43.5982 93.4095C43.5982 93.3287 43.6096 93.2064 43.6255 93.0492C43.655 92.7325 43.7117 92.2652 43.7912 91.6668C43.9501 90.4678 44.1998 88.7381 44.5222 86.6022C44.6879 85.532 44.8672 84.3636 45.0579 83.1079C45.1578 82.4789 45.2577 81.8303 45.3621 81.162C45.4665 80.4937 45.5392 79.8014 45.6323 79.0938C45.9909 76.2546 46.4177 73.1469 46.8831 69.8819C47.8207 63.3541 48.6992 57.4509 49.3031 53.1703C49.5959 51.0344 49.832 49.3026 49.9978 48.1014C50.0772 47.5052 50.1408 47.0422 50.1839 46.7211C50.2066 46.5683 50.2225 46.4481 50.2339 46.363C50.2452 46.2778 50.2339 46.2516 50.2339 46.2516Z" fill="#455A64"/>
<path d="M55.4148 92.6582C55.4179 92.6187 55.4232 92.5793 55.4307 92.5403C55.4443 92.4573 55.4625 92.3416 55.4874 92.1909C55.5442 91.8808 55.6237 91.4331 55.7145 90.8565C55.9256 89.6924 56.2321 88.0174 56.6089 85.9492L59.6146 69.7596C59.702 69.3754 59.7265 68.9804 59.6872 68.589C59.635 68.2002 59.5669 67.8071 59.5079 67.4227C59.3853 66.6496 59.2635 65.8889 59.1424 65.1405C58.8972 63.6467 58.6543 62.2053 58.4182 60.8338C57.9437 58.0907 57.4852 55.6251 57.0765 53.5591C56.6679 51.493 56.307 49.8267 56.0345 48.6801C55.9051 48.1057 55.7871 47.6624 55.7145 47.3697C55.6804 47.2234 55.6532 47.1077 55.6327 47.0269C55.6123 46.9461 55.6078 46.9089 55.6078 46.9089C55.622 46.9469 55.6341 46.9855 55.6441 47.0247L55.7394 47.3654C55.8189 47.6646 55.9437 48.1057 56.0799 48.6758C56.366 49.818 56.7383 51.4843 57.1583 53.5481C57.5782 55.612 58.0436 58.0776 58.5204 60.8207C58.761 62.1922 59.0039 63.6336 59.2513 65.1274C59.3724 65.8772 59.495 66.638 59.6191 67.4096C59.6804 67.7984 59.7462 68.1828 59.8007 68.5802C59.8407 68.9841 59.8154 69.3915 59.7258 69.788C58.5431 76.1017 57.4738 81.8193 56.6974 85.9623C56.3047 88.0283 55.9869 89.7012 55.7667 90.863C55.6554 91.4396 55.5669 91.8873 55.5079 92.1953C55.4784 92.3438 55.4534 92.4595 55.4375 92.5403C55.4216 92.6211 55.4148 92.6582 55.4148 92.6582Z" fill="#455A64"/>
<path d="M52.8581 53.1333C52.8922 53.1333 52.4904 55.7366 51.9614 58.9382C51.4325 62.1399 50.9807 64.7366 50.9535 64.7366C50.9262 64.7366 51.3235 62.1334 51.8502 58.9317C52.3769 55.73 52.8263 53.1289 52.8581 53.1333Z" fill="#455A64"/>
<path d="M46.1453 93.5798C46.0714 93.6006 45.9952 93.6131 45.9183 93.617C45.7753 93.6323 45.5664 93.652 45.3077 93.6717C44.7923 93.7111 44.0772 93.7483 43.2872 93.7592C42.4972 93.7701 41.7798 93.7592 41.2622 93.7351C41.0034 93.7351 40.7946 93.7133 40.6516 93.7001C40.5747 93.7013 40.4981 93.691 40.4246 93.6695C40.7033 93.6488 40.983 93.6445 41.2622 93.6564C41.7798 93.6564 42.4927 93.6564 43.2827 93.6454C44.0727 93.6345 44.7832 93.6104 45.3008 93.5908C45.5818 93.5688 45.8639 93.5652 46.1453 93.5798Z" fill="#455A64"/>
<path d="M57.1283 92.8744C57.0319 92.8786 56.9353 92.8734 56.84 92.8591L56.0591 92.7805C55.4007 92.7084 54.4927 92.5992 53.4893 92.4748C52.4859 92.3503 51.5778 92.2302 50.9217 92.1384L50.1453 92.0249C50.0494 92.0138 49.9545 91.9955 49.8616 91.9703C49.9585 91.9614 50.0562 91.9651 50.1522 91.9812C50.336 91.9965 50.6062 92.0227 50.9331 92.0576C51.5914 92.1297 52.5018 92.2367 53.5052 92.3612C54.5086 92.4857 55.4144 92.608 56.0704 92.6997L56.8468 92.8155C56.9427 92.8243 57.0372 92.8441 57.1283 92.8744Z" fill="#455A64"/>
<path d="M47.5481 21.477C47.6364 21.5208 47.72 21.5727 47.7978 21.6321L48.4652 22.0688C49.0328 22.4423 49.8273 22.9424 50.7354 23.4404C51.0759 23.6282 51.4164 23.8029 51.7161 23.9601L51.6344 23.9951C51.8251 23.27 51.993 22.6476 52.1156 22.2086C52.1747 22.0033 52.2246 21.833 52.2655 21.6932C52.2799 21.6305 52.302 21.5697 52.3313 21.5119C52.3297 21.5762 52.3198 21.64 52.3018 21.7019C52.27 21.8439 52.2314 22.0164 52.186 22.2239C52.0793 22.6607 51.9272 23.294 51.732 24.0213L51.7161 24.0868L51.6525 24.0562C51.3415 23.9012 51.0055 23.7265 50.665 23.5386C49.8865 23.111 49.1331 22.6422 48.4085 22.1344C48.1315 21.94 47.9113 21.774 47.7615 21.6583C47.6836 21.6056 47.6121 21.5448 47.5481 21.477Z" fill="#263238"/>
<path d="M55.0399 23.0843C54.7238 23.3277 54.3883 23.5467 54.0365 23.7395L53.9866 23.7701L53.9593 23.7176L53.6529 23.1433C53.4258 22.7065 53.2102 22.2915 53.0672 21.9945C52.9781 21.8385 52.9065 21.6737 52.8538 21.5031C52.9661 21.6448 53.062 21.7979 53.1398 21.9596C53.3033 22.2457 53.5235 22.6453 53.7573 23.0908L54.0638 23.6783L53.9866 23.6565C54.3228 23.4415 54.6749 23.2503 55.0399 23.0843Z" fill="#263238"/>
<path d="M53.5597 22.8702C53.4992 22.9275 53.4322 22.978 53.36 23.0209C53.2351 23.1105 53.058 23.2393 52.8605 23.3594C52.663 23.4796 52.4837 23.604 52.352 23.687C52.2802 23.7348 52.2043 23.7764 52.125 23.8115C52.1857 23.7538 52.2527 23.7025 52.3248 23.6586C52.4519 23.5713 52.629 23.4512 52.8242 23.3223L53.3327 22.9947C53.4045 22.947 53.4805 22.9054 53.5597 22.8702Z" fill="#263238"/>
<path d="M52.8779 23.3224C52.7161 23.2 52.5644 23.0656 52.4243 22.9206C52.2777 22.785 52.142 22.639 52.0183 22.4838C52.1757 22.6063 52.3229 22.7407 52.4583 22.8856C52.6096 23.0206 52.7499 23.1666 52.8779 23.3224Z" fill="#263238"/>
<path d="M48.6016 42.6963C48.6687 43.2422 48.8274 43.7739 49.0715 44.2709C49.3489 44.751 49.7063 45.1841 50.1294 45.5529C49.9738 45.4829 49.833 45.3859 49.714 45.2668C49.0974 44.7235 48.7029 43.9861 48.6016 43.1877C48.5713 43.0252 48.5713 42.8588 48.6016 42.6963Z" fill="#263238"/>
<path d="M49.9229 45.5746C49.1672 45.5126 48.4595 45.1927 47.9275 44.6726C47.9502 44.6464 48.3407 44.9456 48.89 45.1924C49.4394 45.4392 49.9298 45.5397 49.9229 45.5746Z" fill="#263238"/>
<path d="M54.3586 38.5837C54.3977 38.6575 54.426 38.7362 54.4426 38.8174C54.4903 38.9703 54.5516 39.1931 54.6197 39.4726C54.7605 40.0251 54.9262 40.7961 55.0578 41.6566C55.1895 42.517 55.2644 43.2989 55.2985 43.8689C55.3144 44.1528 55.3235 44.3821 55.3235 44.5415C55.3346 44.6235 55.3346 44.7064 55.3235 44.7883C55.3023 44.7083 55.2902 44.6263 55.2871 44.5437C55.269 44.3603 55.2485 44.1375 55.2236 43.8733C55.1691 43.3098 55.0828 42.5301 54.9511 41.674C54.8195 40.8179 54.6651 40.047 54.5471 39.4901C54.4926 39.2302 54.4449 39.0096 54.4063 38.8349C54.3808 38.7531 54.3648 38.6689 54.3586 38.5837Z" fill="#263238"/>
<path d="M52.8472 24.838C52.5521 27.1071 52.3342 32.045 52.2524 34.336C52.1843 36.2491 52.1911 38.1645 52.198 40.0798C52.198 40.6978 52.198 41.3355 52.4726 41.8968C52.9471 42.908 54.1071 43.4256 55.1718 43.8362L52.8472 24.838Z" fill="#E0E0E0"/>
<path d="M55.4938 43.5086L56.7129 40.6345L53.6641 24.5301L52.7742 24.6153C52.7742 24.6153 52.899 41.353 52.8582 41.5037L55.4938 43.5086Z" fill="#AAAAAA"/>
<path d="M53.6315 24.5301C53.4942 24.5727 53.3514 24.5959 53.2074 24.599C53.0659 24.6173 52.9225 24.6173 52.781 24.599C52.9211 24.5752 53.0629 24.5618 53.2051 24.559C53.3465 24.5406 53.4889 24.531 53.6315 24.5301Z" fill="#263238"/>
</svg>
