<svg width="94" height="97" viewBox="0 0 94 97" fill="none" xmlns="http://www.w3.org/2000/svg">
<path d="M92.7764 12.335V26.6791H71.3575L70.5857 12.4354L92.7764 12.335Z" fill="#E0E0E0"/>
<path d="M70.5857 12.4331V26.6484H92.0045V12.4331L70.5857 12.4331Z" fill="white"/>
<path d="M92.1044 26.7468H70.4767V12.3328H92.0976L92.1044 26.7468ZM70.6878 26.5524H91.9023V12.5402H70.6878V26.5524Z" fill="#E0E0E0"/>
<path d="M89.6843 14.2H72.9056V24.8838H89.6843V14.2Z" fill="white"/>
<path d="M89.6846 14.2H89.6006H89.3623H88.4406L84.9832 14.2131L72.906 14.2372L72.9536 14.1891C72.9536 17.465 72.9536 21.0707 72.9536 24.8708L72.9014 24.8206H89.6801L89.637 24.8621C89.637 21.6102 89.6551 18.9458 89.6597 17.0894C89.6597 16.1612 89.6597 15.4362 89.671 14.9404C89.671 14.6936 89.671 14.5036 89.671 14.3748C89.671 14.2459 89.671 14.1782 89.671 14.1782C89.671 14.1782 89.671 14.2415 89.671 14.366C89.671 14.4905 89.671 14.6805 89.671 14.9229C89.671 15.4187 89.671 16.1394 89.6824 17.0632C89.6824 18.9261 89.6937 21.5992 89.7028 24.8621V24.9014H89.6619L72.8833 24.9123H72.8311V24.8621C72.8311 21.062 72.8311 17.4366 72.8311 14.1804V14.1345H72.881L84.99 14.1564L88.4361 14.1695H89.3441H89.6551L89.6846 14.2Z" fill="#E0E0E0"/>
<path d="M70.5857 12.3939C70.7167 12.4527 70.8401 12.526 70.9535 12.6123C71.1805 12.7652 71.471 12.9814 71.7934 13.2282C72.1158 13.475 72.3995 13.7108 72.5993 13.8834C72.7147 13.9705 72.8177 14.0719 72.9058 14.1848C72.4981 13.9128 72.1048 13.6212 71.7276 13.3112C71.3266 13.0296 70.9452 12.7232 70.5857 12.3939Z" fill="#E0E0E0"/>
<path d="M92.0046 12.4354C91.6493 12.7679 91.27 13.0759 90.8696 13.3571C90.4934 13.6647 90.0951 13.9464 89.6777 14.2001C90.0327 13.8671 90.412 13.5591 90.8128 13.2784C91.1874 12.9689 91.5858 12.6871 92.0046 12.4354Z" fill="#E0E0E0"/>
<path d="M91.9863 26.6508L89.5981 24.79L91.9863 26.6508Z" fill="white"/>
<path d="M89.5981 24.79C90.0278 25.0602 90.4381 25.3579 90.8263 25.6811C91.2349 25.9792 91.6224 26.3032 91.9863 26.6508C91.556 26.3815 91.1456 26.0837 90.7582 25.7597C90.349 25.4623 89.9614 25.1383 89.5981 24.79Z" fill="#E0E0E0"/>
<path d="M70.5857 26.6507C70.9332 26.3196 71.3057 26.0137 71.7003 25.7356C72.0726 25.4315 72.4671 25.1534 72.8808 24.9036C72.5322 25.2329 72.1598 25.538 71.7662 25.8165C71.394 26.1215 70.9995 26.4003 70.5857 26.6507Z" fill="#E0E0E0"/>
<path d="M76.3132 17.5284V21.1057H86.8694V17.5284H76.3132Z" fill="#E0E0E0"/>
<path d="M33.5662 4.29364C33.5662 4.29364 33.5481 4.29364 33.514 4.27835L33.3619 4.22157L32.7898 4.00317L30.6922 3.12959L23.7887 0.235866L23.5503 0.135405H23.6003L16.8352 2.91775L14.7921 3.74328L14.2336 3.96168C14.17 3.98978 14.1039 4.01244 14.0361 4.02938C14.0967 3.99533 14.1596 3.96541 14.2246 3.93984L14.7717 3.6996L16.8148 2.82603L23.5639 0.0109196L23.5889 0L23.6139 0.0109196L23.8523 0.111381L30.7399 3.03787L32.8239 3.93766L33.3869 4.18663L33.5322 4.25433C33.5444 4.26667 33.5558 4.27981 33.5662 4.29364Z" fill="#E0E0E0"/>
<path d="M44.3337 3.34143H0V35.2773H44.3337V3.34143Z" fill="#E0E0E0"/>
<path d="M42.9511 4.82642H1.55042V33.9646H42.9511V4.82642Z" fill="#FAFAFA"/>
<path d="M10.6947 17.5632C10.6947 17.5632 10.7378 22.4553 10.9966 23.9469L17.3735 23.6564C17.3735 23.6564 16.8128 18.8518 17.0284 17.5632H10.6947Z" fill="#E0E0E0"/>
<path d="M13.8341 18.2491C13.8341 18.2491 13.8341 18.2491 13.8591 18.2491H13.9272C14.016 18.2459 14.1049 18.2502 14.1928 18.2622C14.3332 18.2824 14.47 18.3213 14.5992 18.3779C14.7687 18.4593 14.9187 18.5739 15.0396 18.7142C15.1864 18.887 15.2911 19.0893 15.3461 19.3061C15.395 19.56 15.3714 19.8219 15.278 20.0639C15.23 20.1947 15.17 20.3212 15.0986 20.4417C15.0282 20.5662 14.9556 20.6885 14.8943 20.8239C14.7669 21.1022 14.6805 21.3962 14.6378 21.6975V21.7172H14.6173L13.9885 21.7281H13.3279H13.3052V21.7128C13.2777 21.4133 13.1731 21.1251 13.001 20.8742C12.9238 20.7497 12.8398 20.6317 12.7604 20.5116C12.6809 20.3915 12.5992 20.2932 12.5333 20.16C12.4156 19.9284 12.3805 19.6659 12.4335 19.4131C12.4698 19.195 12.5533 18.9867 12.6786 18.8016C12.7876 18.6533 12.9295 18.5303 13.0941 18.4412C13.2169 18.3765 13.3482 18.328 13.4845 18.2971C13.5703 18.2767 13.6576 18.2628 13.7456 18.2556H13.8137C13.8296 18.2556 13.8364 18.2556 13.8364 18.2556H13.8137H13.7456C13.659 18.2657 13.5733 18.2817 13.4891 18.3037C13.3548 18.3374 13.2258 18.388 13.1054 18.4543C12.946 18.5425 12.8095 18.6642 12.7059 18.8103C12.5877 18.9932 12.5104 19.1977 12.4789 19.4109C12.4293 19.6559 12.4644 19.9098 12.5787 20.1338C12.6483 20.2531 12.7241 20.369 12.8058 20.481C12.8829 20.5968 12.9692 20.7169 13.0464 20.8436C13.2239 21.1007 13.3316 21.3966 13.3597 21.7041L13.337 21.68H13.9976H14.6264L14.6037 21.7019C14.6483 21.3967 14.737 21.099 14.8671 20.8174C14.9284 20.682 15.0033 20.5531 15.0736 20.4308C15.1459 20.3133 15.2053 20.1889 15.2507 20.0595C15.3432 19.8202 15.3645 19.5608 15.312 19.3105C15.2607 19.0989 15.1606 18.9011 15.0192 18.7317C14.9023 18.5932 14.757 18.4795 14.5924 18.3976C14.4665 18.3397 14.3327 18.2993 14.1951 18.2774C14.1079 18.2646 14.0199 18.2573 13.9318 18.2556H13.8387L13.8341 18.2491Z" fill="white"/>
<path d="M14.1633 21.656C14.1629 21.6495 14.1629 21.6429 14.1633 21.6364V21.5796C14.1633 21.5294 14.1429 21.4551 14.127 21.3612C14.0998 21.1712 14.0566 20.8938 14.0271 20.551C14.0271 20.4658 14.0271 20.3762 14.0112 20.2823C13.9953 20.1884 14.0112 20.0901 14.0112 19.9875C14.0145 19.882 14.0391 19.7781 14.0839 19.6817C14.1313 19.5772 14.2181 19.4937 14.3268 19.4481C14.3847 19.4246 14.4486 19.4182 14.5104 19.4294C14.5721 19.4407 14.6291 19.4692 14.6741 19.5114C14.6975 19.5333 14.7162 19.5594 14.729 19.5883C14.7419 19.6171 14.7487 19.6482 14.749 19.6796C14.7469 19.7431 14.7239 19.8042 14.6832 19.8543C14.6431 19.9062 14.59 19.9476 14.5288 19.9744C14.4689 20.0019 14.4056 20.0217 14.3404 20.0334C14.2083 20.0607 14.0737 20.0761 13.9386 20.0792C13.8028 20.0837 13.6669 20.0771 13.5322 20.0596C13.4663 20.0511 13.4021 20.0335 13.3415 20.0072C13.2809 19.9813 13.2261 19.9442 13.1804 19.898C13.1347 19.8523 13.1026 19.7958 13.0873 19.7342C13.0741 19.6723 13.082 19.6079 13.11 19.5507C13.1368 19.4945 13.1846 19.4501 13.2439 19.4262C13.3021 19.4032 13.3674 19.4032 13.4255 19.4262C13.4806 19.4508 13.5276 19.4893 13.5617 19.5376C13.5936 19.5841 13.616 19.636 13.6276 19.6905C13.6488 19.7934 13.6602 19.8979 13.6616 20.0028C13.6616 20.2037 13.6821 20.3915 13.6911 20.5641C13.7093 20.9069 13.7229 21.1843 13.7343 21.3787C13.7343 21.4726 13.7343 21.5468 13.7343 21.5971V21.6539C13.7348 21.6604 13.7348 21.667 13.7343 21.6735C13.7333 21.667 13.7333 21.6604 13.7343 21.6539C13.7343 21.6407 13.7343 21.6211 13.7343 21.5971C13.7343 21.573 13.7343 21.4726 13.7184 21.3787C13.7184 21.1865 13.6911 20.9069 13.6707 20.5641C13.6707 20.3937 13.6503 20.2059 13.6367 20.0028C13.6349 19.8988 13.6242 19.795 13.6049 19.6927C13.592 19.6406 13.5697 19.591 13.539 19.5463C13.5062 19.502 13.4625 19.466 13.4119 19.4415C13.358 19.4208 13.2979 19.4208 13.2439 19.4415C13.1889 19.4632 13.1449 19.5047 13.1213 19.5573C13.0934 19.6098 13.0854 19.67 13.0986 19.7276C13.1134 19.7859 13.144 19.8394 13.1872 19.8827C13.2802 19.9701 13.4008 20.0254 13.53 20.0399C13.7961 20.072 14.0658 20.0631 14.3291 20.0137C14.3934 20.0017 14.456 19.9819 14.5152 19.9547C14.5721 19.9281 14.6218 19.8893 14.6605 19.8412C14.699 19.7945 14.7205 19.737 14.7218 19.6774C14.7225 19.6484 14.7168 19.6196 14.705 19.5928C14.6933 19.5661 14.6758 19.5421 14.6537 19.5223C14.6111 19.4829 14.5576 19.4562 14.4996 19.4453C14.4416 19.4345 14.3816 19.44 14.3268 19.4612C14.2268 19.5061 14.1464 19.5834 14.0998 19.6796C14.0559 19.7747 14.0312 19.877 14.0271 19.9809C14.0271 20.0814 14.0271 20.1797 14.0271 20.2714C14.0271 20.3631 14.0271 20.4549 14.0407 20.5422C14.068 20.8851 14.1088 21.1603 14.1361 21.3503C14.1361 21.4464 14.1588 21.5184 14.1656 21.5687V21.6255C14.1624 21.6354 14.1616 21.6458 14.1633 21.656Z" fill="white"/>
<path d="M13.3234 21.6889C13.3234 21.6889 13.3234 21.7653 13.3393 21.892C13.3551 22.0186 13.3574 22.2174 13.3688 22.4227V22.4096L13.7978 22.8857H13.7774L14.2723 22.8595H14.2519L14.4993 22.569L14.6219 22.4227V22.4423C14.6219 22.1628 14.6083 21.8963 14.6015 21.6561L14.6287 21.6801H13.7025H13.3347C13.3642 21.6774 13.3938 21.6774 13.4233 21.6801L13.6843 21.667L14.6287 21.6321H14.6537V21.6583C14.6537 21.9007 14.6696 22.165 14.6764 22.4445L14.5538 22.5886L14.3063 22.8791L13.8092 22.9031H13.7956L13.3756 22.4205C13.3756 22.2021 13.3756 22.0274 13.3756 21.8745C13.353 21.8141 13.3356 21.752 13.3234 21.6889Z" fill="white"/>
<path d="M14.6037 22.3792L14.5561 22.3595C14.514 22.341 14.4708 22.3249 14.4267 22.3114C14.281 22.2622 14.1269 22.2399 13.9726 22.2458C13.8205 22.2501 13.6705 22.2812 13.53 22.3377C13.4872 22.3541 13.4455 22.3731 13.4051 22.3945L13.3574 22.4164C13.3697 22.4043 13.3844 22.3946 13.4006 22.388C13.44 22.3643 13.4809 22.3431 13.5231 22.3245C13.6665 22.2639 13.8207 22.2305 13.9772 22.2261C14.1318 22.223 14.2858 22.2474 14.4312 22.2983C14.4748 22.3138 14.5173 22.3321 14.5583 22.353C14.5743 22.3603 14.5895 22.3691 14.6037 22.3792Z" fill="white"/>
<path d="M14.6038 22.1892L14.5561 22.1695C14.5266 22.1564 14.4834 22.1389 14.4267 22.1192C14.1367 22.0227 13.8201 22.032 13.5368 22.1454C13.4823 22.1673 13.4392 22.187 13.4097 22.2023C13.3801 22.2176 13.3665 22.2264 13.3643 22.2242L13.4074 22.1957C13.4467 22.1725 13.4876 22.152 13.53 22.1345C13.673 22.0728 13.8274 22.0393 13.984 22.0361C14.1389 22.03 14.2934 22.0546 14.438 22.1082C14.4825 22.1234 14.5258 22.1417 14.5674 22.1629C14.5804 22.1705 14.5926 22.1793 14.6038 22.1892Z" fill="white"/>
<path d="M14.5925 22.0057C14.5925 22.0057 14.5743 22.0057 14.5448 21.9882C14.5153 21.9707 14.4722 21.9576 14.4154 21.9379C14.2694 21.89 14.1156 21.8678 13.9614 21.8723C13.8054 21.875 13.6513 21.9062 13.5074 21.9642C13.4529 21.986 13.4098 22.0057 13.3802 22.021C13.3664 22.0306 13.3511 22.0379 13.3348 22.0429L13.378 22.0145C13.4167 21.9904 13.4578 21.9699 13.5006 21.9532C13.6437 21.8915 13.7979 21.8573 13.9546 21.8526C14.1093 21.8492 14.2633 21.8736 14.4086 21.9248C14.4523 21.9409 14.4948 21.9599 14.5357 21.9817L14.5925 22.0057Z" fill="white"/>
<path d="M3.59119 9.5592C3.59119 9.5592 3.63432 14.4512 3.89312 15.9429L10.27 15.6546C10.27 15.6546 9.70924 10.8499 9.9249 9.5592H3.59119Z" fill="#EBEBEB"/>
<path d="M8.95586 11.6142C8.24811 11.7155 7.53483 11.7768 6.81965 11.798C6.10725 11.86 5.39169 11.8819 4.67664 11.8636C5.38425 11.7609 6.09758 11.6988 6.81284 11.6777C7.52533 11.617 8.24085 11.5958 8.95586 11.6142Z" fill="white"/>
<path d="M8.96697 12.6517C8.25905 12.7515 7.54585 12.8128 6.83076 12.8354C6.11828 12.8961 5.40276 12.9173 4.68774 12.8989C5.3955 12.7976 6.10878 12.7363 6.82395 12.7151C7.53636 12.6531 8.25196 12.6319 8.96697 12.6517Z" fill="white"/>
<path d="M7.88186 13.6673C7.48286 13.7516 7.07581 13.7956 6.66734 13.7986C6.26051 13.8384 5.85055 13.8384 5.44373 13.7986C5.8437 13.7154 6.25137 13.6715 6.66053 13.6673C7.06659 13.6275 7.4758 13.6275 7.88186 13.6673Z" fill="white"/>
<path d="M3.2804 23.9514C3.2804 23.9514 3.32353 28.8413 3.58233 30.3351L9.95917 30.0446C9.95917 30.0446 9.39845 25.2399 9.61411 23.9514H3.2804Z" fill="#EBEBEB"/>
<path d="M8.6629 26.0064C7.95498 26.1064 7.24178 26.1677 6.52669 26.1902C5.8142 26.2509 5.09868 26.2721 4.38367 26.2536C5.09142 26.1524 5.8047 26.091 6.51988 26.0699C7.2322 26.0065 7.94788 25.9853 8.6629 26.0064Z" fill="white"/>
<path d="M8.66522 27.0416C7.95745 27.1427 7.24417 27.2041 6.52901 27.2253C5.8166 27.2874 5.101 27.3085 4.38599 27.2888C5.09374 27.1875 5.80702 27.1262 6.5222 27.105C7.23468 27.0443 7.95021 27.0231 8.66522 27.0416Z" fill="white"/>
<path d="M7.58011 28.0594C7.18088 28.1424 6.77397 28.1864 6.36558 28.1907C5.95872 28.2299 5.54882 28.2299 5.14197 28.1907C5.54192 28.1077 5.94966 28.0644 6.35877 28.0616C6.76476 28.0211 7.17397 28.0203 7.58011 28.0594Z" fill="white"/>
<path d="M20.7174 10.8564L21.3485 24.9647L39.6573 25.1766L38.8355 11.0421L20.7174 10.8564Z" fill="#EBEBEB"/>
<path d="M38.6923 10.7559H20.5061V23.9666H38.6923V10.7559Z" fill="#F5F5F5"/>
<path d="M38.6947 23.9667C38.6947 23.9667 38.6947 23.8815 38.6947 23.7199C38.6947 23.5583 38.6947 23.3224 38.6947 23.0167C38.6947 22.3964 38.6947 21.4879 38.6834 20.3435C38.6834 18.0394 38.6675 14.7439 38.6561 10.756L38.7061 10.804H20.5222L20.5835 10.7451C20.5835 15.4951 20.5835 19.9941 20.5835 23.9558L20.5267 23.9012L33.6436 23.9274L37.3735 23.9426H38.3656H38.6221H38.7106H38.6289H38.3792H37.3985L33.68 23.9558L20.5267 23.982H20.47V23.9274C20.47 19.9657 20.47 15.4668 20.47 10.7167V10.6555H20.5335H38.7174H38.7696V10.7057C38.7583 14.7067 38.7492 18.0132 38.7424 20.3151C38.7424 21.4617 38.7424 22.3593 38.7288 22.9773C38.7288 23.2787 38.7288 23.5102 38.7288 23.6718C38.7288 23.8334 38.6947 23.9667 38.6947 23.9667Z" fill="#E0E0E0"/>
<path d="M30.0703 13.5536H22.6991V22.4794H30.0703V13.5536Z" fill="#F5F5F5"/>
<path d="M30.068 22.4794C30.067 22.4641 30.067 22.4488 30.068 22.4335V22.3069C30.068 22.1889 30.068 22.0273 30.068 21.8198C30.068 21.3831 30.068 20.7694 30.0522 19.9875C30.0522 18.4173 30.0363 16.194 30.0249 13.5536L30.0794 13.6082H22.7082C22.6946 13.6213 22.8263 13.4946 22.7718 13.5492V14.1607C22.7718 14.366 22.7718 14.5691 22.7718 14.7723V15.9756C22.7718 16.7684 22.7718 17.5415 22.7718 18.2906C22.7718 19.791 22.7718 21.1952 22.7718 22.4707L22.7196 22.4204L28.0567 22.4466L29.555 22.4597H29.9523C30.0431 22.4597 30.0907 22.4597 30.0907 22.4597C30.0484 22.4629 30.0059 22.4629 29.9636 22.4597H29.5754L28.0907 22.4728L22.7196 22.4991H22.6674V22.4488C22.6674 21.1734 22.6674 19.7691 22.6674 18.2687C22.6674 17.5197 22.6674 16.74 22.6674 15.9538V13.558L22.7309 13.4968H30.1021H30.1588V13.5492C30.1588 16.2049 30.1384 18.4391 30.1316 20.0181C30.1316 20.7956 30.1316 21.4093 30.1157 21.8373C30.1157 22.0412 30.1157 22.2006 30.1157 22.3156C30.1157 22.3636 30.1157 22.4051 30.1157 22.4357C30.1157 22.4663 30.068 22.4816 30.068 22.4794Z" fill="#E0E0E0"/>
<path d="M37.1077 11.5115H22.9806V12.7978H37.1077V11.5115Z" fill="#F5F5F5"/>
<path d="M37.1057 12.798C37.1025 12.7689 37.1025 12.7397 37.1057 12.7106C37.1057 12.6473 37.1057 12.5643 37.1057 12.4595C37.1057 12.2411 37.1057 11.92 37.0921 11.5116L37.1171 11.5357C34.7334 11.5575 29.3032 11.5728 22.9899 11.5728L23.0535 11.5116V12.7936L22.9899 12.7325L32.9967 12.7587L36.0024 12.7761H36.8197H37.0331H37.1103H37.0422H36.8356H36.0319L33.0422 12.7936L22.9809 12.8176H22.9196V11.516L22.9809 11.457C29.2941 11.457 34.7243 11.4701 37.108 11.492H37.133V11.516C37.133 11.9309 37.1284 12.252 37.1193 12.4791C37.1193 12.5818 37.1193 12.6604 37.1193 12.7237C37.1193 12.7871 37.1057 12.8002 37.1057 12.798Z" fill="#E0E0E0"/>
<path d="M37.1102 13.5536H30.974V18.9326H37.1102V13.5536Z" fill="#F5F5F5"/>
<path d="M37.1056 18.9327C37.103 18.8985 37.103 18.8642 37.1056 18.83V18.5374C37.1056 18.2753 37.1056 17.9062 37.092 17.4454C37.092 16.4997 37.0761 15.1632 37.0648 13.558L37.1193 13.6104H30.9899L31.0512 13.5514V16.3905C31.0512 17.2925 31.0512 18.1377 31.0512 18.937L30.9762 18.8737L35.403 18.8999L36.6584 18.9152H36.9921H37.1124C37.077 18.9183 37.0412 18.9183 37.0058 18.9152H36.6811L35.4371 18.9283L30.9762 18.9567H30.9218V18.9021C30.9218 18.1137 30.9218 17.2576 30.9218 16.3556V14.9994C30.9218 14.7635 30.9218 14.5233 30.9218 14.283V13.5558L30.9853 13.4946H37.1147H37.1669V13.5449C37.1556 15.1632 37.1465 16.5107 37.1397 17.476C37.1397 17.9346 37.1397 18.2993 37.1261 18.5679C37.1261 18.6844 37.1261 18.7783 37.1261 18.8497C37.1225 18.878 37.1156 18.9058 37.1056 18.9327Z" fill="#E0E0E0"/>
<path d="M37.1102 19.7756H30.974V22.4794H37.1102V19.7756Z" fill="#F5F5F5"/>
<path d="M37.1057 22.4793C37.1006 22.4139 37.1006 22.3482 37.1057 22.2827V21.7411C37.1057 21.2628 37.0898 20.5967 37.0807 19.7756L37.1261 19.8193L30.9967 19.8367C30.9399 19.8913 31.0716 19.7625 31.058 19.7778V21.1646C31.058 21.6166 31.058 22.0556 31.058 22.4749L30.999 22.4182L35.3872 22.4444L36.6653 22.4618H37.0103H37.1352C37.0982 22.4649 37.061 22.4649 37.0239 22.4618H36.6925L35.4258 22.4771L30.999 22.5033H30.9399V22.4465C30.9399 22.0272 30.9399 21.5883 30.9399 21.1362C30.9399 20.9178 30.9399 20.6819 30.9399 20.4482V19.7494C30.9263 19.7494 31.0603 19.6336 31.0035 19.6882L37.1329 19.7035H37.1783V19.745C37.167 20.5771 37.1602 21.2541 37.1533 21.7368C37.1533 21.9552 37.1533 22.1364 37.142 22.2696C37.1357 22.3404 37.1236 22.4105 37.1057 22.4793Z" fill="#E0E0E0"/>
<path d="M29.8887 13.5688C27.6072 16.6023 24.9806 19.448 22.6991 22.4793L29.8887 13.5688Z" fill="white"/>
<path d="M22.6991 22.4793C22.7142 22.4438 22.7349 22.4106 22.7604 22.3811L22.9511 22.1081C23.1213 21.8722 23.3733 21.5381 23.6889 21.1297C24.3245 20.3085 25.2303 19.199 26.2451 17.987C27.2598 16.7749 28.177 15.6742 28.8285 14.8683L29.5958 13.9139L29.8069 13.654C29.8569 13.5972 29.8841 13.5667 29.8887 13.5688C29.8734 13.605 29.8528 13.6389 29.8274 13.6693C29.7752 13.7436 29.7139 13.8331 29.6367 13.9401C29.4664 14.176 29.2144 14.5101 28.8989 14.9207C28.2655 15.7397 27.3574 16.8491 26.3427 18.0634C25.3279 19.2777 24.4108 20.374 23.7593 21.1799L22.9919 22.1365C22.9057 22.2391 22.8376 22.3243 22.7808 22.3942C22.7241 22.464 22.7036 22.4815 22.6991 22.4793Z" fill="#E0E0E0"/>
<path d="M30.0683 22.4794C30.041 22.5013 28.3702 20.5139 26.3339 18.0548C24.2975 15.5956 22.6698 13.5755 22.7016 13.5536C22.7334 13.5318 24.3997 15.5192 26.436 17.9805C28.4723 20.4418 30.0978 22.4598 30.0683 22.4794Z" fill="#E0E0E0"/>
<path d="M21.3486 13.5732C21.3486 13.7926 21.281 14.0071 21.1542 14.1896C21.0275 14.372 20.8474 14.5142 20.6367 14.5982C20.4259 14.6822 20.1941 14.7041 19.9704 14.6613C19.7467 14.6185 19.5412 14.5128 19.3799 14.3577C19.2186 14.2025 19.1088 14.0048 19.0643 13.7896C19.0198 13.5744 19.0426 13.3513 19.1299 13.1486C19.2172 12.9459 19.365 12.7726 19.5546 12.6507C19.7443 12.5288 19.9673 12.4637 20.1953 12.4637C20.5012 12.4637 20.7945 12.5806 21.0108 12.7887C21.2271 12.9968 21.3486 13.2789 21.3486 13.5732Z" fill="#E0E0E0"/>
<path d="M40.2111 10.8804C40.2111 11.0999 40.1435 11.3144 40.0168 11.4968C39.8901 11.6793 39.7099 11.8215 39.4992 11.9054C39.2885 11.9894 39.0566 12.0114 38.8329 11.9686C38.6092 11.9258 38.4037 11.8201 38.2424 11.6649C38.0812 11.5098 37.9713 11.3121 37.9268 11.0969C37.8823 10.8817 37.9052 10.6586 37.9924 10.4559C38.0797 10.2532 38.2275 10.0799 38.4172 9.95797C38.6068 9.83606 38.8298 9.771 39.0579 9.771C39.3638 9.771 39.6571 9.88788 39.8734 10.0959C40.0896 10.304 40.2111 10.5862 40.2111 10.8804Z" fill="#E0E0E0"/>
<path d="M73.6778 87.812V92.7849H72.8152V93.3265H73.6778V96.6548H89.8118V93.6257H88.6177V92.9705H89.8118V91.9812H90.343V91.5313H89.7119V87.8186L73.6778 87.812Z" fill="#F5F5F5"/>
<path d="M85.5277 87.8273V96.598H89.8115V93.5689H88.6174V92.9661L89.8115 92.9858V91.9965H90.354L90.3427 91.4854L89.7116 91.4701V87.812L85.5277 87.8273Z" fill="#E0E0E0"/>
<path d="M85.832 93.2551C85.832 93.2859 82.9126 93.3102 79.3121 93.3102C75.7116 93.3102 72.7922 93.2859 72.7922 93.2551C72.7922 93.2242 75.7116 93.2 79.3121 93.2C82.9126 93.2 85.832 93.2242 85.832 93.2551Z" fill="#E0E0E0"/>
<path d="M85.832 92.75C85.832 92.7806 82.9126 92.8047 79.3121 92.8047C75.7116 92.8047 72.7922 92.7806 72.7922 92.75C72.7922 92.7194 75.7116 92.6931 79.3121 92.6931C82.9126 92.6931 85.832 92.7194 85.832 92.75Z" fill="#E0E0E0"/>
<path d="M86.6696 91.3813C86.6696 91.4122 83.7502 91.4364 80.1497 91.4364C76.5493 91.4364 73.6299 91.4122 73.6299 91.3813C73.6299 91.3504 76.5493 91.3262 80.1497 91.3262C83.7502 91.3262 86.6696 91.3592 86.6696 91.3813Z" fill="#E0E0E0"/>
<path d="M86.7515 95.0935C86.7515 95.1241 83.8321 95.1504 80.2316 95.1504C76.6312 95.1504 73.7095 95.1241 73.7095 95.0935C73.7095 95.0629 76.6289 95.0388 80.2316 95.0388C83.8343 95.0388 86.7515 95.0651 86.7515 95.0935Z" fill="#E0E0E0"/>
<path d="M24.965 72.0331H37.2738C37.6892 72.0331 38.0876 71.8744 38.3814 71.5918C38.6751 71.3092 38.8402 70.9259 38.8402 70.5262V66.8768C38.8402 66.543 38.7718 66.2124 38.639 65.904C38.5062 65.5956 38.3116 65.3153 38.0662 65.0793C37.8208 64.8432 37.5295 64.656 37.2089 64.5282C36.8883 64.4005 36.5447 64.3347 36.1977 64.3347H24.8719L24.965 72.0331Z" fill="#EBEBEB"/>
<path d="M37.0669 74.3285H12.8648C12.5501 74.3262 12.249 74.2045 12.0271 73.9898C11.8052 73.7751 11.6804 73.4847 11.6798 73.182C11.6804 72.8775 11.8064 72.5856 12.0302 72.3703C12.254 72.155 12.5574 72.0338 12.8739 72.0332H37.0669C37.3832 72.0338 37.6863 72.1551 37.9098 72.3704C38.1332 72.5858 38.2587 72.8777 38.2587 73.182C38.2587 73.4861 38.1331 73.7777 37.9096 73.9927C37.6861 74.2077 37.383 74.3285 37.0669 74.3285Z" fill="#EBEBEB"/>
<path d="M7.93185 41.4644L21.2463 41.246L29.698 71.9763L11.6799 72.1401L4.86942 45.2033C4.75642 44.7577 4.75033 44.2931 4.8516 43.8449C4.95288 43.3967 5.15887 42.9765 5.45397 42.6162C5.74907 42.2559 6.12554 41.965 6.55485 41.7654C6.98416 41.5658 7.45505 41.4629 7.93185 41.4644Z" fill="#E0E0E0"/>
<path d="M14.5654 74.3284L10.5813 96.6002H11.6732L16.9105 74.3284H14.5654Z" fill="#EBEBEB"/>
<path d="M23.957 74.3284L19.7231 96.6002H20.8151L26.302 74.3284H23.957Z" fill="#E0E0E0"/>
<path d="M34.345 74.3284L39.0669 96.6002H37.975L31.9977 74.3284H34.345Z" fill="#EBEBEB"/>
<path d="M19.7231 41.2373L26.3066 72.0004H31.3599L26.0818 44.819C25.8883 43.8132 25.3348 42.9044 24.5175 42.2501C23.7002 41.5959 22.6706 41.2376 21.6074 41.2373H19.7231Z" fill="#EBEBEB"/>
<path d="M94 96.7228C94 96.7534 72.9988 96.7796 47.0964 96.7796C21.194 96.7796 0.188354 96.7534 0.188354 96.7228C0.188354 96.6921 21.185 96.6659 47.0964 96.6659C73.0079 96.6659 94 96.6899 94 96.7228Z" fill="#263238"/>
<path d="M34.5016 96.786H17.144L18.4562 84.6301L34.5016 84.5297V96.786Z" fill="#756FB3"/>
<g opacity="0.4">
<path d="M34.5016 96.786H17.144L18.4562 84.6301L34.5016 84.5297V96.786Z" fill="black"/>
</g>
<path d="M37.0328 84.5298H19.6753V96.7839H37.0328V84.5298Z" fill="#756FB3"/>
<g opacity="0.2">
<path d="M37.0328 84.5298H19.6753V96.7839H37.0328V84.5298Z" fill="black"/>
</g>
<path d="M37.1781 90.4636C37.1781 90.4942 33.2734 90.5205 28.4584 90.5205C23.6435 90.5205 19.7343 90.4942 19.7343 90.4636C19.7343 90.433 23.6389 90.4045 28.4584 90.4045C33.278 90.4045 37.1781 90.4308 37.1781 90.4636Z" fill="#263238"/>
<path d="M22.7672 91.6429C22.6886 91.033 22.6886 90.416 22.7672 89.8062C22.8459 90.416 22.8459 91.033 22.7672 91.6429Z" fill="#263238"/>
<path d="M34.8351 91.5773C34.7565 91.0332 34.7565 90.4812 34.8351 89.9371C34.9137 90.4812 34.9137 91.0332 34.8351 91.5773Z" fill="#263238"/>
<path d="M31.0125 84.593C31.0125 84.593 31.0124 84.4598 30.9716 84.2305C30.9111 83.9055 30.7795 83.5965 30.5857 83.3241C30.2996 82.9197 29.9028 82.5992 29.4392 82.3981C28.868 82.1562 28.2467 82.0434 27.6231 82.0683C26.9958 82.0733 26.3767 82.2065 25.807 82.4593C25.3458 82.6666 24.9467 82.9829 24.647 83.3787C24.446 83.646 24.3017 83.9488 24.2224 84.2698C24.168 84.4991 24.1657 84.6301 24.1543 84.6301C24.1509 84.5982 24.1509 84.566 24.1543 84.534C24.1546 84.4424 24.1638 84.351 24.1816 84.261C24.2452 83.9276 24.3822 83.6112 24.5834 83.3329C24.8826 82.917 25.2895 82.5835 25.7639 82.3654C26.3425 82.1014 26.9737 81.9613 27.614 81.9548C28.2552 81.9293 28.8936 82.049 29.4778 82.3042C29.9551 82.5176 30.3602 82.8559 30.647 83.2804C30.8412 83.564 30.9647 83.8869 31.0079 84.2239C31.0162 84.3147 31.0162 84.4061 31.0079 84.4969C31.0151 84.5284 31.0167 84.561 31.0125 84.593Z" fill="#263238"/>
<path d="M24.5017 37.2626C25.3312 36.8878 26.2638 36.7791 27.1623 36.9525C27.6459 37.0289 28.1498 37.1708 28.4767 37.5159C28.8036 37.861 28.8672 38.479 28.4904 38.7782C28.2471 38.9366 27.9541 39.0084 27.6617 38.9813C26.958 38.9813 26.1793 38.8547 25.6186 39.2609C25.2985 39.4924 25.0851 39.8789 24.7106 39.9925C24.5189 40.0349 24.3181 40.0163 24.1384 39.9395C23.9587 39.8627 23.8097 39.7319 23.714 39.5666C23.5321 39.2301 23.4915 38.8392 23.6005 38.4747C23.6436 38.2195 23.7474 37.9774 23.9037 37.7672C24.06 37.5569 24.2647 37.3843 24.5017 37.2626Z" fill="#756FB3"/>
<path d="M22.649 33.8184C23.1439 34.4998 24.1042 34.2748 24.5514 33.8599C24.9987 33.445 25.1848 32.8422 25.3573 32.27C25.7478 30.9596 26.1428 29.5837 25.8522 28.2493C25.7816 27.8452 25.5971 27.4675 25.3187 27.1574C25.1775 27.0048 24.997 26.8905 24.7954 26.8261C24.5938 26.7617 24.3781 26.7494 24.17 26.7905C23.6842 26.9128 23.3823 27.3692 23.1644 27.806C22.5228 29.0894 22.187 30.4943 22.1814 31.9184C22.1814 32.5736 22.2586 33.2746 22.649 33.8206" fill="#756FB3"/>
<path d="M21.2894 34.7945C21.5439 34.4754 21.7133 34.1011 21.783 33.7045C21.8526 33.3078 21.8203 32.9008 21.6889 32.5189C21.4198 31.7518 20.9349 31.0714 20.2882 30.5533C19.5551 29.9287 18.7022 29.448 17.7774 29.1381C17.4178 28.9969 17.0303 28.9336 16.6424 28.9525C16.4496 28.9631 16.2626 29.019 16.0975 29.1154C15.9325 29.2117 15.7945 29.3455 15.6957 29.505C15.4301 29.9899 15.6957 30.5773 15.9568 31.0556C16.4403 31.9011 16.9921 32.7088 17.6072 33.4711C18.0998 34.0848 18.6673 34.6897 19.4233 34.9649C20.1792 35.2401 20.9602 35.2095 21.3597 34.7072" fill="#756FB3"/>
<path d="M22.6153 44.0763C22.6405 43.9746 22.6557 43.8707 22.6607 43.7662C22.6834 43.5478 22.7106 43.2595 22.7447 42.9232C22.7888 42.5082 22.8547 42.0957 22.9422 41.6871C23.0565 41.1894 23.2129 40.7014 23.4099 40.2282C23.6014 39.7547 23.8621 39.3098 24.184 38.9069C24.4463 38.5788 24.7813 38.3109 25.1647 38.1229C25.4219 37.9993 25.6976 37.9153 25.9819 37.8739C26.0899 37.8701 26.1972 37.8555 26.302 37.8303C26.1934 37.819 26.0838 37.819 25.9751 37.8303C25.678 37.8544 25.3876 37.9283 25.117 38.0486C24.7132 38.2318 24.3589 38.5024 24.0818 38.8392C23.7463 39.2474 23.4762 39.7016 23.2805 40.1867C23.085 40.6675 22.9331 41.1637 22.8264 41.6696C22.7434 42.0838 22.6866 42.5024 22.6562 42.9232C22.6289 43.2814 22.6176 43.5784 22.613 43.7706C22.6026 43.8723 22.6033 43.9748 22.6153 44.0763Z" fill="#263238"/>
<path d="M22.6742 43.4277C22.6809 43.3799 22.6809 43.3314 22.6742 43.2836V42.873C22.6742 42.5192 22.6742 41.9994 22.6923 41.3682C22.7241 40.095 22.8399 38.7278 23.0578 36.7972C23.2667 34.9846 23.5459 32.8661 23.841 31.499C23.9046 31.1867 23.9681 30.9071 24.0272 30.6603C24.0862 30.4136 24.1339 30.2017 24.1815 30.0292C24.2292 29.8566 24.2542 29.7365 24.2814 29.6317C24.2955 29.5855 24.3039 29.5378 24.3064 29.4897C24.283 29.5325 24.2655 29.5781 24.2542 29.6251L24.1316 30.0161C24.0771 30.1864 24.0204 30.3983 23.9568 30.6451C23.8932 30.8918 23.8183 31.1692 23.7502 31.4815C23.3839 33.1048 23.1088 34.7458 22.9261 36.3976C22.6991 38.3304 22.6083 40.0906 22.5992 41.366C22.5992 42.0038 22.5992 42.5192 22.6219 42.8751C22.6219 43.0411 22.6401 43.1765 22.6469 43.2857C22.6513 43.3338 22.6605 43.3813 22.6742 43.4277Z" fill="#263238"/>
<path d="M22.6831 40.0317C22.6959 39.8863 22.6959 39.7402 22.6831 39.5949C22.6672 39.3197 22.6263 38.9222 22.5469 38.4352C22.4494 37.865 22.3183 37.3007 22.1541 36.7448C21.9626 36.0608 21.7167 35.392 21.4186 34.7443C20.9097 33.5499 20.1789 32.4546 19.262 31.5121C19.1032 31.3499 18.9333 31.1981 18.7534 31.0578C18.6763 30.9945 18.6081 30.9312 18.5264 30.8809L18.3289 30.7499C18.2106 30.6671 18.0853 30.5941 17.9543 30.5315C18.3866 30.8568 18.7969 31.2084 19.1825 31.5842C20.0694 32.5349 20.781 33.6243 21.2869 34.8055C21.5785 35.45 21.8249 36.1124 22.0247 36.7885C22.1937 37.3389 22.3331 37.8973 22.4424 38.4614C22.5355 38.9441 22.5877 39.335 22.6195 39.6102C22.6299 39.752 22.6512 39.8929 22.6831 40.0317Z" fill="#263238"/>
<path d="M19.2737 46.0222L19.6256 50.6828H25.8503L26.2044 46.0222H19.2737Z" fill="#263238"/>
<path d="M26.9466 44.1833H18.6719V46.02H26.9466V44.1833Z" fill="#263238"/>
<path d="M18.6719 50.5037V51.0133H19.0601H26.8104V50.5037H18.6719Z" fill="#455A64"/>
<path d="M19.4414 51.9103L19.0601 51.0127H26.513L26.068 51.9103H19.4414Z" fill="#455A64"/>
<path d="M26.0885 47.5445C26.0885 47.5445 26.0885 47.5598 26.059 47.5882L25.9659 47.7061L25.6049 48.1429L25.5868 48.1648L25.5732 48.1429L24.681 46.9571H24.7332L23.8547 48.1517L23.8274 48.191L23.7979 48.1539C23.4733 47.7848 23.1169 47.3829 22.7582 46.9636H22.8172L22.7604 47.0335L21.8297 48.1539L21.7979 48.191L21.7707 48.1517L20.8921 46.9592H20.9443L19.8637 48.1429L19.8433 48.1648L19.8297 48.1407L19.4914 47.5926L19.4052 47.4484C19.3937 47.4322 19.3845 47.4146 19.3779 47.396C19.3915 47.4102 19.4037 47.4255 19.4143 47.4419L19.5096 47.5817L19.866 48.1189H19.832L20.8944 46.9199L20.9216 46.8893L20.9466 46.9221C21.2145 47.2825 21.5119 47.6843 21.832 48.1102H21.7707L22.6992 46.9854L22.7559 46.9177L22.7854 46.8806L22.8172 46.9156C23.1804 47.3349 23.53 47.7389 23.8547 48.1102H23.7956L24.681 46.9199L24.7082 46.885L24.7332 46.9199L25.6049 48.1189H25.5732C25.7321 47.9376 25.8592 47.7913 25.95 47.6821L26.0522 47.5707C26.0631 47.5606 26.0753 47.5518 26.0885 47.5445Z" fill="#E0E0E0"/>
<path d="M26.2907 45.9924C26.2907 46.0124 24.7311 46.0302 22.8083 46.0302C20.8855 46.0302 19.3236 46.0124 19.3236 45.9924C19.3236 45.9724 20.8832 45.9546 22.8037 45.9546C24.7243 45.9546 26.2907 45.9701 26.2907 45.9924Z" fill="#455A64"/>
<path d="M26.6063 51.0634C26.6063 51.0857 24.9105 51.1012 22.8197 51.1012C20.7289 51.1012 19.0354 51.0857 19.0354 51.0634C19.0354 51.0412 20.7289 51.0256 22.8197 51.0256C24.9105 51.0256 26.6063 51.0434 26.6063 51.0634Z" fill="#263238"/>
<path d="M58.808 52.0128H77.0327V51.1611H58.808V52.0128Z" fill="#263238"/>
<path d="M79.8569 52.0129L83.2757 39.691H69.0442L65.95 52.0129H79.8569Z" fill="#263238"/>
<path d="M66.8038 51.0803H79.5144L82.4747 40.261H69.696L66.8038 51.0803Z" fill="#455A64"/>
<path d="M79.6026 51.1961H66.6627L69.6139 40.1562H82.6264L79.6026 51.1961ZM66.9488 50.9777H79.4346L82.3336 40.3746H69.7955L66.9488 50.9777Z" fill="#263238"/>
<path d="M22.1672 54.4065H21.2487V96.679H22.1672V54.4065Z" fill="#455A64"/>
<path d="M23.0888 54.5266H22.1703V96.6768H23.0888V54.5266Z" fill="#263238"/>
<path d="M78.8686 54.4065H77.9501V96.679H78.8686V54.4065Z" fill="#455A64"/>
<path d="M79.7879 54.5266H78.8694V96.6768H79.7879V54.5266Z" fill="#263238"/>
<path d="M92.6313 51.9496H10.5813V55.4177H92.6313V51.9496Z" fill="#455A64"/>
<path d="M78.4109 55.4176H47.6345V61.157H78.4109V55.4176Z" fill="#455A64"/>
<path d="M64.3948 57.8898C64.3948 58.0194 64.3549 58.1461 64.28 58.2538C64.2052 58.3615 64.0988 58.4455 63.9744 58.4951C63.8499 58.5447 63.713 58.5577 63.5809 58.5324C63.4488 58.5071 63.3274 58.4447 63.2322 58.3531C63.1369 58.2615 63.0721 58.1447 63.0458 58.0176C63.0195 57.8905 63.033 57.7588 63.0846 57.6391C63.1361 57.5194 63.2234 57.417 63.3354 57.345C63.4474 57.273 63.5791 57.2346 63.7138 57.2346C63.8944 57.2346 64.0676 57.3037 64.1953 57.4265C64.3231 57.5494 64.3948 57.716 64.3948 57.8898Z" fill="#263238"/>
<path d="M85.1145 55.4177C85.1145 55.4483 74.4448 55.4746 61.3007 55.4746C48.1565 55.4746 37.4868 55.4483 37.4868 55.4177C37.4868 55.3871 48.1565 55.3608 61.3007 55.3608C74.4448 55.3608 85.1145 55.3871 85.1145 55.4177Z" fill="#263238"/>
<path d="M56.715 14.6194C56.8376 14.6194 58.4971 14.8858 58.4971 14.8858L60.7423 17.607L61.0805 18.1224L58.0521 19.9853L56.715 18.0809L55.58 17.3712C55.7489 17.247 55.9502 17.1701 56.1617 17.1489C56.3732 17.1277 56.5867 17.163 56.7786 17.251C57.2261 17.4321 57.7075 17.5227 58.1929 17.5175L57.7934 16.4255L56.5629 16.1896L56.715 14.6194Z" fill="#EB996E"/>
<path d="M56.8558 12.715C56.9029 12.7031 56.9521 12.7009 57.0001 12.7085C57.0482 12.7161 57.094 12.7334 57.1347 12.7591C57.1754 12.7848 57.2099 12.8185 57.2362 12.8579C57.2625 12.8974 57.2798 12.9417 57.2872 12.988C57.471 14.104 58.0272 17.4629 58.1952 18.4478C58.2094 18.5263 58.1925 18.6069 58.148 18.674C58.1035 18.7411 58.0345 18.7898 57.9546 18.8104L55.2826 19.5289C55.2365 19.5416 55.1881 19.5444 55.1407 19.5373C55.0933 19.5302 55.0481 19.5133 55.0082 19.4878C54.9683 19.4623 54.9346 19.4287 54.9095 19.3894C54.8843 19.3501 54.8684 19.3061 54.8626 19.2603L54.1317 13.6847C54.1207 13.6031 54.1413 13.5205 54.1894 13.4524C54.2375 13.3844 54.3098 13.3357 54.3927 13.3156L56.8558 12.715Z" fill="#263238"/>
<path d="M55.0624 18.8409L57.7866 18.1093L57.0647 13.4706C57.0551 13.4081 57.0318 13.3483 56.9965 13.2951C56.9611 13.2419 56.9145 13.1964 56.8596 13.1618C56.8047 13.1271 56.7428 13.104 56.678 13.094C56.6132 13.084 56.5469 13.0873 56.4835 13.1037L54.3019 13.6606L55.0624 18.8409Z" fill="#EBEBEB"/>
<path d="M57.7296 15.447L56.506 16.3206C56.506 16.3206 56.6081 16.6307 56.7943 16.6526C57.1908 16.6027 57.5825 16.5224 57.9657 16.4123L57.7296 15.447Z" fill="#EB996E"/>
<path d="M57.5825 14.7417L56.2998 15.2833C56.2998 15.2833 56.2181 15.6852 56.6971 15.6284L56.2681 15.9254C56.2681 15.9254 56.3748 16.1045 56.9105 16.1263C57.4463 16.1482 57.9661 15.4318 57.9661 15.4318L57.5825 14.7417Z" fill="#EB996E"/>
<path d="M58.8561 16.1153C58.8561 16.1305 58.6994 16.1021 58.5292 15.9493C58.4354 15.8648 58.3369 15.7853 58.2341 15.7112C58.1763 15.6703 58.1086 15.6444 58.0374 15.636C57.9662 15.6276 57.894 15.637 57.8277 15.6632C57.4716 15.8604 57.0996 16.0299 56.7153 16.1699C57.0474 15.9272 57.4068 15.7214 57.7868 15.5562C57.8738 15.5221 57.9688 15.5115 58.0615 15.5256C58.1434 15.5441 58.2206 15.5783 58.2885 15.626C58.3948 15.7049 58.4922 15.7942 58.5791 15.8925C58.666 15.9728 58.7585 16.0473 58.8561 16.1153Z" fill="#D1734A"/>
<path d="M58.6035 19.1904C58.3839 18.9349 58.2474 18.6227 58.2111 18.2929C58.1747 17.9631 58.2403 17.6303 58.3994 17.3362C58.3373 17.6469 58.3137 17.9636 58.3291 18.2796C58.3824 18.5927 58.4745 18.8984 58.6035 19.1904Z" fill="#D1734A"/>
<path d="M58.4451 15.2859C58.4292 15.299 58.3611 15.2049 58.1976 15.1546C57.979 15.0958 57.7452 15.1217 57.5461 15.2268C57.3054 15.3384 57.0921 15.4805 56.9218 15.5483C56.7515 15.6161 56.6312 15.6315 56.6289 15.6183C56.6267 15.6052 56.7288 15.5658 56.8832 15.4762C57.0376 15.3865 57.2373 15.2421 57.4984 15.124C57.6216 15.0646 57.7559 15.0296 57.8934 15.0212C58.008 15.0147 58.1224 15.035 58.2271 15.0803C58.3974 15.1612 58.4451 15.2815 58.4451 15.2859Z" fill="#D1734A"/>
<path d="M58.3383 23.0232L65.0102 27.1443L63.2418 32.0101C63.2418 32.0101 58.6765 30.6539 58.7605 30.5119C58.8445 30.37 58.3383 23.0232 58.3383 23.0232Z" fill="#756FB3"/>
<path d="M56.6131 88.8867L55.562 93.5363C55.562 93.5363 60.1228 96.1243 60.0161 97L50.5723 95.3664L51.898 88.0568L56.6131 88.8867Z" fill="#263238"/>
<path d="M50.5723 95.3664L50.7357 94.6348L59.73 96.4758C59.73 96.4758 60.116 96.7248 60.0161 97L50.5723 95.3664Z" fill="#455A64"/>
<path d="M45.8707 89.3977L45.714 94.1522C45.714 94.1522 50.6879 95.8993 50.7469 96.7838L41.151 96.8253L41.0784 89.3999L45.8707 89.3977Z" fill="#263238"/>
<g opacity="0.6">
<path d="M41.151 96.8253L41.1737 96.0762L50.3655 96.3186C50.3655 96.3186 50.7946 96.4955 50.7469 96.7838L41.151 96.8253Z" fill="#455A64"/>
</g>
<path d="M47.2621 11.4177L48.2405 22.3374L53.9159 21.9006C53.9499 21.2629 53.9023 18.795 53.9023 18.795C53.9023 18.795 56.2655 18.4412 56.295 16.1743C56.3086 15.0692 56.1452 12.7892 55.9726 10.7341C55.8836 9.63703 55.3513 8.6172 54.4898 7.89333C53.6283 7.16946 52.5062 6.7992 51.3642 6.86195C50.7812 6.89464 50.211 7.03936 49.687 7.28755C49.1631 7.53575 48.6962 7.8824 48.3139 8.30704C47.9315 8.73168 47.6414 9.22571 47.4608 9.75997C47.2801 10.2942 47.2126 10.8579 47.2621 11.4177Z" fill="#EB996E"/>
<path d="M53.9047 18.7536C52.8137 18.7727 51.7414 18.4793 50.8241 17.9106C50.8241 17.9106 51.5528 19.5464 53.9092 19.3411L53.9047 18.7536Z" fill="#D1734A"/>
<path d="M55.0619 12.3223C55.0626 12.4072 55.0288 12.4891 54.9678 12.5503C54.9068 12.6116 54.8234 12.6475 54.7353 12.6504C54.6925 12.6536 54.6494 12.6486 54.6086 12.6355C54.5677 12.6225 54.5301 12.6017 54.4977 12.5744C54.4654 12.5471 54.439 12.5138 54.4203 12.4765C54.4015 12.4392 54.3906 12.3987 54.3883 12.3573C54.3877 12.2727 54.4211 12.1912 54.4816 12.1299C54.5422 12.0687 54.625 12.0326 54.7126 12.0292C54.7556 12.0259 54.7988 12.0309 54.8398 12.0439C54.8807 12.057 54.9185 12.0777 54.9511 12.105C54.9836 12.1323 55.0101 12.1656 55.0292 12.2029C55.0482 12.2402 55.0593 12.2808 55.0619 12.3223Z" fill="#263238"/>
<path d="M55.471 11.8637C55.4302 11.9074 55.1737 11.7237 54.8104 11.7259C54.4472 11.7281 54.1816 11.9009 54.143 11.8593C54.1044 11.8178 54.1657 11.7631 54.2815 11.6821C54.439 11.5775 54.6259 11.5218 54.8172 11.5225C55.0064 11.5218 55.1909 11.5793 55.3439 11.6865C55.4552 11.7674 55.4937 11.8462 55.471 11.8637Z" fill="#263238"/>
<path d="M51.575 12.3222C51.5762 12.407 51.5429 12.4888 51.4823 12.5502C51.4216 12.6115 51.3385 12.6475 51.2506 12.6503C51.2077 12.6536 51.1644 12.6486 51.1235 12.6355C51.0826 12.6225 51.0447 12.6018 51.0122 12.5745C50.9797 12.5472 50.9531 12.5139 50.9341 12.4766C50.9151 12.4393 50.9039 12.3987 50.9014 12.3572C50.9013 12.2724 50.9353 12.1909 50.9962 12.1297C51.057 12.0686 51.1401 12.0325 51.228 12.0291C51.2708 12.0262 51.3137 12.0314 51.3544 12.0446C51.3951 12.0577 51.4326 12.0785 51.4649 12.1058C51.4972 12.1331 51.5235 12.1662 51.5424 12.2034C51.5613 12.2405 51.5724 12.2809 51.575 12.3222Z" fill="#263238"/>
<path d="M51.9024 11.9292C51.8616 11.9708 51.605 11.7892 51.2418 11.7914C50.8786 11.7936 50.613 11.9664 50.5744 11.9226C50.5358 11.8789 50.5971 11.8286 50.7129 11.7477C50.8695 11.6413 51.057 11.5854 51.2486 11.588C51.438 11.5866 51.6227 11.6441 51.7753 11.752C51.8865 11.833 51.9229 11.9095 51.9024 11.9292Z" fill="#263238"/>
<path d="M53.2236 14.5188C53.4152 14.4613 53.6134 14.4268 53.8138 14.4162C53.9046 14.4162 53.9932 14.3899 54.0091 14.3288C54.0164 14.2368 53.9951 14.1448 53.9478 14.0645C53.8592 13.8461 53.7684 13.6278 53.6731 13.3853C53.2917 12.4178 53.017 11.6229 53.0579 11.6098C53.0987 11.5967 53.4392 12.3676 53.8206 13.3329C53.9114 13.5732 54 13.8003 54.0817 14.0165C54.1403 14.1245 54.158 14.2489 54.1316 14.3681C54.1182 14.3997 54.0972 14.4278 54.0704 14.4502C54.0436 14.4726 54.0117 14.4886 53.9773 14.497C53.9263 14.5108 53.8736 14.5181 53.8206 14.5188C53.6225 14.5438 53.4218 14.5438 53.2236 14.5188Z" fill="#263238"/>
<path d="M52.1522 14.7613C52.2112 14.7613 52.2112 15.1369 52.5495 15.4165C52.8877 15.696 53.3054 15.6348 53.31 15.6982C53.3145 15.7615 53.2169 15.7703 53.0375 15.7746C52.8063 15.776 52.5819 15.6986 52.4042 15.5562C52.2279 15.4216 52.1144 15.2253 52.0886 15.0102C52.0886 14.853 52.1249 14.7591 52.1522 14.7613Z" fill="#263238"/>
<path d="M51.9977 10.5599C51.9614 10.6561 51.5982 10.6102 51.1714 10.6605C50.7446 10.7108 50.4018 10.8223 50.3451 10.737C50.3201 10.6955 50.3791 10.6058 50.5199 10.5183C50.7049 10.4047 50.9145 10.3337 51.1326 10.3105C51.3506 10.2874 51.5713 10.3128 51.7775 10.3849C51.9342 10.4395 52.0113 10.5161 51.9977 10.5599Z" fill="#263238"/>
<path d="M55.3393 10.8526C55.2757 10.9335 55.0237 10.8526 54.7241 10.8526C54.4244 10.8526 54.1679 10.9073 54.1089 10.8241C54.0839 10.7826 54.1248 10.7038 54.236 10.6273C54.3857 10.5376 54.5596 10.4927 54.7357 10.4981C54.9119 10.5036 55.0824 10.5592 55.2258 10.6579C55.3325 10.7323 55.3665 10.8154 55.3393 10.8526Z" fill="#263238"/>
<path d="M49.8186 8.92577H49.805C49.4318 9.21303 49.1879 9.62755 49.1239 10.0833V10.1291C49.0309 10.7843 49.049 11.4395 48.9491 12.0947C48.8493 12.7499 48.6177 13.405 48.1183 13.8418C47.914 14.0253 47.553 14.152 47.385 13.9379C47.3275 13.8489 47.2983 13.7457 47.301 13.6409C47.1739 12.075 46.7289 10.686 46.7335 9.05462C46.731 8.8353 46.7831 8.61858 46.8854 8.42255C46.9877 8.22652 47.1372 8.05686 47.3214 7.9277C47.6779 7.6831 48.1115 7.42758 48.5087 7.60885C48.906 7.79011 49.4168 8.50208 49.7233 8.80347" fill="#263238"/>
<path d="M48.059 12.4462C48.0181 12.4287 46.4358 11.9832 46.4858 13.5382C46.5357 15.0932 48.1498 14.7219 48.1498 14.6782C48.1498 14.6345 48.059 12.4462 48.059 12.4462Z" fill="#EB996E"/>
<path d="M47.636 14.1039C47.636 14.1039 47.6088 14.1235 47.5634 14.1454C47.4973 14.1753 47.4216 14.1792 47.3525 14.1563C47.2463 14.096 47.1587 14.0096 47.0985 13.906C47.0383 13.8024 47.0078 13.6853 47.0101 13.5666C47.0017 13.4332 47.0242 13.2997 47.0758 13.1757C47.0888 13.126 47.1142 13.0802 47.1498 13.0421C47.1853 13.0041 47.23 12.975 47.2799 12.9573C47.3121 12.9483 47.3464 12.9502 47.3773 12.9625C47.4082 12.9748 47.4339 12.9968 47.45 13.025C47.4727 13.0687 47.4637 13.0993 47.4727 13.1014C47.4818 13.1036 47.5045 13.0752 47.4909 13.0119C47.4804 12.9733 47.4564 12.9393 47.4228 12.9158C47.3768 12.8862 47.3212 12.8737 47.2663 12.8809C47.2007 12.8963 47.1401 12.9275 47.0902 12.9713C47.0402 13.0152 47.0026 13.0705 46.9806 13.132C46.9164 13.2689 46.8883 13.419 46.8989 13.5688C46.9193 13.8833 47.0962 14.1694 47.3298 14.224C47.3737 14.2347 47.4196 14.2357 47.4639 14.227C47.5083 14.2183 47.5501 14.2001 47.5861 14.1738C47.636 14.141 47.6428 14.1061 47.636 14.1039Z" fill="#D1734A"/>
<path d="M48.4564 7.84916C48.0591 7.22674 49.1488 6.33351 49.9456 6.10201C50.7424 5.87051 51.7935 6.23304 52.5858 6.48638C53.0875 6.64581 53.5847 6.86857 54.1136 6.84892C54.4656 6.81283 54.8104 6.72825 55.1375 6.59776C55.4641 6.46484 55.8157 6.39794 56.1704 6.40121C56.3475 6.40482 56.5202 6.45495 56.6699 6.54618C56.8195 6.63741 56.9404 6.76626 57.0194 6.9188C57.1533 7.23329 56.9627 7.66571 56.6108 7.71157C56.723 7.65292 56.8482 7.62122 56.9759 7.61918C57.1035 7.61713 57.2298 7.6448 57.344 7.69982C57.4581 7.75484 57.5568 7.83559 57.6315 7.93519C57.7062 8.03479 57.7548 8.15029 57.7732 8.27185C57.7915 8.39341 57.779 8.51743 57.7368 8.63335C57.6946 8.74927 57.6238 8.85366 57.5306 8.93761C57.4374 9.02157 57.3245 9.08262 57.2015 9.11556C57.0785 9.14849 56.9491 9.15234 56.8242 9.12677C57.0512 8.95861 57.4053 9.23597 57.3758 9.51115C57.345 9.64703 57.2779 9.77286 57.1811 9.87624C57.0844 9.97963 56.9614 10.057 56.8242 10.1008C56.1431 10.3847 55.3645 10.293 54.6675 10.0681C53.9706 9.84311 53.3236 9.49149 52.6244 9.24907C51.9252 9.00665 50.7742 8.56987 50.0818 8.81228C49.5711 8.987 49.2146 9.57885 48.9263 9.44781C48.7903 9.37792 48.6732 9.27827 48.5844 9.15688C48.4957 9.0355 48.4379 8.89577 48.4155 8.74895C48.3774 8.458 48.3881 8.16304 48.4473 7.87537" fill="#263238"/>
<path d="M56.8038 7.66124C56.7901 7.66124 56.722 7.77481 56.5472 7.95608C56.3 8.2093 55.9922 8.4005 55.6505 8.51298C55.1483 8.6867 54.5954 8.66555 54.1091 8.45402C53.5597 8.21597 53.0898 7.7355 52.5427 7.29871C52.0411 6.84657 51.407 6.55379 50.7266 6.46007C50.4456 6.42693 50.1605 6.45594 49.893 6.54488C49.6255 6.63383 49.3826 6.78035 49.1829 6.9733C49.054 7.10807 48.955 7.26661 48.8918 7.4393C48.8286 7.61199 48.8025 7.79523 48.8151 7.97792C48.824 8.07606 48.8477 8.17244 48.8855 8.26401C48.915 8.32516 48.9331 8.35574 48.9377 8.35355C48.9071 8.22934 48.8866 8.10302 48.8764 7.97573C48.8767 7.62979 49.0158 7.29731 49.2646 7.04755C49.4577 6.87198 49.6893 6.74039 49.9424 6.66252C50.1954 6.58464 50.4634 6.56248 50.7266 6.59766C51.3736 6.69662 51.9747 6.98045 52.4519 7.41227C52.9831 7.84906 53.4689 8.33608 54.0569 8.58287C54.4904 8.76109 54.972 8.80018 55.4304 8.69436C55.8888 8.58854 56.2995 8.34344 56.6017 7.99539C56.6663 7.92118 56.7226 7.84066 56.7697 7.75515C56.7947 7.69619 56.8083 7.66343 56.8038 7.66124Z" fill="#455A64"/>
<path d="M47.6459 12.3787C47.6459 12.3787 47.7163 12.335 47.7776 12.2127C47.8573 12.0354 47.8856 11.8407 47.8593 11.6492C47.823 11.1491 47.3622 10.6119 47.3032 9.91956C47.2621 9.59978 47.3247 9.27561 47.4825 8.99138C47.6203 8.76683 47.8308 8.59192 48.0818 8.49345C48.2522 8.4243 48.4386 8.39945 48.6221 8.42137C48.7515 8.44321 48.8219 8.4716 48.8287 8.4585C48.7746 8.41064 48.7078 8.37813 48.6357 8.36459C48.44 8.31555 48.2334 8.32469 48.0432 8.3908C47.76 8.48682 47.5196 8.67337 47.3622 8.91931C47.181 9.2275 47.107 9.58334 47.1511 9.93485C47.193 10.2763 47.2984 10.6077 47.4621 10.9133C47.5918 11.1509 47.6872 11.4043 47.7458 11.6667C47.7905 11.9083 47.7555 12.1572 47.6459 12.3787Z" fill="#455A64"/>
<path d="M57.1283 92.8745C57.1283 92.8745 62.0477 69.6592 62.0522 69.1962L53.2645 64.7366L49.8593 91.9813L57.1283 92.8745Z" fill="#263238"/>
<path d="M46.0636 93.6519L52.8582 53.417V44.738L43.0194 45.4151C42.9013 45.7536 40.42 93.7043 40.42 93.7043L41.378 93.6519H46.0636Z" fill="#263238"/>
<path d="M58.1998 44.1245L62.0523 69.1962L53.4393 67.187L49.9297 44.9413L58.1998 44.1245Z" fill="#263238"/>
<path d="M59.6845 54.9241C59.6845 54.9241 61.1828 53.6858 61.3303 52.7532C61.4779 51.8207 59.5346 36.8104 59.5346 36.8104L58.5426 24.4013C58.5426 24.6197 58.5698 22.8376 58.2702 22.7305C57.3621 22.4008 55.496 21.8024 55.496 21.8024L54.4291 20.8807C54.4291 20.8807 56.3451 28.7604 56.7174 30.9138L59.6845 54.9241Z" fill="#756FB3"/>
<path d="M47.3825 20.0247L45.7706 21.0577L39.7252 23.3443L42.4108 33.0868L42.0499 38.7476L41.7071 42.3402C41.7071 42.3402 39.9069 51.2354 38.3177 56.6407C38.3177 56.6407 40.0907 59.8729 41.5482 60.3228L42.1543 60.6701L44.3155 45.4458L46.1702 43.0434C46.3495 42.812 46.5153 42.5739 46.6719 42.3293C47.1259 41.6151 48.1657 39.9925 48.9943 38.7411C50.0885 37.0878 51.4914 33.3314 51.076 31.7284C50.6606 30.1254 47.3825 20.0247 47.3825 20.0247Z" fill="#756FB3"/>
<path d="M43.2758 53.6116C44.6912 52.5097 45.8669 51.1501 46.7355 49.6106L43.2758 53.6116Z" fill="#263238"/>
<path d="M47.3824 20.0245L48.8376 29.0071C48.7981 30.1555 48.6004 31.2938 48.2496 32.3922L45.6526 40.4728C45.6526 40.4728 43.6095 44.8778 44.3155 45.4413C45.0215 46.0047 50.513 45.4413 50.513 45.4413L57.9454 44.4039C58.1113 44.3806 58.2614 44.2968 58.3649 44.17C58.4684 44.0432 58.5174 43.883 58.5016 43.7225L57.3983 32.7547C57.026 31.9969 56.8739 30.4463 56.7173 29.896L54.429 20.8828L53.9613 20.8238L52.9443 21.4943L52.4086 21.5358L47.9114 19.4414L47.3824 20.0245Z" fill="#EBEBEB"/>
<path d="M46.0273 39.3001C47.2283 35.6988 48.7833 29.8436 48.7833 29.8436C49.2669 32.9012 48.7379 36.0351 47.5552 38.9179C46.5881 41.2679 45.4189 43.0456 44.6153 45.4545L44.5903 45.5528C44.5903 45.5528 44.1363 45.5768 44.1681 44.9325C44.1999 44.2883 44.8491 42.3707 45.2827 41.3093C45.7163 40.2479 46.0273 39.3001 46.0273 39.3001Z" fill="#E0E0E0"/>
<path d="M53.2034 22.2566H52.1932L51.8912 23.5866L52.7743 24.6153L53.6642 24.5301L53.9548 23.5757L53.7164 23.0428L53.2034 22.2566Z" fill="#756FB3"/>
<path d="M59.0944 30.0226C59.4122 30.0838 62.9219 32.3551 64.1977 32.1105C65.4735 31.8659 66.5064 30.7084 66.6426 30.5533C67.3668 29.7278 66.9128 28.0134 66.7039 27.3669C66.6531 27.2092 66.5838 27.0576 66.4973 26.9149L61.0785 17.9607L57.8844 19.828L61.1988 25.6438L59.0944 30.0226Z" fill="#756FB3"/>
<path d="M32.9581 40.8486C32.7481 40.3203 32.6569 39.7551 32.6905 39.1905C32.7242 38.6258 32.8819 38.0744 33.1533 37.5726C33.8888 36.1727 35.0557 33.9123 35.3009 33.1698C35.6641 32.0669 39.0602 23.6041 39.7254 23.342L42.6766 32.9274L39.2486 39.8723L43.2668 47.1558L39.9183 50.6283C39.9183 50.6283 33.5824 42.1283 33.0602 41.0779C33.0239 41.0022 32.9898 40.9257 32.9581 40.8486Z" fill="#756FB3"/>
<path d="M43.4258 52.8384C44.0595 52.2679 44.6224 51.6289 45.1034 50.934C45.099 50.9247 45.0966 50.9147 45.0966 50.9045C45.0966 50.8943 45.099 50.8842 45.1034 50.875C45.1112 50.8641 45.1213 50.855 45.133 50.8482C45.1448 50.8414 45.1579 50.8371 45.1715 50.8357C45.3639 50.5489 45.5397 50.2522 45.6982 49.9468C45.1375 49.5952 44.4042 49.0732 45.201 48.9553C46.184 48.8199 46.8855 48.3613 46.9854 48.1101C47.0853 47.859 46.7584 47.634 46.4996 47.7934C46.2017 47.9404 45.8838 48.0463 45.5552 48.1079C45.2928 48.1675 45.0218 48.1837 44.7538 48.156C44.4428 48.1232 43.1647 47.5903 42.9377 47.551L40.5472 49.9708C40.5472 49.9708 42.3838 51.8512 43.4258 52.8384Z" fill="#EB996E"/>
<path d="M59.071 30.2892C59.0318 30.2032 59.0036 30.113 58.987 30.0205C58.9394 29.8458 58.8804 29.5838 58.8147 29.2715C58.6467 28.4446 58.5233 27.61 58.445 26.7708C58.367 25.9315 58.3352 25.0888 58.3497 24.2462C58.3497 23.923 58.3679 23.6631 58.3815 23.4818C58.3834 23.3879 58.394 23.2944 58.4132 23.2023C58.4293 23.2953 58.4339 23.3899 58.4268 23.484C58.4268 23.6871 58.4268 23.9426 58.4268 24.2462C58.4268 24.9014 58.4654 25.775 58.5561 26.7621C58.6468 27.7492 58.7829 28.6228 58.8918 29.2584C58.9439 29.5576 58.9893 29.8109 59.0256 30.0118C59.0498 30.1027 59.065 30.1955 59.071 30.2892Z" fill="#263238"/>
<path d="M61.8504 30.8068C61.8504 30.8068 61.8231 30.8068 61.7732 30.7894C61.7031 30.7648 61.6355 30.7341 61.5712 30.6976C61.3349 30.5569 61.1371 30.3637 60.9945 30.1342C60.7951 29.7946 60.6555 29.4256 60.5814 29.0422C60.4652 28.5791 60.375 28.1103 60.3112 27.6379C60.2159 26.6289 60.1364 25.7226 60.0842 25.0631C60.0615 24.7507 60.0433 24.4887 60.0275 24.2812C60.0166 24.1854 60.0166 24.0887 60.0275 23.9929C60.053 24.0859 60.0697 24.1809 60.0774 24.2768C60.1001 24.4952 60.1319 24.7442 60.1682 25.0543C60.2431 25.7095 60.3362 26.6246 60.4293 27.6248C60.4951 28.1228 60.5927 28.5945 60.6903 29.0182C60.756 29.3988 60.8831 29.7673 61.0672 30.1102C61.1994 30.3342 61.3807 30.5279 61.5984 30.678C61.7619 30.7632 61.8617 30.7981 61.8504 30.8068Z" fill="#263238"/>
<g opacity="0.3">
<path d="M60.0204 24.0016C59.7439 25.0079 59.5526 26.034 59.4483 27.07C59.3526 27.6883 59.3866 28.3188 59.5482 28.9242C59.7434 29.5182 60.1997 30.0664 60.8263 30.2346C60.5403 28.2079 60.2883 26.1775 60.0704 24.1435" fill="black"/>
</g>
<g opacity="0.3">
<path d="M41.4325 43.6375C41.4325 43.6375 42.4949 45.7319 43.0829 46.8283C44.3088 41.9559 42.7537 36.828 43.26 31.8398L42.3746 33.5586L42.1249 37.5356L41.9342 39.868C41.9342 39.868 41.7526 42.3774 41.4325 43.6375Z" fill="black"/>
</g>
<path d="M42.2906 23.4337C42.3593 23.5183 42.4193 23.609 42.47 23.7045C42.5267 23.7941 42.5903 23.9054 42.6584 24.0365C42.7265 24.1675 42.8105 24.3182 42.8854 24.4886C43.0705 24.8866 43.2305 25.295 43.3644 25.7116C43.6874 26.7353 43.8497 27.7997 43.8457 28.8696C43.8445 29.3078 43.8134 29.7456 43.7526 30.1799C43.7345 30.3656 43.6981 30.5315 43.6709 30.6757C43.6437 30.8198 43.6164 30.9465 43.5914 31.047C43.5712 31.153 43.54 31.2569 43.4984 31.3571C43.5045 31.2496 43.5204 31.1429 43.546 31.0382C43.5642 30.9356 43.5869 30.8198 43.6073 30.6648C43.6278 30.5097 43.655 30.3546 43.6709 30.1712C43.7176 29.741 43.7395 29.3086 43.7367 28.8761C43.7297 28.3478 43.688 27.8204 43.6119 27.2971C43.528 26.7745 43.4105 26.2573 43.26 25.7487C43.1331 25.3337 42.9815 24.9261 42.806 24.5279C42.7379 24.3553 42.6584 24.2068 42.5971 24.0714C42.5358 23.936 42.4768 23.8246 42.4269 23.7329C42.3711 23.6378 42.3255 23.5376 42.2906 23.4337Z" fill="#263238"/>
<path d="M39.2168 39.9313C39.2009 39.9422 39.0488 39.7129 38.7627 39.3526C38.3812 38.8985 37.9286 38.5043 37.4211 38.1842C37.1493 38.0075 36.8208 37.93 36.4949 37.9658C36.2302 38.0127 35.9798 38.1157 35.7616 38.2672C35.3779 38.5205 35.1691 38.7192 35.1532 38.7039C35.1901 38.6471 35.2361 38.5963 35.2894 38.5533C35.4221 38.4258 35.5639 38.3076 35.7139 38.1995C35.937 38.0372 36.1955 37.9259 36.4699 37.874C36.8209 37.8259 37.178 37.9036 37.4733 38.0924C37.9936 38.4177 38.4495 38.8297 38.8195 39.3089C38.9316 39.4528 39.0347 39.603 39.1282 39.7588C39.1669 39.8115 39.1967 39.8697 39.2168 39.9313Z" fill="#263238"/>
<path d="M38.4678 37.6359C38.9179 38.2973 39.1763 39.0626 39.2162 39.8526C39.18 39.8526 39.0915 39.3415 38.8828 38.7322C38.6742 38.1229 38.4428 37.6555 38.4678 37.6359Z" fill="#263238"/>
<path d="M41.3622 43.502C41.4274 43.5901 41.4843 43.6837 41.5324 43.7815L41.9638 44.5655C42.3247 45.2316 42.8173 46.1598 43.3644 47.2016L43.3849 47.2387L43.3554 47.2671L43.1283 47.4855C42.2362 48.3787 41.4257 49.1846 40.8332 49.7611L40.1272 50.4425C40.0442 50.5296 39.9538 50.61 39.8571 50.6828C39.9248 50.5866 40.0007 50.496 40.0841 50.412L40.7651 49.7065C41.3417 49.1125 42.1454 48.3001 43.0353 47.4068L43.2623 47.1885V47.254C42.7174 46.21 42.2362 45.2884 41.9002 44.6005L41.5029 43.8012C41.446 43.7061 41.3988 43.6059 41.3622 43.502Z" fill="#263238"/>
<path d="M45.7845 39.108C45.7786 39.0448 45.7786 38.9812 45.7845 38.918C45.7845 38.7848 45.7845 38.6057 45.7845 38.3786C45.7959 37.9003 45.8118 37.2233 45.8322 36.3934C45.8527 35.5635 45.8754 34.5589 45.923 33.4516C45.952 32.2445 46.1225 31.0445 46.4315 29.8743C46.6032 29.2746 46.8438 28.6952 47.1489 28.1468L47.192 28.2298C46.9095 28.1833 46.6526 28.0435 46.4656 27.8345C46.2873 27.6387 46.1577 27.4064 46.0865 27.1553C45.9825 26.6906 45.9428 26.2148 45.9684 25.7401C45.9684 24.8512 45.9684 24.0563 45.9684 23.3923C45.9684 22.7284 45.9684 22.2108 45.9684 21.8352C45.9684 21.6605 45.9684 21.5207 45.9684 21.4159C45.9631 21.368 45.9631 21.3196 45.9684 21.2717C45.977 21.3193 45.9808 21.3676 45.9798 21.4159C45.9798 21.5207 45.9798 21.6605 45.9911 21.8352C45.9911 22.2108 46.0048 22.7372 46.0161 23.3902C46.0275 24.0432 46.032 24.849 46.0411 25.7401C46.0184 26.2055 46.0596 26.6718 46.1637 27.1269C46.2315 27.3611 46.3533 27.5776 46.5201 27.7602C46.6893 27.9499 46.9222 28.0766 47.1784 28.1184L47.2601 28.1315L47.2215 28.2014C46.9208 28.7421 46.684 29.3134 46.5155 29.9049C46.21 31.0669 46.0379 32.2578 46.0025 33.456C45.9503 34.561 45.9208 35.5591 45.8844 36.3977C45.8481 37.2364 45.8209 37.9003 45.8004 38.3808L45.7732 38.9202C45.7802 38.9826 45.784 39.0453 45.7845 39.108Z" fill="#263238"/>
<path d="M55.5118 21.9312C55.5345 21.9692 55.5528 22.0094 55.5663 22.0513C55.5981 22.143 55.6435 22.2697 55.6957 22.4029L56.1656 23.7133C56.3609 24.2745 56.5947 24.9406 56.8467 25.6788C56.9715 26.0566 57.1259 26.441 57.2417 26.8669C57.3039 27.0883 57.314 27.3204 57.2712 27.5461C57.249 27.6665 57.2018 27.7814 57.1324 27.8838C57.0629 27.9863 56.9727 28.0742 56.8671 28.1423L56.8853 28.0615C57.076 28.3345 57.278 28.6249 57.4664 28.9351C57.7497 29.3741 57.9639 29.851 58.1021 30.3503C58.2082 30.8205 58.2426 31.3031 58.2042 31.7829C58.1498 32.6893 58.0885 33.5039 58.0385 34.1853C57.9886 34.8667 57.9454 35.4127 57.9137 35.8079C57.8978 35.9892 57.8841 36.1355 57.8751 36.2447C57.8727 36.2963 57.8651 36.3475 57.8524 36.3976C57.847 36.3461 57.847 36.2941 57.8524 36.2426C57.8524 36.1312 57.8637 35.9827 57.8705 35.8058C57.891 35.4083 57.9205 34.8557 57.9568 34.1809C57.9931 33.5061 58.0453 32.6762 58.0998 31.7786C58.1313 31.3094 58.0954 30.8384 57.9931 30.3787C57.8552 29.891 57.6442 29.4253 57.3666 28.9962C57.1804 28.6948 56.9806 28.4066 56.7899 28.1226L56.7559 28.0746L56.8081 28.044C56.9003 27.9843 56.979 27.9073 57.0395 27.8176C57.1 27.7279 57.1409 27.6274 57.16 27.5221C57.2005 27.3118 57.192 27.0954 57.135 26.8887C57.026 26.4781 56.8717 26.0828 56.7491 25.7094C56.4994 24.9603 56.2746 24.292 56.0839 23.7285C55.8932 23.1651 55.7548 22.7305 55.6503 22.4182C55.6027 22.2718 55.5663 22.1517 55.5368 22.06C55.5252 22.0177 55.5169 21.9746 55.5118 21.9312Z" fill="#263238"/>
<path d="M46.6766 49.0688C46.6516 49.1333 46.6164 49.1937 46.5722 49.2479C46.4996 49.3593 46.3906 49.5166 46.2521 49.7087C45.9729 50.0931 45.5711 50.6151 45.1171 51.1785C44.663 51.742 44.2226 52.2356 43.9003 52.585C43.7391 52.7597 43.6051 52.8995 43.5098 52.9934C43.4144 53.0873 43.36 53.1375 43.3531 53.1332C43.5004 52.9229 43.6619 52.7223 43.8367 52.5326C44.1432 52.1701 44.5654 51.659 45.024 51.1087C45.4825 50.5583 45.8889 50.0342 46.184 49.6607C46.3346 49.4533 46.4992 49.2556 46.6766 49.0688Z" fill="#455A64"/>
<path d="M50.2336 46.2516C50.2336 46.2516 50.2336 46.2931 50.2336 46.3739C50.2336 46.4547 50.2109 46.5792 50.1927 46.7342C50.1564 47.0531 50.0997 47.5183 50.0293 48.1145C49.8817 49.3135 49.6615 51.0497 49.371 53.19C48.7966 57.4727 47.9249 63.3803 46.9873 69.9059C46.5197 73.1709 46.0792 76.2808 45.7251 79.1156C45.632 79.8232 45.5571 80.5155 45.4527 81.186C45.3483 81.8565 45.2416 82.4964 45.1417 83.1297L44.5923 86.624C44.2586 88.7599 43.9952 90.4874 43.8227 91.6842C43.7364 92.2804 43.6729 92.7456 43.6343 93.0623C43.6161 93.2195 43.6025 93.3397 43.598 93.4205C43.5959 93.451 43.5959 93.4816 43.598 93.5122C43.598 93.5384 43.6139 93.5122 43.6139 93.5122C43.6139 93.5122 43.5957 93.5122 43.598 93.5013C43.5936 93.4708 43.5936 93.44 43.598 93.4095C43.598 93.3287 43.6093 93.2064 43.6252 93.0492C43.6547 92.7325 43.7115 92.2652 43.7909 91.6668C43.9498 90.4678 44.1996 88.7381 44.5219 86.6022C44.6876 85.532 44.867 84.3636 45.0577 83.1079C45.1576 82.4789 45.2574 81.8303 45.3619 81.162C45.4663 80.4937 45.5389 79.8014 45.632 79.0938C45.9907 76.2546 46.4175 73.1469 46.8829 69.8819C47.8204 63.3541 48.699 57.4509 49.3029 53.1703C49.5957 51.0344 49.8318 49.3026 49.9975 48.1014C50.077 47.5052 50.1405 47.0422 50.1837 46.7211C50.2064 46.5683 50.2223 46.4481 50.2336 46.363C50.245 46.2778 50.2336 46.2516 50.2336 46.2516Z" fill="#455A64"/>
<path d="M55.4146 92.6582C55.4177 92.6187 55.423 92.5793 55.4304 92.5403C55.4441 92.4573 55.4622 92.3416 55.4872 92.1909C55.544 91.8808 55.6234 91.4331 55.7142 90.8565C55.9253 89.6924 56.2318 88.0174 56.6087 85.9492L59.6143 69.7596C59.7017 69.3754 59.7262 68.9804 59.687 68.589C59.6348 68.2002 59.5667 67.8071 59.5076 67.4227C59.385 66.6496 59.2632 65.8889 59.1421 65.1405C58.897 63.6467 58.6541 62.2053 58.418 60.8338C57.9435 58.0907 57.4849 55.6251 57.0763 53.5591C56.6677 51.493 56.3067 49.8267 56.0343 48.6801C55.9049 48.1057 55.7869 47.6624 55.7142 47.3697C55.6802 47.2234 55.6529 47.1077 55.6325 47.0269C55.6121 46.9461 55.6075 46.9089 55.6075 46.9089C55.6218 46.9469 55.6339 46.9855 55.6438 47.0247L55.7392 47.3654C55.8186 47.6646 55.9435 48.1057 56.0797 48.6758C56.3657 49.818 56.738 51.4843 57.158 53.5481C57.578 55.612 58.0434 58.0776 58.5201 60.8207C58.7607 62.1922 59.0037 63.6336 59.2511 65.1274C59.3722 65.8772 59.4948 66.638 59.6189 67.4096C59.6802 67.7984 59.746 68.1828 59.8005 68.5802C59.8404 68.9841 59.8152 69.3915 59.7256 69.788C58.5428 76.1017 57.4736 81.8193 56.6972 85.9623C56.3044 88.0283 55.9866 89.7012 55.7664 90.863C55.6552 91.4396 55.5667 91.8873 55.5076 92.1953C55.4781 92.3438 55.4531 92.4595 55.4373 92.5403C55.4214 92.6211 55.4146 92.6582 55.4146 92.6582Z" fill="#455A64"/>
<path d="M52.858 53.1333C52.8921 53.1333 52.4902 55.7366 51.9613 58.9382C51.4323 62.1399 50.9806 64.7366 50.9533 64.7366C50.9261 64.7366 51.3234 62.1334 51.8501 58.9317C52.3767 55.73 52.8262 53.1289 52.858 53.1333Z" fill="#455A64"/>
<path d="M46.1451 93.5798C46.0712 93.6006 45.995 93.6131 45.9181 93.617C45.7751 93.6323 45.5662 93.652 45.3074 93.6717C44.7921 93.7111 44.077 93.7483 43.287 93.7592C42.497 93.7701 41.7796 93.7592 41.262 93.7351C41.0032 93.7351 40.7944 93.7133 40.6513 93.7001C40.5745 93.7013 40.4979 93.691 40.4243 93.6695C40.703 93.6488 40.9828 93.6445 41.262 93.6564C41.7796 93.6564 42.4924 93.6564 43.2824 93.6454C44.0724 93.6345 44.783 93.6104 45.3006 93.5908C45.5815 93.5688 45.8637 93.5652 46.1451 93.5798Z" fill="#455A64"/>
<path d="M57.1283 92.8744C57.0319 92.8786 56.9353 92.8734 56.84 92.8591L56.0591 92.7805C55.4007 92.7084 54.4927 92.5992 53.4893 92.4748C52.4859 92.3503 51.5778 92.2302 50.9217 92.1384L50.1453 92.0249C50.0494 92.0138 49.9545 91.9955 49.8616 91.9703C49.9585 91.9614 50.0562 91.9651 50.1522 91.9812C50.336 91.9965 50.6062 92.0227 50.9331 92.0576C51.5914 92.1297 52.5018 92.2367 53.5052 92.3612C54.5086 92.4857 55.4144 92.608 56.0704 92.6997L56.8468 92.8155C56.9427 92.8243 57.0372 92.8441 57.1283 92.8744Z" fill="#455A64"/>
<path d="M47.5481 21.4771C47.6364 21.5208 47.72 21.5728 47.7978 21.6321L48.4652 22.0689C49.0328 22.4424 49.8273 22.9425 50.7354 23.4404C51.0759 23.6282 51.4164 23.803 51.7161 23.9602L51.6344 23.9951C51.8251 23.2701 51.993 22.6476 52.1156 22.2087C52.1747 22.0034 52.2246 21.833 52.2655 21.6933C52.2799 21.6306 52.302 21.5697 52.3313 21.512C52.3297 21.5763 52.3198 21.6401 52.3018 21.702C52.27 21.844 52.2314 22.0165 52.186 22.224C52.0793 22.6607 51.9272 23.2941 51.732 24.0214L51.7161 24.0869L51.6525 24.0563C51.3415 23.9012 51.0055 23.7265 50.665 23.5387C49.8865 23.1111 49.1331 22.6422 48.4085 22.1344C48.1315 21.94 47.9113 21.7741 47.7615 21.6583C47.6836 21.6056 47.6121 21.5448 47.5481 21.4771Z" fill="#263238"/>
<path d="M55.0399 23.0844C54.7238 23.3277 54.3883 23.5468 54.0365 23.7395L53.9866 23.7701L53.9593 23.7177L53.6529 23.1433C53.4258 22.7065 53.2102 22.2916 53.0672 21.9946C52.9781 21.8385 52.9065 21.6738 52.8538 21.5032C52.9661 21.6449 53.062 21.7979 53.1398 21.9596C53.3033 22.2457 53.5235 22.6454 53.7573 23.0909L54.0638 23.6784L53.9866 23.6565C54.3228 23.4416 54.6749 23.2503 55.0399 23.0844Z" fill="#263238"/>
<path d="M53.5595 22.8702C53.499 22.9275 53.432 22.978 53.3597 23.0209C53.2349 23.1105 53.0578 23.2393 52.8603 23.3594C52.6628 23.4796 52.4834 23.604 52.3518 23.687C52.28 23.7348 52.204 23.7764 52.1248 23.8115C52.1854 23.7538 52.2524 23.7025 52.3245 23.6586C52.4517 23.5713 52.6287 23.4512 52.824 23.3223L53.3325 22.9947C53.4043 22.947 53.4802 22.9054 53.5595 22.8702Z" fill="#263238"/>
<path d="M52.8776 23.3224C52.7158 23.2 52.5642 23.0656 52.424 22.9206C52.2775 22.785 52.1418 22.639 52.0181 22.4838C52.1755 22.6063 52.3226 22.7407 52.4581 22.8856C52.6094 23.0206 52.7497 23.1666 52.8776 23.3224Z" fill="#263238"/>
<path d="M48.6015 42.6963C48.6686 43.2422 48.8273 43.7739 49.0714 44.2709C49.3488 44.751 49.7062 45.1841 50.1293 45.5529C49.9737 45.4829 49.8328 45.3859 49.7138 45.2668C49.0973 44.7235 48.7028 43.9861 48.6015 43.1877C48.5712 43.0252 48.5712 42.8588 48.6015 42.6963Z" fill="#263238"/>
<path d="M49.9228 45.5746C49.1671 45.5126 48.4593 45.1927 47.9274 44.6726C47.9501 44.6464 48.3405 44.9456 48.8899 45.1924C49.4393 45.4392 49.9296 45.5397 49.9228 45.5746Z" fill="#263238"/>
<path d="M54.3586 38.5837C54.3977 38.6575 54.426 38.7362 54.4426 38.8174C54.4903 38.9703 54.5516 39.1931 54.6197 39.4726C54.7605 40.0251 54.9262 40.7961 55.0578 41.6566C55.1895 42.517 55.2644 43.2989 55.2985 43.8689C55.3144 44.1528 55.3235 44.3821 55.3235 44.5415C55.3346 44.6235 55.3346 44.7064 55.3235 44.7883C55.3023 44.7083 55.2902 44.6263 55.2871 44.5437C55.269 44.3603 55.2485 44.1375 55.2236 43.8733C55.1691 43.3098 55.0828 42.5301 54.9511 41.674C54.8195 40.8179 54.6651 40.047 54.5471 39.4901C54.4926 39.2302 54.4449 39.0096 54.4063 38.8349C54.3808 38.7531 54.3648 38.6689 54.3586 38.5837Z" fill="#263238"/>
<path d="M52.847 24.838C52.5519 27.1071 52.3339 32.045 52.2522 34.336C52.1841 36.2491 52.1909 38.1645 52.1977 40.0798C52.1977 40.6978 52.1977 41.3355 52.4724 41.8968C52.9469 42.908 54.1069 43.4256 55.1716 43.8362L52.847 24.838Z" fill="#E0E0E0"/>
<path d="M55.4937 43.5085L56.7128 40.6344L53.6639 24.53L52.774 24.6152C52.774 24.6152 52.8989 41.353 52.858 41.5037L55.4937 43.5085Z" fill="#756FB3"/>
<path d="M53.6314 24.53C53.4941 24.5726 53.3513 24.5958 53.2073 24.5989C53.0658 24.6172 52.9224 24.6172 52.7809 24.5989C52.921 24.5751 53.0628 24.5618 53.205 24.5589C53.3464 24.5405 53.4888 24.5309 53.6314 24.53Z" fill="#263238"/>
</svg>
