<svg width="94" height="95" viewBox="0 0 94 95" fill="none" xmlns="http://www.w3.org/2000/svg">
<path d="M90.0793 3.1283V20.1378H65.7129L64.8348 3.24595L90.0793 3.1283Z" fill="#E0E0E0"/>
<path d="M64.8348 3.24601V20.1022H89.2013V3.24601H64.8348Z" fill="white"/>
<path d="M89.3186 20.2178H64.7195V3.13049H89.3186V20.2178ZM64.95 19.9867H89.086V3.3616H64.95V19.9867Z" fill="#E0E0E0"/>
<path d="M86.563 5.3407H67.4751V18.0075H86.563V5.3407Z" fill="white"/>
<path d="M86.563 5.34057H86.4687H86.1984H85.1506L81.2174 5.35528L67.4772 5.38259L67.5316 5.32797C67.5316 9.19797 67.5316 13.4861 67.5316 17.9927L67.473 17.9318L86.5609 17.9444L86.5127 17.9927C86.5232 14.1374 86.5316 10.9775 86.5378 8.77568C86.5378 7.67686 86.5483 6.81756 86.5504 6.22719C86.5504 5.93725 86.5504 5.71455 86.5504 5.55907C86.5504 5.4057 86.5504 5.32587 86.5504 5.32587C86.5504 5.32587 86.5504 5.3994 86.5504 5.54857C86.5504 5.69774 86.5504 5.92254 86.5504 6.20828C86.5504 6.79655 86.5504 7.65165 86.563 8.74626C86.563 10.9544 86.5777 14.1248 86.5881 17.9906V18.0389H86.5399L67.452 18.0515H67.3912V17.9906C67.3912 13.484 67.3912 9.19587 67.3912 5.32587V5.27124H67.4478L81.2635 5.31326L85.1841 5.32797H86.2214H86.4854L86.563 5.34057Z" fill="#E0E0E0"/>
<path d="M64.8348 3.19971C64.9852 3.27237 65.1259 3.3634 65.2539 3.47073C65.5033 3.65142 65.8428 3.90774 66.2095 4.20188C66.5762 4.49601 66.8989 4.77334 67.1252 4.98344C67.2567 5.08692 67.3743 5.20697 67.4752 5.34061C67.0108 5.01323 66.5632 4.66263 66.134 4.29012C65.679 3.95379 65.2451 3.58962 64.8348 3.19971Z" fill="#E0E0E0"/>
<path d="M89.2034 3.24597C88.802 3.64049 88.3735 4.00626 87.921 4.34058C87.4922 4.70536 87.0385 5.03953 86.5631 5.34065C86.964 4.94557 87.3926 4.57976 87.8456 4.24604C88.2743 3.88126 88.7281 3.54709 89.2034 3.24597Z" fill="#E0E0E0"/>
<path d="M89.1825 20.1042L86.4584 17.8961L89.1825 20.1042Z" fill="white"/>
<path d="M86.4667 17.8961C86.9549 18.2144 87.4212 18.5653 87.8623 18.9466C88.3282 19.2996 88.7693 19.6843 89.1824 20.0979C88.6942 19.7797 88.2279 19.4287 87.7868 19.0475C87.321 18.6945 86.8799 18.3098 86.4667 17.8961Z" fill="#E0E0E0"/>
<path d="M64.8348 20.1022C65.2318 19.7109 65.6561 19.3486 66.1047 19.0181C66.5277 18.6564 66.9766 18.3263 67.4479 18.0306C67.0512 18.4215 66.6268 18.7831 66.1781 19.1126C65.7548 19.4746 65.3058 19.8053 64.8348 20.1022Z" fill="#E0E0E0"/>
<path d="M71.3497 9.28632V13.5282H83.3611V9.28632H71.3497Z" fill="#E0E0E0"/>
<path d="M72.3954 94.2877H94L94 31.4159H72.3954V94.2877Z" fill="#E0E0E0"/>
<path d="M60.7989 94.2877H84.4529L84.4529 31.4159H60.7989L60.7989 94.2877Z" fill="#F5F5F5"/>
<path d="M75.3207 79.6166H69.0007C68.8812 79.6166 68.7666 79.569 68.6821 79.4843C68.5976 79.3996 68.5501 79.2847 68.5501 79.1649V78.7888H75.7712V79.1649C75.7712 79.2847 75.7238 79.3996 75.6393 79.4843C75.5548 79.569 75.4402 79.6166 75.3207 79.6166Z" fill="#E0E0E0"/>
<path d="M61.8445 78.7889C61.8445 78.7889 61.8445 78.8645 61.8445 79.0158C61.8445 79.1671 61.8445 79.3961 61.8445 79.6902C61.8445 80.289 61.8445 81.1609 61.8319 82.2849C61.8319 84.5435 61.8172 87.7916 61.8068 91.7688V91.8171H61.855L82.9336 91.8297H83.0049V91.7688C83.0049 87.176 83.0049 82.7955 83.0049 78.8078V78.7532H82.9399L67.7307 78.7658L63.391 78.7763H62.2405H61.9451H61.8487H61.9535H62.2531H63.414L67.7685 78.7952L82.9399 78.8372L82.8833 78.7805C82.8833 82.7724 82.8833 87.1487 82.8833 91.7414L82.9441 91.6826H82.9315L61.8529 91.6952L61.899 91.7414C61.8885 87.7769 61.8801 84.5372 61.8738 82.287C61.8738 81.1609 61.8738 80.2827 61.8633 79.6818C61.8633 79.3835 61.8633 79.1566 61.8633 78.999C61.8633 78.8414 61.8445 78.7889 61.8445 78.7889Z" fill="#E0E0E0"/>
<path d="M68.8351 83.661H75.1111V81.9613H68.8351V83.661Z" fill="#E0E0E0"/>
<path d="M75.6078 64.4896H69.2899C69.1704 64.4896 69.0558 64.442 68.9713 64.3573C68.8868 64.2726 68.8394 64.1577 68.8394 64.0379V63.6618H76.0583V64.0379C76.0583 64.1577 76.0109 64.2726 75.9264 64.3573C75.8419 64.442 75.7273 64.4896 75.6078 64.4896Z" fill="#E0E0E0"/>
<path d="M61.9032 63.6597C61.9032 63.6597 61.9032 63.7354 61.9032 63.8866C61.9032 64.0379 61.9032 64.269 61.9032 64.5611C61.9032 65.1598 61.9032 66.0317 61.8906 67.1558C61.8906 69.4143 61.876 72.6624 61.8655 76.6417V76.6879H61.9137L82.9923 76.7005H83.0636V76.6417C83.0636 72.0469 83.0636 67.6663 83.0636 63.6807V63.624H83.0091L67.7999 63.6366L63.4602 63.6492H62.3097H62.0143H61.9179H62.0226H62.3223H63.4832L67.8377 63.6702L83.0091 63.7102L82.9525 63.6555C82.9525 67.6474 82.9525 72.0216 82.9525 76.6165L83.0133 76.5556H83.0007L61.9221 76.5682L61.9682 76.6165C61.9577 72.6498 61.9493 69.4122 61.943 67.1621C61.943 66.0359 61.943 65.1577 61.943 64.5569C61.943 64.2606 61.943 64.0316 61.943 63.874C61.943 63.7165 61.9032 63.6597 61.9032 63.6597Z" fill="#E0E0E0"/>
<path d="M69.3087 68.431H75.5847V66.7313H69.3087V68.431Z" fill="#E0E0E0"/>
<path d="M75.3333 33.9602H69.0132C68.8938 33.9602 68.7792 33.9126 68.6947 33.8279C68.6102 33.7432 68.5627 33.6283 68.5627 33.5085V33.1324H75.7838V33.5085C75.7838 33.5678 75.7722 33.6266 75.7495 33.6814C75.7269 33.7362 75.6937 33.786 75.6519 33.8279C75.61 33.8698 75.5604 33.9031 75.5057 33.9258C75.451 33.9485 75.3924 33.9602 75.3333 33.9602Z" fill="#E0E0E0"/>
<path d="M61.855 33.1303C61.855 33.1303 61.855 33.206 61.855 33.3572C61.855 33.5085 61.855 33.7396 61.855 34.0316C61.855 34.6304 61.855 35.5023 61.8445 36.6264C61.8445 38.8849 61.8298 42.133 61.8193 46.1123V46.1585H61.8654L82.9462 46.1732H83.0174V46.1123C83.0174 41.5174 83.0174 37.1369 83.0174 33.1513V33.0946H82.9399L67.7328 33.1072L63.391 33.1198H62.2405H61.9472H61.8487C61.8836 33.1216 61.9185 33.1216 61.9535 33.1198H62.2531H63.4161L67.7685 33.1387L82.9399 33.1786L82.8833 33.124C82.8833 37.1159 82.8833 41.4901 82.8833 46.085L82.9441 46.024L61.8633 46.0366L61.9115 46.085C61.9011 42.1183 61.8927 38.8807 61.8864 36.6306C61.8864 35.5044 61.8759 34.6262 61.8738 34.0253C61.8738 33.7291 61.8738 33.5001 61.8738 33.3425C61.8738 33.1849 61.855 33.1303 61.855 33.1303Z" fill="#E0E0E0"/>
<path d="M69.1473 37.597H75.4233V35.8974H69.1473V37.597Z" fill="#E0E0E0"/>
<path d="M75.3332 49.2196H69.0132C68.8937 49.2196 68.7791 49.172 68.6946 49.0873C68.6101 49.0026 68.5627 48.8877 68.5627 48.7679V48.3792H75.7838V48.7553C75.7854 48.8157 75.775 48.8758 75.7531 48.932C75.7313 48.9883 75.6983 49.0396 75.6563 49.0829C75.6143 49.1262 75.5641 49.1606 75.5086 49.1841C75.4531 49.2075 75.3935 49.2196 75.3332 49.2196Z" fill="#E0E0E0"/>
<path d="M61.855 48.3834C61.855 48.3834 61.855 48.459 61.855 48.6103C61.855 48.7616 61.855 48.9906 61.855 49.2847C61.855 49.8835 61.855 50.7554 61.8445 51.8794C61.8445 54.138 61.8298 57.3861 61.8193 61.3633V61.4095H61.8654L82.9462 61.4221H83.0174V61.3612C83.0174 56.7684 83.0174 52.3879 83.0174 48.4002V48.3456H82.9399L67.7328 48.3582H63.391H62.2405H61.9472H61.8487H61.9535H62.2531H63.4161L67.7685 48.3771L82.9399 48.4191L82.8833 48.3624C82.8833 52.3542 82.8833 56.7306 82.8833 61.3233L82.9441 61.2645L61.8633 61.2771L61.9115 61.3233C61.9011 57.3588 61.8927 54.1191 61.8864 51.8689C61.8864 50.7428 61.8759 49.8646 61.8738 49.2637C61.8738 48.9654 61.8738 48.7385 61.8738 48.5809C61.8738 48.4233 61.855 48.3834 61.855 48.3834Z" fill="#E0E0E0"/>
<path d="M69.1473 52.8523H75.4233V51.1526H69.1473V52.8523Z" fill="#E0E0E0"/>
<path d="M27.5411 2.70398H4.89087V23.0205H27.5411V2.70398Z" fill="#FAFAFA"/>
<path d="M27.5412 23.0204C27.5412 23.0204 27.5412 22.8902 27.5412 22.6423C27.5412 22.3943 27.5412 22.0288 27.5412 21.5539C27.5412 20.6001 27.5412 19.2072 27.5266 17.4297C27.5266 13.8812 27.5119 8.8157 27.5014 2.70395L27.5517 2.75437H4.90352L4.96429 2.69344C4.96429 10.0847 4.96429 17.0389 4.96429 23.0099L4.90981 22.9553L21.2924 22.9826L25.913 22.9973H27.1368H27.4511H27.5601H27.4574H27.1473H25.9361L21.326 23.0099L4.90981 23.0372H4.85742V22.9847C4.85742 17.0137 4.85742 10.0595 4.85742 2.66823V2.6073H4.92029H27.5685H27.6209V2.65982C27.6083 8.77788 27.5999 13.8602 27.5936 17.4192C27.5936 19.1903 27.5831 20.5707 27.581 21.5308C27.581 22.0015 27.581 22.3712 27.581 22.6107C27.581 22.8503 27.5412 23.0204 27.5412 23.0204Z" fill="#E0E0E0"/>
<path d="M13.5788 6.31321C13.5788 6.34674 12.3865 6.37398 10.9154 6.37398C9.4444 6.37398 8.25415 6.34674 8.25415 6.31321C8.25415 6.27968 9.4444 6.25244 10.9154 6.25244C12.3865 6.25244 13.5788 6.27968 13.5788 6.31321Z" fill="#E0E0E0"/>
<path d="M23.1742 7.83433C23.1742 7.86786 19.8989 7.8951 15.8588 7.8951C11.8187 7.8951 8.54968 7.87205 8.54968 7.83433C8.54968 7.79661 11.825 7.77356 15.8651 7.77356C19.9052 7.77356 23.1742 7.80499 23.1742 7.83433Z" fill="#E0E0E0"/>
<path d="M9.24325 10.423H8.28979V11.3789H9.24325V10.423Z" fill="#E0E0E0"/>
<path d="M11.5924 10.423H10.6389V11.3789H11.5924V10.423Z" fill="#E0E0E0"/>
<path d="M13.9853 10.3788H13.0319V11.3347H13.9853V10.3788Z" fill="#E0E0E0"/>
<path d="M16.2905 10.423H15.337V11.3789H16.2905V10.423Z" fill="#E0E0E0"/>
<path d="M18.6395 10.423H17.686V11.3789H18.6395V10.423Z" fill="#E0E0E0"/>
<path d="M20.9885 10.423H20.035V11.3789H20.9885V10.423Z" fill="#E0E0E0"/>
<path d="M23.3376 10.423H22.3842V11.3789H23.3376V10.423Z" fill="#EBEBEB"/>
<path d="M9.24325 12.4567H8.28979V13.4126H9.24325V12.4567Z" fill="#EBEBEB"/>
<path d="M11.5924 12.4567H10.6389V13.4126H11.5924V12.4567Z" fill="#E0E0E0"/>
<path d="M13.9414 12.4567H12.9879V13.4126H13.9414V12.4567Z" fill="#EBEBEB"/>
<path d="M16.2905 12.4567H15.337V13.4126H16.2905V12.4567Z" fill="#E0E0E0"/>
<path d="M18.6395 12.4567H17.686V13.4126H18.6395V12.4567Z" fill="#E0E0E0"/>
<path d="M21.0305 12.4126H20.077V13.3685H21.0305V12.4126Z" fill="#E0E0E0"/>
<path d="M23.3376 12.4567H22.3842V13.4126H23.3376V12.4567Z" fill="#E0E0E0"/>
<path d="M9.24325 14.4904H8.28979V15.4463H9.24325V14.4904Z" fill="#E0E0E0"/>
<path d="M11.6363 14.4463H10.6829V15.4022H11.6363V14.4463Z" fill="#E0E0E0"/>
<path d="M13.9414 14.4904H12.9879V15.4463H13.9414V14.4904Z" fill="#E0E0E0"/>
<path d="M16.2905 14.4904H15.337V15.4463H16.2905V14.4904Z" fill="#EBEBEB"/>
<path d="M18.6395 14.4904H17.686V15.4463H18.6395V14.4904Z" fill="#E0E0E0"/>
<path d="M20.9885 14.4904H20.035V15.4463H20.9885V14.4904Z" fill="#E0E0E0"/>
<path d="M23.3376 14.4904H22.3842V15.4463H23.3376V14.4904Z" fill="#E0E0E0"/>
<path d="M9.24325 16.5242H8.28979V17.4801H9.24325V16.5242Z" fill="#E0E0E0"/>
<path d="M11.5924 16.5242H10.6389V17.4801H11.5924V16.5242Z" fill="#E0E0E0"/>
<path d="M13.9414 16.5242H12.9879V17.4801H13.9414V16.5242Z" fill="#E0E0E0"/>
<path d="M16.3344 16.4822H15.381V17.4381H16.3344V16.4822Z" fill="#E0E0E0"/>
<path d="M18.6395 16.5242H17.686V17.4801H18.6395V16.5242Z" fill="#E0E0E0"/>
<path d="M20.9885 16.5242H20.035V17.4801H20.9885V16.5242Z" fill="#EBEBEB"/>
<path d="M23.3376 16.5242H22.3842V17.4801H23.3376V16.5242Z" fill="#E0E0E0"/>
<path d="M9.24325 18.5579H8.28979V19.5138H9.24325V18.5579Z" fill="#E0E0E0"/>
<path d="M11.5924 18.5579H10.6389V19.5138H11.5924V18.5579Z" fill="#EBEBEB"/>
<path d="M13.9414 18.5579H12.9879V19.5138H13.9414V18.5579Z" fill="#E0E0E0"/>
<path d="M16.2905 18.5579H15.337V19.5138H16.2905V18.5579Z" fill="#E0E0E0"/>
<path d="M18.6395 18.5579H17.686V19.5138H18.6395V18.5579Z" fill="#E0E0E0"/>
<path d="M21.0305 18.5159H20.077V19.4718H21.0305V18.5159Z" fill="#E0E0E0"/>
<path d="M23.3376 18.5579H22.3842V19.5138H23.3376V18.5579Z" fill="#E0E0E0"/>
<path d="M46.5805 32.954L38.7693 35.9023L40.7517 41.1817L48.5628 38.2334L46.5805 32.954Z" fill="#EBEBEB"/>
<path d="M46.6292 33.0127C46.6177 33.0473 46.6022 33.0804 46.5831 33.1114L46.4385 33.3846C46.3044 33.6262 46.1179 33.9665 45.8895 34.3825C45.4159 35.2229 44.7663 36.3869 44.0496 37.6706L44.0349 37.6979H44.0035L43.9323 37.6748L40.3112 36.4835L39.2153 36.1137L38.9198 36.0108C38.8842 36.0004 38.8498 35.9863 38.8171 35.9688C38.8533 35.9755 38.889 35.9846 38.924 35.9961L39.2258 36.0864L40.328 36.4331L43.9637 37.5928L44.0349 37.6159L43.9888 37.6349C44.716 36.3554 45.3698 35.1998 45.8496 34.3573L46.4175 33.3699L46.5768 33.103C46.5915 33.0714 46.6091 33.0412 46.6292 33.0127Z" fill="#E0E0E0"/>
<path d="M40.7994 41.24C40.7805 41.24 41.0949 40.2883 41.5056 39.1286C41.9163 37.9688 42.2621 37.0276 42.2809 37.0423C42.2998 37.057 41.9854 37.9961 41.5768 39.1433C41.1682 40.2904 40.8203 41.24 40.7994 41.24Z" fill="#E0E0E0"/>
<path d="M44.8542 35.9982C44.8647 35.9793 45.7155 36.4793 46.7527 37.1117C47.79 37.7441 48.6219 38.2736 48.6115 38.2925C48.601 38.3114 47.7502 37.8113 46.7129 37.1769C45.6757 36.5424 44.8437 36.015 44.8542 35.9982Z" fill="#E0E0E0"/>
<path d="M56.6959 16.2909C56.8955 16.1695 57.1105 16.0756 57.335 16.0115L57.467 15.3812L58.5357 15.3623L58.6908 15.9926C58.9173 16.0481 59.1351 16.1343 59.3383 16.2489L59.879 15.8939L60.648 16.6376L60.3127 17.1923C60.4337 17.3887 60.5274 17.6008 60.5914 17.8226L61.2201 17.9528L61.2389 19.0264L60.6103 19.1798C60.5544 19.407 60.4692 19.626 60.3567 19.8311L60.7109 20.371L59.967 21.1421L59.4158 20.808C59.2157 20.9279 59.0009 21.0212 58.7767 21.0854L58.6447 21.7157L57.576 21.7346L57.4209 21.1043C57.1948 21.0479 56.977 20.9617 56.7734 20.848L56.2328 21.203L55.4637 20.4572L55.799 19.9046C55.6776 19.7047 55.5838 19.4891 55.5203 19.2638L54.8917 19.1315L54.8728 18.06L55.5015 17.9045C55.557 17.6778 55.6422 17.4595 55.755 17.2553L55.4009 16.7132L56.1448 15.9422L56.6959 16.2783V16.2909ZM57.2659 17.7175C57.1077 17.8811 57.0015 18.0881 56.9608 18.3122C56.92 18.5363 56.9465 18.7675 57.0368 18.9766C57.1272 19.1856 57.2774 19.3631 57.4683 19.4865C57.6593 19.6099 57.8826 19.6738 58.1098 19.67C58.337 19.6661 58.5579 19.5948 58.7447 19.465C58.9314 19.3352 59.0756 19.1528 59.1589 18.9408C59.2422 18.7289 59.2609 18.4969 59.2126 18.2743C59.1644 18.0516 59.0513 17.8484 58.8878 17.6902C58.7801 17.5846 58.6527 17.5013 58.5129 17.4451C58.3731 17.3888 58.2235 17.3608 58.0729 17.3626C57.9223 17.3643 57.7735 17.3958 57.635 17.4553C57.4965 17.5148 57.3711 17.601 57.2659 17.7091V17.7175Z" fill="#E0E0E0"/>
<path d="M57.2659 17.7092C57.3255 17.6362 57.3963 17.5731 57.4755 17.5222C57.6136 17.4324 57.7691 17.3731 57.9318 17.3481C58.0944 17.3232 58.2605 17.3332 58.4191 17.3775C58.5776 17.4218 58.7249 17.4994 58.8513 17.6051C58.9776 17.7108 59.0801 17.8423 59.1519 17.9907C59.2556 18.2 59.2943 18.4357 59.263 18.6673C59.2293 18.9167 59.1178 19.1491 58.9444 19.3312C58.7698 19.5118 58.5422 19.6318 58.2948 19.6736C58.1782 19.6925 58.0594 19.6925 57.9428 19.6736C57.8298 19.6595 57.7196 19.6283 57.6159 19.5812C57.4246 19.4942 57.2598 19.3579 57.1381 19.1862C57.0339 19.0359 56.9664 18.8632 56.9411 18.682C56.9014 18.4199 56.9548 18.1522 57.092 17.9256C57.1398 17.8465 57.1999 17.7755 57.2701 17.7155C57.2701 17.7155 57.201 17.7911 57.113 17.9487C56.9899 18.1735 56.9456 18.4332 56.9872 18.6862C57.0145 18.8591 57.082 19.0232 57.1842 19.1652C57.3013 19.3272 57.4588 19.4555 57.641 19.5371C57.739 19.5806 57.8428 19.6097 57.9491 19.6232C58.0601 19.641 58.1733 19.641 58.2844 19.6232C58.518 19.5833 58.733 19.47 58.8983 19.2997C59.0624 19.1265 59.1679 18.906 59.2001 18.6694C59.2264 18.4537 59.1908 18.2351 59.0974 18.0391C59.0105 17.8584 58.8775 17.704 58.7118 17.5916C58.5668 17.4946 58.4009 17.4334 58.2278 17.413C57.9747 17.3801 57.7179 17.4334 57.4985 17.5642C57.3393 17.6462 57.2722 17.7239 57.2659 17.7092Z" fill="#E0E0E0"/>
<path d="M56.6959 16.291L56.6603 16.2721L56.5555 16.2112L56.1364 15.9633H56.149L55.4113 16.7406V16.7196L55.7676 17.2596C55.6557 17.463 55.5719 17.6807 55.5182 17.9067V17.9193H55.5056L54.877 18.0769L54.8938 18.0537C54.8938 18.3899 54.9084 18.7492 54.9147 19.1252L54.8959 19.1L55.5245 19.2303H55.5392V19.245C55.6031 19.4665 55.6961 19.6784 55.8158 19.8753V19.89V19.9047L55.4889 20.4867V20.4489L56.26 21.1926H56.2223L56.7609 20.8354L56.7776 20.8249L56.7944 20.8354C56.996 20.9476 57.2117 21.0324 57.4356 21.0876H57.4545V21.1065L57.6074 21.7368L57.576 21.7137L58.6447 21.6947L58.6133 21.72C58.6552 21.5099 58.7013 21.2998 58.7453 21.0897V21.0708H58.7641C58.9854 21.0086 59.1969 20.916 59.3928 20.7955H59.4117H59.4284L59.9795 21.1317H59.9397L60.6815 20.3606V20.4005C60.5621 20.2178 60.4426 20.0371 60.3274 19.8585L60.3169 19.8417V19.8249C60.4297 19.6229 60.5149 19.4067 60.5705 19.182V19.1631H60.5893L61.218 19.0097L61.1949 19.0412C61.1949 18.6756 61.1886 18.3185 61.1761 17.9697L61.2012 17.9991L60.5726 17.8647H60.5558V17.8457C60.4934 17.6244 60.4018 17.4125 60.2834 17.2155V17.2007V17.186L60.6187 16.6314V16.665L59.8517 15.9191H59.8831L59.3425 16.2721H59.3299H59.3174C59.115 16.1593 58.8987 16.0739 58.674 16.0179H58.6615V16.0053C58.607 15.7763 58.5567 15.5704 58.5085 15.375L58.5295 15.3897L57.4586 15.4023H57.4733C57.4188 15.6544 57.3748 15.8624 57.3371 16.0326C57.1683 16.0787 57.0047 16.1421 56.8489 16.2217L56.7336 16.2805L56.6938 16.3015C56.7045 16.2916 56.7165 16.2831 56.7294 16.2763L56.8426 16.2112C56.9981 16.1281 57.1617 16.0612 57.3308 16.0116C57.3644 15.8393 57.4063 15.6313 57.4566 15.3813V15.3687H57.4691L58.5378 15.3456H58.5546V15.3603C58.6028 15.5557 58.6552 15.7616 58.7118 15.9906L58.695 15.9759C58.9241 16.0315 59.1447 16.1177 59.3509 16.2322H59.3257L59.8664 15.8771L59.8831 15.8645L59.8978 15.8792L60.6669 16.623L60.6836 16.6377L60.6711 16.6566L60.3379 17.2113V17.1818C60.4605 17.3837 60.5549 17.6014 60.6187 17.8289L60.5977 17.8079L61.2264 17.9382H61.2494V17.9613C61.2494 18.3101 61.2641 18.6672 61.2704 19.0328V19.058H61.2452L60.6166 19.2135L60.6396 19.1904C60.5833 19.4201 60.4966 19.6412 60.3819 19.848V19.8102L60.7381 20.3522L60.7507 20.3732L60.7339 20.3921L59.99 21.1632L59.9733 21.1821L59.9502 21.1695L59.397 20.8333H59.4305C59.2291 20.9561 59.012 21.0508 58.7851 21.1149L58.8082 21.0897C58.7621 21.2998 58.718 21.5246 58.6761 21.72V21.7473H58.651L57.5823 21.7641H57.5571V21.7389C57.5027 21.5288 57.4503 21.3061 57.4021 21.1086L57.4251 21.1317C57.1963 21.0744 56.9758 20.9875 56.7692 20.8733H56.8028L56.2621 21.2283L56.2412 21.2409L56.2244 21.2241L55.4554 20.4783L55.4386 20.4636L55.4512 20.4426C55.5685 20.2493 55.6817 20.0602 55.7864 19.89V19.9194C55.6648 19.7166 55.571 19.4982 55.5077 19.2702L55.5266 19.2891L54.8979 19.1568H54.877V19.1358C54.877 18.7597 54.8644 18.4025 54.8602 18.0643V18.0453H54.877L55.5056 17.892L55.4889 17.9193C55.5453 17.6902 55.632 17.4698 55.7466 17.2638V17.2848C55.6188 17.0894 55.5015 16.9066 55.3946 16.7406L56.1406 15.9738L56.5597 16.2259L56.6624 16.2931C56.6854 16.2805 56.6959 16.2889 56.6959 16.291Z" fill="#E0E0E0"/>
<path d="M4.88252 92.1511C4.49904 91.8234 3.64618 90.7792 4.30416 89.5669C4.54515 89.1236 5.05854 88.903 5.52165 88.7076C5.98475 88.5122 6.47301 88.342 6.85648 88.0143C7.58153 87.3966 7.7806 86.3713 8.26047 85.5477C8.81368 84.6023 9.84257 83.8922 10.9301 83.9426C12.1874 83.9993 13.2142 85.0204 13.6857 86.1822C14.1572 87.3441 14.174 88.6362 14.1824 89.8926C14.1824 90.588 14.1572 91.3633 13.648 91.8402C13.1807 92.273 12.4745 92.2772 11.8396 92.2604L5.0313 92.0503" fill="#F5F5F5"/>
<path d="M17.9019 73.3851H0L3.22498 92.6637C3.29123 93.0656 3.47 93.4403 3.74045 93.7442C4.01091 94.048 4.36192 94.2686 4.7526 94.3802L4.81546 94.3991C4.86785 94.4117 4.92024 94.4307 4.97472 94.4391C5.0948 94.4637 5.21681 94.4778 5.33934 94.4811V94.5L5.42735 94.4853H13.4091C13.5561 94.4853 13.7028 94.4712 13.8471 94.4433C14.314 94.3705 14.7442 94.1461 15.0716 93.8045C15.3991 93.4629 15.6057 93.023 15.6597 92.5524L17.2124 79.2679L17.2837 78.7384L17.8998 73.486L17.9019 73.3851ZM14.526 85.6801H12.6883L12.8727 80.0852H15.0017L14.526 85.6801ZM15.1798 80.0852H16.9317L16.2758 85.6801H14.7041L15.1798 80.0852ZM9.94106 91.8843L9.83 87.0226H12.4661L12.3048 91.8843H9.94106ZM7.07022 87.0226H9.6414L9.75246 91.8843H7.44741L7.07022 87.0226ZM7.27977 91.8843H5.11512C4.90557 90.5712 4.64363 88.8652 4.35445 87.0226H6.8921L7.27977 91.8843ZM6.97802 85.6801L6.54425 80.0852H9.48214L9.60997 85.6801H6.97802ZM9.79856 85.6801L9.67074 80.0852H12.6945L12.5101 85.6801H9.79856ZM9.63931 78.7468L9.51986 73.5658H12.9125L12.7406 78.7426L9.63931 78.7468ZM9.46119 78.7468H6.429L6.03504 73.5616H9.33336L9.46119 78.7468ZM6.24459 78.7426H3.05315C2.93999 78.0283 2.83312 77.3497 2.73463 76.7404C2.40144 74.6394 2.27571 73.8579 2.20656 73.5616H5.84854L6.24459 78.7426ZM6.34937 80.0852L6.78314 85.6801H4.14909C4.05899 85.1128 3.96888 84.5392 3.87877 83.9636L3.26898 80.0852H6.34937ZM3.96469 85.6801H2.2359L1.30131 80.0852H3.08458C3.35699 81.8143 3.66084 83.7388 3.96469 85.6801ZM4.17424 87.0226C4.43827 88.7034 4.69602 90.3632 4.93491 91.8843H3.27527L2.46012 87.0226H4.17424ZM12.4829 91.8843L12.6443 87.0226H14.4171L13.998 91.8843H12.4829ZM12.9167 78.7426L13.0885 73.5616H15.557L15.1169 78.7426H12.9167ZM2.03683 73.5616C2.10807 73.9356 2.43497 75.9756 2.87503 78.7426H1.07709L0.20955 73.5616H2.03683ZM15.5591 91.8843H14.174L14.5931 87.0226H16.1312L15.5591 91.8843ZM17.0972 78.7426H15.2951L15.7372 73.5616H17.7028L17.0972 78.7426Z" fill="#E0E0E0"/>
<path d="M90.798 94.2876C90.798 94.3191 71.6116 94.3421 47.9471 94.3421C24.2826 94.3421 5.09204 94.3191 5.09204 94.2876C5.09204 94.2562 24.2743 94.2332 47.9471 94.2332C71.62 94.2332 90.798 94.2583 90.798 94.2876Z" fill="#263238"/>
<path d="M72.5442 46.4569C72.5442 46.4569 75.019 43.6016 75.9536 40.7443C76.8881 37.887 76.4439 38.2231 76.4439 38.2231C76.4439 38.2231 75.1866 40.9964 74.2269 42.3369C73.2671 43.6773 71.5635 45.6438 71.5635 45.6438L72.5442 46.4569Z" fill="#455A64"/>
<path d="M72.0434 38.6602C72.0602 38.6312 72.0866 38.6089 72.1179 38.5972C72.1493 38.5855 72.1837 38.5851 72.2153 38.596C72.247 38.6069 72.2739 38.6285 72.2914 38.657C72.309 38.6856 72.3161 38.7194 72.3116 38.7526C72.1607 39.7569 71.8338 42.1142 71.8464 43.6374C71.8632 45.6207 71.8464 46.3876 71.8464 46.3876H70.8154C70.8154 46.3876 70.9998 42.2864 71.2345 41.0364C71.3867 40.2089 71.6592 39.4083 72.0434 38.6602Z" fill="#455A64"/>
<path d="M71.4902 46.0556C71.0578 45.0748 70.7719 44.0356 70.6415 42.9714C70.5577 42.2402 70.7085 41.2527 70.9328 39.9375C71.0199 39.4522 71.0641 38.96 71.0648 38.4668C71.0636 38.4124 71.0446 38.3599 71.0107 38.3174C70.9769 38.2749 70.93 38.2447 70.8773 38.2316C70.8246 38.2184 70.7691 38.223 70.7193 38.2447C70.6695 38.2663 70.6281 38.3038 70.6017 38.3513C70.3524 38.8124 70.1596 39.3019 70.0275 39.8094C69.7781 41.1099 69.4952 41.7591 69.7111 42.9945C69.9269 44.2298 70.7253 46.127 70.7253 46.127L71.4902 46.0556Z" fill="#455A64"/>
<path d="M70.5618 46.1375C70.5618 46.1375 67.8377 40.282 67.6554 39.4143C67.473 38.5466 66.8276 36.5423 66.7522 36.6557C66.6768 36.7692 66.5636 37.8281 67.0539 39.0362C67.5443 40.2442 69.6335 46.3161 69.6335 46.3161H70.5618" fill="#455A64"/>
<path d="M71.7877 45.877C71.7877 45.877 71.815 45.8602 71.8632 45.8245C71.9114 45.7887 71.9847 45.7362 72.0727 45.6627C72.3264 45.4593 72.5698 45.2434 72.8019 45.0156C73.5649 44.2601 74.2258 43.4075 74.7675 42.4797C75.312 41.5525 75.7654 40.5744 76.1212 39.5593C76.2595 39.1706 76.358 38.8534 76.423 38.6307C76.4565 38.5214 76.4795 38.4353 76.4942 38.3765C76.5045 38.3472 76.5115 38.3169 76.5152 38.2861C76.5152 38.2861 76.5026 38.3155 76.4837 38.3723L76.402 38.6244C76.3308 38.8345 76.2239 39.1601 76.0835 39.5467C75.7196 40.5545 75.2651 41.5271 74.7256 42.4524C74.1847 43.3775 73.5291 44.2302 72.7747 44.9904C72.4855 45.2803 72.2362 45.5009 72.0601 45.6501L71.8506 45.8181C71.828 45.8359 71.8069 45.8556 71.7877 45.877Z" fill="#263238"/>
<path d="M71.4901 43.068C71.5035 43.0114 71.5119 42.9538 71.5153 42.8957C71.5278 42.7739 71.5446 42.6163 71.5635 42.4251C71.6075 42.0301 71.6745 41.4839 71.773 40.883C71.8715 40.2821 71.9826 39.7421 72.0601 39.3535L72.1586 38.8913C72.1737 38.8356 72.1835 38.7786 72.1879 38.7211C72.1674 38.7754 72.1499 38.8308 72.1355 38.887C72.1062 38.9942 72.0664 39.1497 72.0182 39.3451C71.926 39.7316 71.8086 40.2716 71.7164 40.8746C71.6242 41.4776 71.5593 42.0238 71.5257 42.4209C71.509 42.6205 71.4985 42.7823 71.4943 42.8936C71.487 42.9515 71.4856 43.0099 71.4901 43.068Z" fill="#263238"/>
<path d="M70.8531 38.3156C70.8405 38.3391 70.83 38.3637 70.8217 38.3891L70.7399 38.5992C70.7043 38.6937 70.6624 38.8093 70.6226 38.9479C70.5828 39.0866 70.5304 39.24 70.4906 39.4165C70.4696 39.5047 70.4466 39.5972 70.4235 39.6917C70.4005 39.7862 70.3858 39.8892 70.3648 39.9942C70.3187 40.2043 70.2915 40.427 70.2601 40.6623C70.2002 41.1776 70.1785 41.6965 70.1951 42.215C70.2155 42.7339 70.273 43.2506 70.3669 43.7613C70.4172 43.9945 70.4612 44.2172 70.5199 44.421C70.5492 44.524 70.5723 44.6311 70.6016 44.7172L70.6875 44.9883C70.7399 45.1605 70.8028 45.3118 70.8531 45.4463C70.9034 45.5807 70.9516 45.6942 70.9956 45.7845L71.092 45.9946C71.1022 46.0196 71.1149 46.0435 71.1297 46.0661C71.1297 46.0661 71.1297 46.0388 71.1025 45.9883C71.0752 45.9379 71.0522 45.8623 71.0144 45.7782C70.9767 45.6942 70.9306 45.5681 70.8845 45.4358C70.8384 45.3034 70.7756 45.15 70.7274 44.9778L70.6435 44.7067C70.6163 44.6143 70.5932 44.5134 70.566 44.4105C70.5094 44.2004 70.4675 43.9903 70.4193 43.7529C70.3294 43.2452 70.2727 42.7322 70.2496 42.2171C70.2348 41.7015 70.2551 41.1856 70.3104 40.6729C70.3418 40.4375 70.3669 40.2127 70.4088 40.0068C70.4298 39.9018 70.4445 39.7967 70.4654 39.7064C70.4864 39.6161 70.5094 39.5173 70.5283 39.4312C70.566 39.2547 70.6142 39.0992 70.6519 38.9606C70.6896 38.8219 70.7274 38.7063 70.7588 38.6097L70.83 38.3891C70.8407 38.3656 70.8484 38.3409 70.8531 38.3156Z" fill="#263238"/>
<path d="M66.7837 36.7734C66.7837 36.7734 66.7837 36.7734 66.7837 36.8007V36.8764C66.7963 36.9436 66.8109 37.0424 66.8382 37.1684C66.8906 37.4205 66.9786 37.7819 67.1148 38.2189C67.251 38.6559 67.4354 39.1728 67.6554 39.74C67.8754 40.3073 68.129 40.925 68.37 41.5826C68.611 42.2402 68.8038 42.8789 68.9819 43.4609C69.16 44.0428 69.3234 44.5639 69.4848 44.9967C69.6061 45.3375 69.746 45.6713 69.9039 45.9967C69.9584 46.1123 70.0087 46.2068 70.0422 46.2594L70.0799 46.3266C70.0839 46.3342 70.0889 46.3412 70.0946 46.3476C70.0919 46.3389 70.0884 46.3304 70.0841 46.3224L70.0527 46.2531C70.0233 46.1921 69.9772 46.1039 69.9249 45.9883C69.7679 45.6604 69.628 45.3245 69.5058 44.982C69.3486 44.5492 69.1872 44.0281 69.0133 43.4462C68.8394 42.8642 68.6508 42.2213 68.4056 41.5553C68.1604 40.8893 67.9069 40.28 67.6869 39.7148C67.4668 39.1496 67.2678 38.637 67.1336 38.2C66.9995 37.763 66.901 37.4016 66.8403 37.1495C66.8109 37.0256 66.7921 36.9268 66.7774 36.8617L66.7585 36.786L66.7837 36.7734Z" fill="#263238"/>
<path d="M75.1636 35.4813C75.2013 35.4457 75.2496 35.4236 75.301 35.4184C75.3525 35.4132 75.4042 35.4252 75.4482 35.4525C75.4922 35.4798 75.5259 35.5209 75.5442 35.5695C75.5624 35.618 75.5642 35.6712 75.5492 35.7208C75.4546 36.0214 75.3405 36.3155 75.2076 36.6011C74.8325 37.3974 73.7408 40.2526 73.2211 41.8221C72.7014 43.3915 71.9848 46.3161 71.9848 46.3161L70.8867 46.1375C70.8867 46.1375 71.8905 41.3304 72.8712 39.5971C73.6591 38.2042 74.447 36.1977 75.1636 35.4813Z" fill="#455A64"/>
<path d="M72.9214 42.8032C72.8977 42.8444 72.8788 42.8881 72.8649 42.9335C72.8334 43.0196 72.7894 43.1436 72.7391 43.3033C72.6385 43.6163 72.5149 44.0554 72.3892 44.5428C72.2634 45.0303 72.1608 45.4715 72.0895 45.7929C72.056 45.9463 72.0287 46.0724 72.0078 46.1753C71.9948 46.2212 71.9871 46.2684 71.9847 46.3161C72.0045 46.2724 72.0193 46.2266 72.0287 46.1795C72.056 46.0808 72.0895 45.9526 72.1293 45.8034L72.4458 44.5575C72.5694 44.0701 72.6867 43.631 72.7789 43.3159C72.8208 43.1667 72.8586 43.0406 72.8858 42.9419C72.903 42.8972 72.915 42.8507 72.9214 42.8032Z" fill="#263238"/>
<path d="M71.4335 46.2277V46.1983L71.4461 46.1122C71.4566 46.0344 71.467 45.9231 71.4901 45.7781C71.5299 45.4882 71.6032 45.0722 71.7206 44.5658C71.8605 43.9709 72.0319 43.3839 72.234 42.8073C72.4582 42.156 72.7411 41.4522 73.0617 40.7231C73.7071 39.2672 74.3504 37.9772 74.7737 37.0212C74.9833 36.5464 75.1551 36.1577 75.2641 35.8867C75.3186 35.7501 75.3584 35.6451 75.3877 35.5736C75.4003 35.54 75.4087 35.5127 75.4171 35.4917C75.4254 35.4707 75.4275 35.4623 75.4171 35.4623L75.4045 35.4896C75.394 35.5106 75.3835 35.5358 75.3689 35.5694C75.3353 35.643 75.2913 35.7459 75.2348 35.8762C75.1195 36.1451 74.9477 36.5317 74.7297 37.0044C74.296 37.954 73.6464 39.2419 72.9988 40.7C72.6782 41.4291 72.3974 42.135 72.1753 42.7905C71.9742 43.3687 71.8063 43.9579 71.6724 44.5553C71.5821 44.9584 71.5122 45.3658 71.4629 45.776C71.444 45.9189 71.4377 46.0344 71.4293 46.1101V46.1962C71.4307 46.2172 71.4321 46.2277 71.4335 46.2277Z" fill="#263238"/>
<path d="M70.8867 46.1375C70.9044 46.077 70.917 46.0152 70.9244 45.9526C70.9454 45.8245 70.9747 45.6543 71.0104 45.4484C71.0858 45.0282 71.201 44.4336 71.3666 43.7949C71.5321 43.1562 71.7165 42.5869 71.859 42.1793C71.9282 41.9818 71.9869 41.82 72.0309 41.696C72.0545 41.6381 72.0734 41.5784 72.0874 41.5175C72.0575 41.5722 72.0315 41.6291 72.0099 41.6876C71.9617 41.799 71.8947 41.9608 71.8192 42.1646C71.6223 42.6941 71.4523 43.2333 71.31 43.7802C71.1445 44.4105 71.0355 45.0114 70.9684 45.44C70.937 45.6501 70.914 45.8287 70.9014 45.9505C70.8917 46.0124 70.8868 46.0749 70.8867 46.1375Z" fill="#263238"/>
<path d="M68.636 51.2114H72.9171V45.98H68.636V51.2114Z" fill="#756FB3"/>
<g opacity="0.3">
<path d="M68.636 51.2114H72.9171V45.98H68.636V51.2114Z" fill="black"/>
</g>
<path d="M70.0003 51.2114H73.7994V45.98H70.0003V51.2114Z" fill="#756FB3"/>
<path d="M34.4406 2.89561L26.4916 5.44678L28.2069 10.8194L36.1559 8.2682L34.4406 2.89561Z" fill="#756FB3"/>
<path d="M34.4877 2.94751C34.4732 2.98124 34.4557 3.01359 34.4353 3.04415C34.3955 3.11139 34.3431 3.19963 34.2761 3.30888L33.6789 4.27953L31.6777 7.47092L31.6609 7.49613H31.6316L31.5624 7.46882L28.0001 6.09898L26.9251 5.67879L26.6338 5.56113C26.5989 5.54878 26.5653 5.53331 26.5332 5.51491C26.5691 5.52202 26.6041 5.53257 26.638 5.54642L26.9355 5.65147L28.0189 6.05276L31.5813 7.40369L31.6525 7.4289L31.6064 7.44571L33.6286 4.26482C33.8863 3.86564 34.0959 3.53999 34.2467 3.30888L34.4165 3.05046C34.4371 3.01404 34.4609 2.97959 34.4877 2.94751Z" fill="#263238"/>
<path d="M28.2473 10.8726C28.2284 10.8726 28.5909 9.93558 29.0561 8.79895C29.5214 7.66232 29.9174 6.74629 29.9363 6.7547C29.9551 6.7631 29.5947 7.69173 29.1274 8.82836C28.6601 9.965 28.2724 10.881 28.2473 10.8726Z" fill="#263238"/>
<path d="M32.5641 5.83864C32.5767 5.82183 33.4023 6.36388 34.404 7.0488C35.4056 7.73372 36.2145 8.30939 36.2019 8.30939C36.1893 8.30939 35.3637 7.78625 34.362 7.10133C33.3604 6.41641 32.5515 5.85755 32.5641 5.83864Z" fill="#263238"/>
<path d="M69.5623 14.5429L63.6467 12.0364C63.4534 11.9515 63.3011 11.7937 63.2227 11.5972C63.1443 11.4007 63.1461 11.1812 63.2276 10.986L66.6978 2.77532C66.7821 2.58112 66.9394 2.42809 67.1355 2.34942C67.3317 2.27076 67.5509 2.27281 67.7455 2.35512L71.4986 3.94766L73.133 8.18324L70.6184 14.1353C70.5314 14.329 70.3716 14.4804 70.1739 14.5567C69.9762 14.633 69.7564 14.6281 69.5623 14.5429Z" fill="#756FB3"/>
<path d="M71.4964 3.92664L70.5199 6.23772C70.4813 6.32832 70.4609 6.42568 70.4599 6.52421C70.4589 6.62275 70.4773 6.72051 70.5141 6.81188C70.5509 6.90324 70.6054 6.98642 70.6743 7.05663C70.7433 7.12683 70.8254 7.18269 70.916 7.22097L73.1309 8.16221L71.4964 3.92664Z" fill="#756FB3"/>
<g opacity="0.2">
<path d="M70.4634 6.4541C70.3923 6.62983 70.3826 6.82449 70.4359 7.00643C70.4892 7.18837 70.6022 7.3469 70.7567 7.45627C70.7775 7.47355 70.7992 7.48968 70.8217 7.50459C71.0899 7.67897 72.8501 8.82821 72.869 8.78409L73.1309 8.15379L70.916 7.21256C70.916 7.21256 70.367 6.96674 70.4634 6.4541Z" fill="black"/>
</g>
<g opacity="0.3">
<path d="M71.4964 3.92664L70.5199 6.23772C70.4813 6.32832 70.4609 6.42568 70.4599 6.52421C70.4589 6.62275 70.4773 6.72051 70.5141 6.81188C70.5509 6.90324 70.6054 6.98642 70.6743 7.05663C70.7433 7.12683 70.8254 7.18269 70.916 7.22097L73.1309 8.16221L71.4964 3.92664Z" fill="white"/>
</g>
<path d="M70.063 5.94365C69.5862 5.80449 69.121 5.62817 68.6716 5.41631C68.2073 5.24055 67.7569 5.02985 67.3242 4.78601C67.8021 4.92383 68.2682 5.10018 68.7177 5.31336C69.1819 5.48778 69.6318 5.69852 70.063 5.94365Z" fill="#FAFAFA"/>
<path d="M71.2785 7.98992C71.2659 8.01934 70.2475 7.61595 69.0028 7.0865C67.7581 6.55706 66.7606 6.10744 66.7732 6.07593C66.7858 6.04442 67.8042 6.45201 69.0489 6.97935C70.2936 7.5067 71.2911 7.96051 71.2785 7.98992Z" fill="#FAFAFA"/>
<path d="M71.224 9.25474C71.2114 9.28416 70.1008 8.83455 68.745 8.26518C67.3892 7.69581 66.2995 7.20419 66.3121 7.16847C66.3247 7.13275 67.4332 7.58866 68.7911 8.15803C70.149 8.7274 71.2365 9.22323 71.224 9.25474Z" fill="#FAFAFA"/>
<path d="M70.7861 10.2842C70.7735 10.3136 69.665 9.86398 68.3092 9.29461C66.9534 8.72524 65.8637 8.22731 65.8742 8.1979C65.8847 8.16848 66.9974 8.61809 68.3532 9.18746C69.709 9.75683 70.8007 10.2527 70.7861 10.2842Z" fill="#FAFAFA"/>
<path d="M70.3543 11.3115C70.3418 11.343 69.2312 10.8913 67.8754 10.324C66.5196 9.75676 65.4299 9.25673 65.4425 9.22732C65.4551 9.1979 66.5636 9.64751 67.9215 10.2169C69.2794 10.7862 70.3669 11.2821 70.3543 11.3115Z" fill="#FAFAFA"/>
<path d="M69.9184 12.341C69.9059 12.3725 68.7952 11.9208 67.4395 11.3536C66.0837 10.7863 64.994 10.2863 65.0066 10.2569C65.0192 10.2274 66.1298 10.6771 67.4856 11.2443C68.8413 11.8116 69.931 12.3116 69.9184 12.341Z" fill="#FAFAFA"/>
<path d="M49.6675 16.2844C53.9901 16.2844 57.4942 12.7711 57.4942 8.43725C57.4942 4.10338 53.9901 0.590088 49.6675 0.590088C45.345 0.590088 41.8408 4.10338 41.8408 8.43725C41.8408 12.7711 45.345 16.2844 49.6675 16.2844Z" fill="white"/>
<path d="M57.4942 8.43743C57.4942 8.43743 57.4942 8.39541 57.4816 8.31137C57.4691 8.22733 57.467 8.10127 57.4565 7.93739C57.4565 7.85546 57.446 7.76511 57.4397 7.66427C57.4334 7.56342 57.4083 7.45417 57.3915 7.33651C57.3564 7.06331 57.3018 6.79299 57.2281 6.52764C57.0453 5.79372 56.7528 5.09175 56.3605 4.44556C55.7923 3.49629 55.03 2.67842 54.1238 2.04579C53.2176 1.41317 52.1881 0.980118 51.1029 0.77515C50.7783 0.714647 50.45 0.676738 50.1201 0.661696C49.9525 0.661696 49.7828 0.638585 49.613 0.640686L49.0975 0.667999C49.0116 0.667999 48.9236 0.667999 48.8377 0.684807L48.5779 0.724726C48.406 0.754139 48.23 0.775149 48.0561 0.810866C47.3427 0.971526 46.6531 1.22436 46.0046 1.56302C45.8411 1.65126 45.684 1.75631 45.5205 1.85295C45.4409 1.90338 45.3571 1.9475 45.2795 2.00422L45.0511 2.1765C44.4167 2.63847 43.8617 3.20124 43.4083 3.84258L43.2301 4.08209L43.073 4.33841L42.9158 4.58633C42.8604 4.67078 42.8114 4.75927 42.7691 4.85105C42.6832 5.03384 42.5952 5.21662 42.5051 5.40151L42.2955 5.97718C42.0398 6.77256 41.9042 7.60182 41.8932 8.43743C41.9042 9.27235 42.0398 10.1009 42.2955 10.8956C42.3647 11.0889 42.4359 11.2822 42.5051 11.4733C42.5742 11.6645 42.6811 11.841 42.7691 12.0217C42.8109 12.1144 42.8599 12.2036 42.9158 12.2885L43.073 12.5469L43.228 12.8033L43.4083 13.0428C43.6407 13.3612 43.8948 13.663 44.1689 13.9462C44.4461 14.2162 44.7408 14.4675 45.0511 14.6984L45.2795 14.8706C45.3571 14.9274 45.4409 14.9715 45.5205 15.0219C45.684 15.1185 45.8411 15.232 46.0046 15.3118C46.6531 15.6505 47.3427 15.9033 48.0561 16.064C48.23 16.1018 48.406 16.1207 48.58 16.1501L48.8377 16.19C48.9257 16.19 49.0116 16.19 49.0975 16.2069L49.6214 16.2384C49.7912 16.2384 49.9609 16.2237 50.1285 16.2195C50.4584 16.2037 50.7868 16.1651 51.1113 16.1039C52.1967 15.8997 53.2266 15.467 54.1329 14.8343C55.0392 14.2016 55.8013 13.3833 56.3689 12.4335C56.7579 11.7881 57.0475 11.0876 57.2281 10.3556C57.3018 10.0903 57.3564 9.81995 57.3915 9.54675C57.4083 9.42909 57.4293 9.31984 57.4397 9.21899C57.4502 9.11814 57.4523 9.0278 57.4565 8.94587C57.4677 8.78339 57.4761 8.65943 57.4816 8.57399C57.4816 8.48995 57.4942 8.44583 57.4942 8.44583C57.4942 8.44583 57.4942 8.48995 57.4942 8.57399C57.4942 8.65803 57.4942 8.78409 57.4816 8.94587C57.4816 9.0299 57.4816 9.12025 57.4691 9.2232C57.4565 9.32614 57.4418 9.43329 57.4251 9.55095C57.3928 9.82257 57.341 10.0915 57.27 10.3556C57.0924 11.0955 56.8034 11.804 56.4129 12.4566C55.8452 13.4195 55.0796 14.2502 54.1669 14.8935C53.2543 15.5369 52.2155 15.9781 51.1197 16.1879C50.7917 16.2497 50.4598 16.289 50.1264 16.3056C49.9567 16.3056 49.7849 16.3287 49.613 16.3266L49.0913 16.3014C49.0032 16.3014 48.9152 16.3014 48.8272 16.2846L48.5737 16.2384C48.3976 16.209 48.2195 16.19 48.0435 16.1522C47.6877 16.0741 47.3376 15.9716 46.9958 15.8455C46.643 15.7193 46.2992 15.5691 45.9669 15.3959C45.8013 15.3055 45.64 15.2005 45.4765 15.1017C45.3948 15.0492 45.3089 15.0051 45.2313 14.9484L45.0008 14.774C44.6863 14.5403 44.3874 14.2863 44.1061 14.0134C43.8278 13.7261 43.5695 13.42 43.3328 13.0974L43.1505 12.8558L42.9912 12.5953L42.8341 12.3326C42.7772 12.2473 42.7274 12.1573 42.6853 12.0637C42.5973 11.8788 42.5072 11.6939 42.4192 11.507L42.2096 10.9208C41.9513 10.1151 41.8143 9.27526 41.8031 8.42902C41.8095 7.5856 41.9416 6.74786 42.195 5.94356L42.4045 5.35949L42.6727 4.80063C42.7146 4.7073 42.7636 4.61739 42.8194 4.5317L42.9787 4.27118L43.1358 4.01066L43.3181 3.76695C43.5553 3.4454 43.8137 3.14008 44.0914 2.85302C44.3728 2.5802 44.6717 2.32614 44.9862 2.09246L45.2167 1.91808C45.2942 1.86136 45.3801 1.81724 45.4618 1.76471C45.6253 1.66807 45.7866 1.55461 45.9522 1.47268C46.6096 1.1311 47.3083 0.876172 48.0309 0.714221C48.207 0.678504 48.3851 0.657494 48.5611 0.628081L48.823 0.588162C48.911 0.588162 48.9991 0.588162 49.0871 0.571354L49.6088 0.546143C49.7807 0.546143 49.9504 0.560849 50.1201 0.567152C50.4541 0.584629 50.7866 0.623931 51.1155 0.684807C52.2113 0.89463 53.2501 1.33587 54.1627 1.97922C55.0754 2.62256 55.841 3.45327 56.4087 4.41615C56.7992 5.06875 57.0882 5.77722 57.2658 6.51713C57.3366 6.78475 57.3877 7.05721 57.4188 7.33231C57.4355 7.45207 57.4544 7.56132 57.4628 7.66217L57.4754 7.93739C57.4754 8.09917 57.4858 8.22313 57.4879 8.31137C57.49 8.39961 57.4942 8.43743 57.4942 8.43743Z" fill="#263238"/>
<path d="M53.3786 8.21688C53.2762 8.25465 53.1712 8.28484 53.0643 8.30722L52.1905 8.51732C51.4508 8.6896 50.424 8.92281 49.2757 9.17492L49.2107 9.18963V8.88499C49.2107 7.65591 49.2107 6.54239 49.2254 5.73352C49.2254 5.34694 49.24 5.02549 49.2442 4.77967C49.2411 4.66303 49.2481 4.54633 49.2652 4.43091C49.2809 4.54647 49.2879 4.66305 49.2861 4.77967C49.2861 5.02549 49.2966 5.34694 49.3029 5.73352C49.3029 6.54029 49.3197 7.65381 49.3197 8.88499V9.11399L49.2526 9.05937C50.4009 8.80935 51.4298 8.58875 52.1737 8.42908L53.0538 8.25469C53.1607 8.23204 53.2694 8.21937 53.3786 8.21688Z" fill="#263238"/>
<path d="M58.0538 11.673C58.0613 11.6292 58.0733 11.5863 58.0894 11.5449C58.1125 11.4629 58.1607 11.3348 58.2026 11.1877C58.3374 10.7469 58.4396 10.2968 58.5085 9.84096C58.748 8.3348 58.6047 6.79241 58.0919 5.3565C57.5791 3.92059 56.7134 2.63755 55.5748 1.62613C55.2336 1.32019 54.8708 1.03933 54.4893 0.785734C54.3552 0.691189 54.2442 0.62816 54.175 0.575635C54.1367 0.553455 54.1002 0.528158 54.066 0.5C54.1085 0.512711 54.1488 0.53184 54.1855 0.556727C54.2588 0.598746 54.3741 0.655472 54.5124 0.745814C54.9062 0.988747 55.2791 1.26423 55.6272 1.5694C56.79 2.57815 57.6729 3.87134 58.1899 5.32331C58.7068 6.77527 58.8404 8.33663 58.5777 9.85567C58.5033 10.3109 58.3919 10.7592 58.2445 11.1961C58.1942 11.3516 58.1397 11.4692 58.1104 11.5491C58.0963 11.5924 58.0773 11.634 58.0538 11.673Z" fill="#263238"/>
<path d="M59.5541 7.8114C59.5373 7.8114 59.5268 7.49836 59.464 6.99832C59.38 6.34813 59.2326 5.70776 59.0239 5.08643C58.8132 4.46771 58.5416 3.87159 58.213 3.3069C57.9573 2.872 57.7729 2.61988 57.7939 2.60938C57.8503 2.6567 57.8997 2.71189 57.9405 2.77325C58.0265 2.8867 58.1501 3.05268 58.2842 3.26488C58.6408 3.82359 58.9292 4.42314 59.1434 5.05071C59.3591 5.67821 59.4998 6.32917 59.5625 6.98992C59.5855 7.24204 59.5918 7.44793 59.5918 7.5908C59.5908 7.66586 59.5781 7.74031 59.5541 7.8114Z" fill="#263238"/>
<path d="M41.8535 3.89307C41.841 3.93499 41.8234 3.97521 41.8011 4.01282C41.7634 4.09056 41.6984 4.19981 41.6314 4.34898C40.8423 5.92079 40.5239 7.68802 40.7146 9.4373C40.9054 11.1866 41.5972 12.8431 42.7064 14.2068C42.9951 14.5648 43.3088 14.9018 43.6452 15.2153C43.7625 15.3287 43.8547 15.4085 43.9239 15.4674C43.9575 15.4958 43.9891 15.5267 44.0182 15.5598C43.9788 15.5393 43.9422 15.5138 43.9092 15.4842C43.8421 15.4317 43.7395 15.356 43.6179 15.2468C43.2679 14.9435 42.9434 14.6118 42.6477 14.2551C41.6588 13.0741 40.9917 11.6565 40.7115 10.1404C40.4314 8.62416 40.5476 7.06106 41.0488 5.60326C41.1966 5.16414 41.381 4.73824 41.6 4.33007C41.6733 4.183 41.7445 4.07585 41.7865 4.00232C41.8057 3.9641 41.8282 3.92756 41.8535 3.89307Z" fill="#263238"/>
<path d="M39.7601 7.4668C39.7789 7.4668 39.7391 7.77984 39.7223 8.28408C39.7001 8.93888 39.7443 9.59426 39.8544 10.2401C39.9666 10.8866 40.1435 11.5201 40.3824 12.131C40.5647 12.5995 40.7072 12.8789 40.6905 12.8873C40.6433 12.8304 40.6039 12.7676 40.5731 12.7003C40.504 12.5764 40.4118 12.3936 40.3112 12.1604C40.0481 11.555 39.8581 10.9202 39.7454 10.2695C39.6341 9.61608 39.6004 8.95176 39.6448 8.29038C39.6637 8.03616 39.6888 7.83237 39.7119 7.6916C39.7177 7.61483 39.734 7.53921 39.7601 7.4668Z" fill="#263238"/>
<path d="M56.1468 9.72506C55.8513 9.66429 55.6124 9.61191 55.6124 9.60981C55.6124 9.60771 55.8534 9.65382 56.1489 9.71458C56.4443 9.77535 56.6832 9.82565 56.6811 9.82774C56.679 9.82984 56.4402 9.79421 56.1468 9.72506Z" fill="#263238"/>
<path d="M55.3882 11.7109C55.1284 11.5575 54.9188 11.4314 54.9188 11.4293C54.9188 11.4272 55.1284 11.5491 55.3924 11.7025C55.6564 11.8558 55.8618 11.9819 55.8597 11.984C55.8576 11.9861 55.646 11.8643 55.3882 11.7109Z" fill="#263238"/>
<path d="M54.022 13.3328C53.825 13.1017 53.6678 12.9126 53.6699 12.9126C53.672 12.9126 53.8334 13.0954 54.0283 13.3328C54.2232 13.5702 54.3824 13.753 54.3782 13.753C54.374 13.753 54.2315 13.5618 54.022 13.3328Z" fill="#263238"/>
<path d="M52.2178 14.4253C52.1067 14.1438 52.0187 13.9148 52.0208 13.9148C52.0229 13.9148 52.1151 14.1396 52.2303 14.4211C52.3456 14.7027 52.4294 14.9296 52.4252 14.9317C52.421 14.9338 52.3288 14.7048 52.2178 14.4253Z" fill="#263238"/>
<path d="M50.1516 14.8686C50.1391 14.5661 50.1307 14.3224 50.1328 14.3224C50.1349 14.3224 50.1495 14.5661 50.1621 14.8686C50.1747 15.1712 50.1852 15.4149 50.1831 15.4149C50.181 15.4149 50.1663 15.1712 50.1516 14.8686Z" fill="#263238"/>
<path d="M48.054 14.6143C48.1378 14.3244 48.207 14.0912 48.2112 14.0912C48.2154 14.0912 48.1483 14.3286 48.0645 14.6185C47.9807 14.9085 47.9094 15.1417 47.9052 15.1417C47.901 15.1417 47.9681 14.9043 48.054 14.6143Z" fill="#263238"/>
<path d="M46.1491 13.6942C46.3231 13.4463 46.4656 13.2488 46.4698 13.2509C46.4739 13.253 46.3315 13.461 46.1575 13.7005C45.9836 13.94 45.8495 14.1375 45.8495 14.1375C45.8495 14.1375 45.9752 13.94 46.1491 13.6942Z" fill="#263238"/>
<path d="M44.6509 12.2025C44.894 12.0239 45.093 11.8832 45.0951 11.8853C45.0972 11.8874 44.9003 12.0323 44.6551 12.2109C44.4099 12.3895 44.2129 12.5282 44.2108 12.5261C44.2087 12.524 44.4057 12.379 44.6509 12.2025Z" fill="#263238"/>
<path d="M43.7121 10.3028C44.0012 10.2148 44.2359 10.1457 44.2359 10.1478C44.2359 10.1498 44.0033 10.2253 43.7142 10.3133C43.425 10.4013 43.1924 10.4684 43.1924 10.4663C43.1924 10.4642 43.425 10.3908 43.7121 10.3028Z" fill="#263238"/>
<path d="M43.4418 8.20219C43.7436 8.20219 43.9866 8.22315 43.9866 8.22734C43.9866 8.23153 43.7415 8.22734 43.4418 8.21267C43.1422 8.198 42.8949 8.18962 42.897 8.18753C42.8991 8.18543 43.1401 8.18962 43.4418 8.20219Z" fill="#263238"/>
<path d="M43.8651 6.12433C44.148 6.23358 44.3743 6.32182 44.3743 6.33443C44.3743 6.34703 44.1438 6.25039 43.8609 6.14324C43.578 6.03609 43.3538 5.94575 43.3538 5.94365C43.3538 5.94155 43.5843 6.01718 43.8651 6.12433Z" fill="#263238"/>
<path d="M44.9401 4.29859C45.1706 4.49398 45.3592 4.65365 45.3592 4.65575C45.3592 4.65785 45.1685 4.50238 44.9401 4.30699C44.7117 4.1116 44.521 3.95403 44.521 3.95193C44.521 3.94982 44.7075 4.1053 44.9401 4.29859Z" fill="#263238"/>
<path d="M46.5453 2.92456C46.7004 3.18298 46.8261 3.39308 46.824 3.39518C46.8219 3.39728 46.692 3.18509 46.5369 2.92877C46.3818 2.67245 46.2561 2.46025 46.2582 2.45815C46.2603 2.45604 46.3902 2.66614 46.5453 2.92456Z" fill="#263238"/>
<path d="M48.5087 2.14292C48.5716 2.43915 48.6219 2.67867 48.6198 2.67867C48.6177 2.67867 48.5632 2.44125 48.4983 2.14502C48.4333 1.84878 48.3851 1.61137 48.3893 1.60927C48.3935 1.60717 48.4459 1.84878 48.5087 2.14292Z" fill="#263238"/>
<path d="M50.6188 2.04635C50.5832 2.34679 50.5518 2.5884 50.5497 2.5884C50.5476 2.5884 50.5727 2.34469 50.6105 2.04425C50.6482 1.74381 50.6775 1.5022 50.6796 1.5022C50.6817 1.5022 50.6566 1.74171 50.6188 2.04635Z" fill="#263238"/>
<path d="M52.6495 2.64087C52.5195 2.91189 52.4106 3.1325 52.4085 3.1304C52.4064 3.12829 52.5091 2.90769 52.639 2.63456C52.7689 2.36144 52.8779 2.14293 52.8821 2.14503C52.8863 2.14714 52.7794 2.37194 52.6495 2.64087Z" fill="#263238"/>
<path d="M54.374 3.86361C54.1645 4.0737 53.9884 4.25019 53.9863 4.24809C53.9843 4.24598 54.1561 4.0695 54.3677 3.8552C54.5794 3.6409 54.7533 3.46862 54.7554 3.47072C54.7575 3.47282 54.5878 3.64931 54.374 3.86361Z" fill="#263238"/>
<path d="M55.6103 5.58022C55.34 5.71468 55.12 5.82183 55.12 5.81973C55.12 5.81763 55.3295 5.70628 55.6062 5.57182C55.8828 5.43735 56.0965 5.3302 56.0965 5.33231C56.0965 5.33441 55.8807 5.44576 55.6103 5.58022Z" fill="#263238"/>
<path d="M56.2264 7.60742L55.6837 7.67238C55.6837 7.67238 55.9247 7.63466 56.2244 7.59694C56.524 7.55922 56.765 7.52779 56.765 7.52988C56.765 7.53198 56.524 7.5676 56.2264 7.60742Z" fill="#263238"/>
<path d="M60.099 6.88281C59.9828 7.23757 59.8326 7.58022 59.6506 7.90599L59.638 7.9291L59.5961 8.01524L59.5437 7.9354C59.3329 7.64035 59.1518 7.32506 59.0031 6.99416C59.2448 7.2653 59.4595 7.55943 59.6443 7.87237H59.55L59.5626 7.84716C59.7098 7.50906 59.8895 7.1861 60.099 6.88281Z" fill="#263238"/>
<path d="M63.6614 24.6255H39.033C38.4544 24.6255 37.8996 24.8559 37.4905 25.2661C37.0814 25.6762 36.8516 26.2325 36.8516 26.8126C36.8516 27.3927 37.0814 27.949 37.4905 28.3591C37.8996 28.7693 38.4544 28.9997 39.033 28.9997H50.5582L53.1378 31.4642V28.9997H63.6614C63.9479 28.9997 64.2315 28.9432 64.4962 28.8332C64.7609 28.7233 65.0013 28.5622 65.2039 28.3591C65.4065 28.156 65.5671 27.9149 65.6768 27.6496C65.7864 27.3842 65.8428 27.0998 65.8428 26.8126C65.8428 26.5254 65.7864 26.241 65.6768 25.9756C65.5671 25.7103 65.4065 25.4692 65.2039 25.2661C65.0013 25.063 64.7609 24.9019 64.4962 24.792C64.2315 24.6821 63.9479 24.6255 63.6614 24.6255Z" fill="#FAFAFA"/>
<path d="M63.6613 24.6256H63.7409C63.8209 24.6264 63.9007 24.6327 63.9798 24.6445C64.291 24.6863 64.5893 24.796 64.8536 24.9659C65.1064 25.1273 65.3236 25.3389 65.4918 25.5877C65.66 25.8364 65.7757 26.117 65.8316 26.4122C65.8876 26.7075 65.8826 27.0111 65.8172 27.3043C65.7517 27.5976 65.627 27.8743 65.4508 28.1174C65.2127 28.4498 64.8879 28.71 64.512 28.8696C64.3106 28.9513 64.0992 29.0057 63.8834 29.0313C63.6592 29.0481 63.437 29.0418 63.2065 29.0439H60.2393H53.1335L53.1817 28.9956C53.1817 29.7688 53.1817 30.605 53.1817 31.4601V31.5756L53.0978 31.4958L50.5162 29.0313L50.5518 29.046H40.7574H39.0475C38.4767 29.052 37.9252 28.8386 37.5064 28.4497C37.0876 28.0609 36.8331 27.526 36.7953 26.9549C36.7575 26.3838 36.9392 25.8198 37.3031 25.3789C37.667 24.9379 38.1854 24.6533 38.752 24.5836C39.0245 24.5541 39.2864 24.5688 39.5504 24.5646H43.3852L53.9381 24.5773L61.0629 24.5941L62.997 24.6046H63.4999C63.6131 24.6046 63.6717 24.6046 63.6717 24.6046H63.4999H62.997L61.0629 24.6151L53.9381 24.634H43.3852H39.5504C39.2885 24.634 39.0203 24.634 38.7667 24.6529C38.2418 24.7183 37.7604 24.9784 37.4172 25.3819C37.1529 25.6929 36.9831 26.0734 36.9281 26.4782C36.8731 26.883 36.9351 27.2952 37.1067 27.6657C37.2784 28.0363 37.5525 28.3496 37.8965 28.5686C38.2405 28.7876 38.64 28.903 39.0475 28.9011H40.7574H50.5518H50.5728L50.5874 28.9137L53.167 31.3802L53.0832 31.4159C53.0832 30.5608 53.0832 29.7247 53.0832 28.9515V28.9053H53.1293H60.2351H63.2024C63.4308 28.9053 63.6571 28.9053 63.8729 28.9053C64.0835 28.8818 64.29 28.8302 64.4869 28.7519C64.9213 28.5686 65.2842 28.2481 65.5204 27.8392C65.7566 27.4303 65.8532 26.9552 65.7956 26.4862C65.738 26.0172 65.5293 25.5799 65.2012 25.2407C64.8731 24.9014 64.4435 24.6788 63.9777 24.6067C63.7702 24.6277 63.6613 24.6424 63.6613 24.6256Z" fill="#263238"/>
<path d="M49.8038 28.3589H39.0182C38.8156 28.3592 38.615 28.3194 38.4277 28.2418C38.2405 28.1642 38.0703 28.0503 37.9271 27.9066C37.7838 27.763 37.6702 27.5924 37.5928 27.4047C37.5154 27.2169 37.4757 27.0157 37.476 26.8126C37.4771 26.4034 37.6401 26.0114 37.9293 25.7226C38.2185 25.4339 38.6101 25.272 39.0182 25.2726H49.8038C50.0062 25.2723 50.2067 25.312 50.3938 25.3895C50.5809 25.467 50.751 25.5807 50.8942 25.7241C51.0375 25.8676 51.1511 26.0379 51.2286 26.2254C51.3062 26.4129 51.3461 26.6138 51.3461 26.8168C51.3458 27.0196 51.3057 27.2203 51.228 27.4076C51.1504 27.5948 51.0367 27.7649 50.8935 27.9081C50.7503 28.0513 50.5803 28.1648 50.3934 28.2422C50.2064 28.3195 50.006 28.3592 49.8038 28.3589Z" fill="#756FB3"/>
<path d="M50.707 22.371L50.3423 23.4887H50.0657L49.8206 22.7323L49.567 23.4887H49.2925L48.9258 22.371H49.2024L49.4539 23.1567L49.7158 22.371H49.9547L50.2103 23.163L50.4681 22.371H50.707Z" fill="#263238"/>
<path d="M50.7678 22.93C50.7611 22.8079 50.791 22.6866 50.8538 22.5817C50.9166 22.4768 51.0094 22.3933 51.12 22.3418C51.2307 22.2903 51.3542 22.2733 51.4746 22.293C51.595 22.3126 51.7068 22.3681 51.7955 22.4521C51.8841 22.5361 51.9456 22.6448 51.972 22.7642C51.9984 22.8837 51.9884 23.0083 51.9434 23.122C51.8984 23.2356 51.8204 23.3332 51.7196 23.402C51.6187 23.4708 51.4996 23.5076 51.3776 23.5078C51.2991 23.5124 51.2206 23.5008 51.1467 23.4739C51.0729 23.4469 51.0053 23.4051 50.9482 23.3509C50.8911 23.2968 50.8456 23.2316 50.8146 23.1592C50.7836 23.0868 50.7676 23.0088 50.7678 22.93ZM51.7254 22.93C51.7238 22.8614 51.702 22.7949 51.6628 22.7386C51.6235 22.6824 51.5687 22.639 51.505 22.6139C51.4413 22.5888 51.3716 22.583 51.3047 22.5974C51.2378 22.6118 51.1766 22.6457 51.1288 22.6948C51.081 22.7439 51.0487 22.806 51.0359 22.8734C51.0231 22.9408 51.0305 23.0105 51.0571 23.0738C51.0836 23.137 51.1282 23.191 51.1852 23.229C51.2422 23.2669 51.3091 23.2872 51.3776 23.2872C51.4236 23.2873 51.4691 23.2779 51.5115 23.2598C51.5538 23.2416 51.592 23.2151 51.6237 23.1816C51.6555 23.1482 51.6801 23.1087 51.6962 23.0655C51.7122 23.0222 51.7193 22.9761 51.717 22.93H51.7254Z" fill="#263238"/>
<path d="M52.8926 23.4887L52.683 23.1777H52.4462V23.4887H52.1885V22.371H52.6704C52.968 22.371 53.1545 22.5264 53.1545 22.7765C53.1578 22.8521 53.1373 22.9268 53.096 22.9902C53.0546 23.0535 52.9945 23.1022 52.924 23.1294L53.1755 23.4887H52.8926ZM52.6495 22.5811H52.4399V22.9719H52.6495C52.8067 22.9719 52.8863 22.8983 52.8863 22.7765C52.8863 22.6546 52.8067 22.5811 52.6495 22.5811Z" fill="#263238"/>
<path d="M53.758 23.0496L53.6071 23.2051V23.4887H53.3514V22.371H53.6029V22.892L54.0974 22.371H54.3845L53.9214 22.8689L54.4118 23.4887H54.11L53.758 23.0496Z" fill="#263238"/>
<path d="M60.8365 27.2224H60.518L60.4405 27.6258H60.2142L60.2959 27.2224H59.3906L59.42 27.0606L60.4551 25.9912H60.7276L59.7364 27.0228H60.3504L60.4216 26.6677H60.6312L60.5599 27.0228H60.87L60.8365 27.2224Z" fill="#263238"/>
<path d="M61.5071 26.195L61.373 26.6425H61.5302C61.9493 26.6425 62.1358 26.8148 62.1358 27.0795C62.1358 27.4177 61.8592 27.6425 61.4422 27.6425C61.3379 27.6486 61.2334 27.6331 61.1354 27.597C61.0373 27.5608 60.9477 27.5048 60.8722 27.4324L60.9958 27.2518C61.0562 27.3124 61.1287 27.3596 61.2084 27.3904C61.2882 27.4212 61.3736 27.4348 61.4589 27.4303C61.7397 27.4303 61.9032 27.3064 61.9032 27.0984C61.9032 26.9366 61.7879 26.84 61.4841 26.84H61.0901L61.3437 25.9849H62.2615L62.2238 26.195H61.5071Z" fill="#263238"/>
<path d="M62.404 26.5122C62.3971 26.4475 62.4032 26.3821 62.4221 26.3199C62.441 26.2577 62.4722 26.2 62.5139 26.1501C62.5556 26.1003 62.6069 26.0594 62.6647 26.0299C62.7225 26.0004 62.7856 25.983 62.8503 25.9785C62.8961 25.9767 62.9418 25.9848 62.9841 26.0024C63.0265 26.02 63.0645 26.0466 63.0956 26.0803C63.1267 26.1141 63.1501 26.1542 63.1642 26.198C63.1783 26.2417 63.1827 26.288 63.1772 26.3336C63.1845 26.3981 63.1786 26.4635 63.1599 26.5257C63.1413 26.5879 63.1103 26.6457 63.0688 26.6955C63.0273 26.7454 62.9761 26.7863 62.9184 26.8158C62.8607 26.8453 62.7976 26.8628 62.733 26.8672C62.6871 26.8691 62.6414 26.8609 62.599 26.8433C62.5565 26.8258 62.5184 26.7992 62.4871 26.7655C62.4559 26.7318 62.4323 26.6917 62.4179 26.648C62.4036 26.6042 62.3988 26.5579 62.404 26.5122ZM63.8499 25.9911H64.0364L62.6135 27.6257H62.4229L63.8499 25.9911ZM63.0326 26.3462C63.0326 26.1907 62.9614 26.1109 62.8441 26.1109C62.6555 26.1109 62.5633 26.321 62.5633 26.4996C62.5633 26.6782 62.6345 26.7349 62.7518 26.7349C62.9383 26.7433 63.0326 26.5332 63.0326 26.3462ZM63.2904 27.2832C63.2832 27.2186 63.2891 27.1532 63.3079 27.091C63.3267 27.0288 63.3579 26.9711 63.3997 26.9214C63.4415 26.8716 63.4929 26.8309 63.5508 26.8018C63.6088 26.7726 63.672 26.7556 63.7367 26.7517C63.7825 26.7498 63.828 26.7579 63.8703 26.7755C63.9126 26.7931 63.9505 26.8197 63.9814 26.8536C64.0124 26.8874 64.0356 26.9275 64.0494 26.9713C64.0632 27.015 64.0674 27.0612 64.0615 27.1068C64.0688 27.1712 64.0629 27.2364 64.0442 27.2985C64.0255 27.3606 63.9945 27.4182 63.953 27.4679C63.9114 27.5176 63.8603 27.5583 63.8026 27.5876C63.7449 27.6169 63.6818 27.6342 63.6173 27.6383C63.5712 27.6408 63.5252 27.6332 63.4824 27.6159C63.4396 27.5986 63.4011 27.572 63.3697 27.5381C63.3383 27.5042 63.3148 27.4638 63.3007 27.4198C63.2866 27.3757 63.2824 27.3291 63.2883 27.2832H63.2904ZM63.919 27.1173C63.919 26.9639 63.8457 26.882 63.7304 26.882C63.5439 26.882 63.4476 27.0921 63.4476 27.2727C63.4476 27.4534 63.523 27.508 63.6362 27.508C63.8143 27.508 63.9086 27.2958 63.9086 27.1173H63.919Z" fill="#263238"/>
<g opacity="0.3">
<path d="M39.4352 25.2684L38.4357 28.359H39.4352L40.374 25.2684H39.4352Z" fill="white"/>
</g>
<g opacity="0.3">
<path d="M41.9037 25.2684L40.9042 28.359H41.9037L42.8425 25.2684H41.9037Z" fill="white"/>
</g>
<g opacity="0.3">
<path d="M44.3701 25.2684L43.3727 28.359H44.3701L45.311 25.2684H44.3701Z" fill="white"/>
</g>
<g opacity="0.3">
<path d="M46.8386 25.2684L45.8412 28.359H46.8386L47.7795 25.2684H46.8386Z" fill="white"/>
</g>
<g opacity="0.3">
<path d="M49.3072 25.2684L48.3076 28.359H49.3072L50.2481 25.2684H49.3072Z" fill="white"/>
</g>
<path d="M11.9025 69.0109C11.9025 69.0109 17.2104 71.4082 22.7383 71.4082C27.8555 71.4082 33.2724 68.826 33.2724 68.826L11.9025 69.0109Z" fill="#E0E0E0"/>
<path d="M23.3146 69.0571H21.1227V92.0776H23.3146V69.0571Z" fill="#E0E0E0"/>
<path d="M31.9439 90.7267H12.4893V92.0755H31.9439V90.7267Z" fill="#E0E0E0"/>
<path d="M14.8696 92.5188C14.8704 92.8137 14.784 93.1022 14.6211 93.3478C14.4583 93.5933 14.2264 93.7849 13.9549 93.8982C13.6834 94.0116 13.3844 94.0415 13.0959 93.9844C12.8073 93.9272 12.5422 93.7855 12.3341 93.5771C12.126 93.3687 11.9842 93.1031 11.9268 92.8139C11.8694 92.5247 11.8988 92.2249 12.0115 91.9525C12.1241 91.6801 12.3149 91.4474 12.5596 91.2838C12.8043 91.1201 13.0919 91.033 13.386 91.0334C13.7789 91.034 14.1557 91.1906 14.4337 91.469C14.7118 91.7474 14.8685 92.1249 14.8696 92.5188Z" fill="#263238"/>
<path d="M23.5157 92.5188C23.5157 92.8134 23.4286 93.1014 23.2653 93.3463C23.1021 93.5913 22.8701 93.7822 22.5986 93.895C22.3271 94.0077 22.0284 94.0372 21.7402 93.9797C21.452 93.9223 21.1872 93.7804 20.9795 93.5721C20.7717 93.3637 20.6302 93.0983 20.5729 92.8094C20.5155 92.5204 20.545 92.2209 20.6574 91.9487C20.7699 91.6765 20.9603 91.4439 21.2046 91.2802C21.4489 91.1165 21.7362 91.0292 22.03 91.0292C22.4241 91.0292 22.802 91.1861 23.0806 91.4655C23.3592 91.7448 23.5157 92.1237 23.5157 92.5188Z" fill="#263238"/>
<path d="M33.5301 92.5188C33.5301 92.8134 33.443 93.1014 33.2798 93.3463C33.1165 93.5913 32.8845 93.7822 32.613 93.895C32.3415 94.0077 32.0428 94.0372 31.7546 93.9797C31.4664 93.9223 31.2017 93.7804 30.9939 93.5721C30.7861 93.3637 30.6446 93.0983 30.5873 92.8094C30.5299 92.5204 30.5594 92.2209 30.6718 91.9487C30.7843 91.6765 30.9747 91.4439 31.219 91.2802C31.4633 91.1165 31.7506 91.0292 32.0444 91.0292C32.4385 91.0292 32.8164 91.1861 33.095 91.4655C33.3736 91.7448 33.5301 92.1237 33.5301 92.5188Z" fill="#263238"/>
<path d="M22.7362 77.3413H19.7543V78.5788H22.7362V77.3413Z" fill="#E0E0E0"/>
<path d="M20.297 76.4757H19.2115V79.4444H20.297V76.4757Z" fill="#E0E0E0"/>
<path d="M11.3828 33.9729H20.2845V66.0822H8.95203V36.4079C8.95314 35.7621 9.20966 35.1431 9.66534 34.6866C10.121 34.2301 10.7387 33.9735 11.3828 33.9729Z" fill="#455A64"/>
<path d="M11.4582 65.5947C11.4288 65.5947 11.4037 58.6279 11.4037 50.0349C11.4037 41.4419 11.4288 34.4729 11.4582 34.4729C11.4875 34.4729 11.5127 41.4398 11.5127 50.0349C11.5127 58.63 11.4833 65.5947 11.4582 65.5947Z" fill="#263238"/>
<path d="M8.952 66.0171H36.9919V69.5089H10.6179C10.1733 69.5089 9.74692 69.3318 9.43253 69.0166C9.11815 68.7014 8.94153 68.2739 8.94153 67.8281V66.0087L8.952 66.0171Z" fill="#455A64"/>
<path d="M24.8233 21.2808L23.6079 32.8972C23.3984 34.8742 23.5011 37.8177 26.6317 38.0025C29.3559 37.9584 30.3115 35.4604 30.5021 33.6178C30.5943 32.7417 30.6698 32.0127 30.6865 31.9244C30.6865 31.9244 33.6643 31.9559 34.1839 29.0503C34.4354 27.6468 34.7162 24.7138 34.9404 22.0582C35.0564 20.682 34.6512 19.3124 33.8054 18.2223C32.9596 17.1321 31.7354 16.4014 30.3764 16.1755L30.0956 16.1271C27.0467 15.7952 25.0643 18.2092 24.8233 21.2808Z" fill="#FFBE9D"/>
<path d="M30.6866 31.9181C29.346 31.691 28.0987 31.0828 27.0928 30.1659C27.0928 30.1659 27.6607 32.4455 30.6006 32.6682L30.6866 31.9181Z" fill="#EB996E"/>
<path d="M29.8378 22.7893C29.775 22.8418 29.4627 22.5393 28.9745 22.4805C28.4862 22.4217 28.0986 22.6297 28.0525 22.5624C28.0294 22.5309 28.1006 22.428 28.262 22.3313C28.4895 22.2063 28.7507 22.157 29.008 22.1905C29.2626 22.2226 29.5005 22.3352 29.6869 22.512C29.8315 22.6486 29.8692 22.7641 29.8378 22.7893Z" fill="#263238"/>
<path d="M29.7897 23.9133C29.7736 24.0161 29.7182 24.1085 29.6353 24.1708C29.5523 24.2332 29.4483 24.2607 29.3455 24.2474C29.2951 24.2429 29.2461 24.2285 29.2014 24.2049C29.1567 24.1812 29.117 24.149 29.0849 24.1099C29.0527 24.0708 29.0286 24.0256 29.014 23.9771C28.9994 23.9286 28.9945 23.8776 28.9997 23.8272C29.0163 23.7247 29.0718 23.6327 29.1546 23.5704C29.2375 23.5081 29.3412 23.4804 29.4439 23.4932C29.4943 23.4976 29.5433 23.5121 29.588 23.5357C29.6328 23.5593 29.6724 23.5916 29.7045 23.6307C29.7367 23.6698 29.7608 23.7149 29.7754 23.7635C29.79 23.812 29.7949 23.8629 29.7897 23.9133Z" fill="#263238"/>
<path d="M30.7494 26.3232C30.9967 26.2891 31.2472 26.2856 31.4954 26.3127C31.6106 26.3127 31.7238 26.3127 31.7552 26.2413C31.7838 26.1242 31.7765 26.0012 31.7343 25.8883L31.5436 24.9639C31.2796 23.6466 31.1098 22.573 31.1643 22.5625C31.2188 22.552 31.4723 23.6129 31.7343 24.9261C31.7971 25.2517 31.8558 25.5564 31.9124 25.8568C31.961 26.0066 31.9551 26.1689 31.8956 26.3148C31.8732 26.3518 31.8427 26.3831 31.8064 26.4064C31.7701 26.4297 31.7289 26.4444 31.6861 26.4493C31.62 26.4579 31.5531 26.4579 31.487 26.4493C31.2369 26.4377 30.9892 26.3954 30.7494 26.3232Z" fill="#263238"/>
<path d="M29.8001 20.9259C29.7415 21.0309 29.358 20.9111 28.8865 20.8922C28.415 20.8733 28.0211 20.9406 27.975 20.8313C27.9561 20.7788 28.0378 20.6863 28.2076 20.6044C28.4278 20.5028 28.6698 20.4581 28.9116 20.4741C29.1538 20.4869 29.389 20.5591 29.5969 20.6842C29.754 20.7746 29.8253 20.8754 29.8001 20.9259Z" fill="#263238"/>
<path d="M34.3621 22.2641C34.3034 22.3482 33.9304 22.2137 33.4694 22.157C33.0084 22.1002 32.6186 22.1234 32.5767 22.0267C32.5599 21.9805 32.6437 21.9091 32.8114 21.8523C33.0371 21.7862 33.2743 21.769 33.5071 21.8019C33.7421 21.8322 33.9682 21.9108 34.1714 22.033C34.3243 22.1318 34.3893 22.2242 34.3621 22.2641Z" fill="#263238"/>
<path d="M24.7018 23.47C24.6557 23.4385 22.8054 22.5456 22.5393 24.5457C22.2731 26.5458 24.3309 26.4009 24.3414 26.3441C24.3519 26.2874 24.7018 23.47 24.7018 23.47Z" fill="#FFBE9D"/>
<path d="M23.8342 25.5059C23.8342 25.5059 23.7944 25.5248 23.7336 25.5437C23.6458 25.5681 23.552 25.5576 23.4717 25.5143C23.2621 25.4093 23.1385 25.05 23.1783 24.6886C23.1956 24.5159 23.2515 24.3493 23.3418 24.2012C23.3687 24.1412 23.4099 24.0887 23.4618 24.0484C23.5137 24.0081 23.5746 23.9812 23.6393 23.9701C23.6803 23.9647 23.7219 23.974 23.7568 23.9963C23.7916 24.0186 23.8176 24.0524 23.83 24.092C23.851 24.1508 23.83 24.1907 23.8426 24.1949C23.8552 24.1991 23.8908 24.1676 23.8845 24.0815C23.8811 24.0307 23.8595 23.983 23.8237 23.947C23.774 23.8977 23.7071 23.8698 23.6372 23.8693C23.5531 23.875 23.4719 23.9022 23.4011 23.9481C23.3304 23.994 23.2724 24.0573 23.2328 24.1319C23.1245 24.293 23.0576 24.4785 23.0379 24.6718C22.9981 25.0773 23.1532 25.4828 23.4298 25.6047C23.4812 25.6275 23.5371 25.6383 23.5934 25.6365C23.6496 25.6347 23.7047 25.6202 23.7546 25.5942C23.8237 25.5542 23.8468 25.5101 23.8342 25.5059Z" fill="#EB996E"/>
<path d="M30.1481 27.6615C30.1753 27.6132 29.7939 27.4514 29.5508 27.0627C29.4515 26.8905 29.3747 26.7062 29.3224 26.5144C29.2784 26.3631 29.2428 26.2664 29.2197 26.2706C29.1967 26.2748 29.1946 26.3757 29.2197 26.5375C29.2446 26.7541 29.3161 26.9627 29.4293 27.1488C29.5444 27.3364 29.709 27.4884 29.905 27.588C30.0391 27.6636 30.1334 27.6783 30.1481 27.6615Z" fill="#263238"/>
<path d="M22.3381 19.9719C22.8222 19.3017 22.9961 18.4655 23.2979 17.6966C23.5996 16.9276 24.113 16.1502 24.9114 15.9443L24.9282 15.9549C25.6469 15.7448 26.5019 15.8141 27.0237 16.3498C27.2604 15.3183 28.2495 14.5766 29.291 14.4043C30.3324 14.232 31.946 14.5409 32.8848 15.0346C33.6098 15.4086 34.2804 16.0977 35.0809 17.0957C35.4202 17.5152 35.7244 17.9621 35.9903 18.4319L36.619 21.2493L35.7305 22.6129C35.6765 22.7082 35.6178 22.8008 35.5544 22.8902L34.5947 25.8505C34.6261 25.0227 34.9509 22.1612 34.9824 21.3313C34.3658 21.2556 33.7709 21.0558 33.2332 20.7439C32.6956 20.432 32.2264 20.0143 31.8538 19.516C31.4515 18.9761 31.156 18.3185 30.5818 17.9655C29.8442 17.5096 28.9054 17.7029 28.0525 17.913L28.0903 17.8836C27.646 18.042 27.2363 18.2845 26.8833 18.5979C26.916 20.2418 26.5951 21.8734 25.9424 23.3818C25.8439 23.6087 25.5924 24.0709 25.3535 24.1403C24.8883 24.2726 24.8087 23.802 24.5614 23.5331C24.3791 23.3356 24.0858 23.2831 23.761 23.2558C23.6005 22.5519 23.4816 21.8391 23.4047 21.1212C23.1273 21.1785 22.8404 21.1706 22.5665 21.0981L22.8829 20.5014C22.7684 20.5706 22.6406 20.615 22.5078 20.6316C22.4386 20.6403 22.3684 20.6265 22.3076 20.592C22.2468 20.5576 22.1988 20.5044 22.1705 20.4404C22.1181 20.2787 22.2375 20.1127 22.3381 19.9719Z" fill="#263238"/>
<path d="M27.9163 16.77C27.8046 16.843 27.6981 16.9237 27.5978 17.0116C27.3415 17.27 27.1566 17.5907 27.0613 17.9424C26.9885 18.1827 26.94 18.4297 26.9167 18.6798C26.8916 18.9508 26.8874 19.2408 26.879 19.5475C26.8767 19.8694 26.8543 20.1907 26.8119 20.5098C26.787 20.6789 26.7498 20.846 26.7009 21.0098C26.6584 21.1862 26.5719 21.3489 26.4494 21.4825C26.3939 21.5338 26.3263 21.57 26.253 21.5876C26.1796 21.6053 26.103 21.6038 26.0303 21.5834C25.8892 21.5437 25.7653 21.4579 25.6783 21.3397C25.5408 21.1061 25.4685 20.8398 25.4687 20.5686L25.5274 20.5812C25.4166 20.7945 25.2754 20.9906 25.1083 21.1632C24.9496 21.3226 24.7357 21.4144 24.5111 21.4195C24.4072 21.4203 24.305 21.3927 24.2156 21.3397C24.133 21.2863 24.068 21.2095 24.0291 21.119C23.993 21.0351 23.98 20.9429 23.9914 20.8522C24.0047 20.771 24.0454 20.6969 24.1067 20.6421L24.1339 20.6736C23.8927 20.9089 23.5908 21.0719 23.2622 21.1443C23.2391 21.1515 23.2151 21.155 23.1909 21.1548C23.2126 21.1458 23.2351 21.1388 23.258 21.1338C23.3041 21.1191 23.3711 21.1001 23.455 21.0665C23.6973 20.9713 23.9181 20.8284 24.1046 20.6463L24.1339 20.6778C24.0803 20.7348 24.0457 20.807 24.0348 20.8846C24.024 20.9621 24.0373 21.0411 24.0731 21.1106C24.1088 21.1914 24.168 21.2595 24.2429 21.306C24.3239 21.3543 24.4168 21.379 24.5111 21.3775C24.7206 21.3692 24.9191 21.2813 25.0664 21.1317C25.2256 20.9619 25.3597 20.7702 25.4645 20.5623L25.5148 20.4719V20.5749C25.5194 20.8348 25.5916 21.089 25.7244 21.3123C25.8041 21.4142 25.9143 21.4878 26.0387 21.5224C26.1014 21.5408 26.1678 21.5425 26.2313 21.5274C26.2949 21.5123 26.3534 21.4809 26.4012 21.4363C26.5141 21.3109 26.5941 21.1592 26.6338 20.9951C26.6828 20.8342 26.7199 20.6698 26.7449 20.5035C26.787 20.1872 26.8101 19.8687 26.814 19.5496C26.814 19.2429 26.8308 18.9529 26.858 18.6798C26.8844 18.4259 26.9364 18.1753 27.0131 17.9319C27.1152 17.5752 27.3105 17.2524 27.5789 16.9969C27.6778 16.9028 27.7919 16.826 27.9163 16.77Z" fill="#455A64"/>
<path d="M36.6901 20.4572L36.665 20.474L36.5874 20.5202C36.5458 20.5465 36.5024 20.5696 36.4575 20.5896C36.403 20.6127 36.3422 20.6442 36.271 20.6673C35.8624 20.808 35.4255 20.8455 34.999 20.7766C34.3646 20.6752 33.773 20.3921 33.2954 19.9614C32.7212 19.4299 32.2613 18.7865 31.9438 18.0705C31.7636 17.6965 31.6232 17.3162 31.4639 16.9633C31.3206 16.6197 31.1279 16.2991 30.8918 16.0115C30.6815 15.7503 30.4081 15.5471 30.0977 15.4212C29.9574 15.3676 29.8096 15.3364 29.6597 15.3287C29.5188 15.3232 29.3779 15.3366 29.2406 15.3686C28.8259 15.4687 28.4643 15.7224 28.2285 16.0788C28.1494 16.2112 28.0854 16.3522 28.0378 16.499C28.0364 16.4892 28.0364 16.4793 28.0378 16.4696C28.0378 16.4443 28.0503 16.417 28.0587 16.3813C28.0922 16.2684 28.1401 16.1604 28.2012 16.0599C28.2987 15.8999 28.4227 15.7578 28.5679 15.6397C28.7603 15.4841 28.9841 15.3722 29.2238 15.3119C29.5162 15.2363 29.8247 15.2517 30.1081 15.356C30.4282 15.4846 30.7107 15.6919 30.9296 15.959C31.1699 16.2505 31.3668 16.5753 31.5142 16.9234C31.6756 17.2805 31.816 17.6587 31.9941 18.0306C32.3094 18.7374 32.7625 19.3739 33.3268 19.9026C33.7964 20.3294 34.3782 20.6123 35.0032 20.7177C35.4233 20.7906 35.8547 20.7603 36.2605 20.6295C36.5455 20.5434 36.6859 20.4404 36.6901 20.4572Z" fill="#455A64"/>
<path d="M34.2803 23.3818C34.2174 23.4365 33.9052 23.1318 33.4169 23.0751C32.9287 23.0184 32.541 23.2222 32.497 23.1549C32.4739 23.1234 32.5431 23.0226 32.7065 22.9238C32.9344 22.7998 33.1955 22.7513 33.4525 22.7852C33.7073 22.8152 33.9456 22.9272 34.1315 23.1045C34.274 23.2453 34.3117 23.3629 34.2803 23.3818Z" fill="#263238"/>
<path d="M33.8654 24.2937C33.8498 24.3967 33.7945 24.4894 33.7114 24.5519C33.6283 24.6143 33.5241 24.6416 33.4211 24.6278C33.3708 24.6233 33.3219 24.6088 33.2773 24.5852C33.2327 24.5615 33.1932 24.5292 33.1612 24.4901C33.1292 24.4509 33.1053 24.4058 33.0909 24.3573C33.0765 24.3088 33.072 24.2579 33.0774 24.2076C33.0935 24.1052 33.1486 24.0132 33.2311 23.9509C33.3136 23.8885 33.4171 23.8608 33.5196 23.8735C33.57 23.878 33.6189 23.8924 33.6637 23.916C33.7084 23.9397 33.748 23.972 33.7802 24.0111C33.8124 24.0502 33.8365 24.0953 33.8511 24.1438C33.8657 24.1923 33.8706 24.2433 33.8654 24.2937Z" fill="#263238"/>
<path d="M35.7912 18.0601C36.0007 18.4151 36.3549 18.7555 36.7677 18.7555C36.919 18.7396 37.0689 18.7122 37.2161 18.6735C37.3502 18.7744 37.2664 19.2618 37.1533 19.3858C37.0485 19.4907 36.935 19.5863 36.8138 19.6715C37.2664 19.9804 37.7169 19.8984 38.2471 19.7661C38.1504 20.1978 37.9427 20.5966 37.6445 20.9228C37.3463 21.249 36.9682 21.4913 36.5477 21.6254C36.417 21.679 36.2755 21.7006 36.1349 21.6885C35.9942 21.6765 35.8585 21.6311 35.7388 21.5561C35.5645 21.3763 35.4623 21.1385 35.4517 20.888C35.3135 19.9843 35.2874 19.0668 35.3742 18.1567L35.7912 18.0601Z" fill="#263238"/>
<path d="M30.3785 34.6431C30.3785 34.6431 32.2226 35.3931 33.2724 37.9521C34.01 39.7506 38.113 45.4274 38.113 45.4274L49.0222 47.8561L49.3952 51.3459L31.946 51.2009L29.5215 43.4588L30.3785 34.6431Z" fill="#756FB3"/>
<path d="M23.0317 31.418L21.0955 32.2332C19.3038 32.9854 17.0113 34.7187 16.2423 36.5087C14.3961 40.8199 12.7239 46.3602 12.0827 51.2618C11.4352 56.2054 12.7239 63.521 12.7239 63.521L29.0982 54.1402L28.1405 53.4699L31.244 36.5444L30.6656 34.496L31.0512 32.7627C31.0512 32.7627 26.7072 31.0147 23.543 29.7604L23.0317 31.418Z" fill="#756FB3"/>
<g opacity="0.3">
<path d="M21.4684 58.63C21.5285 57.7896 21.5885 56.9443 21.6486 56.0941C21.4566 56.2775 21.2052 56.3856 20.9403 56.3988C21.35 56.0068 21.7135 55.569 22.0237 55.0941L21.2777 55.4155C21.5408 55.2126 21.7555 54.9535 21.9063 54.6571C21.5061 54.344 20.9424 54.3965 20.4395 54.447C17.8516 54.7096 15.2406 54.5352 12.6421 54.3608C12.3819 54.3459 12.128 54.2742 11.8982 54.1507C11.8982 54.1507 11.8458 53.4364 11.9611 53.1696C12.0763 52.9028 12.2566 52.9805 12.529 52.8817C12.8055 52.7974 13.0928 52.7535 13.3818 52.7515C16.544 52.5834 19.7124 52.8439 22.8682 53.1065C23.065 53.1036 23.2582 53.1591 23.4235 53.2662C23.6812 53.4763 23.6582 53.8713 23.6142 54.2012C23.4521 55.3861 23.2915 56.5704 23.1322 57.7539" fill="black"/>
</g>
<path d="M31.0512 35.8638C31.051 35.9173 31.0461 35.9708 31.0365 36.0234L30.9694 36.4752C30.9108 36.8659 30.8165 37.4332 30.6928 38.1307C30.4456 39.5279 30.0747 41.4503 29.6451 43.5681C29.2155 45.6859 28.7796 47.5999 28.4674 48.9823C28.3103 49.6651 28.1824 50.2219 28.0902 50.619C28.0462 50.8038 28.0106 50.9509 27.9834 51.0623C27.9736 51.1149 27.9581 51.1664 27.9373 51.2156C27.9427 51.1627 27.9511 51.1101 27.9624 51.0581C27.9834 50.9446 28.0127 50.7954 28.0504 50.6106C28.1321 50.2093 28.26 49.6525 28.392 48.9655L29.5277 43.5513C29.9678 41.4335 30.3513 39.5132 30.6174 38.1202C30.7452 37.4332 30.8521 36.8722 30.9275 36.471C30.9632 36.2861 30.9925 36.1369 31.0135 36.0234C31.0206 35.9691 31.0333 35.9156 31.0512 35.8638Z" fill="#263238"/>
<path d="M16.2423 59.8927C16.2716 59.8564 16.3046 59.8234 16.3408 59.794L16.6342 59.5229C16.7599 59.4053 16.9192 59.2645 17.1098 59.1027C17.3005 58.941 17.5101 58.7603 17.7574 58.5733C18.2414 58.1846 18.8386 57.7497 19.5197 57.2938C20.2007 56.8379 20.9865 56.3757 21.8101 55.9303C22.6336 55.4849 23.4697 55.1151 24.2283 54.802C24.9868 54.489 25.6825 54.2474 26.2756 54.0667C26.5689 53.9679 26.8414 53.8965 27.0781 53.8293C27.3149 53.7621 27.5203 53.7095 27.6879 53.6696L28.0777 53.5814C28.1219 53.5673 28.1676 53.5588 28.2139 53.5562C28.1716 53.576 28.1274 53.5915 28.0819 53.6024L27.6984 53.7116C27.5329 53.7578 27.3296 53.8146 27.0949 53.8881C26.8602 53.9616 26.592 54.0373 26.2986 54.1402C25.7119 54.3314 25.0204 54.5856 24.266 54.8966C23.5116 55.2075 22.6965 55.5878 21.8624 56.0269C21.0284 56.466 20.2594 56.9324 19.5742 57.3778C18.8889 57.8232 18.2917 58.256 17.8035 58.6384C17.5541 58.8212 17.3404 59.0019 17.1476 59.1532C16.9548 59.3044 16.7934 59.4431 16.6614 59.5545L16.3555 59.8087C16.3209 59.8407 16.2829 59.8688 16.2423 59.8927Z" fill="#263238"/>
<path d="M24.6473 53.697C24.662 53.7243 23.0694 54.6214 21.085 55.7013C19.1006 56.7812 17.4912 57.6363 17.4765 57.609C17.4619 57.5817 19.0545 56.6867 21.0389 55.6046C23.0233 54.5226 24.6327 53.6717 24.6473 53.697Z" fill="#263238"/>
<g opacity="0.3">
<path d="M18.8931 40.7296C19.9094 45.1417 23.017 49.0789 27.1535 50.8752C24.1777 47.6816 21.4181 44.2922 18.8931 40.7296Z" fill="black"/>
</g>
<g opacity="0.3">
<path d="M30.7913 37.3765C31.1915 39.2421 30.8939 41.5784 29.9531 43.2319L29.7205 42.7487C30.0495 41.3473 30.5209 38.8619 30.7829 37.3765" fill="black"/>
</g>
<path d="M39.4961 81.8962L37.5326 87.8168C37.5326 87.8168 42.8782 91.8086 42.6205 92.9368L31.0323 89.5333L33.7125 80.1797L39.4961 81.8962Z" fill="#455A64"/>
<g opacity="0.3">
<path d="M39.4961 81.8962L37.5326 87.8168C37.5326 87.8168 42.8782 91.8086 42.6205 92.9368L31.0323 89.5333L33.7125 80.1797L39.4961 81.8962Z" fill="black"/>
</g>
<path d="M34.096 86.2621C33.9746 86.2631 33.8579 86.3092 33.7685 86.3915C33.6791 86.4738 33.6233 86.5864 33.6119 86.7075C33.6083 86.8291 33.6516 86.9474 33.7328 87.0378C33.814 87.1281 33.9268 87.1837 34.0478 87.1928C34.1765 87.1912 34.3001 87.1418 34.3946 87.0541C34.489 86.9663 34.5477 86.8466 34.5591 86.718C34.5494 86.5909 34.4909 86.4726 34.3959 86.3879C34.3009 86.3033 34.1768 86.2589 34.0499 86.2642" fill="#E0E0E0"/>
<g opacity="0.6">
<path d="M31.0323 89.5333L31.3383 88.6005L42.3355 92.212C42.3355 92.212 42.786 92.5881 42.6205 92.9369L31.0323 89.5333Z" fill="white"/>
</g>
<path d="M37.7379 87.8126C37.719 87.8693 37.4299 87.8126 37.0967 87.9134C36.7635 88.0143 36.5477 88.2076 36.5016 88.1698C36.4555 88.1319 36.6357 87.8294 37.0401 87.7159C37.4445 87.6025 37.7651 87.7643 37.7379 87.8126Z" fill="#263238"/>
<path d="M38.8066 88.6741C38.8066 88.7329 38.53 88.7581 38.268 88.9409C38.0061 89.1237 37.8762 89.3611 37.8196 89.3422C37.763 89.3233 37.8196 88.9934 38.1528 88.7707C38.486 88.548 38.8212 88.6194 38.8066 88.6741Z" fill="#263238"/>
<path d="M39.0706 90.3359C39.0162 90.3359 39.0204 90.0271 39.255 89.7582C39.4897 89.4892 39.7936 89.443 39.802 89.4976C39.8104 89.5523 39.5924 89.6699 39.4101 89.8926C39.2278 90.1153 39.1293 90.3464 39.0706 90.3359Z" fill="#263238"/>
<path d="M38.0355 86.4113C37.9978 86.4575 37.761 86.302 37.4341 86.2306C37.1072 86.1592 36.8285 86.1865 36.8054 86.1276C36.7824 86.0688 37.0883 85.9386 37.4718 86.0289C37.8553 86.1192 38.0774 86.3777 38.0355 86.4113Z" fill="#263238"/>
<path d="M42.8761 84.5393L42.631 90.775C42.631 90.775 48.8714 93.1176 48.9363 94.2752L36.862 94.2332L36.839 84.5015L42.8761 84.5393Z" fill="#455A64"/>
<path d="M38.8989 90.2372C38.7824 90.272 38.6828 90.3488 38.6194 90.4527C38.556 90.5567 38.5331 90.6805 38.5552 90.8003C38.586 90.9182 38.6608 91.0198 38.7642 91.0839C38.8675 91.148 38.9916 91.1699 39.1105 91.1449C39.2334 91.1077 39.3382 91.026 39.4044 90.9157C39.4706 90.8055 39.4936 90.6745 39.4689 90.5482C39.4248 90.4286 39.3361 90.3309 39.2216 90.2757C39.107 90.2204 38.9756 90.2119 38.8549 90.2519" fill="#E0E0E0"/>
<g opacity="0.6">
<path d="M36.8619 94.2332L36.8976 93.2521L48.4626 93.6576C48.4626 93.6576 48.9991 93.895 48.9362 94.2753L36.8619 94.2332Z" fill="white"/>
</g>
<path d="M42.8278 90.7141C42.8278 90.7729 42.5303 90.7981 42.239 90.9872C41.9477 91.1763 41.7927 91.4242 41.7382 91.4074C41.6837 91.3906 41.7738 91.0418 42.13 90.8191C42.4863 90.5964 42.8404 90.6594 42.8278 90.7141Z" fill="#263238"/>
<path d="M44.0915 91.2435C44.1041 91.3002 43.8484 91.399 43.6472 91.649C43.4461 91.899 43.3874 92.1637 43.3287 92.1595C43.27 92.1553 43.2344 91.8233 43.4901 91.5166C43.7457 91.2099 44.0915 91.1868 44.0915 91.2435Z" fill="#263238"/>
<path d="M44.8018 92.7647C44.7473 92.7773 44.6677 92.4811 44.8185 92.1596C44.9694 91.8382 45.2481 91.7079 45.2733 91.7562C45.2984 91.8046 45.1266 91.9789 45.005 92.2458C44.8835 92.5126 44.8646 92.7605 44.8018 92.7647Z" fill="#263238"/>
<path d="M42.7252 89.2849C42.7001 89.3394 42.4297 89.2577 42.0965 89.2849C41.7634 89.3122 41.5035 89.4107 41.4679 89.3604C41.4323 89.3101 41.6775 89.1005 42.0819 89.0796C42.4863 89.0586 42.7545 89.2388 42.7252 89.2849Z" fill="#263238"/>
<path d="M28.4108 54.0036C28.4108 54.0036 42.8845 57.7854 44.6824 60.2877C46.1995 62.4118 38.2324 84.1002 38.2324 84.1002L31.9459 83.556L34.6575 65.4078L18.4404 60.2394L20.8901 53.9952L28.4108 54.0036Z" fill="#263238"/>
<path d="M29.4481 57.403C29.4481 57.403 44.2444 61.0062 45.7406 63.5673C46.4384 64.7627 45.9795 68.6874 45.7196 70.5404C45.5436 71.7884 42.9284 89.2518 42.9284 89.2518H36.5309L36.6713 69.5278L21.2987 66.4204C21.2987 66.4204 13.0466 67.0507 12.7239 63.5211L16.1689 58.8401L24.2994 54.8125L29.4481 57.403Z" fill="#263238"/>
<path d="M28.3208 56.9492C28.3208 56.9492 28.3941 56.966 28.5303 57.0059L29.159 57.1803L31.573 57.8568C32.6207 58.151 33.9032 58.5102 35.3847 58.9515C36.8662 59.3927 38.5447 59.9263 40.3657 60.6175C41.2779 60.9593 42.2195 61.3487 43.1904 61.7857L43.9239 62.1176C44.171 62.2386 44.4116 62.3726 44.6447 62.5189C44.8831 62.6686 45.1082 62.8387 45.3174 63.0274C45.5347 63.219 45.717 63.4472 45.8559 63.7018C46.3546 65.975 46.0529 68.4605 45.682 71.0006C45.5206 72.2801 45.3132 73.5848 45.1183 74.9189C44.9234 76.253 44.716 77.6187 44.5085 79.0053C44.0894 81.7807 43.6703 84.6549 43.2261 87.5962C43.1422 88.153 43.0605 88.7076 42.9767 89.2581V89.3064H36.4806V89.2518C36.5372 81.7765 36.5896 75.0072 36.6315 69.5299L36.665 69.5698L25.7328 67.3407L22.7509 66.7272L21.9756 66.5654C21.7996 66.5276 21.7115 66.5045 21.7115 66.5045L21.9777 66.5528L22.7572 66.7041L25.7517 67.2923L36.6797 69.4816H36.7132V69.5173C36.6776 74.9945 36.6336 81.7639 36.5854 89.2413L36.5309 89.1867H42.9264L42.874 89.2329C42.9557 88.6803 43.0396 88.1278 43.1213 87.571L44.4058 78.9801C44.6154 77.5907 44.8193 76.2285 45.0177 74.8937C45.2147 73.5596 45.4242 72.2549 45.5877 70.9754C45.6743 70.3367 45.7588 69.7064 45.8412 69.0845C45.9294 68.4724 45.984 67.8558 46.0047 67.2377C46.0257 66.6284 46.0257 66.0283 46.0047 65.4372C45.9921 65.1409 45.9754 64.8489 45.9502 64.559C45.9478 64.2746 45.8901 63.9934 45.7805 63.7312C45.6473 63.486 45.4721 63.2663 45.2629 63.082C45.0585 62.897 44.8383 62.7304 44.6049 62.5841C44.3751 62.4377 44.1372 62.3044 43.8924 62.1849L43.1632 61.8508C42.1951 61.4159 41.2542 61.023 40.3447 60.6806C38.5279 59.9851 36.8495 59.4536 35.3721 58.9998C33.8948 58.546 32.6123 58.1888 31.5667 57.8884L29.1569 57.2076L28.5282 57.0228C28.392 56.9744 28.3208 56.9492 28.3208 56.9492Z" fill="#455A64"/>
<path d="M48.8126 48.0284C48.9069 47.8855 50.1286 46.4716 50.4576 46.4716C50.7866 46.4716 51.1638 46.8497 51.1638 46.8497C51.3838 46.7485 51.629 46.7156 51.8679 46.7552C52.1508 46.8497 53.4667 47.9801 53.4667 48.4045V49.1125C53.4965 49.2997 53.4965 49.4905 53.4667 49.6777C53.4206 50.0075 52.6285 50.5727 52.6285 50.5727H48.1085C48.1085 50.5727 47.2473 49.9907 47.3542 49.4423C47.461 48.894 48.8126 48.0284 48.8126 48.0284Z" fill="#FFBE9D"/>
<path d="M51.1638 46.8497C51.2618 46.8946 51.3558 46.9481 51.4446 47.0094L52.1906 47.4821C52.2768 47.5323 52.3594 47.5885 52.4378 47.6502C52.521 47.7274 52.5837 47.8241 52.6201 47.9317C52.6487 48.0457 52.6621 48.163 52.66 48.2805L52.6788 48.6419C52.704 49.1356 52.7291 49.6776 52.7563 50.2449L52.7689 50.5012V50.5475L52.7249 50.558L52.4483 50.6252H52.4357C52.3064 50.6213 52.1819 50.5748 52.0816 50.4928C51.9892 50.416 51.9118 50.3227 51.8532 50.2176C51.747 50.0263 51.6673 49.8213 51.6164 49.6083C51.5285 49.2524 51.4765 48.8885 51.4613 48.5221L51.4865 48.5557L50.6965 48.2448C50.5987 48.2103 50.504 48.1674 50.4136 48.1166C50.5151 48.1373 50.6147 48.1668 50.7111 48.2049L51.5116 48.4843H51.5347V48.5095C51.5589 48.87 51.6171 49.2273 51.7086 49.5768C51.76 49.7796 51.8382 49.9747 51.9412 50.1567C51.9863 50.2526 52.0553 50.3353 52.1416 50.3968C52.2278 50.4582 52.3284 50.4964 52.4336 50.5075H52.4211L52.6977 50.4382L52.6558 50.4949L52.6432 50.2365C52.6201 49.6693 52.595 49.1293 52.574 48.6335C52.574 48.5095 52.574 48.3898 52.5615 48.2721C52.5636 48.1627 52.553 48.0534 52.53 47.9464C52.501 47.8527 52.4483 47.768 52.3771 47.7006C52.3026 47.6404 52.225 47.5843 52.1445 47.5326L51.4173 47.0325C51.3278 46.9789 51.2429 46.9178 51.1638 46.8497Z" fill="#EB996E"/>
<path d="M48.1085 50.411C48.2079 50.3896 48.3088 50.3762 48.4103 50.3711L49.2338 50.306H49.2464C49.5527 50.3782 49.8625 50.4343 50.1747 50.4741C50.3547 50.4987 50.5358 50.5134 50.7174 50.5182C50.8056 50.5327 50.8959 50.5274 50.9818 50.5027C51.0676 50.478 51.147 50.4345 51.2141 50.3753C51.2703 50.295 51.2976 50.198 51.2916 50.1001C51.2916 49.9971 51.2769 49.89 51.2727 49.7807C51.2607 49.6917 51.2177 49.6099 51.1512 49.5496C51.085 49.483 51.0095 49.4263 50.927 49.3815C50.628 49.2306 50.2914 49.1707 49.9588 49.2093C49.8397 49.2204 49.7196 49.203 49.6084 49.1585C49.4973 49.1139 49.3983 49.0434 49.3197 48.9529C49.2212 48.8122 49.2296 48.7092 49.2359 48.7113C49.2635 48.7872 49.3032 48.8582 49.3532 48.9214C49.4318 49.0001 49.5271 49.0599 49.632 49.0963C49.7369 49.1327 49.8486 49.1447 49.9588 49.1315C50.3059 49.0799 50.6605 49.1356 50.9752 49.2912C51.0665 49.3399 51.1505 49.4015 51.2245 49.474C51.3117 49.5531 51.3669 49.6615 51.3796 49.7786C51.3796 49.8753 51.4006 49.9887 51.4006 50.098C51.4063 50.2212 51.3701 50.3427 51.2979 50.4425C51.2248 50.5273 51.125 50.5844 51.015 50.6043C50.9162 50.6229 50.8156 50.6293 50.7153 50.6232C50.5225 50.6232 50.3381 50.598 50.1621 50.5749C49.8465 50.5294 49.5337 50.4656 49.2254 50.3837H49.238L48.4145 50.4131C48.3127 50.4233 48.2101 50.4226 48.1085 50.411Z" fill="#EB996E"/>
<path d="M52.7081 50.3921C52.8129 50.1111 52.9347 49.8367 53.0727 49.5706C53.179 49.2881 53.3198 49.02 53.4918 48.7722C53.4197 49.0638 53.3135 49.3459 53.1754 49.6126C53.0686 49.899 52.9102 50.1632 52.7081 50.3921Z" fill="#EB996E"/>
<path d="M42.916 51.348L59.1959 51.5581L64.4347 36.8218C64.4906 36.6743 64.4881 36.5109 64.4277 36.3652C64.3673 36.2194 64.2536 36.1024 64.1099 36.0381C64.0325 36.0021 63.9485 35.9826 63.8632 35.9808C63.7779 35.9791 63.6932 35.9951 63.6144 36.0279C63.5356 36.0607 63.4644 36.1095 63.4054 36.1713C63.3464 36.2331 63.3009 36.3065 63.2717 36.3869L58.1063 50.3416L42.9013 50.4929C42.7901 50.4929 42.6836 50.5371 42.605 50.6159C42.5264 50.6947 42.4822 50.8016 42.4822 50.9131C42.4801 50.9707 42.49 51.0282 42.511 51.0819C42.5321 51.1356 42.564 51.1844 42.6047 51.2252C42.6454 51.266 42.694 51.2979 42.7476 51.3191C42.8011 51.3402 42.8585 51.35 42.916 51.348Z" fill="#263238"/>
<path d="M18.6563 40.3998C18.6563 40.3998 26.6192 51.2535 27.8535 51.2535H39.473V46.8414L30.6866 44.7635C30.6866 44.7635 26.3615 35.7923 25.4017 34.6431C24.442 33.4939 21.8834 31.9454 19.9702 33.6766C18.057 35.4079 18.6563 40.3998 18.6563 40.3998Z" fill="#756FB3"/>
<path d="M39.4646 47.2764L41.3694 47.123C41.3694 47.123 41.4092 46.415 41.8262 46.165C42.2432 45.9149 42.1992 45.3729 42.4549 45.4149C42.5933 45.4422 42.7356 45.4422 42.874 45.4149L44.4519 44.0829L45.7825 43.2089L46.8303 42.9988C46.8303 42.9988 47.4589 43.1648 46.8303 43.7467L46.1639 44.1228L45.5835 44.7069L46.912 44.0514C46.9731 44.0218 47.0401 44.0064 47.1079 44.0064C47.1758 44.0064 47.2428 44.0218 47.3039 44.0514C47.6634 44.2071 48.006 44.3993 48.3265 44.6249C48.3552 44.6519 48.378 44.6844 48.3936 44.7205C48.4093 44.7567 48.4173 44.7956 48.4173 44.835C48.4173 44.8744 48.4093 44.9134 48.3936 44.9495C48.378 44.9857 48.3552 45.0182 48.3265 45.0451L48.9069 45.5452C48.9069 45.5452 49.0327 46.2133 48.3663 46.0452L47.8277 45.9212L47.1069 46.623C47.1069 46.623 49.5188 46.1229 49.6844 46.2028C49.8499 46.2826 50.0595 46.6608 49.6844 46.9927C49.3093 47.3247 47.855 47.2428 47.5239 47.5768C47.1928 47.9109 44.9925 49.9236 44.4519 50.0476C43.9113 50.1715 39.4772 51.2577 39.4772 51.2577L39.4646 47.2764Z" fill="#FFBE9D"/>
<path d="M48.8902 45.5387C48.7763 45.469 48.6671 45.3918 48.5633 45.3076C48.4648 45.2341 48.3538 45.148 48.2113 45.0555C48.1442 45.0093 48.0744 44.9631 48.0017 44.9169C47.9365 44.8684 47.8601 44.8373 47.7796 44.8265C47.6145 44.8623 47.4574 44.9285 47.3165 45.0219C47.174 45.0996 47.0483 45.1732 46.9414 45.232C46.8316 45.3094 46.7135 45.3742 46.5894 45.4253C46.6773 45.3235 46.7814 45.2369 46.8974 45.169C47.0001 45.0975 47.1237 45.0156 47.2662 44.9316C47.3374 44.8895 47.4129 44.8475 47.4925 44.8055C47.5791 44.7553 47.6757 44.7252 47.7754 44.7173C47.8045 44.7114 47.8344 44.7114 47.8634 44.7173C47.8878 44.7254 47.9116 44.7352 47.9347 44.7467C47.9772 44.7673 48.0185 44.7904 48.0583 44.816C48.1358 44.8643 48.2071 44.9127 48.2679 44.9631C48.3999 45.0597 48.5151 45.1543 48.6094 45.2362C48.8001 45.4085 48.9028 45.5282 48.8902 45.5387Z" fill="#EB996E"/>
<path d="M43.0541 45.2531C43.0709 45.2783 42.8739 45.4505 42.635 45.6732C42.3961 45.896 42.2159 46.0808 42.1929 46.0577C42.2812 45.8788 42.4062 45.7206 42.5596 45.5934C42.6941 45.441 42.8639 45.3241 43.0541 45.2531Z" fill="#EB996E"/>
<path d="M25.4017 34.6431C25.5725 34.8541 25.7267 35.0782 25.8627 35.3133C26.1372 35.7692 26.5249 36.4499 26.9901 37.3302C27.9268 39.0908 29.2155 41.6435 30.7264 44.7509L30.697 44.7257L39.4856 46.7972H39.5275V51.3249H38.947H29.0709H27.9477C27.8989 51.3278 27.8499 51.3278 27.801 51.3249C27.7516 51.3151 27.7037 51.2989 27.6585 51.2765C27.5708 51.2302 27.4873 51.1761 27.4092 51.1148C27.2631 51.0056 27.1232 50.8885 26.9901 50.7639C26.4811 50.2834 25.9978 49.7764 25.5421 49.2449C24.6494 48.228 23.8657 47.2469 23.1427 46.3476C21.7136 44.545 20.5967 43.0554 19.8298 42.0259L18.9517 40.8326C18.8553 40.696 18.782 40.593 18.7275 40.5195C18.673 40.446 18.6542 40.4103 18.6542 40.4103C18.6542 40.4103 18.6835 40.4439 18.738 40.5132L18.9706 40.8199L19.8654 41.9965C20.6428 43.0197 21.7702 44.5009 23.2056 46.2972C23.9244 47.1922 24.7186 48.1692 25.6112 49.184C26.067 49.7108 26.5496 50.2136 27.0571 50.6904C27.1901 50.8125 27.3301 50.9269 27.4762 51.0328C27.5477 51.0846 27.6234 51.1303 27.7025 51.1694C27.78 51.2068 27.8663 51.2221 27.9519 51.2135H29.0751H38.9512H39.4772L39.4227 51.2681C39.4227 49.7554 39.4227 48.2763 39.4227 46.8561L39.4625 46.9086L30.6761 44.8118H30.6551L30.6446 44.7929C29.1443 41.6814 27.866 39.1203 26.944 37.3575C26.4851 36.473 26.1058 35.7902 25.8376 35.3301C25.7013 35.1032 25.5987 34.9267 25.5169 34.8174C25.4352 34.7082 25.4017 34.6431 25.4017 34.6431Z" fill="#263238"/>
<path d="M24.245 33.9329C24.245 33.9518 23.9726 33.8426 23.5283 33.7417C23.2673 33.6837 23.0027 33.6437 22.7362 33.622C22.4105 33.5969 22.0833 33.5969 21.7576 33.622C21.4328 33.6562 21.1112 33.7159 20.7958 33.8006C20.5378 33.8712 20.2851 33.9596 20.0393 34.0653C19.6202 34.2481 19.3813 34.4035 19.3708 34.3867C19.4181 34.339 19.4717 34.298 19.5301 34.2649C19.6828 34.164 19.8425 34.0741 20.0079 33.996C20.2532 33.8777 20.5076 33.7793 20.7685 33.7018C21.0885 33.61 21.416 33.5475 21.7471 33.5148C22.0789 33.4843 22.4128 33.4843 22.7446 33.5148C23.0154 33.5426 23.2837 33.5911 23.5472 33.6598C23.7237 33.7061 23.8967 33.765 24.0648 33.8363C24.1842 33.8867 24.2492 33.9245 24.245 33.9329Z" fill="#263238"/>
<path d="M29.0856 46.7784C29.2153 46.4014 29.4167 46.0532 29.6786 45.7531C29.9116 45.4293 30.2056 45.1545 30.544 44.9442C30.565 44.9694 30.1627 45.314 29.7624 45.8203C29.3622 46.3267 29.117 46.7931 29.0856 46.7784Z" fill="#263238"/>
<path d="M28.8195 45.4253C29.2648 45.0299 29.8448 44.8215 30.4393 44.8434C30.4393 44.877 30.0558 44.9169 29.6011 45.0808C29.1464 45.2446 28.8383 45.4526 28.8195 45.4253Z" fill="#263238"/>
<path d="M36.2857 68.0823C36.1181 67.7315 35.7116 67.5781 35.3406 67.452C28.0211 65.0863 20.1671 63.9518 12.6003 65.33C11.6908 65.496 10.752 65.7124 10.0291 66.2923C9.30614 66.8722 8.87237 67.9227 9.25794 68.763L10.8107 69.2631C18.5588 68.3983 26.3816 68.4533 34.1169 69.427C34.6387 69.4942 35.1877 69.5593 35.6696 69.3534C36.1516 69.1475 36.5141 68.5529 36.2857 68.0823Z" fill="#455A64"/>
<path d="M27.7926 65.6556C27.776 65.6588 27.7589 65.6588 27.7423 65.6556L27.6019 65.6367L27.0592 65.5569C26.5898 65.4813 25.9087 65.372 25.0621 65.2754C22.8608 65.0145 20.6439 64.9085 18.4278 64.9581C17.7803 64.9707 17.1474 65.0022 16.5418 65.0527C15.9362 65.1031 15.3453 65.1325 14.7816 65.1829C14.7119 65.1886 14.6418 65.1886 14.5721 65.1829C14.5066 65.1767 14.4406 65.1767 14.3751 65.1829C14.2424 65.1921 14.1107 65.2117 13.9811 65.2417L13.2226 65.4014C12.7343 65.5107 12.2859 65.6304 11.8814 65.7649C11.2426 65.9645 10.6325 66.247 10.0667 66.6053C9.85719 66.7334 9.71889 66.8448 9.6204 66.9225L9.50724 67.0087C9.4821 67.0276 9.46743 67.0381 9.46533 67.036L9.49886 67.0003L9.60573 66.9057C9.74511 66.7853 9.89134 66.673 10.0437 66.5696C10.6051 66.1923 11.2157 65.8947 11.8584 65.6851C12.2995 65.5364 12.7478 65.4102 13.2016 65.3069L13.9623 65.143C14.0997 65.1084 14.24 65.0866 14.3814 65.0779C14.4511 65.0718 14.5212 65.0718 14.5909 65.0779C14.6606 65.0859 14.7309 65.0859 14.8005 65.0779C15.3558 65.0253 15.9509 64.9896 16.5607 64.9413C17.1705 64.893 17.818 64.8573 18.4467 64.8447C20.6608 64.7941 22.8757 64.91 25.0726 65.1913C25.9108 65.2985 26.5982 65.4203 27.0654 65.5086L27.6061 65.6094L27.7444 65.6388L27.7926 65.6556Z" fill="#263238"/>
<path d="M9.44868 53.6968L21.9253 54.1338C21.9688 54.1355 22.0114 54.1462 22.0504 54.1654C22.0895 54.1846 22.1241 54.2119 22.1519 54.2454C22.1798 54.2789 22.2003 54.3178 22.2122 54.3598C22.224 54.4018 22.227 54.4457 22.2208 54.4889L20.4249 69.4899H23.2371L24.6872 52.9762C24.7035 52.843 24.6921 52.7078 24.6535 52.5792C24.615 52.4506 24.5502 52.3315 24.4633 52.2294C24.3764 52.1272 24.2693 52.0443 24.1488 51.9859C24.0282 51.9275 23.8969 51.8948 23.7631 51.89L9.1134 51.3647L9.44868 53.6968Z" fill="#455A64"/>
<path d="M75.7565 52.6044H73.8014V53.0393L78.1055 94.2878H80.113L75.7565 52.6044Z" fill="#455A64"/>
<path d="M32.1073 52.6044H34.0624V53.0477L30.0495 94.2752H28.042L32.1073 52.6044Z" fill="#455A64"/>
<path d="M32.1072 52.6044C32.1072 52.6044 32.1072 52.6779 32.0904 52.8145C32.0737 52.951 32.0569 53.1695 32.0318 53.4447C31.9794 53.9973 31.9039 54.8125 31.8054 55.8588C31.5959 57.9598 31.313 60.9915 30.9547 64.7522C30.2254 72.2653 29.2175 82.6757 28.0943 94.2731L28.0419 94.2122H30.0494L29.9949 94.2626C31.8977 74.8958 33.5091 58.4892 34.0455 53.0393C34.0455 52.8292 34.0455 52.7115 34.0455 52.5959L34.0602 52.6107H32.5934H32.2329H32.1135H32.2287H32.585L34.0686 52.6002H34.0833V52.617C34.0833 52.7325 34.0833 52.8544 34.0833 53.0603C33.5573 58.5102 31.9752 74.9105 30.1018 94.2899V94.3403H27.9854V94.2794C29.1253 82.6694 30.15 72.2464 30.8897 64.7249C31.2648 60.9705 31.5645 57.9408 31.774 55.8462C31.8788 54.7957 31.9605 53.9973 32.015 53.4447C32.0443 53.1737 32.0653 52.9657 32.08 52.8145C32.0946 52.6632 32.1072 52.6044 32.1072 52.6044Z" fill="#263238"/>
<path d="M83.3569 51.2618H27.4028V53.0372H83.3569V51.2618Z" fill="#455A64"/>
<path d="M77.3995 53.0391C77.3995 53.0684 66.2472 53.0936 52.4944 53.0936C38.7417 53.0936 27.5852 53.0684 27.5852 53.0391C27.5852 53.0098 38.7354 52.9846 52.4944 52.9846C66.2535 52.9846 77.3995 53.0056 77.3995 53.0391Z" fill="#263238"/>
</svg>
