<svg width="94" height="95" viewBox="0 0 94 95" fill="none" xmlns="http://www.w3.org/2000/svg">
<path d="M90.0795 3.1283V20.1378H65.713L64.835 3.24595L90.0795 3.1283Z" fill="#E0E0E0"/>
<path d="M64.835 3.24601V20.1022H89.2015V3.24601H64.835Z" fill="#AAAAAA"/>
<path d="M89.3186 20.2178H64.7195V3.13049H89.3186V20.2178ZM64.95 19.9867H89.086V3.3616H64.95V19.9867Z" fill="#E0E0E0"/>
<path d="M86.563 5.3407H67.4751V18.0075H86.563V5.3407Z" fill="#AAAAAA"/>
<path d="M86.5629 5.34057H86.4686H86.1982H85.1505L81.2172 5.35528L67.477 5.38259L67.5315 5.32797C67.5315 9.19797 67.5315 13.4861 67.5315 17.9927L67.4728 17.9318L86.5608 17.9444L86.5126 17.9927C86.523 14.1374 86.5314 10.9775 86.5377 8.77568C86.5377 7.67686 86.5482 6.81756 86.5503 6.22719C86.5503 5.93725 86.5503 5.71455 86.5503 5.55907C86.5503 5.4057 86.5503 5.32587 86.5503 5.32587C86.5503 5.32587 86.5503 5.3994 86.5503 5.54857C86.5503 5.69774 86.5503 5.92254 86.5503 6.20828C86.5503 6.79655 86.5503 7.65165 86.5629 8.74626C86.5629 10.9544 86.5775 14.1248 86.588 17.9906V18.0389H86.5398L67.4519 18.0515H67.3911V17.9906C67.3911 13.484 67.3911 9.19587 67.3911 5.32587V5.27124H67.4477L81.2633 5.31326L85.184 5.32797H86.2213H86.4853L86.5629 5.34057Z" fill="#E0E0E0"/>
<path d="M64.835 3.19971C64.9853 3.27237 65.1261 3.3634 65.2541 3.47073C65.5034 3.65142 65.8429 3.90774 66.2096 4.20188C66.5763 4.49601 66.899 4.77334 67.1253 4.98344C67.2568 5.08692 67.3744 5.20697 67.4753 5.34061C67.011 5.01323 66.5633 4.66263 66.1342 4.29012C65.6791 3.95379 65.2452 3.58962 64.835 3.19971Z" fill="#E0E0E0"/>
<path d="M89.2033 3.24597C88.8019 3.64049 88.3734 4.00626 87.9209 4.34058C87.4921 4.70536 87.0384 5.03953 86.563 5.34065C86.9639 4.94557 87.3924 4.57976 87.8454 4.24604C88.2742 3.88126 88.7279 3.54709 89.2033 3.24597Z" fill="#E0E0E0"/>
<path d="M89.1826 20.1042L86.4585 17.8961L89.1826 20.1042Z" fill="#AAAAAA"/>
<path d="M86.4668 17.8961C86.9551 18.2144 87.4213 18.5653 87.8624 18.9466C88.3283 19.2996 88.7694 19.6843 89.1826 20.0979C88.6943 19.7797 88.228 19.4287 87.787 19.0475C87.3211 18.6945 86.88 18.3098 86.4668 17.8961Z" fill="#E0E0E0"/>
<path d="M64.835 20.1022C65.2319 19.7109 65.6563 19.3486 66.1048 19.0181C66.5278 18.6564 66.9768 18.3263 67.4481 18.0306C67.0513 18.4215 66.6269 18.7831 66.1782 19.1126C65.7549 19.4746 65.306 19.8053 64.835 20.1022Z" fill="#E0E0E0"/>
<path d="M71.3496 9.28632V13.5282H83.361V9.28632H71.3496Z" fill="#E0E0E0"/>
<path d="M72.3954 94.2877H94L94 31.4159H72.3954V94.2877Z" fill="#E0E0E0"/>
<path d="M60.7989 94.2877H84.4529L84.4529 31.4159H60.7989L60.7989 94.2877Z" fill="#F5F5F5"/>
<path d="M75.3207 79.6166H69.0007C68.8812 79.6166 68.7666 79.569 68.6821 79.4843C68.5976 79.3996 68.5501 79.2847 68.5501 79.1649V78.7888H75.7712V79.1649C75.7712 79.2847 75.7238 79.3996 75.6393 79.4843C75.5548 79.569 75.4402 79.6166 75.3207 79.6166Z" fill="#E0E0E0"/>
<path d="M61.8444 78.7889C61.8444 78.7889 61.8444 78.8645 61.8444 79.0158C61.8444 79.1671 61.8444 79.3961 61.8444 79.6902C61.8444 80.289 61.8444 81.1609 61.8318 82.2849C61.8318 84.5435 61.8171 87.7916 61.8066 91.7688V91.8171H61.8548L82.9335 91.8297H83.0047V91.7688C83.0047 87.176 83.0047 82.7955 83.0047 78.8078V78.7532H82.9398L67.7306 78.7658L63.3908 78.7763H62.2404H61.9449H61.8486H61.9533H62.253H63.4139L67.7683 78.7952L82.9398 78.8372L82.8832 78.7805C82.8832 82.7724 82.8832 87.1487 82.8832 91.7414L82.944 91.6826H82.9314L61.8527 91.6952L61.8988 91.7414C61.8884 87.7769 61.88 84.5372 61.8737 82.287C61.8737 81.1609 61.8737 80.2827 61.8632 79.6818C61.8632 79.3835 61.8632 79.1566 61.8632 78.999C61.8632 78.8414 61.8444 78.7889 61.8444 78.7889Z" fill="#E0E0E0"/>
<path d="M68.8351 83.661H75.1111V81.9613H68.8351V83.661Z" fill="#E0E0E0"/>
<path d="M75.6078 64.4896H69.2899C69.1704 64.4896 69.0558 64.442 68.9713 64.3573C68.8868 64.2726 68.8394 64.1577 68.8394 64.0379V63.6618H76.0583V64.0379C76.0583 64.1577 76.0109 64.2726 75.9264 64.3573C75.8419 64.442 75.7273 64.4896 75.6078 64.4896Z" fill="#E0E0E0"/>
<path d="M61.9032 63.6597C61.9032 63.6597 61.9032 63.7354 61.9032 63.8866C61.9032 64.0379 61.9032 64.269 61.9032 64.5611C61.9032 65.1598 61.9032 66.0317 61.8906 67.1558C61.8906 69.4143 61.876 72.6624 61.8655 76.6417V76.6879H61.9137L82.9923 76.7005H83.0636V76.6417C83.0636 72.0469 83.0636 67.6663 83.0636 63.6807V63.624H83.0091L67.7999 63.6366L63.4602 63.6492H62.3097H62.0143H61.9179H62.0226H62.3223H63.4832L67.8377 63.6702L83.0091 63.7102L82.9525 63.6555C82.9525 67.6474 82.9525 72.0216 82.9525 76.6165L83.0133 76.5556H83.0007L61.9221 76.5682L61.9682 76.6165C61.9577 72.6498 61.9493 69.4122 61.943 67.1621C61.943 66.0359 61.943 65.1577 61.943 64.5569C61.943 64.2606 61.943 64.0316 61.943 63.874C61.943 63.7165 61.9032 63.6597 61.9032 63.6597Z" fill="#E0E0E0"/>
<path d="M69.3087 68.431H75.5847V66.7313H69.3087V68.431Z" fill="#E0E0E0"/>
<path d="M75.3332 33.9602H69.0131C68.8936 33.9602 68.779 33.9126 68.6946 33.8279C68.6101 33.7432 68.5626 33.6283 68.5626 33.5085V33.1324H75.7837V33.5085C75.7837 33.5678 75.772 33.6266 75.7494 33.6814C75.7268 33.7362 75.6936 33.786 75.6517 33.8279C75.6099 33.8698 75.5602 33.9031 75.5056 33.9258C75.4509 33.9485 75.3923 33.9602 75.3332 33.9602Z" fill="#E0E0E0"/>
<path d="M61.855 33.1303C61.855 33.1303 61.855 33.206 61.855 33.3572C61.855 33.5085 61.855 33.7396 61.855 34.0316C61.855 34.6304 61.855 35.5023 61.8445 36.6264C61.8445 38.8849 61.8298 42.133 61.8193 46.1123V46.1585H61.8654L82.9462 46.1732H83.0174V46.1123C83.0174 41.5174 83.0174 37.1369 83.0174 33.1513V33.0946H82.9399L67.7328 33.1072L63.391 33.1198H62.2405H61.9472H61.8487C61.8836 33.1216 61.9185 33.1216 61.9535 33.1198H62.2531H63.4161L67.7685 33.1387L82.9399 33.1786L82.8833 33.124C82.8833 37.1159 82.8833 41.4901 82.8833 46.085L82.9441 46.024L61.8633 46.0366L61.9115 46.085C61.9011 42.1183 61.8927 38.8807 61.8864 36.6306C61.8864 35.5044 61.8759 34.6262 61.8738 34.0253C61.8738 33.7291 61.8738 33.5001 61.8738 33.3425C61.8738 33.1849 61.855 33.1303 61.855 33.1303Z" fill="#E0E0E0"/>
<path d="M69.1473 37.597H75.4233V35.8974H69.1473V37.597Z" fill="#E0E0E0"/>
<path d="M75.3332 49.2196H69.0132C68.8937 49.2196 68.7791 49.172 68.6946 49.0873C68.6101 49.0026 68.5627 48.8877 68.5627 48.7679V48.3792H75.7838V48.7553C75.7854 48.8157 75.775 48.8758 75.7531 48.932C75.7313 48.9883 75.6983 49.0396 75.6563 49.0829C75.6143 49.1262 75.5641 49.1606 75.5086 49.1841C75.4531 49.2075 75.3935 49.2196 75.3332 49.2196Z" fill="#E0E0E0"/>
<path d="M61.855 48.3834C61.855 48.3834 61.855 48.459 61.855 48.6103C61.855 48.7616 61.855 48.9906 61.855 49.2847C61.855 49.8835 61.855 50.7554 61.8445 51.8794C61.8445 54.138 61.8298 57.3861 61.8193 61.3633V61.4095H61.8654L82.9462 61.4221H83.0174V61.3612C83.0174 56.7684 83.0174 52.3879 83.0174 48.4002V48.3456H82.9399L67.7328 48.3582H63.391H62.2405H61.9472H61.8487H61.9535H62.2531H63.4161L67.7685 48.3771L82.9399 48.4191L82.8833 48.3624C82.8833 52.3542 82.8833 56.7306 82.8833 61.3233L82.9441 61.2645L61.8633 61.2771L61.9115 61.3233C61.9011 57.3588 61.8927 54.1191 61.8864 51.8689C61.8864 50.7428 61.8759 49.8646 61.8738 49.2637C61.8738 48.9654 61.8738 48.7385 61.8738 48.5809C61.8738 48.4233 61.855 48.3834 61.855 48.3834Z" fill="#E0E0E0"/>
<path d="M69.1473 52.8523H75.4233V51.1526H69.1473V52.8523Z" fill="#E0E0E0"/>
<path d="M27.5411 2.70398H4.89087V23.0205H27.5411V2.70398Z" fill="#FAFAFA"/>
<path d="M27.5412 23.0204C27.5412 23.0204 27.5412 22.8902 27.5412 22.6423C27.5412 22.3943 27.5412 22.0288 27.5412 21.5539C27.5412 20.6001 27.5412 19.2072 27.5266 17.4297C27.5266 13.8812 27.5119 8.8157 27.5014 2.70395L27.5517 2.75437H4.90352L4.96429 2.69344C4.96429 10.0847 4.96429 17.0389 4.96429 23.0099L4.90981 22.9553L21.2924 22.9826L25.913 22.9973H27.1368H27.4511H27.5601H27.4574H27.1473H25.9361L21.326 23.0099L4.90981 23.0372H4.85742V22.9847C4.85742 17.0137 4.85742 10.0595 4.85742 2.66823V2.6073H4.92029H27.5685H27.6209V2.65982C27.6083 8.77788 27.5999 13.8602 27.5936 17.4192C27.5936 19.1903 27.5831 20.5707 27.581 21.5308C27.581 22.0015 27.581 22.3712 27.581 22.6107C27.581 22.8503 27.5412 23.0204 27.5412 23.0204Z" fill="#E0E0E0"/>
<path d="M13.5788 6.31321C13.5788 6.34674 12.3865 6.37398 10.9154 6.37398C9.4444 6.37398 8.25415 6.34674 8.25415 6.31321C8.25415 6.27968 9.4444 6.25244 10.9154 6.25244C12.3865 6.25244 13.5788 6.27968 13.5788 6.31321Z" fill="#E0E0E0"/>
<path d="M23.1743 7.83433C23.1743 7.86786 19.899 7.8951 15.8589 7.8951C11.8188 7.8951 8.5498 7.87205 8.5498 7.83433C8.5498 7.79661 11.8251 7.77356 15.8652 7.77356C19.9053 7.77356 23.1743 7.80499 23.1743 7.83433Z" fill="#E0E0E0"/>
<path d="M9.24325 10.423H8.28979V11.3789H9.24325V10.423Z" fill="#E0E0E0"/>
<path d="M11.5924 10.423H10.6389V11.3789H11.5924V10.423Z" fill="#E0E0E0"/>
<path d="M13.9852 10.3788H13.0317V11.3347H13.9852V10.3788Z" fill="#E0E0E0"/>
<path d="M16.2904 10.423H15.3369V11.3789H16.2904V10.423Z" fill="#E0E0E0"/>
<path d="M18.6395 10.423H17.686V11.3789H18.6395V10.423Z" fill="#E0E0E0"/>
<path d="M20.9886 10.423H20.0352V11.3789H20.9886V10.423Z" fill="#E0E0E0"/>
<path d="M23.3377 10.423H22.3843V11.3789H23.3377V10.423Z" fill="#EBEBEB"/>
<path d="M9.24325 12.4567H8.28979V13.4126H9.24325V12.4567Z" fill="#EBEBEB"/>
<path d="M11.5924 12.4567H10.6389V13.4126H11.5924V12.4567Z" fill="#E0E0E0"/>
<path d="M13.9412 12.4567H12.9878V13.4126H13.9412V12.4567Z" fill="#EBEBEB"/>
<path d="M16.2904 12.4567H15.3369V13.4126H16.2904V12.4567Z" fill="#E0E0E0"/>
<path d="M18.6395 12.4567H17.686V13.4126H18.6395V12.4567Z" fill="#E0E0E0"/>
<path d="M21.0306 12.4126H20.0771V13.3685H21.0306V12.4126Z" fill="#E0E0E0"/>
<path d="M23.3377 12.4567H22.3843V13.4126H23.3377V12.4567Z" fill="#E0E0E0"/>
<path d="M9.24325 14.4904H8.28979V15.4463H9.24325V14.4904Z" fill="#E0E0E0"/>
<path d="M11.6363 14.4463H10.6829V15.4022H11.6363V14.4463Z" fill="#E0E0E0"/>
<path d="M13.9412 14.4904H12.9878V15.4463H13.9412V14.4904Z" fill="#E0E0E0"/>
<path d="M16.2904 14.4904H15.3369V15.4463H16.2904V14.4904Z" fill="#EBEBEB"/>
<path d="M18.6395 14.4904H17.686V15.4463H18.6395V14.4904Z" fill="#E0E0E0"/>
<path d="M20.9886 14.4904H20.0352V15.4463H20.9886V14.4904Z" fill="#E0E0E0"/>
<path d="M23.3377 14.4904H22.3843V15.4463H23.3377V14.4904Z" fill="#E0E0E0"/>
<path d="M9.24325 16.5242H8.28979V17.4801H9.24325V16.5242Z" fill="#E0E0E0"/>
<path d="M11.5924 16.5242H10.6389V17.4801H11.5924V16.5242Z" fill="#E0E0E0"/>
<path d="M13.9412 16.5242H12.9878V17.4801H13.9412V16.5242Z" fill="#E0E0E0"/>
<path d="M16.3343 16.4822H15.3809V17.4381H16.3343V16.4822Z" fill="#E0E0E0"/>
<path d="M18.6395 16.5242H17.686V17.4801H18.6395V16.5242Z" fill="#E0E0E0"/>
<path d="M20.9886 16.5242H20.0352V17.4801H20.9886V16.5242Z" fill="#EBEBEB"/>
<path d="M23.3377 16.5242H22.3843V17.4801H23.3377V16.5242Z" fill="#E0E0E0"/>
<path d="M9.24325 18.5579H8.28979V19.5138H9.24325V18.5579Z" fill="#E0E0E0"/>
<path d="M11.5924 18.5579H10.6389V19.5138H11.5924V18.5579Z" fill="#EBEBEB"/>
<path d="M13.9412 18.5579H12.9878V19.5138H13.9412V18.5579Z" fill="#E0E0E0"/>
<path d="M16.2904 18.5579H15.3369V19.5138H16.2904V18.5579Z" fill="#E0E0E0"/>
<path d="M18.6395 18.5579H17.686V19.5138H18.6395V18.5579Z" fill="#E0E0E0"/>
<path d="M21.0306 18.5159H20.0771V19.4718H21.0306V18.5159Z" fill="#E0E0E0"/>
<path d="M23.3377 18.5579H22.3843V19.5138H23.3377V18.5579Z" fill="#E0E0E0"/>
<path d="M46.5805 32.954L38.7693 35.9023L40.7517 41.1817L48.5628 38.2334L46.5805 32.954Z" fill="#EBEBEB"/>
<path d="M46.6292 33.0127C46.6177 33.0473 46.6022 33.0804 46.5831 33.1114L46.4385 33.3846C46.3044 33.6262 46.1179 33.9665 45.8895 34.3825C45.4159 35.2229 44.7663 36.3869 44.0496 37.6706L44.0349 37.6979H44.0035L43.9323 37.6748L40.3112 36.4835L39.2153 36.1137L38.9198 36.0108C38.8842 36.0004 38.8498 35.9863 38.8171 35.9688C38.8533 35.9755 38.889 35.9846 38.924 35.9961L39.2258 36.0864L40.328 36.4331L43.9637 37.5928L44.0349 37.6159L43.9888 37.6349C44.716 36.3554 45.3698 35.1998 45.8496 34.3573L46.4175 33.3699L46.5768 33.103C46.5915 33.0714 46.6091 33.0412 46.6292 33.0127Z" fill="#E0E0E0"/>
<path d="M40.7994 41.24C40.7805 41.24 41.0949 40.2883 41.5056 39.1286C41.9163 37.9688 42.2621 37.0276 42.2809 37.0423C42.2998 37.057 41.9854 37.9961 41.5768 39.1433C41.1682 40.2904 40.8203 41.24 40.7994 41.24Z" fill="#E0E0E0"/>
<path d="M44.8541 35.9982C44.8646 35.9793 45.7154 36.4793 46.7526 37.1117C47.7899 37.7441 48.6218 38.2736 48.6113 38.2925C48.6009 38.3114 47.7501 37.8113 46.7128 37.1769C45.6755 36.5424 44.8436 36.015 44.8541 35.9982Z" fill="#E0E0E0"/>
<path d="M56.6959 16.2909C56.8955 16.1695 57.1105 16.0756 57.335 16.0115L57.467 15.3812L58.5357 15.3623L58.6908 15.9926C58.9173 16.0481 59.1351 16.1343 59.3383 16.2489L59.879 15.8939L60.648 16.6376L60.3127 17.1923C60.4337 17.3887 60.5274 17.6008 60.5914 17.8226L61.2201 17.9528L61.2389 19.0264L60.6103 19.1798C60.5544 19.407 60.4692 19.626 60.3567 19.8311L60.7109 20.371L59.967 21.1421L59.4158 20.808C59.2157 20.9279 59.0009 21.0212 58.7767 21.0854L58.6447 21.7157L57.576 21.7346L57.4209 21.1043C57.1948 21.0479 56.977 20.9617 56.7734 20.848L56.2328 21.203L55.4637 20.4572L55.799 19.9046C55.6776 19.7047 55.5838 19.4891 55.5203 19.2638L54.8917 19.1315L54.8728 18.06L55.5015 17.9045C55.557 17.6778 55.6422 17.4595 55.755 17.2553L55.4009 16.7132L56.1448 15.9422L56.6959 16.2783V16.2909ZM57.2659 17.7175C57.1077 17.8811 57.0015 18.0881 56.9608 18.3122C56.92 18.5363 56.9465 18.7675 57.0368 18.9766C57.1272 19.1856 57.2774 19.3631 57.4683 19.4865C57.6593 19.6099 57.8826 19.6738 58.1098 19.67C58.337 19.6661 58.5579 19.5948 58.7447 19.465C58.9314 19.3352 59.0756 19.1528 59.1589 18.9408C59.2422 18.7289 59.2609 18.4969 59.2126 18.2743C59.1644 18.0516 59.0513 17.8484 58.8878 17.6902C58.7801 17.5846 58.6527 17.5013 58.5129 17.4451C58.3731 17.3888 58.2235 17.3608 58.0729 17.3626C57.9223 17.3643 57.7735 17.3958 57.635 17.4553C57.4965 17.5148 57.3711 17.601 57.2659 17.7091V17.7175Z" fill="#E0E0E0"/>
<path d="M57.2658 17.7092C57.3254 17.6362 57.3961 17.5731 57.4754 17.5222C57.6134 17.4324 57.769 17.3731 57.9316 17.3481C58.0943 17.3232 58.2604 17.3332 58.419 17.3775C58.5775 17.4218 58.7248 17.4994 58.8511 17.6051C58.9775 17.7108 59.08 17.8423 59.1518 17.9907C59.2555 18.2 59.2941 18.4357 59.2628 18.6673C59.2292 18.9167 59.1177 19.1491 58.9443 19.3312C58.7697 19.5118 58.5421 19.6318 58.2947 19.6736C58.1781 19.6925 58.0593 19.6925 57.9427 19.6736C57.8297 19.6595 57.7195 19.6283 57.6158 19.5812C57.4245 19.4942 57.2596 19.3579 57.138 19.1862C57.0338 19.0359 56.9663 18.8632 56.941 18.682C56.9013 18.4199 56.9547 18.1522 57.0919 17.9256C57.1397 17.8465 57.1998 17.7755 57.27 17.7155C57.27 17.7155 57.2009 17.7911 57.1129 17.9487C56.9898 18.1735 56.9455 18.4332 56.9871 18.6862C57.0144 18.8591 57.0819 19.0232 57.1841 19.1652C57.3011 19.3272 57.4587 19.4555 57.6409 19.5371C57.7389 19.5806 57.8426 19.6097 57.949 19.6232C58.06 19.641 58.1732 19.641 58.2842 19.6232C58.5179 19.5833 58.7329 19.47 58.8982 19.2997C59.0622 19.1265 59.1678 18.906 59.2 18.6694C59.2263 18.4537 59.1907 18.2351 59.0973 18.0391C59.0104 17.8584 58.8774 17.704 58.7117 17.5916C58.5667 17.4946 58.4008 17.4334 58.2277 17.413C57.9745 17.3801 57.7178 17.4334 57.4984 17.5642C57.3392 17.6462 57.2721 17.7239 57.2658 17.7092Z" fill="#E0E0E0"/>
<path d="M56.696 16.291L56.6604 16.2721L56.5556 16.2112L56.1365 15.9633H56.1491L55.4115 16.7406V16.7196L55.7677 17.2596C55.6559 17.463 55.572 17.6807 55.5183 17.9067V17.9193H55.5058L54.8771 18.0769L54.8939 18.0537C54.8939 18.3899 54.9086 18.7492 54.9148 19.1252L54.896 19.1L55.5246 19.2303H55.5393V19.245C55.6032 19.4665 55.6963 19.6784 55.8159 19.8753V19.89V19.9047L55.489 20.4867V20.4489L56.2601 21.1926H56.2224L56.761 20.8354L56.7777 20.8249L56.7945 20.8354C56.9962 20.9476 57.2118 21.0324 57.4357 21.0876H57.4546V21.1065L57.6076 21.7368L57.5761 21.7137L58.6448 21.6947L58.6134 21.72C58.6553 21.5099 58.7014 21.2998 58.7454 21.0897V21.0708H58.7643C58.9855 21.0086 59.1971 20.916 59.3929 20.7955H59.4118H59.4285L59.9797 21.1317H59.9398L60.6817 20.3606V20.4005C60.5622 20.2178 60.4428 20.0371 60.3275 19.8585L60.317 19.8417V19.8249C60.4298 19.6229 60.5151 19.4067 60.5706 19.182V19.1631H60.5895L61.2181 19.0097L61.1951 19.0412C61.1951 18.6756 61.1888 18.3185 61.1762 17.9697L61.2013 17.9991L60.5727 17.8647H60.5559V17.8457C60.4935 17.6244 60.4019 17.4125 60.2835 17.2155V17.2007V17.186L60.6188 16.6314V16.665L59.8518 15.9191H59.8833L59.3426 16.2721H59.3301H59.3175C59.1151 16.1593 58.8988 16.0739 58.6742 16.0179H58.6616V16.0053C58.6071 15.7763 58.5568 15.5704 58.5086 15.375L58.5296 15.3897L57.4588 15.4023H57.4734C57.419 15.6544 57.375 15.8624 57.3372 16.0326C57.1685 16.0787 57.0049 16.1421 56.849 16.2217L56.7337 16.2805L56.6939 16.3015C56.7046 16.2916 56.7166 16.2831 56.7295 16.2763L56.8427 16.2112C56.9982 16.1281 57.1618 16.0612 57.3309 16.0116C57.3645 15.8393 57.4064 15.6313 57.4567 15.3813V15.3687H57.4693L58.538 15.3456H58.5547V15.3603C58.6029 15.5557 58.6553 15.7616 58.7119 15.9906L58.6951 15.9759C58.9242 16.0315 59.1448 16.1177 59.351 16.2322H59.3259L59.8665 15.8771L59.8833 15.8645L59.8979 15.8792L60.667 16.623L60.6838 16.6377L60.6712 16.6566L60.338 17.2113V17.1818C60.4606 17.3837 60.555 17.6014 60.6188 17.8289L60.5978 17.8079L61.2265 17.9382H61.2495V17.9613C61.2495 18.3101 61.2642 18.6672 61.2705 19.0328V19.058H61.2453L60.6167 19.2135L60.6397 19.1904C60.5834 19.4201 60.4967 19.6412 60.382 19.848V19.8102L60.7382 20.3522L60.7508 20.3732L60.734 20.3921L59.9901 21.1632L59.9734 21.1821L59.9503 21.1695L59.3971 20.8333H59.4306C59.2292 20.9561 59.0121 21.0508 58.7852 21.1149L58.8083 21.0897C58.7622 21.2998 58.7182 21.5246 58.6763 21.72V21.7473H58.6511L57.5824 21.7641H57.5573V21.7389C57.5028 21.5288 57.4504 21.3061 57.4022 21.1086L57.4252 21.1317C57.1964 21.0744 56.9759 20.9875 56.7694 20.8733H56.8029L56.2622 21.2283L56.2413 21.2409L56.2245 21.2241L55.4555 20.4783L55.4387 20.4636L55.4513 20.4426C55.5686 20.2493 55.6818 20.0602 55.7866 19.89V19.9194C55.6649 19.7166 55.5711 19.4982 55.5079 19.2702L55.5267 19.2891L54.8981 19.1568H54.8771V19.1358C54.8771 18.7597 54.8645 18.4025 54.8604 18.0643V18.0453H54.8771L55.5058 17.892L55.489 17.9193C55.5454 17.6902 55.6321 17.4698 55.7468 17.2638V17.2848C55.6189 17.0894 55.5016 16.9066 55.3947 16.7406L56.1407 15.9738L56.5598 16.2259L56.6625 16.2931C56.6855 16.2805 56.696 16.2889 56.696 16.291Z" fill="#E0E0E0"/>
<path d="M4.88252 92.1511C4.49904 91.8234 3.64618 90.7792 4.30416 89.5669C4.54515 89.1236 5.05854 88.903 5.52165 88.7076C5.98475 88.5122 6.47301 88.342 6.85648 88.0143C7.58153 87.3966 7.7806 86.3713 8.26047 85.5477C8.81368 84.6023 9.84257 83.8922 10.9301 83.9426C12.1874 83.9993 13.2142 85.0204 13.6857 86.1822C14.1572 87.3441 14.174 88.6362 14.1824 89.8926C14.1824 90.588 14.1572 91.3633 13.648 91.8402C13.1807 92.273 12.4745 92.2772 11.8396 92.2604L5.0313 92.0503" fill="#F5F5F5"/>
<path d="M17.9019 73.3851H0L3.22498 92.6637C3.29123 93.0656 3.47 93.4403 3.74045 93.7442C4.01091 94.048 4.36192 94.2686 4.7526 94.3802L4.81546 94.3991C4.86785 94.4117 4.92024 94.4307 4.97472 94.4391C5.0948 94.4637 5.21681 94.4778 5.33934 94.4811V94.5L5.42735 94.4853H13.4091C13.5561 94.4853 13.7028 94.4712 13.8471 94.4433C14.314 94.3705 14.7442 94.1461 15.0716 93.8045C15.3991 93.4629 15.6057 93.023 15.6597 92.5524L17.2124 79.2679L17.2837 78.7384L17.8998 73.486L17.9019 73.3851ZM14.526 85.6801H12.6883L12.8727 80.0852H15.0017L14.526 85.6801ZM15.1798 80.0852H16.9317L16.2758 85.6801H14.7041L15.1798 80.0852ZM9.94106 91.8843L9.83 87.0226H12.4661L12.3048 91.8843H9.94106ZM7.07022 87.0226H9.6414L9.75246 91.8843H7.44741L7.07022 87.0226ZM7.27977 91.8843H5.11512C4.90557 90.5712 4.64363 88.8652 4.35445 87.0226H6.8921L7.27977 91.8843ZM6.97802 85.6801L6.54425 80.0852H9.48214L9.60997 85.6801H6.97802ZM9.79856 85.6801L9.67074 80.0852H12.6945L12.5101 85.6801H9.79856ZM9.63931 78.7468L9.51986 73.5658H12.9125L12.7406 78.7426L9.63931 78.7468ZM9.46119 78.7468H6.429L6.03504 73.5616H9.33336L9.46119 78.7468ZM6.24459 78.7426H3.05315C2.93999 78.0283 2.83312 77.3497 2.73463 76.7404C2.40144 74.6394 2.27571 73.8579 2.20656 73.5616H5.84854L6.24459 78.7426ZM6.34937 80.0852L6.78314 85.6801H4.14909C4.05899 85.1128 3.96888 84.5392 3.87877 83.9636L3.26898 80.0852H6.34937ZM3.96469 85.6801H2.2359L1.30131 80.0852H3.08458C3.35699 81.8143 3.66084 83.7388 3.96469 85.6801ZM4.17424 87.0226C4.43827 88.7034 4.69602 90.3632 4.93491 91.8843H3.27527L2.46012 87.0226H4.17424ZM12.4829 91.8843L12.6443 87.0226H14.4171L13.998 91.8843H12.4829ZM12.9167 78.7426L13.0885 73.5616H15.557L15.1169 78.7426H12.9167ZM2.03683 73.5616C2.10807 73.9356 2.43497 75.9756 2.87503 78.7426H1.07709L0.20955 73.5616H2.03683ZM15.5591 91.8843H14.174L14.5931 87.0226H16.1312L15.5591 91.8843ZM17.0972 78.7426H15.2951L15.7372 73.5616H17.7028L17.0972 78.7426Z" fill="#E0E0E0"/>
<path d="M90.798 94.2876C90.798 94.3191 71.6116 94.3421 47.9471 94.3421C24.2826 94.3421 5.09204 94.3191 5.09204 94.2876C5.09204 94.2562 24.2743 94.2332 47.9471 94.2332C71.62 94.2332 90.798 94.2583 90.798 94.2876Z" fill="#263238"/>
<path d="M72.5442 46.4569C72.5442 46.4569 75.019 43.6016 75.9536 40.7443C76.8881 37.887 76.4439 38.2231 76.4439 38.2231C76.4439 38.2231 75.1866 40.9964 74.2269 42.3369C73.2671 43.6773 71.5635 45.6438 71.5635 45.6438L72.5442 46.4569Z" fill="#455A64"/>
<path d="M72.0434 38.6602C72.0602 38.6312 72.0866 38.6089 72.1179 38.5972C72.1493 38.5855 72.1837 38.5851 72.2153 38.596C72.247 38.6069 72.2739 38.6285 72.2914 38.657C72.309 38.6856 72.3161 38.7194 72.3116 38.7526C72.1607 39.7569 71.8338 42.1142 71.8464 43.6374C71.8632 45.6207 71.8464 46.3876 71.8464 46.3876H70.8154C70.8154 46.3876 70.9998 42.2864 71.2345 41.0364C71.3867 40.2089 71.6592 39.4083 72.0434 38.6602Z" fill="#455A64"/>
<path d="M71.49 46.0556C71.0577 45.0748 70.7718 44.0356 70.6414 42.9714C70.5575 42.2402 70.7084 41.2527 70.9326 39.9375C71.0198 39.4522 71.0639 38.96 71.0647 38.4668C71.0635 38.4124 71.0445 38.3599 71.0106 38.3174C70.9767 38.2749 70.9298 38.2447 70.8772 38.2316C70.8245 38.2184 70.769 38.223 70.7191 38.2447C70.6693 38.2663 70.628 38.3038 70.6015 38.3513C70.3523 38.8124 70.1595 39.3019 70.0274 39.8094C69.778 41.1099 69.4951 41.7591 69.711 42.9945C69.9268 44.2298 70.7252 46.127 70.7252 46.127L71.49 46.0556Z" fill="#455A64"/>
<path d="M70.5618 46.1375C70.5618 46.1375 67.8377 40.282 67.6554 39.4143C67.473 38.5466 66.8276 36.5423 66.7522 36.6557C66.6768 36.7692 66.5636 37.8281 67.0539 39.0362C67.5443 40.2442 69.6335 46.3161 69.6335 46.3161H70.5618" fill="#455A64"/>
<path d="M71.7876 45.877C71.7876 45.877 71.8148 45.8602 71.863 45.8245C71.9112 45.7887 71.9846 45.7362 72.0726 45.6627C72.3263 45.4593 72.5697 45.2434 72.8018 45.0156C73.5648 44.2601 74.2257 43.4075 74.7674 42.4797C75.3119 41.5525 75.7652 40.5744 76.1211 39.5593C76.2594 39.1706 76.3579 38.8534 76.4228 38.6307C76.4564 38.5214 76.4794 38.4353 76.4941 38.3765C76.5044 38.3472 76.5114 38.3169 76.515 38.2861C76.515 38.2861 76.5025 38.3155 76.4836 38.3723L76.4019 38.6244C76.3306 38.8345 76.2238 39.1601 76.0834 39.5467C75.7195 40.5545 75.265 41.5271 74.7255 42.4524C74.1845 43.3775 73.529 44.2302 72.7746 44.9904C72.4854 45.2803 72.236 45.5009 72.06 45.6501L71.8505 45.8181C71.8278 45.8359 71.8068 45.8556 71.7876 45.877Z" fill="#263238"/>
<path d="M71.4901 43.068C71.5035 43.0114 71.5119 42.9538 71.5153 42.8957C71.5278 42.7739 71.5446 42.6163 71.5635 42.4251C71.6075 42.0301 71.6745 41.4839 71.773 40.883C71.8715 40.2821 71.9826 39.7421 72.0601 39.3535L72.1586 38.8913C72.1737 38.8356 72.1835 38.7786 72.1879 38.7211C72.1674 38.7754 72.1499 38.8308 72.1355 38.887C72.1062 38.9942 72.0664 39.1497 72.0182 39.3451C71.926 39.7316 71.8086 40.2716 71.7164 40.8746C71.6242 41.4776 71.5593 42.0238 71.5257 42.4209C71.509 42.6205 71.4985 42.7823 71.4943 42.8936C71.487 42.9515 71.4856 43.0099 71.4901 43.068Z" fill="#263238"/>
<path d="M70.8531 38.3156C70.8405 38.3391 70.83 38.3637 70.8217 38.3891L70.7399 38.5992C70.7043 38.6937 70.6624 38.8093 70.6226 38.9479C70.5828 39.0866 70.5304 39.24 70.4906 39.4165C70.4696 39.5047 70.4466 39.5972 70.4235 39.6917C70.4005 39.7862 70.3858 39.8892 70.3648 39.9942C70.3187 40.2043 70.2915 40.427 70.2601 40.6623C70.2002 41.1776 70.1785 41.6965 70.1951 42.215C70.2155 42.7339 70.273 43.2506 70.3669 43.7613C70.4172 43.9945 70.4612 44.2172 70.5199 44.421C70.5492 44.524 70.5723 44.6311 70.6016 44.7172L70.6875 44.9883C70.7399 45.1605 70.8028 45.3118 70.8531 45.4463C70.9034 45.5807 70.9516 45.6942 70.9956 45.7845L71.092 45.9946C71.1022 46.0196 71.1149 46.0435 71.1297 46.0661C71.1297 46.0661 71.1297 46.0388 71.1025 45.9883C71.0752 45.9379 71.0522 45.8623 71.0144 45.7782C70.9767 45.6942 70.9306 45.5681 70.8845 45.4358C70.8384 45.3034 70.7756 45.15 70.7274 44.9778L70.6435 44.7067C70.6163 44.6143 70.5932 44.5134 70.566 44.4105C70.5094 44.2004 70.4675 43.9903 70.4193 43.7529C70.3294 43.2452 70.2727 42.7322 70.2496 42.2171C70.2348 41.7015 70.2551 41.1856 70.3104 40.6729C70.3418 40.4375 70.3669 40.2127 70.4088 40.0068C70.4298 39.9018 70.4445 39.7967 70.4654 39.7064C70.4864 39.6161 70.5094 39.5173 70.5283 39.4312C70.566 39.2547 70.6142 39.0992 70.6519 38.9606C70.6896 38.8219 70.7274 38.7063 70.7588 38.6097L70.83 38.3891C70.8407 38.3656 70.8484 38.3409 70.8531 38.3156Z" fill="#263238"/>
<path d="M66.7837 36.7734C66.7837 36.7734 66.7837 36.7734 66.7837 36.8007V36.8764C66.7963 36.9436 66.8109 37.0424 66.8382 37.1684C66.8906 37.4205 66.9786 37.7819 67.1148 38.2189C67.251 38.6559 67.4354 39.1728 67.6554 39.74C67.8754 40.3073 68.129 40.925 68.37 41.5826C68.611 42.2402 68.8038 42.8789 68.9819 43.4609C69.16 44.0428 69.3234 44.5639 69.4848 44.9967C69.6061 45.3375 69.746 45.6713 69.9039 45.9967C69.9584 46.1123 70.0087 46.2068 70.0422 46.2594L70.0799 46.3266C70.0839 46.3342 70.0889 46.3412 70.0946 46.3476C70.0919 46.3389 70.0884 46.3304 70.0841 46.3224L70.0527 46.2531C70.0233 46.1921 69.9772 46.1039 69.9249 45.9883C69.7679 45.6604 69.628 45.3245 69.5058 44.982C69.3486 44.5492 69.1872 44.0281 69.0133 43.4462C68.8394 42.8642 68.6508 42.2213 68.4056 41.5553C68.1604 40.8893 67.9069 40.28 67.6869 39.7148C67.4668 39.1496 67.2678 38.637 67.1336 38.2C66.9995 37.763 66.901 37.4016 66.8403 37.1495C66.8109 37.0256 66.7921 36.9268 66.7774 36.8617L66.7585 36.786L66.7837 36.7734Z" fill="#263238"/>
<path d="M75.1636 35.4813C75.2013 35.4457 75.2496 35.4236 75.301 35.4184C75.3525 35.4132 75.4042 35.4252 75.4482 35.4525C75.4922 35.4798 75.5259 35.5209 75.5442 35.5695C75.5624 35.618 75.5642 35.6712 75.5492 35.7208C75.4546 36.0214 75.3405 36.3155 75.2076 36.6011C74.8325 37.3974 73.7408 40.2526 73.2211 41.8221C72.7014 43.3915 71.9848 46.3161 71.9848 46.3161L70.8867 46.1375C70.8867 46.1375 71.8905 41.3304 72.8712 39.5971C73.6591 38.2042 74.447 36.1977 75.1636 35.4813Z" fill="#455A64"/>
<path d="M72.9216 42.8032C72.8979 42.8444 72.8789 42.8881 72.865 42.9335C72.8335 43.0196 72.7895 43.1436 72.7392 43.3033C72.6387 43.6163 72.515 44.0554 72.3893 44.5428C72.2636 45.0303 72.1609 45.4715 72.0896 45.7929C72.0561 45.9463 72.0289 46.0724 72.0079 46.1753C71.9949 46.2212 71.9872 46.2684 71.9849 46.3161C72.0047 46.2724 72.0194 46.2266 72.0289 46.1795C72.0561 46.0808 72.0896 45.9526 72.1295 45.8034L72.4459 44.5575C72.5695 44.0701 72.6869 43.631 72.7791 43.3159C72.821 43.1667 72.8587 43.0406 72.8859 42.9419C72.9032 42.8972 72.9151 42.8507 72.9216 42.8032Z" fill="#263238"/>
<path d="M71.4336 46.2277V46.1983L71.4462 46.1122C71.4567 46.0344 71.4672 45.9231 71.4902 45.7781C71.53 45.4882 71.6034 45.0722 71.7207 44.5658C71.8606 43.9709 72.032 43.3839 72.2341 42.8073C72.4583 42.156 72.7412 41.4522 73.0618 40.7231C73.7072 39.2672 74.3506 37.9772 74.7739 37.0212C74.9834 36.5464 75.1552 36.1577 75.2642 35.8867C75.3187 35.7501 75.3585 35.6451 75.3878 35.5736C75.4004 35.54 75.4088 35.5127 75.4172 35.4917C75.4256 35.4707 75.4277 35.4623 75.4172 35.4623L75.4046 35.4896C75.3941 35.5106 75.3837 35.5358 75.369 35.5694C75.3355 35.643 75.2915 35.7459 75.2349 35.8762C75.1196 36.1451 74.9478 36.5317 74.7299 37.0044C74.2961 37.954 73.6465 39.2419 72.999 40.7C72.6784 41.4291 72.3976 42.135 72.1754 42.7905C71.9743 43.3687 71.8064 43.9579 71.6725 44.5553C71.5823 44.9584 71.5123 45.3658 71.463 45.776C71.4441 45.9189 71.4378 46.0344 71.4294 46.1101V46.1962C71.4308 46.2172 71.4322 46.2277 71.4336 46.2277Z" fill="#263238"/>
<path d="M70.8867 46.1375C70.9044 46.077 70.917 46.0152 70.9244 45.9526C70.9454 45.8245 70.9747 45.6543 71.0104 45.4484C71.0858 45.0282 71.201 44.4336 71.3666 43.7949C71.5321 43.1562 71.7165 42.5869 71.859 42.1793C71.9282 41.9818 71.9869 41.82 72.0309 41.696C72.0545 41.6381 72.0734 41.5784 72.0874 41.5175C72.0575 41.5722 72.0315 41.6291 72.0099 41.6876C71.9617 41.799 71.8947 41.9608 71.8192 42.1646C71.6223 42.6941 71.4523 43.2333 71.31 43.7802C71.1445 44.4105 71.0355 45.0114 70.9684 45.44C70.937 45.6501 70.914 45.8287 70.9014 45.9505C70.8917 46.0124 70.8868 46.0749 70.8867 46.1375Z" fill="#263238"/>
<path d="M68.6359 51.2114H72.917V45.98H68.6359V51.2114Z" fill="#AAAAAA"/>
<g opacity="0.3">
<path d="M68.6361 51.2114H72.9172V45.98H68.6361V51.2114Z" fill="black"/>
</g>
<path d="M70.0002 51.2114H73.7993V45.98H70.0002V51.2114Z" fill="#AAAAAA"/>
<path d="M34.4408 2.89561L26.4917 5.44678L28.207 10.8194L36.1561 8.2682L34.4408 2.89561Z" fill="#AAAAAA"/>
<path d="M34.488 2.94751C34.4734 2.98124 34.4559 3.01359 34.4356 3.04415C34.3958 3.11139 34.3434 3.19963 34.2763 3.30888L33.6791 4.27953L31.6779 7.47092L31.6611 7.49613H31.6318L31.5627 7.46882L28.0003 6.09898L26.9253 5.67879L26.634 5.56113C26.5992 5.54878 26.5655 5.53331 26.5334 5.51491C26.5693 5.52202 26.6044 5.53257 26.6382 5.54642L26.9358 5.65147L28.0192 6.05276L31.5815 7.40369L31.6528 7.4289L31.6067 7.44571L33.6288 4.26482C33.8866 3.86564 34.0961 3.53999 34.247 3.30888L34.4167 3.05046C34.4373 3.01404 34.4612 2.97959 34.488 2.94751Z" fill="#263238"/>
<path d="M28.2473 10.8726C28.2284 10.8726 28.5909 9.93558 29.0561 8.79895C29.5214 7.66232 29.9174 6.74629 29.9363 6.7547C29.9551 6.7631 29.5947 7.69173 29.1274 8.82836C28.6601 9.965 28.2724 10.881 28.2473 10.8726Z" fill="#263238"/>
<path d="M32.5641 5.83864C32.5767 5.82183 33.4023 6.36388 34.404 7.0488C35.4056 7.73372 36.2145 8.30939 36.2019 8.30939C36.1893 8.30939 35.3637 7.78625 34.362 7.10133C33.3604 6.41641 32.5515 5.85755 32.5641 5.83864Z" fill="#263238"/>
<path d="M69.5622 14.5429L63.6466 12.0364C63.4533 11.9515 63.301 11.7937 63.2226 11.5972C63.1442 11.4007 63.146 11.1812 63.2275 10.986L66.6976 2.77532C66.782 2.58112 66.9393 2.42809 67.1354 2.34942C67.3316 2.27076 67.5507 2.27281 67.7454 2.35512L71.4984 3.94766L73.1329 8.18324L70.6183 14.1353C70.5313 14.329 70.3715 14.4804 70.1738 14.5567C69.9761 14.633 69.7563 14.6281 69.5622 14.5429Z" fill="#AAAAAA"/>
<path d="M71.4963 3.92664L70.5198 6.23772C70.4812 6.32832 70.4608 6.42568 70.4598 6.52421C70.4588 6.62275 70.4772 6.72051 70.514 6.81188C70.5508 6.90324 70.6052 6.98642 70.6742 7.05663C70.7432 7.12683 70.8253 7.18269 70.9159 7.22097L73.1308 8.16221L71.4963 3.92664Z" fill="#AAAAAA"/>
<g opacity="0.2">
<path d="M70.4632 6.4541C70.3922 6.62983 70.3825 6.82449 70.4358 7.00643C70.489 7.18837 70.6021 7.3469 70.7566 7.45627C70.7774 7.47355 70.7991 7.48968 70.8216 7.50459C71.0898 7.67897 72.85 8.82821 72.8689 8.78409L73.1308 8.15379L70.9159 7.21256C70.9159 7.21256 70.3668 6.96674 70.4632 6.4541Z" fill="black"/>
</g>
<g opacity="0.3">
<path d="M71.4963 3.92664L70.5198 6.23772C70.4812 6.32832 70.4608 6.42568 70.4598 6.52421C70.4588 6.62275 70.4772 6.72051 70.514 6.81188C70.5508 6.90324 70.6052 6.98642 70.6742 7.05663C70.7432 7.12683 70.8253 7.18269 70.9159 7.22097L73.1308 8.16221L71.4963 3.92664Z" fill="#AAAAAA"/>
</g>
<path d="M70.063 5.94365C69.5862 5.80449 69.121 5.62817 68.6716 5.41631C68.2073 5.24055 67.7569 5.02985 67.3242 4.78601C67.8021 4.92383 68.2682 5.10018 68.7177 5.31336C69.1819 5.48778 69.6318 5.69852 70.063 5.94365Z" fill="#FAFAFA"/>
<path d="M71.2784 7.98992C71.2658 8.01934 70.2474 7.61595 69.0027 7.0865C67.7579 6.55706 66.7605 6.10744 66.7731 6.07593C66.7856 6.04442 67.8041 6.45201 69.0488 6.97935C70.2935 7.5067 71.291 7.96051 71.2784 7.98992Z" fill="#FAFAFA"/>
<path d="M71.224 9.25474C71.2114 9.28416 70.1008 8.83455 68.745 8.26518C67.3892 7.69581 66.2995 7.20419 66.3121 7.16847C66.3247 7.13275 67.4332 7.58866 68.7911 8.15803C70.149 8.7274 71.2365 9.22323 71.224 9.25474Z" fill="#FAFAFA"/>
<path d="M70.786 10.2842C70.7734 10.3136 69.6649 9.86398 68.3091 9.29461C66.9533 8.72524 65.8636 8.22731 65.8741 8.1979C65.8846 8.16848 66.9973 8.61809 68.3531 9.18746C69.7089 9.75683 70.8006 10.2527 70.786 10.2842Z" fill="#FAFAFA"/>
<path d="M70.3543 11.3115C70.3418 11.343 69.2312 10.8913 67.8754 10.324C66.5196 9.75676 65.4299 9.25673 65.4425 9.22732C65.4551 9.1979 66.5636 9.64751 67.9215 10.2169C69.2794 10.7862 70.3669 11.2821 70.3543 11.3115Z" fill="#FAFAFA"/>
<path d="M69.9183 12.341C69.9057 12.3725 68.7951 11.9208 67.4393 11.3536C66.0835 10.7863 64.9939 10.2863 65.0065 10.2569C65.019 10.2274 66.1296 10.6771 67.4854 11.2443C68.8412 11.8116 69.9309 12.3116 69.9183 12.341Z" fill="#FAFAFA"/>
<path d="M49.6675 16.2844C53.9901 16.2844 57.4942 12.7711 57.4942 8.43725C57.4942 4.10338 53.9901 0.590088 49.6675 0.590088C45.345 0.590088 41.8408 4.10338 41.8408 8.43725C41.8408 12.7711 45.345 16.2844 49.6675 16.2844Z" fill="#AAAAAA"/>
<path d="M57.4943 8.43743C57.4943 8.43743 57.4943 8.39541 57.4818 8.31137C57.4692 8.22733 57.4671 8.10127 57.4566 7.93739C57.4566 7.85546 57.4461 7.76511 57.4399 7.66427C57.4336 7.56342 57.4084 7.45417 57.3917 7.33651C57.3566 7.06331 57.3019 6.79299 57.2282 6.52764C57.0454 5.79372 56.7529 5.09175 56.3607 4.44556C55.7924 3.49629 55.0301 2.67842 54.1239 2.04579C53.2177 1.41317 52.1882 0.980118 51.1031 0.77515C50.7785 0.714647 50.4501 0.676738 50.1203 0.661696C49.9526 0.661696 49.7829 0.638585 49.6132 0.640686L49.0977 0.667999C49.0117 0.667999 48.9237 0.667999 48.8378 0.684807L48.578 0.724726C48.4061 0.754139 48.2301 0.775149 48.0562 0.810866C47.3428 0.971526 46.6532 1.22436 46.0047 1.56302C45.8413 1.65126 45.6841 1.75631 45.5206 1.85295C45.441 1.90338 45.3572 1.9475 45.2797 2.00422L45.0512 2.1765C44.4168 2.63847 43.8619 3.20124 43.4084 3.84258L43.2303 4.08209L43.0731 4.33841L42.9159 4.58633C42.8605 4.67078 42.8115 4.75927 42.7692 4.85105C42.6833 5.03384 42.5953 5.21662 42.5052 5.40151L42.2957 5.97718C42.0399 6.77256 41.9043 7.60182 41.8933 8.43743C41.9043 9.27235 42.04 10.1009 42.2957 10.8956C42.3648 11.0889 42.4361 11.2822 42.5052 11.4733C42.5744 11.6645 42.6812 11.841 42.7692 12.0217C42.811 12.1144 42.86 12.2036 42.9159 12.2885L43.0731 12.5469L43.2282 12.8033L43.4084 13.0428C43.6408 13.3612 43.895 13.663 44.169 13.9462C44.4462 14.2162 44.7409 14.4675 45.0512 14.6984L45.2797 14.8706C45.3572 14.9274 45.441 14.9715 45.5206 15.0219C45.6841 15.1185 45.8413 15.232 46.0047 15.3118C46.6532 15.6505 47.3428 15.9033 48.0562 16.064C48.2301 16.1018 48.4061 16.1207 48.5801 16.1501L48.8378 16.19C48.9258 16.19 49.0117 16.19 49.0977 16.2069L49.6215 16.2384C49.7913 16.2384 49.961 16.2237 50.1287 16.2195C50.4585 16.2037 50.7869 16.1651 51.1114 16.1039C52.1969 15.8997 53.2267 15.467 54.133 14.8343C55.0393 14.2016 55.8014 13.3833 56.3691 12.4335C56.758 11.7881 57.0476 11.0876 57.2282 10.3556C57.3019 10.0903 57.3566 9.81995 57.3917 9.54675C57.4084 9.42909 57.4294 9.31984 57.4399 9.21899C57.4503 9.11814 57.4524 9.0278 57.4566 8.94587C57.4678 8.78339 57.4762 8.65943 57.4818 8.57399C57.4818 8.48995 57.4943 8.44583 57.4943 8.44583C57.4943 8.44583 57.4943 8.48995 57.4943 8.57399C57.4943 8.65803 57.4943 8.78409 57.4818 8.94587C57.4818 9.0299 57.4818 9.12025 57.4692 9.2232C57.4566 9.32614 57.4419 9.43329 57.4252 9.55095C57.3929 9.82257 57.3411 10.0915 57.2701 10.3556C57.0926 11.0955 56.8035 11.804 56.4131 12.4566C55.8453 13.4195 55.0797 14.2502 54.167 14.8935C53.2544 15.5369 52.2157 15.9781 51.1198 16.1879C50.7918 16.2497 50.4599 16.289 50.1266 16.3056C49.9568 16.3056 49.785 16.3287 49.6132 16.3266L49.0914 16.3014C49.0034 16.3014 48.9154 16.3014 48.8273 16.2846L48.5738 16.2384C48.3978 16.209 48.2196 16.19 48.0436 16.1522C47.6878 16.0741 47.3377 15.9716 46.9959 15.8455C46.6431 15.7193 46.2993 15.5691 45.967 15.3959C45.8014 15.3055 45.6401 15.2005 45.4766 15.1017C45.3949 15.0492 45.309 15.0051 45.2315 14.9484L45.001 14.774C44.6865 14.5403 44.3876 14.2863 44.1062 14.0134C43.8279 13.7261 43.5696 13.42 43.3329 13.0974L43.1506 12.8558L42.9914 12.5953L42.8342 12.3326C42.7773 12.2473 42.7275 12.1573 42.6854 12.0637C42.5974 11.8788 42.5073 11.6939 42.4193 11.507L42.2098 10.9208C41.9514 10.1151 41.8144 9.27526 41.8032 8.42902C41.8097 7.5856 41.9417 6.74786 42.1951 5.94356L42.4046 5.35949L42.6729 4.80063C42.7147 4.7073 42.7637 4.61739 42.8195 4.5317L42.9788 4.27118L43.136 4.01066L43.3183 3.76695C43.5555 3.4454 43.8138 3.14008 44.0915 2.85302C44.3729 2.5802 44.6718 2.32614 44.9863 2.09246L45.2168 1.91808C45.2943 1.86136 45.3802 1.81724 45.462 1.76471C45.6254 1.66807 45.7868 1.55461 45.9523 1.47268C46.6097 1.1311 47.3084 0.876172 48.0311 0.714221C48.2071 0.678504 48.3852 0.657494 48.5612 0.628081L48.8232 0.588162C48.9112 0.588162 48.9992 0.588162 49.0872 0.571354L49.609 0.546143C49.7808 0.546143 49.9505 0.560849 50.1203 0.567152C50.4543 0.584629 50.7867 0.623931 51.1156 0.684807C52.2115 0.89463 53.2502 1.33587 54.1629 1.97922C55.0755 2.62256 55.8411 3.45327 56.4089 4.41615C56.7994 5.06875 57.0884 5.77722 57.2659 6.51713C57.3367 6.78475 57.3878 7.05721 57.4189 7.33231C57.4357 7.45207 57.4545 7.56132 57.4629 7.66217L57.4755 7.93739C57.4755 8.09917 57.486 8.22313 57.4881 8.31137C57.4901 8.39961 57.4943 8.43743 57.4943 8.43743Z" fill="#263238"/>
<path d="M53.3786 8.21688C53.2762 8.25465 53.1712 8.28484 53.0643 8.30722L52.1905 8.51732C51.4508 8.6896 50.424 8.92281 49.2757 9.17492L49.2107 9.18963V8.88499C49.2107 7.65591 49.2107 6.54239 49.2254 5.73352C49.2254 5.34694 49.24 5.02549 49.2442 4.77967C49.2411 4.66303 49.2481 4.54633 49.2652 4.43091C49.2809 4.54647 49.2879 4.66305 49.2861 4.77967C49.2861 5.02549 49.2966 5.34694 49.3029 5.73352C49.3029 6.54029 49.3197 7.65381 49.3197 8.88499V9.11399L49.2526 9.05937C50.4009 8.80935 51.4298 8.58875 52.1737 8.42908L53.0538 8.25469C53.1607 8.23204 53.2694 8.21937 53.3786 8.21688Z" fill="#263238"/>
<path d="M58.0537 11.673C58.0612 11.6292 58.0731 11.5863 58.0893 11.5449C58.1123 11.4629 58.1605 11.3348 58.2024 11.1877C58.3373 10.7469 58.4395 10.2968 58.5084 9.84096C58.7479 8.3348 58.6046 6.79241 58.0918 5.3565C57.579 3.92059 56.7133 2.63755 55.5747 1.62613C55.2335 1.32019 54.8707 1.03933 54.4892 0.785734C54.3551 0.691189 54.244 0.62816 54.1749 0.575635C54.1366 0.553455 54.1001 0.528158 54.0659 0.5C54.1084 0.512711 54.1487 0.53184 54.1854 0.556727C54.2587 0.598746 54.374 0.655472 54.5123 0.745814C54.9061 0.988747 55.279 1.26423 55.6271 1.5694C56.7899 2.57815 57.6727 3.87134 58.1897 5.32331C58.7067 6.77527 58.8403 8.33663 58.5775 9.85567C58.5032 10.3109 58.3918 10.7592 58.2443 11.1961C58.1941 11.3516 58.1396 11.4692 58.1102 11.5491C58.0962 11.5924 58.0772 11.634 58.0537 11.673Z" fill="#263238"/>
<path d="M59.5541 7.8114C59.5373 7.8114 59.5268 7.49836 59.464 6.99832C59.38 6.34813 59.2326 5.70776 59.0239 5.08643C58.8132 4.46771 58.5416 3.87159 58.213 3.3069C57.9573 2.872 57.7729 2.61988 57.7939 2.60938C57.8503 2.6567 57.8997 2.71189 57.9405 2.77325C58.0265 2.8867 58.1501 3.05268 58.2842 3.26488C58.6408 3.82359 58.9292 4.42314 59.1434 5.05071C59.3591 5.67821 59.4998 6.32917 59.5625 6.98992C59.5855 7.24204 59.5918 7.44793 59.5918 7.5908C59.5908 7.66586 59.5781 7.74031 59.5541 7.8114Z" fill="#263238"/>
<path d="M41.8535 3.89307C41.841 3.93499 41.8234 3.97521 41.8011 4.01282C41.7634 4.09056 41.6984 4.19981 41.6314 4.34898C40.8423 5.92079 40.5239 7.68802 40.7146 9.4373C40.9054 11.1866 41.5972 12.8431 42.7064 14.2068C42.9951 14.5648 43.3088 14.9018 43.6452 15.2153C43.7625 15.3287 43.8547 15.4085 43.9239 15.4674C43.9575 15.4958 43.9891 15.5267 44.0182 15.5598C43.9788 15.5393 43.9422 15.5138 43.9092 15.4842C43.8421 15.4317 43.7395 15.356 43.6179 15.2468C43.2679 14.9435 42.9434 14.6118 42.6477 14.2551C41.6588 13.0741 40.9917 11.6565 40.7115 10.1404C40.4314 8.62416 40.5476 7.06106 41.0488 5.60326C41.1966 5.16414 41.381 4.73824 41.6 4.33007C41.6733 4.183 41.7445 4.07585 41.7865 4.00232C41.8057 3.9641 41.8282 3.92756 41.8535 3.89307Z" fill="#263238"/>
<path d="M39.7602 7.4668C39.779 7.4668 39.7392 7.77984 39.7225 8.28408C39.7002 8.93888 39.7445 9.59426 39.8545 10.2401C39.9667 10.8866 40.1436 11.5201 40.3826 12.131C40.5649 12.5995 40.7074 12.8789 40.6906 12.8873C40.6434 12.8304 40.604 12.7676 40.5732 12.7003C40.5041 12.5764 40.4119 12.3936 40.3113 12.1604C40.0482 11.555 39.8583 10.9202 39.7455 10.2695C39.6343 9.61608 39.6005 8.95176 39.6449 8.29038C39.6638 8.03616 39.6889 7.83237 39.712 7.6916C39.7179 7.61483 39.7341 7.53921 39.7602 7.4668Z" fill="#263238"/>
<path d="M56.1467 9.72506C55.8512 9.66429 55.6123 9.61191 55.6123 9.60981C55.6123 9.60771 55.8533 9.65382 56.1488 9.71458C56.4442 9.77535 56.6831 9.82565 56.681 9.82774C56.6789 9.82984 56.44 9.79421 56.1467 9.72506Z" fill="#263238"/>
<path d="M55.3883 11.7109C55.1285 11.5575 54.9189 11.4314 54.9189 11.4293C54.9189 11.4272 55.1285 11.5491 55.3925 11.7025C55.6566 11.8558 55.8619 11.9819 55.8598 11.984C55.8577 11.9861 55.6461 11.8643 55.3883 11.7109Z" fill="#263238"/>
<path d="M54.022 13.3328C53.825 13.1017 53.6678 12.9126 53.6699 12.9126C53.672 12.9126 53.8334 13.0954 54.0283 13.3328C54.2232 13.5702 54.3824 13.753 54.3782 13.753C54.374 13.753 54.2315 13.5618 54.022 13.3328Z" fill="#263238"/>
<path d="M52.2178 14.4253C52.1067 14.1438 52.0187 13.9148 52.0208 13.9148C52.0229 13.9148 52.1151 14.1396 52.2303 14.4211C52.3456 14.7027 52.4294 14.9296 52.4252 14.9317C52.421 14.9338 52.3288 14.7048 52.2178 14.4253Z" fill="#263238"/>
<path d="M50.1515 14.8686C50.1389 14.5661 50.1305 14.3224 50.1326 14.3224C50.1347 14.3224 50.1494 14.5661 50.162 14.8686C50.1746 15.1712 50.185 15.4149 50.1829 15.4149C50.1808 15.4149 50.1662 15.1712 50.1515 14.8686Z" fill="#263238"/>
<path d="M48.054 14.6143C48.1378 14.3244 48.207 14.0912 48.2112 14.0912C48.2154 14.0912 48.1483 14.3286 48.0645 14.6185C47.9807 14.9085 47.9094 15.1417 47.9052 15.1417C47.901 15.1417 47.9681 14.9043 48.054 14.6143Z" fill="#263238"/>
<path d="M46.1493 13.6942C46.3232 13.4463 46.4657 13.2488 46.4699 13.2509C46.4741 13.253 46.3316 13.461 46.1576 13.7005C45.9837 13.94 45.8496 14.1375 45.8496 14.1375C45.8496 14.1375 45.9753 13.94 46.1493 13.6942Z" fill="#263238"/>
<path d="M44.651 12.2025C44.8941 12.0239 45.0932 11.8832 45.0953 11.8853C45.0974 11.8874 44.9004 12.0323 44.6552 12.2109C44.41 12.3895 44.213 12.5282 44.211 12.5261C44.2089 12.524 44.4058 12.379 44.651 12.2025Z" fill="#263238"/>
<path d="M43.7121 10.3028C44.0012 10.2148 44.2359 10.1457 44.2359 10.1478C44.2359 10.1498 44.0033 10.2253 43.7142 10.3133C43.425 10.4013 43.1924 10.4684 43.1924 10.4663C43.1924 10.4642 43.425 10.3908 43.7121 10.3028Z" fill="#263238"/>
<path d="M43.4418 8.20219C43.7436 8.20219 43.9866 8.22315 43.9866 8.22734C43.9866 8.23153 43.7415 8.22734 43.4418 8.21267C43.1422 8.198 42.8949 8.18962 42.897 8.18753C42.8991 8.18543 43.1401 8.18962 43.4418 8.20219Z" fill="#263238"/>
<path d="M43.8651 6.12433C44.148 6.23358 44.3743 6.32182 44.3743 6.33443C44.3743 6.34703 44.1438 6.25039 43.8609 6.14324C43.578 6.03609 43.3538 5.94575 43.3538 5.94365C43.3538 5.94155 43.5843 6.01718 43.8651 6.12433Z" fill="#263238"/>
<path d="M44.9401 4.29859C45.1706 4.49398 45.3592 4.65365 45.3592 4.65575C45.3592 4.65785 45.1685 4.50238 44.9401 4.30699C44.7117 4.1116 44.521 3.95403 44.521 3.95193C44.521 3.94982 44.7075 4.1053 44.9401 4.29859Z" fill="#263238"/>
<path d="M46.5454 2.92456C46.7005 3.18298 46.8262 3.39308 46.8241 3.39518C46.822 3.39728 46.6921 3.18509 46.537 2.92877C46.382 2.67245 46.2562 2.46025 46.2583 2.45815C46.2604 2.45604 46.3903 2.66614 46.5454 2.92456Z" fill="#263238"/>
<path d="M48.5089 2.14292C48.5717 2.43915 48.622 2.67867 48.6199 2.67867C48.6178 2.67867 48.5633 2.44125 48.4984 2.14502C48.4334 1.84878 48.3852 1.61137 48.3894 1.60927C48.3936 1.60717 48.446 1.84878 48.5089 2.14292Z" fill="#263238"/>
<path d="M50.6188 2.04635C50.5832 2.34679 50.5518 2.5884 50.5497 2.5884C50.5476 2.5884 50.5727 2.34469 50.6105 2.04425C50.6482 1.74381 50.6775 1.5022 50.6796 1.5022C50.6817 1.5022 50.6566 1.74171 50.6188 2.04635Z" fill="#263238"/>
<path d="M52.6495 2.64087C52.5195 2.91189 52.4106 3.1325 52.4085 3.1304C52.4064 3.12829 52.5091 2.90769 52.639 2.63456C52.7689 2.36144 52.8779 2.14293 52.8821 2.14503C52.8863 2.14714 52.7794 2.37194 52.6495 2.64087Z" fill="#263238"/>
<path d="M54.374 3.86361C54.1645 4.0737 53.9884 4.25019 53.9863 4.24809C53.9843 4.24598 54.1561 4.0695 54.3677 3.8552C54.5794 3.6409 54.7533 3.46862 54.7554 3.47072C54.7575 3.47282 54.5878 3.64931 54.374 3.86361Z" fill="#263238"/>
<path d="M55.6105 5.58022C55.3401 5.71468 55.1201 5.82183 55.1201 5.81973C55.1201 5.81763 55.3297 5.70628 55.6063 5.57182C55.8829 5.43735 56.0966 5.3302 56.0966 5.33231C56.0966 5.33441 55.8808 5.44576 55.6105 5.58022Z" fill="#263238"/>
<path d="M56.2263 7.60742L55.6836 7.67238C55.6836 7.67238 55.9246 7.63466 56.2242 7.59694C56.5239 7.55922 56.7649 7.52779 56.7649 7.52988C56.7649 7.53198 56.5239 7.5676 56.2263 7.60742Z" fill="#263238"/>
<path d="M60.0989 6.88281C59.9826 7.23757 59.8325 7.58022 59.6504 7.90599L59.6379 7.9291L59.596 8.01524L59.5436 7.9354C59.3328 7.64035 59.1517 7.32506 59.0029 6.99416C59.2446 7.2653 59.4594 7.55943 59.6442 7.87237H59.5499L59.5624 7.84716C59.7097 7.50906 59.8894 7.1861 60.0989 6.88281Z" fill="#263238"/>
<path d="M63.6614 24.6255H39.033C38.4544 24.6255 37.8996 24.8559 37.4905 25.2661C37.0814 25.6762 36.8516 26.2325 36.8516 26.8126C36.8516 27.3927 37.0814 27.949 37.4905 28.3591C37.8996 28.7693 38.4544 28.9997 39.033 28.9997H50.5582L53.1378 31.4642V28.9997H63.6614C63.9479 28.9997 64.2315 28.9432 64.4962 28.8332C64.7609 28.7233 65.0013 28.5622 65.2039 28.3591C65.4065 28.156 65.5671 27.9149 65.6768 27.6496C65.7864 27.3842 65.8428 27.0998 65.8428 26.8126C65.8428 26.5254 65.7864 26.241 65.6768 25.9756C65.5671 25.7103 65.4065 25.4692 65.2039 25.2661C65.0013 25.063 64.7609 24.9019 64.4962 24.792C64.2315 24.6821 63.9479 24.6255 63.6614 24.6255Z" fill="#FAFAFA"/>
<path d="M63.6614 24.6256H63.741C63.821 24.6264 63.9008 24.6327 63.9799 24.6445C64.2911 24.6863 64.5894 24.796 64.8537 24.9659C65.1066 25.1273 65.3238 25.3389 65.492 25.5877C65.6602 25.8364 65.7758 26.117 65.8317 26.4122C65.8877 26.7075 65.8828 27.0111 65.8173 27.3043C65.7518 27.5976 65.6271 27.8743 65.451 28.1174C65.2128 28.4498 64.888 28.71 64.5122 28.8696C64.3107 28.9513 64.0993 29.0057 63.8835 29.0313C63.6593 29.0481 63.4372 29.0418 63.2067 29.0439H60.2394H53.1336L53.1818 28.9956C53.1818 29.7688 53.1818 30.605 53.1818 31.4601V31.5756L53.098 31.4958L50.5163 29.0313L50.5519 29.046H40.7576H39.0476C38.4768 29.052 37.9254 28.8386 37.5065 28.4497C37.0877 28.0609 36.8332 27.526 36.7954 26.9549C36.7576 26.3838 36.9393 25.8198 37.3032 25.3789C37.6671 24.9379 38.1856 24.6533 38.7522 24.5836C39.0246 24.5541 39.2865 24.5688 39.5506 24.5646H43.3853L53.9383 24.5773L61.063 24.5941L62.9971 24.6046H63.5C63.6132 24.6046 63.6719 24.6046 63.6719 24.6046H63.5H62.9971L61.063 24.6151L53.9383 24.634H43.3853H39.5506C39.2886 24.634 39.0204 24.634 38.7668 24.6529C38.2419 24.7183 37.7605 24.9784 37.4173 25.3819C37.153 25.6929 36.9833 26.0734 36.9282 26.4782C36.8732 26.883 36.9352 27.2952 37.1068 27.6657C37.2785 28.0363 37.5526 28.3496 37.8966 28.5686C38.2407 28.7876 38.6401 28.903 39.0476 28.9011H40.7576H50.5519H50.5729L50.5876 28.9137L53.1671 31.3802L53.0833 31.4159C53.0833 30.5608 53.0833 29.7247 53.0833 28.9515V28.9053H53.1294H60.2352H63.2025C63.4309 28.9053 63.6572 28.9053 63.873 28.9053C64.0836 28.8818 64.2901 28.8302 64.487 28.7519C64.9214 28.5686 65.2843 28.2481 65.5205 27.8392C65.7567 27.4303 65.8533 26.9552 65.7957 26.4862C65.7381 26.0172 65.5294 25.5799 65.2013 25.2407C64.8732 24.9014 64.4436 24.6788 63.9778 24.6067C63.7704 24.6277 63.6614 24.6424 63.6614 24.6256Z" fill="#263238"/>
<path d="M49.8039 28.3589H39.0184C38.8158 28.3592 38.6151 28.3194 38.4278 28.2418C38.2406 28.1642 38.0705 28.0503 37.9272 27.9066C37.7839 27.763 37.6703 27.5924 37.5929 27.4047C37.5155 27.2169 37.4758 27.0157 37.4761 26.8126C37.4772 26.4034 37.6402 26.0114 37.9294 25.7226C38.2186 25.4339 38.6102 25.272 39.0184 25.2726H49.8039C50.0063 25.2723 50.2069 25.312 50.394 25.3895C50.5811 25.467 50.7511 25.5807 50.8943 25.7241C51.0376 25.8676 51.1512 26.0379 51.2288 26.2254C51.3063 26.4129 51.3462 26.6138 51.3462 26.8168C51.3459 27.0196 51.3058 27.2203 51.2282 27.4076C51.1505 27.5948 51.0368 27.7649 50.8936 27.9081C50.7504 28.0513 50.5804 28.1648 50.3935 28.2422C50.2065 28.3195 50.0062 28.3592 49.8039 28.3589Z" fill="#AAAAAA"/>
<path d="M50.7072 22.371L50.3426 23.4887H50.066L49.8208 22.7323L49.5672 23.4887H49.2927L48.926 22.371H49.2026L49.4541 23.1567L49.716 22.371H49.9549L50.2106 23.163L50.4683 22.371H50.7072Z" fill="#263238"/>
<path d="M50.7678 22.93C50.7611 22.8079 50.791 22.6866 50.8538 22.5817C50.9166 22.4768 51.0094 22.3933 51.12 22.3418C51.2307 22.2903 51.3542 22.2733 51.4746 22.293C51.595 22.3126 51.7068 22.3681 51.7955 22.4521C51.8841 22.5361 51.9456 22.6448 51.972 22.7642C51.9984 22.8837 51.9884 23.0083 51.9434 23.122C51.8984 23.2356 51.8204 23.3332 51.7196 23.402C51.6187 23.4708 51.4996 23.5076 51.3776 23.5078C51.2991 23.5124 51.2206 23.5008 51.1467 23.4739C51.0729 23.4469 51.0053 23.4051 50.9482 23.3509C50.8911 23.2968 50.8456 23.2316 50.8146 23.1592C50.7836 23.0868 50.7676 23.0088 50.7678 22.93ZM51.7254 22.93C51.7238 22.8614 51.702 22.7949 51.6628 22.7386C51.6235 22.6824 51.5687 22.639 51.505 22.6139C51.4413 22.5888 51.3716 22.583 51.3047 22.5974C51.2378 22.6118 51.1766 22.6457 51.1288 22.6948C51.081 22.7439 51.0487 22.806 51.0359 22.8734C51.0231 22.9408 51.0305 23.0105 51.0571 23.0738C51.0836 23.137 51.1282 23.191 51.1852 23.229C51.2422 23.2669 51.3091 23.2872 51.3776 23.2872C51.4236 23.2873 51.4691 23.2779 51.5115 23.2598C51.5538 23.2416 51.592 23.2151 51.6237 23.1816C51.6555 23.1482 51.6801 23.1087 51.6962 23.0655C51.7122 23.0222 51.7193 22.9761 51.717 22.93H51.7254Z" fill="#263238"/>
<path d="M52.8926 23.4887L52.683 23.1777H52.4462V23.4887H52.1885V22.371H52.6704C52.968 22.371 53.1545 22.5264 53.1545 22.7765C53.1578 22.8521 53.1373 22.9268 53.096 22.9902C53.0546 23.0535 52.9945 23.1022 52.924 23.1294L53.1755 23.4887H52.8926ZM52.6495 22.5811H52.4399V22.9719H52.6495C52.8067 22.9719 52.8863 22.8983 52.8863 22.7765C52.8863 22.6546 52.8067 22.5811 52.6495 22.5811Z" fill="#263238"/>
<path d="M53.7581 23.0496L53.6072 23.2051V23.4887H53.3516V22.371H53.603V22.892L54.0976 22.371H54.3846L53.9215 22.8689L54.4119 23.4887H54.1101L53.7581 23.0496Z" fill="#263238"/>
<path d="M60.8365 27.2224H60.518L60.4405 27.6258H60.2142L60.2959 27.2224H59.3906L59.42 27.0606L60.4551 25.9912H60.7276L59.7364 27.0228H60.3504L60.4216 26.6677H60.6312L60.5599 27.0228H60.87L60.8365 27.2224Z" fill="#263238"/>
<path d="M61.5073 26.195L61.3731 26.6425H61.5303C61.9494 26.6425 62.1359 26.8148 62.1359 27.0795C62.1359 27.4177 61.8593 27.6425 61.4423 27.6425C61.338 27.6486 61.2336 27.6331 61.1355 27.597C61.0374 27.5608 60.9478 27.5048 60.8723 27.4324L60.9959 27.2518C61.0563 27.3124 61.1288 27.3596 61.2086 27.3904C61.2883 27.4212 61.3737 27.4348 61.4591 27.4303C61.7398 27.4303 61.9033 27.3064 61.9033 27.0984C61.9033 26.9366 61.788 26.84 61.4842 26.84H61.0902L61.3438 25.9849H62.2616L62.2239 26.195H61.5073Z" fill="#263238"/>
<path d="M62.4041 26.5122C62.3972 26.4475 62.4034 26.3821 62.4223 26.3199C62.4411 26.2577 62.4724 26.2 62.514 26.1501C62.5557 26.1003 62.607 26.0594 62.6648 26.0299C62.7226 26.0004 62.7858 25.983 62.8505 25.9785C62.8963 25.9767 62.9419 25.9848 62.9843 26.0024C63.0266 26.02 63.0646 26.0466 63.0957 26.0803C63.1268 26.1141 63.1502 26.1542 63.1643 26.198C63.1784 26.2417 63.1829 26.288 63.1774 26.3336C63.1846 26.3981 63.1787 26.4635 63.1601 26.5257C63.1414 26.5879 63.1104 26.6457 63.0689 26.6955C63.0274 26.7454 62.9762 26.7863 62.9185 26.8158C62.8608 26.8453 62.7977 26.8628 62.7331 26.8672C62.6872 26.8691 62.6415 26.8609 62.5991 26.8433C62.5566 26.8258 62.5185 26.7992 62.4873 26.7655C62.456 26.7318 62.4324 26.6917 62.418 26.648C62.4037 26.6042 62.3989 26.5579 62.4041 26.5122ZM63.85 25.9911H64.0365L62.6137 27.6257H62.423L63.85 25.9911ZM63.0328 26.3462C63.0328 26.1907 62.9615 26.1109 62.8442 26.1109C62.6556 26.1109 62.5634 26.321 62.5634 26.4996C62.5634 26.6782 62.6346 26.7349 62.752 26.7349C62.9385 26.7433 63.0328 26.5332 63.0328 26.3462ZM63.2905 27.2832C63.2833 27.2186 63.2893 27.1532 63.308 27.091C63.3268 27.0288 63.3581 26.9711 63.3998 26.9214C63.4416 26.8716 63.493 26.8309 63.5509 26.8018C63.6089 26.7726 63.6721 26.7556 63.7369 26.7517C63.7826 26.7498 63.8282 26.7579 63.8704 26.7755C63.9127 26.7931 63.9506 26.8197 63.9816 26.8536C64.0125 26.8874 64.0357 26.9275 64.0495 26.9713C64.0634 27.015 64.0675 27.0612 64.0617 27.1068C64.0689 27.1712 64.063 27.2364 64.0443 27.2985C64.0257 27.3606 63.9946 27.4182 63.9531 27.4679C63.9115 27.5176 63.8604 27.5583 63.8027 27.5876C63.745 27.6169 63.682 27.6342 63.6174 27.6383C63.5713 27.6408 63.5253 27.6332 63.4825 27.6159C63.4397 27.5986 63.4013 27.572 63.3699 27.5381C63.3385 27.5042 63.3149 27.4638 63.3008 27.4198C63.2867 27.3757 63.2825 27.3291 63.2884 27.2832H63.2905ZM63.9192 27.1173C63.9192 26.9639 63.8458 26.882 63.7306 26.882C63.5441 26.882 63.4477 27.0921 63.4477 27.2727C63.4477 27.4534 63.5231 27.508 63.6363 27.508C63.8144 27.508 63.9087 27.2958 63.9087 27.1173H63.9192Z" fill="#263238"/>
<g opacity="0.3">
<path d="M39.4353 25.2684L38.4358 28.359H39.4353L40.3741 25.2684H39.4353Z" fill="#AAAAAA"/>
</g>
<g opacity="0.3">
<path d="M41.9039 25.2684L40.9043 28.359H41.9039L42.8426 25.2684H41.9039Z" fill="#AAAAAA"/>
</g>
<g opacity="0.3">
<path d="M44.3703 25.2684L43.3728 28.359H44.3703L45.3111 25.2684H44.3703Z" fill="#AAAAAA"/>
</g>
<g opacity="0.3">
<path d="M46.8388 25.2684L45.8413 28.359H46.8388L47.7796 25.2684H46.8388Z" fill="#AAAAAA"/>
</g>
<g opacity="0.3">
<path d="M49.3072 25.2684L48.3076 28.359H49.3072L50.2481 25.2684H49.3072Z" fill="#AAAAAA"/>
</g>
<path d="M11.9023 69.0109C11.9023 69.0109 17.2103 71.4082 22.7382 71.4082C27.8554 71.4082 33.2723 68.826 33.2723 68.826L11.9023 69.0109Z" fill="#E0E0E0"/>
<path d="M23.3145 69.0571H21.1226V92.0776H23.3145V69.0571Z" fill="#E0E0E0"/>
<path d="M31.9439 90.7267H12.4893V92.0755H31.9439V90.7267Z" fill="#E0E0E0"/>
<path d="M14.8694 92.5188C14.8702 92.8137 14.7837 93.1022 14.6209 93.3478C14.458 93.5933 14.2262 93.7849 13.9546 93.8982C13.6831 94.0116 13.3841 94.0415 13.0956 93.9844C12.8071 93.9272 12.542 93.7855 12.3338 93.5771C12.1257 93.3687 11.984 93.1031 11.9265 92.8139C11.8691 92.5247 11.8986 92.2249 12.0112 91.9525C12.1239 91.6801 12.3146 91.4474 12.5593 91.2838C12.804 91.1201 13.0916 91.033 13.3857 91.0334C13.7787 91.034 14.1554 91.1906 14.4335 91.469C14.7115 91.7474 14.8683 92.1249 14.8694 92.5188Z" fill="#263238"/>
<path d="M23.5156 92.5188C23.5156 92.8134 23.4285 93.1014 23.2652 93.3463C23.102 93.5913 22.8699 93.7822 22.5985 93.895C22.327 94.0077 22.0283 94.0372 21.7401 93.9797C21.4519 93.9223 21.1871 93.7804 20.9793 93.5721C20.7716 93.3637 20.6301 93.0983 20.5727 92.8094C20.5154 92.5204 20.5448 92.2209 20.6573 91.9487C20.7697 91.6765 20.9602 91.4439 21.2045 91.2802C21.4488 91.1165 21.7361 91.0292 22.0299 91.0292C22.4239 91.0292 22.8018 91.1861 23.0805 91.4655C23.3591 91.7448 23.5156 92.1237 23.5156 92.5188Z" fill="#263238"/>
<path d="M33.53 92.5188C33.53 92.8134 33.4429 93.1014 33.2796 93.3463C33.1164 93.5913 32.8843 93.7822 32.6129 93.895C32.3414 94.0077 32.0427 94.0372 31.7545 93.9797C31.4663 93.9223 31.2015 93.7804 30.9937 93.5721C30.786 93.3637 30.6445 93.0983 30.5871 92.8094C30.5298 92.5204 30.5592 92.2209 30.6717 91.9487C30.7841 91.6765 30.9746 91.4439 31.2189 91.2802C31.4632 91.1165 31.7505 91.0292 32.0443 91.0292C32.4383 91.0292 32.8162 91.1861 33.0949 91.4655C33.3735 91.7448 33.53 92.1237 33.53 92.5188Z" fill="#263238"/>
<path d="M22.736 77.3413H19.7542V78.5788H22.736V77.3413Z" fill="#E0E0E0"/>
<path d="M20.2969 76.4757H19.2114V79.4444H20.2969V76.4757Z" fill="#E0E0E0"/>
<path d="M11.3827 33.9729H20.2844V66.0822H8.9519V36.4079C8.95301 35.7621 9.20954 35.1431 9.66522 34.6866C10.1209 34.2301 10.7385 33.9735 11.3827 33.9729Z" fill="#455A64"/>
<path d="M11.458 65.5947C11.4287 65.5947 11.4036 58.6279 11.4036 50.0349C11.4036 41.4419 11.4287 34.4729 11.458 34.4729C11.4874 34.4729 11.5125 41.4398 11.5125 50.0349C11.5125 58.63 11.4832 65.5947 11.458 65.5947Z" fill="#263238"/>
<path d="M8.95188 66.0171H36.9918V69.5089H10.6178C10.1732 69.5089 9.7468 69.3318 9.43241 69.0166C9.11803 68.7014 8.94141 68.2739 8.94141 67.8281V66.0087L8.95188 66.0171Z" fill="#455A64"/>
<path d="M24.8232 21.2808L23.6078 32.8972C23.3983 34.8742 23.5009 37.8177 26.6316 38.0025C29.3558 37.9584 30.3113 35.4604 30.502 33.6178C30.5942 32.7417 30.6697 32.0127 30.6864 31.9244C30.6864 31.9244 33.6641 31.9559 34.1838 29.0503C34.4353 27.6468 34.7161 24.7138 34.9403 22.0582C35.0563 20.682 34.6511 19.3124 33.8053 18.2223C32.9595 17.1321 31.7353 16.4014 30.3763 16.1755L30.0955 16.1271C27.0465 15.7952 25.0642 18.2092 24.8232 21.2808Z" fill="#FFBE9D"/>
<path d="M30.6866 31.9181C29.346 31.691 28.0987 31.0828 27.0928 30.1659C27.0928 30.1659 27.6607 32.4455 30.6006 32.6682L30.6866 31.9181Z" fill="#EB996E"/>
<path d="M29.8377 22.7893C29.7748 22.8418 29.4626 22.5393 28.9743 22.4805C28.4861 22.4217 28.0984 22.6297 28.0523 22.5624C28.0293 22.5309 28.1005 22.428 28.2619 22.3313C28.4894 22.2063 28.7506 22.157 29.0079 22.1905C29.2625 22.2226 29.5003 22.3352 29.6868 22.512C29.8314 22.6486 29.8691 22.7641 29.8377 22.7893Z" fill="#263238"/>
<path d="M29.7896 23.9133C29.7735 24.0161 29.7181 24.1085 29.6351 24.1708C29.5522 24.2332 29.4482 24.2607 29.3453 24.2474C29.295 24.2429 29.246 24.2285 29.2013 24.2049C29.1565 24.1812 29.1169 24.149 29.0848 24.1099C29.0526 24.0708 29.0285 24.0256 29.0139 23.9771C28.9992 23.9286 28.9944 23.8776 28.9996 23.8272C29.0161 23.7247 29.0717 23.6327 29.1545 23.5704C29.2374 23.5081 29.3411 23.4804 29.4438 23.4932C29.4942 23.4976 29.5432 23.5121 29.5879 23.5357C29.6326 23.5593 29.6722 23.5916 29.7044 23.6307C29.7366 23.6698 29.7607 23.7149 29.7753 23.7635C29.7899 23.812 29.7948 23.8629 29.7896 23.9133Z" fill="#263238"/>
<path d="M30.7493 26.3232C30.9966 26.2891 31.2471 26.2856 31.4953 26.3127C31.6105 26.3127 31.7237 26.3127 31.7551 26.2413C31.7837 26.1242 31.7764 26.0012 31.7342 25.8883L31.5435 24.9639C31.2794 23.6466 31.1097 22.573 31.1642 22.5625C31.2187 22.552 31.4722 23.6129 31.7342 24.9261C31.797 25.2517 31.8557 25.5564 31.9123 25.8568C31.9609 26.0066 31.955 26.1689 31.8955 26.3148C31.8731 26.3518 31.8426 26.3831 31.8063 26.4064C31.7699 26.4297 31.7288 26.4444 31.686 26.4493C31.6199 26.4579 31.553 26.4579 31.4869 26.4493C31.2368 26.4377 30.9891 26.3954 30.7493 26.3232Z" fill="#263238"/>
<path d="M29.8 20.9259C29.7413 21.0309 29.3579 20.9111 28.8864 20.8922C28.4149 20.8733 28.0209 20.9406 27.9748 20.8313C27.956 20.7788 28.0377 20.6863 28.2074 20.6044C28.4276 20.5028 28.6697 20.4581 28.9115 20.4741C29.1536 20.4869 29.3889 20.5591 29.5967 20.6842C29.7539 20.7746 29.8252 20.8754 29.8 20.9259Z" fill="#263238"/>
<path d="M34.3619 22.2641C34.3033 22.3482 33.9303 22.2137 33.4693 22.157C33.0082 22.1002 32.6185 22.1234 32.5766 22.0267C32.5598 21.9805 32.6436 21.9091 32.8113 21.8523C33.037 21.7862 33.2741 21.769 33.507 21.8019C33.7419 21.8322 33.9681 21.9108 34.1712 22.033C34.3242 22.1318 34.3892 22.2242 34.3619 22.2641Z" fill="#263238"/>
<path d="M24.7017 23.47C24.6556 23.4385 22.8053 22.5456 22.5391 24.5457C22.273 26.5458 24.3308 26.4009 24.3413 26.3441C24.3517 26.2874 24.7017 23.47 24.7017 23.47Z" fill="#FFBE9D"/>
<path d="M23.8342 25.5059C23.8342 25.5059 23.7944 25.5248 23.7336 25.5437C23.6458 25.5681 23.552 25.5576 23.4717 25.5143C23.2621 25.4093 23.1385 25.05 23.1783 24.6886C23.1956 24.5159 23.2515 24.3493 23.3418 24.2012C23.3687 24.1412 23.4099 24.0887 23.4618 24.0484C23.5137 24.0081 23.5746 23.9812 23.6393 23.9701C23.6803 23.9647 23.7219 23.974 23.7568 23.9963C23.7916 24.0186 23.8176 24.0524 23.83 24.092C23.851 24.1508 23.83 24.1907 23.8426 24.1949C23.8552 24.1991 23.8908 24.1676 23.8845 24.0815C23.8811 24.0307 23.8595 23.983 23.8237 23.947C23.774 23.8977 23.7071 23.8698 23.6372 23.8693C23.5531 23.875 23.4719 23.9022 23.4011 23.9481C23.3304 23.994 23.2724 24.0573 23.2328 24.1319C23.1245 24.293 23.0576 24.4785 23.0379 24.6718C22.9981 25.0773 23.1532 25.4828 23.4298 25.6047C23.4812 25.6275 23.5371 25.6383 23.5934 25.6365C23.6496 25.6347 23.7047 25.6202 23.7546 25.5942C23.8237 25.5542 23.8468 25.5101 23.8342 25.5059Z" fill="#EB996E"/>
<path d="M30.1481 27.6615C30.1753 27.6132 29.7939 27.4514 29.5508 27.0627C29.4515 26.8905 29.3747 26.7062 29.3224 26.5144C29.2784 26.3631 29.2428 26.2664 29.2197 26.2706C29.1967 26.2748 29.1946 26.3757 29.2197 26.5375C29.2446 26.7541 29.3161 26.9627 29.4293 27.1488C29.5444 27.3364 29.709 27.4884 29.905 27.588C30.0391 27.6636 30.1334 27.6783 30.1481 27.6615Z" fill="#263238"/>
<path d="M22.3379 19.9719C22.8219 19.3017 22.9959 18.4655 23.2976 17.6966C23.5994 16.9276 24.1128 16.1502 24.9111 15.9443L24.9279 15.9549C25.6467 15.7448 26.5016 15.8141 27.0234 16.3498C27.2602 15.3183 28.2493 14.5766 29.2907 14.4043C30.3322 14.232 31.9457 14.5409 32.8845 15.0346C33.6096 15.4086 34.2801 16.0977 35.0806 17.0957C35.42 17.5152 35.7242 17.9621 35.9901 18.4319L36.6187 21.2493L35.7302 22.6129C35.6763 22.7082 35.6175 22.8008 35.5542 22.8902L34.5945 25.8505C34.6259 25.0227 34.9507 22.1612 34.9821 21.3313C34.3656 21.2556 33.7706 21.0558 33.233 20.7439C32.6954 20.432 32.2262 20.0143 31.8535 19.516C31.4512 18.9761 31.1557 18.3185 30.5816 17.9655C29.844 17.5096 28.9052 17.7029 28.0523 17.913L28.09 17.8836C27.6458 18.042 27.236 18.2845 26.883 18.5979C26.9157 20.2418 26.5948 21.8734 25.9421 23.3818C25.8436 23.6087 25.5922 24.0709 25.3533 24.1403C24.8881 24.2726 24.8085 23.802 24.5612 23.5331C24.3789 23.3356 24.0855 23.2831 23.7607 23.2558C23.6003 22.5519 23.4813 21.8391 23.4045 21.1212C23.127 21.1785 22.8401 21.1706 22.5663 21.0981L22.8827 20.5014C22.7681 20.5706 22.6404 20.615 22.5076 20.6316C22.4383 20.6403 22.3681 20.6265 22.3074 20.592C22.2466 20.5576 22.1985 20.5044 22.1702 20.4404C22.1178 20.2787 22.2373 20.1127 22.3379 19.9719Z" fill="#263238"/>
<path d="M27.9163 16.77C27.8046 16.843 27.6981 16.9237 27.5978 17.0116C27.3415 17.27 27.1566 17.5907 27.0613 17.9424C26.9885 18.1827 26.94 18.4297 26.9167 18.6798C26.8916 18.9508 26.8874 19.2408 26.879 19.5475C26.8767 19.8694 26.8543 20.1907 26.8119 20.5098C26.787 20.6789 26.7498 20.846 26.7009 21.0098C26.6584 21.1862 26.5719 21.3489 26.4494 21.4825C26.3939 21.5338 26.3263 21.57 26.253 21.5876C26.1796 21.6053 26.103 21.6038 26.0303 21.5834C25.8892 21.5437 25.7653 21.4579 25.6783 21.3397C25.5408 21.1061 25.4685 20.8398 25.4687 20.5686L25.5274 20.5812C25.4166 20.7945 25.2754 20.9906 25.1083 21.1632C24.9496 21.3226 24.7357 21.4144 24.5111 21.4195C24.4072 21.4203 24.305 21.3927 24.2156 21.3397C24.133 21.2863 24.068 21.2095 24.0291 21.119C23.993 21.0351 23.98 20.9429 23.9914 20.8522C24.0047 20.771 24.0454 20.6969 24.1067 20.6421L24.1339 20.6736C23.8927 20.9089 23.5908 21.0719 23.2622 21.1443C23.2391 21.1515 23.2151 21.155 23.1909 21.1548C23.2126 21.1458 23.2351 21.1388 23.258 21.1338C23.3041 21.1191 23.3711 21.1001 23.455 21.0665C23.6973 20.9713 23.9181 20.8284 24.1046 20.6463L24.1339 20.6778C24.0803 20.7348 24.0457 20.807 24.0348 20.8846C24.024 20.9621 24.0373 21.0411 24.0731 21.1106C24.1088 21.1914 24.168 21.2595 24.2429 21.306C24.3239 21.3543 24.4168 21.379 24.5111 21.3775C24.7206 21.3692 24.9191 21.2813 25.0664 21.1317C25.2256 20.9619 25.3597 20.7702 25.4645 20.5623L25.5148 20.4719V20.5749C25.5194 20.8348 25.5916 21.089 25.7244 21.3123C25.8041 21.4142 25.9143 21.4878 26.0387 21.5224C26.1014 21.5408 26.1678 21.5425 26.2313 21.5274C26.2949 21.5123 26.3534 21.4809 26.4012 21.4363C26.5141 21.3109 26.5941 21.1592 26.6338 20.9951C26.6828 20.8342 26.7199 20.6698 26.7449 20.5035C26.787 20.1872 26.8101 19.8687 26.814 19.5496C26.814 19.2429 26.8308 18.9529 26.858 18.6798C26.8844 18.4259 26.9364 18.1753 27.0131 17.9319C27.1152 17.5752 27.3105 17.2524 27.5789 16.9969C27.6778 16.9028 27.7919 16.826 27.9163 16.77Z" fill="#455A64"/>
<path d="M36.69 20.4572L36.6648 20.474L36.5873 20.5202C36.5457 20.5465 36.5023 20.5696 36.4574 20.5896C36.4029 20.6127 36.3421 20.6442 36.2709 20.6673C35.8623 20.808 35.4254 20.8455 34.9989 20.7766C34.3645 20.6752 33.7729 20.3921 33.2953 19.9614C32.7211 19.4299 32.2612 18.7865 31.9437 18.0705C31.7635 17.6965 31.6231 17.3162 31.4638 16.9633C31.3205 16.6197 31.1278 16.2991 30.8917 16.0115C30.6814 15.7503 30.408 15.5471 30.0975 15.4212C29.9573 15.3676 29.8095 15.3364 29.6596 15.3287C29.5187 15.3232 29.3778 15.3366 29.2405 15.3686C28.8258 15.4687 28.4642 15.7224 28.2283 16.0788C28.1493 16.2112 28.0853 16.3522 28.0377 16.499C28.0363 16.4892 28.0363 16.4793 28.0377 16.4696C28.0377 16.4443 28.0502 16.417 28.0586 16.3813C28.0921 16.2684 28.14 16.1604 28.2011 16.0599C28.2986 15.8999 28.4226 15.7578 28.5678 15.6397C28.7602 15.4841 28.984 15.3722 29.2237 15.3119C29.5161 15.2363 29.8245 15.2517 30.108 15.356C30.428 15.4846 30.7106 15.6919 30.9294 15.959C31.1698 16.2505 31.3667 16.5753 31.5141 16.9234C31.6754 17.2805 31.8158 17.6587 31.994 18.0306C32.3093 18.7374 32.7624 19.3739 33.3267 19.9026C33.7963 20.3294 34.3781 20.6123 35.0031 20.7177C35.4232 20.7906 35.8546 20.7603 36.2604 20.6295C36.5454 20.5434 36.6858 20.4404 36.69 20.4572Z" fill="#455A64"/>
<path d="M34.2803 23.3818C34.2174 23.4365 33.9052 23.1318 33.4169 23.0751C32.9287 23.0184 32.541 23.2222 32.497 23.1549C32.4739 23.1234 32.5431 23.0226 32.7065 22.9238C32.9344 22.7998 33.1955 22.7513 33.4525 22.7852C33.7073 22.8152 33.9456 22.9272 34.1315 23.1045C34.274 23.2453 34.3117 23.3629 34.2803 23.3818Z" fill="#263238"/>
<path d="M33.8654 24.2937C33.8498 24.3967 33.7945 24.4894 33.7114 24.5519C33.6283 24.6143 33.5241 24.6416 33.4211 24.6278C33.3708 24.6233 33.3219 24.6088 33.2773 24.5852C33.2327 24.5615 33.1932 24.5292 33.1612 24.4901C33.1292 24.4509 33.1053 24.4058 33.0909 24.3573C33.0765 24.3088 33.072 24.2579 33.0774 24.2076C33.0935 24.1052 33.1486 24.0132 33.2311 23.9509C33.3136 23.8885 33.4171 23.8608 33.5196 23.8735C33.57 23.878 33.6189 23.8924 33.6637 23.916C33.7084 23.9397 33.748 23.972 33.7802 24.0111C33.8124 24.0502 33.8365 24.0953 33.8511 24.1438C33.8657 24.1923 33.8706 24.2433 33.8654 24.2937Z" fill="#263238"/>
<path d="M35.7911 18.0601C36.0006 18.4151 36.3547 18.7555 36.7676 18.7555C36.9189 18.7396 37.0688 18.7122 37.216 18.6735C37.3501 18.7744 37.2663 19.2618 37.1531 19.3858C37.0484 19.4907 36.9348 19.5863 36.8137 19.6715C37.2663 19.9804 37.7168 19.8984 38.247 19.7661C38.1503 20.1978 37.9425 20.5966 37.6444 20.9228C37.3462 21.249 36.9681 21.4913 36.5475 21.6254C36.4169 21.679 36.2754 21.7006 36.1348 21.6885C35.9941 21.6765 35.8584 21.6311 35.7387 21.5561C35.5644 21.3763 35.4622 21.1385 35.4516 20.888C35.3133 19.9843 35.2873 19.0668 35.374 18.1567L35.7911 18.0601Z" fill="#263238"/>
<path d="M30.3785 34.6431C30.3785 34.6431 32.2226 35.3931 33.2724 37.9521C34.01 39.7506 38.113 45.4274 38.113 45.4274L49.0222 47.8561L49.3952 51.3459L31.946 51.2009L29.5215 43.4588L30.3785 34.6431Z" fill="#AAAAAA"/>
<path d="M23.0316 31.418L21.0953 32.2332C19.3037 32.9854 17.0112 34.7187 16.2422 36.5087C14.396 40.8199 12.7238 46.3602 12.0826 51.2618C11.4351 56.2054 12.7238 63.521 12.7238 63.521L29.0981 54.1402L28.1404 53.4699L31.2439 36.5444L30.6655 34.496L31.0511 32.7627C31.0511 32.7627 26.7071 31.0147 23.5429 29.7604L23.0316 31.418Z" fill="#AAAAAA"/>
<g opacity="0.3">
<path d="M21.4683 58.63C21.5283 57.7896 21.5884 56.9443 21.6485 56.0941C21.4564 56.2775 21.2051 56.3856 20.9402 56.3988C21.3498 56.0068 21.7133 55.569 22.0236 55.0941L21.2776 55.4155C21.5407 55.2126 21.7554 54.9535 21.9062 54.6571C21.506 54.344 20.9423 54.3965 20.4394 54.447C17.8514 54.7096 15.2404 54.5352 12.642 54.3608C12.3818 54.3459 12.1279 54.2742 11.8981 54.1507C11.8981 54.1507 11.8457 53.4364 11.961 53.1696C12.0762 52.9028 12.2564 52.9805 12.5289 52.8817C12.8054 52.7974 13.0927 52.7535 13.3817 52.7515C16.5438 52.5834 19.7122 52.8439 22.8681 53.1065C23.0648 53.1036 23.2581 53.1591 23.4234 53.2662C23.6811 53.4763 23.6581 53.8713 23.6141 54.2012C23.452 55.3861 23.2913 56.5704 23.1321 57.7539" fill="black"/>
</g>
<path d="M31.0509 35.8638C31.0507 35.9173 31.0458 35.9708 31.0363 36.0234L30.9692 36.4752C30.9105 36.8659 30.8162 37.4332 30.6926 38.1307C30.4453 39.5279 30.0744 41.4503 29.6448 43.5681C29.2153 45.6859 28.7794 47.5999 28.4672 48.9823C28.31 49.6651 28.1822 50.2219 28.09 50.619C28.046 50.8038 28.0104 50.9509 27.9831 51.0623C27.9734 51.1149 27.9579 51.1664 27.937 51.2156C27.9425 51.1627 27.9509 51.1101 27.9622 51.0581C27.9831 50.9446 28.0124 50.7954 28.0502 50.6106C28.1319 50.2093 28.2597 49.6525 28.3917 48.9655L29.5275 43.5513C29.9676 41.4335 30.351 39.5132 30.6172 38.1202C30.745 37.4332 30.8519 36.8722 30.9273 36.471C30.9629 36.2861 30.9923 36.1369 31.0132 36.0234C31.0204 35.9691 31.033 35.9156 31.0509 35.8638Z" fill="#263238"/>
<path d="M16.2422 59.8927C16.2715 59.8564 16.3045 59.8234 16.3407 59.794L16.634 59.5229C16.7598 59.4053 16.919 59.2645 17.1097 59.1027C17.3004 58.941 17.51 58.7603 17.7572 58.5733C18.2413 58.1846 18.8385 57.7497 19.5196 57.2938C20.2006 56.8379 20.9864 56.3757 21.8099 55.9303C22.6335 55.4849 23.4696 55.1151 24.2281 54.802C24.9867 54.489 25.6824 54.2474 26.2754 54.0667C26.5688 53.9679 26.8412 53.8965 27.078 53.8293C27.3148 53.7621 27.5202 53.7095 27.6878 53.6696L28.0776 53.5814C28.1218 53.5673 28.1675 53.5588 28.2138 53.5562C28.1715 53.576 28.1272 53.5915 28.0818 53.6024L27.6983 53.7116C27.5328 53.7578 27.3295 53.8146 27.0948 53.8881C26.8601 53.9616 26.5919 54.0373 26.2985 54.1402C25.7118 54.3314 25.0202 54.5856 24.2659 54.8966C23.5115 55.2075 22.6963 55.5878 21.8623 56.0269C21.0283 56.466 20.2593 56.9324 19.574 57.3778C18.8888 57.8232 18.2916 58.256 17.8033 58.6384C17.554 58.8212 17.3402 59.0019 17.1474 59.1532C16.9547 59.3044 16.7933 59.4431 16.6613 59.5545L16.3553 59.8087C16.3207 59.8407 16.2828 59.8688 16.2422 59.8927Z" fill="#263238"/>
<path d="M24.6472 53.697C24.6619 53.7243 23.0693 54.6214 21.0849 55.7013C19.1004 56.7812 17.4911 57.6363 17.4764 57.609C17.4618 57.5817 19.0543 56.6867 21.0388 55.6046C23.0232 54.5226 24.6326 53.6717 24.6472 53.697Z" fill="#263238"/>
<g opacity="0.3">
<path d="M18.8931 40.7296C19.9094 45.1417 23.017 49.0789 27.1535 50.8752C24.1777 47.6816 21.4181 44.2922 18.8931 40.7296Z" fill="black"/>
</g>
<g opacity="0.3">
<path d="M30.791 37.3765C31.1913 39.2421 30.8937 41.5784 29.9528 43.2319L29.7202 42.7487C30.0492 41.3473 30.5207 38.8619 30.7826 37.3765" fill="black"/>
</g>
<path d="M39.496 81.8962L37.5325 87.8168C37.5325 87.8168 42.8781 91.8086 42.6203 92.9368L31.0322 89.5333L33.7124 80.1797L39.496 81.8962Z" fill="#455A64"/>
<g opacity="0.3">
<path d="M39.496 81.8962L37.5325 87.8168C37.5325 87.8168 42.8781 91.8086 42.6203 92.9368L31.0322 89.5333L33.7124 80.1797L39.496 81.8962Z" fill="black"/>
</g>
<path d="M34.0958 86.2621C33.9745 86.2631 33.8578 86.3092 33.7684 86.3915C33.679 86.4738 33.6232 86.5864 33.6118 86.7075C33.6082 86.8291 33.6515 86.9474 33.7327 87.0378C33.8139 87.1281 33.9267 87.1837 34.0476 87.1928C34.1764 87.1912 34.3 87.1418 34.3944 87.0541C34.4889 86.9663 34.5475 86.8466 34.5589 86.718C34.5493 86.5909 34.4908 86.4726 34.3958 86.3879C34.3008 86.3033 34.1767 86.2589 34.0497 86.2642" fill="#E0E0E0"/>
<g opacity="0.6">
<path d="M31.0322 89.5333L31.3382 88.6005L42.3354 92.212C42.3354 92.212 42.7859 92.5881 42.6203 92.9369L31.0322 89.5333Z" fill="#AAAAAA"/>
</g>
<path d="M37.7378 87.8126C37.7189 87.8693 37.4297 87.8126 37.0966 87.9134C36.7634 88.0143 36.5475 88.2076 36.5014 88.1698C36.4553 88.1319 36.6355 87.8294 37.04 87.7159C37.4444 87.6025 37.765 87.7643 37.7378 87.8126Z" fill="#263238"/>
<path d="M38.8065 88.6741C38.8065 88.7329 38.5298 88.7581 38.2679 88.9409C38.006 89.1237 37.876 89.3611 37.8195 89.3422C37.7629 89.3233 37.8195 88.9934 38.1527 88.7707C38.4858 88.548 38.8211 88.6194 38.8065 88.6741Z" fill="#263238"/>
<path d="M39.0706 90.3359C39.0162 90.3359 39.0204 90.0271 39.255 89.7582C39.4897 89.4892 39.7936 89.443 39.802 89.4976C39.8104 89.5523 39.5924 89.6699 39.4101 89.8926C39.2278 90.1153 39.1293 90.3464 39.0706 90.3359Z" fill="#263238"/>
<path d="M38.0355 86.4113C37.9978 86.4575 37.761 86.302 37.4341 86.2306C37.1072 86.1592 36.8285 86.1865 36.8054 86.1276C36.7824 86.0688 37.0883 85.9386 37.4718 86.0289C37.8553 86.1192 38.0774 86.3777 38.0355 86.4113Z" fill="#263238"/>
<path d="M42.876 84.5393L42.6308 90.775C42.6308 90.775 48.8712 93.1176 48.9362 94.2752L36.8619 94.2332L36.8389 84.5015L42.876 84.5393Z" fill="#455A64"/>
<path d="M38.8988 90.2372C38.7823 90.272 38.6827 90.3488 38.6193 90.4527C38.5558 90.5567 38.533 90.6805 38.5551 90.8003C38.5859 90.9182 38.6607 91.0198 38.764 91.0839C38.8674 91.148 38.9914 91.1699 39.1104 91.1449C39.2333 91.1077 39.338 91.026 39.4042 90.9157C39.4705 90.8055 39.4934 90.6745 39.4687 90.5482C39.4247 90.4286 39.336 90.3309 39.2215 90.2757C39.1069 90.2204 38.9754 90.2119 38.8548 90.2519" fill="#E0E0E0"/>
<g opacity="0.6">
<path d="M36.8618 94.2332L36.8974 93.2521L48.4625 93.6576C48.4625 93.6576 48.999 93.895 48.9361 94.2753L36.8618 94.2332Z" fill="#AAAAAA"/>
</g>
<path d="M42.8277 90.7141C42.8277 90.7729 42.5302 90.7981 42.2389 90.9872C41.9476 91.1763 41.7925 91.4242 41.7381 91.4074C41.6836 91.3906 41.7737 91.0418 42.1299 90.8191C42.4861 90.5964 42.8403 90.6594 42.8277 90.7141Z" fill="#263238"/>
<path d="M44.0914 91.2435C44.1039 91.3002 43.8483 91.399 43.6471 91.649C43.4459 91.899 43.3873 92.1637 43.3286 92.1595C43.2699 92.1553 43.2343 91.8233 43.49 91.5166C43.7456 91.2099 44.0914 91.1868 44.0914 91.2435Z" fill="#263238"/>
<path d="M44.8018 92.7647C44.7473 92.7773 44.6677 92.4811 44.8185 92.1596C44.9694 91.8382 45.2481 91.7079 45.2733 91.7562C45.2984 91.8046 45.1266 91.9789 45.005 92.2458C44.8835 92.5126 44.8646 92.7605 44.8018 92.7647Z" fill="#263238"/>
<path d="M42.7251 89.2849C42.6999 89.3394 42.4296 89.2577 42.0964 89.2849C41.7632 89.3122 41.5034 89.4107 41.4678 89.3604C41.4322 89.3101 41.6773 89.1005 42.0818 89.0796C42.4862 89.0586 42.7544 89.2388 42.7251 89.2849Z" fill="#263238"/>
<path d="M28.4108 54.0036C28.4108 54.0036 42.8845 57.7854 44.6824 60.2877C46.1995 62.4118 38.2324 84.1002 38.2324 84.1002L31.9459 83.556L34.6575 65.4078L18.4404 60.2394L20.8901 53.9952L28.4108 54.0036Z" fill="#263238"/>
<path d="M29.4478 57.403C29.4478 57.403 44.2442 61.0062 45.7403 63.5673C46.4382 64.7627 45.9792 68.6874 45.7194 70.5404C45.5434 71.7884 42.9282 89.2518 42.9282 89.2518H36.5306L36.671 69.5278L21.2984 66.4204C21.2984 66.4204 13.0463 67.0507 12.7236 63.5211L16.1686 58.8401L24.2992 54.8125L29.4478 57.403Z" fill="#263238"/>
<path d="M28.3206 56.9492C28.3206 56.9492 28.394 56.966 28.5302 57.0059L29.1588 57.1803L31.5729 57.8568C32.6206 58.151 33.9031 58.5102 35.3846 58.9515C36.8661 59.3927 38.5446 59.9263 40.3656 60.6175C41.2778 60.9593 42.2194 61.3487 43.1903 61.7857L43.9237 62.1176C44.1709 62.2386 44.4115 62.3726 44.6446 62.5189C44.883 62.6686 45.1081 62.8387 45.3173 63.0274C45.5346 63.219 45.7169 63.4472 45.8558 63.7018C46.3545 65.975 46.0528 68.4605 45.6819 71.0006C45.5205 72.2801 45.3131 73.5848 45.1182 74.9189C44.9233 76.253 44.7158 77.6187 44.5084 79.0053C44.0893 81.7807 43.6702 84.6549 43.2259 87.5962C43.1421 88.153 43.0604 88.7076 42.9766 89.2581V89.3064H36.4805V89.2518C36.5371 81.7765 36.5895 75.0072 36.6314 69.5299L36.6649 69.5698L25.7327 67.3407L22.7508 66.7272L21.9755 66.5654C21.7994 66.5276 21.7114 66.5045 21.7114 66.5045L21.9776 66.5528L22.7571 66.7041L25.7516 67.2923L36.6796 69.4816H36.7131V69.5173C36.6775 74.9945 36.6335 81.7639 36.5853 89.2413L36.5308 89.1867H42.9263L42.8739 89.2329C42.9556 88.6803 43.0394 88.1278 43.1212 87.571L44.4057 78.9801C44.6153 77.5907 44.8192 76.2285 45.0176 74.8937C45.2146 73.5596 45.4241 72.2549 45.5876 70.9754C45.6742 70.3367 45.7587 69.7064 45.8411 69.0845C45.9293 68.4724 45.9839 67.8558 46.0046 67.2377C46.0255 66.6284 46.0255 66.0283 46.0046 65.4372C45.992 65.1409 45.9752 64.8489 45.9501 64.559C45.9477 64.2746 45.89 63.9934 45.7804 63.7312C45.6471 63.486 45.4719 63.2663 45.2628 63.082C45.0584 62.897 44.8382 62.7304 44.6048 62.5841C44.375 62.4377 44.1371 62.3044 43.8923 62.1849L43.1631 61.8508C42.195 61.4159 41.2541 61.023 40.3446 60.6806C38.5278 59.9851 36.8493 59.4536 35.372 58.9998C33.8947 58.546 32.6122 58.1888 31.5666 57.8884L29.1567 57.2076L28.5281 57.0228C28.3919 56.9744 28.3206 56.9492 28.3206 56.9492Z" fill="#455A64"/>
<path d="M48.8124 48.0284C48.9067 47.8855 50.1284 46.4716 50.4573 46.4716C50.7863 46.4716 51.1635 46.8497 51.1635 46.8497C51.3836 46.7485 51.6288 46.7156 51.8676 46.7552C52.1505 46.8497 53.4665 47.9801 53.4665 48.4045V49.1125C53.4963 49.2997 53.4963 49.4905 53.4665 49.6777C53.4204 50.0075 52.6283 50.5727 52.6283 50.5727H48.1083C48.1083 50.5727 47.247 49.9907 47.3539 49.4423C47.4608 48.894 48.8124 48.0284 48.8124 48.0284Z" fill="#FFBE9D"/>
<path d="M51.1638 46.8497C51.2618 46.8946 51.3558 46.9481 51.4446 47.0094L52.1906 47.4821C52.2768 47.5323 52.3594 47.5885 52.4378 47.6502C52.521 47.7274 52.5837 47.8241 52.6201 47.9317C52.6487 48.0457 52.6621 48.163 52.66 48.2805L52.6788 48.6419C52.704 49.1356 52.7291 49.6776 52.7563 50.2449L52.7689 50.5012V50.5475L52.7249 50.558L52.4483 50.6252H52.4357C52.3064 50.6213 52.1819 50.5748 52.0816 50.4928C51.9892 50.416 51.9118 50.3227 51.8532 50.2176C51.747 50.0263 51.6673 49.8213 51.6164 49.6083C51.5285 49.2524 51.4765 48.8885 51.4613 48.5221L51.4865 48.5557L50.6965 48.2448C50.5987 48.2103 50.504 48.1674 50.4136 48.1166C50.5151 48.1373 50.6147 48.1668 50.7111 48.2049L51.5116 48.4843H51.5347V48.5095C51.5589 48.87 51.6171 49.2273 51.7086 49.5768C51.76 49.7796 51.8382 49.9747 51.9412 50.1567C51.9863 50.2526 52.0553 50.3353 52.1416 50.3968C52.2278 50.4582 52.3284 50.4964 52.4336 50.5075H52.4211L52.6977 50.4382L52.6558 50.4949L52.6432 50.2365C52.6201 49.6693 52.595 49.1293 52.574 48.6335C52.574 48.5095 52.574 48.3898 52.5615 48.2721C52.5636 48.1627 52.553 48.0534 52.53 47.9464C52.501 47.8527 52.4483 47.768 52.3771 47.7006C52.3026 47.6404 52.225 47.5843 52.1445 47.5326L51.4173 47.0325C51.3278 46.9789 51.2429 46.9178 51.1638 46.8497Z" fill="#EB996E"/>
<path d="M48.1084 50.411C48.2077 50.3896 48.3087 50.3762 48.4102 50.3711L49.2337 50.306H49.2463C49.5526 50.3782 49.8624 50.4343 50.1746 50.4741C50.3545 50.4987 50.5357 50.5134 50.7173 50.5182C50.8055 50.5327 50.8958 50.5274 50.9816 50.5027C51.0675 50.478 51.1469 50.4345 51.2139 50.3753C51.2701 50.295 51.2975 50.198 51.2915 50.1001C51.2915 49.9971 51.2768 49.89 51.2726 49.7807C51.2606 49.6917 51.2175 49.6099 51.1511 49.5496C51.0849 49.483 51.0093 49.4263 50.9269 49.3815C50.6278 49.2306 50.2913 49.1707 49.9587 49.2093C49.8395 49.2204 49.7194 49.203 49.6083 49.1585C49.4972 49.1139 49.3982 49.0434 49.3196 48.9529C49.2211 48.8122 49.2295 48.7092 49.2358 48.7113C49.2634 48.7872 49.303 48.8582 49.3531 48.9214C49.4316 49.0001 49.5269 49.0599 49.6318 49.0963C49.7367 49.1327 49.8485 49.1447 49.9587 49.1315C50.3058 49.0799 50.6604 49.1356 50.975 49.2912C51.0664 49.3399 51.1504 49.4015 51.2244 49.474C51.3116 49.5531 51.3668 49.6615 51.3795 49.7786C51.3795 49.8753 51.4004 49.9887 51.4004 50.098C51.4061 50.2212 51.3699 50.3427 51.2978 50.4425C51.2247 50.5273 51.1248 50.5844 51.0149 50.6043C50.9161 50.6229 50.8155 50.6293 50.7152 50.6232C50.5224 50.6232 50.338 50.598 50.162 50.5749C49.8463 50.5294 49.5336 50.4656 49.2253 50.3837H49.2379L48.4143 50.4131C48.3126 50.4233 48.21 50.4226 48.1084 50.411Z" fill="#EB996E"/>
<path d="M52.708 50.3921C52.8128 50.1111 52.9345 49.8367 53.0726 49.5706C53.1789 49.2881 53.3197 49.02 53.4917 48.7722C53.4195 49.0638 53.3133 49.3459 53.1753 49.6126C53.0685 49.899 52.9101 50.1632 52.708 50.3921Z" fill="#EB996E"/>
<path d="M42.916 51.348L59.1959 51.5581L64.4347 36.8218C64.4906 36.6743 64.4881 36.5109 64.4277 36.3652C64.3673 36.2194 64.2536 36.1024 64.1099 36.0381C64.0325 36.0021 63.9485 35.9826 63.8632 35.9808C63.7779 35.9791 63.6932 35.9951 63.6144 36.0279C63.5356 36.0607 63.4644 36.1095 63.4054 36.1713C63.3464 36.2331 63.3009 36.3065 63.2717 36.3869L58.1063 50.3416L42.9013 50.4929C42.7901 50.4929 42.6836 50.5371 42.605 50.6159C42.5264 50.6947 42.4822 50.8016 42.4822 50.9131C42.4801 50.9707 42.49 51.0282 42.511 51.0819C42.5321 51.1356 42.564 51.1844 42.6047 51.2252C42.6454 51.266 42.694 51.2979 42.7476 51.3191C42.8011 51.3402 42.8585 51.35 42.916 51.348Z" fill="#263238"/>
<path d="M18.6563 40.3998C18.6563 40.3998 26.6192 51.2535 27.8535 51.2535H39.473V46.8414L30.6866 44.7635C30.6866 44.7635 26.3615 35.7923 25.4017 34.6431C24.442 33.4939 21.8834 31.9454 19.9702 33.6766C18.057 35.4079 18.6563 40.3998 18.6563 40.3998Z" fill="#AAAAAA"/>
<path d="M39.4644 47.2764L41.3692 47.123C41.3692 47.123 41.409 46.415 41.826 46.165C42.243 45.9149 42.199 45.3729 42.4546 45.4149C42.593 45.4422 42.7354 45.4422 42.8737 45.4149L44.4516 44.0829L45.7823 43.2089L46.83 42.9988C46.83 42.9988 47.4587 43.1648 46.83 43.7467L46.1637 44.1228L45.5832 44.7069L46.9118 44.0514C46.9729 44.0218 47.0398 44.0064 47.1077 44.0064C47.1756 44.0064 47.2425 44.0218 47.3036 44.0514C47.6631 44.2071 48.0058 44.3993 48.3262 44.6249C48.3549 44.6519 48.3778 44.6844 48.3934 44.7205C48.409 44.7567 48.4171 44.7956 48.4171 44.835C48.4171 44.8744 48.409 44.9134 48.3934 44.9495C48.3778 44.9857 48.3549 45.0182 48.3262 45.0451L48.9067 45.5452C48.9067 45.5452 49.0324 46.2133 48.366 46.0452L47.8275 45.9212L47.1066 46.623C47.1066 46.623 49.5186 46.1229 49.6841 46.2028C49.8497 46.2826 50.0592 46.6608 49.6841 46.9927C49.309 47.3247 47.8547 47.2428 47.5237 47.5768C47.1926 47.9109 44.9923 49.9236 44.4516 50.0476C43.911 50.1715 39.4769 51.2577 39.4769 51.2577L39.4644 47.2764Z" fill="#FFBE9D"/>
<path d="M48.8902 45.5387C48.7763 45.469 48.6671 45.3918 48.5633 45.3076C48.4648 45.2341 48.3538 45.148 48.2113 45.0555C48.1442 45.0093 48.0744 44.9631 48.0017 44.9169C47.9365 44.8684 47.8601 44.8373 47.7796 44.8265C47.6145 44.8623 47.4574 44.9285 47.3165 45.0219C47.174 45.0996 47.0483 45.1732 46.9414 45.232C46.8316 45.3094 46.7135 45.3742 46.5894 45.4253C46.6773 45.3235 46.7814 45.2369 46.8974 45.169C47.0001 45.0975 47.1237 45.0156 47.2662 44.9316C47.3374 44.8895 47.4129 44.8475 47.4925 44.8055C47.5791 44.7553 47.6757 44.7252 47.7754 44.7173C47.8045 44.7114 47.8344 44.7114 47.8634 44.7173C47.8878 44.7254 47.9116 44.7352 47.9347 44.7467C47.9772 44.7673 48.0185 44.7904 48.0583 44.816C48.1358 44.8643 48.2071 44.9127 48.2679 44.9631C48.3999 45.0597 48.5151 45.1543 48.6094 45.2362C48.8001 45.4085 48.9028 45.5282 48.8902 45.5387Z" fill="#EB996E"/>
<path d="M43.0541 45.2531C43.0709 45.2783 42.8739 45.4505 42.635 45.6732C42.3961 45.896 42.2159 46.0808 42.1929 46.0577C42.2812 45.8788 42.4062 45.7206 42.5596 45.5934C42.6941 45.441 42.8639 45.3241 43.0541 45.2531Z" fill="#EB996E"/>
<path d="M25.4016 34.6431C25.5724 34.8541 25.7266 35.0782 25.8626 35.3133C26.1371 35.7692 26.5248 36.4499 26.99 37.3302C27.9266 39.0908 29.2154 41.6435 30.7262 44.7509L30.6969 44.7257L39.4854 46.7972H39.5273V51.3249H38.9469H29.0708H27.9476C27.8988 51.3278 27.8498 51.3278 27.8009 51.3249C27.7515 51.3151 27.7036 51.2989 27.6584 51.2765C27.5706 51.2302 27.4872 51.1761 27.4091 51.1148C27.263 51.0056 27.1231 50.8885 26.99 50.7639C26.481 50.2834 25.9976 49.7764 25.542 49.2449C24.6493 48.228 23.8656 47.2469 23.1426 46.3476C21.7135 44.545 20.5966 43.0554 19.8296 42.0259L18.9516 40.8326C18.8552 40.696 18.7819 40.593 18.7274 40.5195C18.6729 40.446 18.6541 40.4103 18.6541 40.4103C18.6541 40.4103 18.6834 40.4439 18.7379 40.5132L18.9705 40.8199L19.8653 41.9965C20.6427 43.0197 21.7701 44.5009 23.2055 46.2972C23.9242 47.1922 24.7184 48.1692 25.6111 49.184C26.0668 49.7108 26.5495 50.2136 27.057 50.6904C27.19 50.8125 27.3299 50.9269 27.4761 51.0328C27.5476 51.0846 27.6233 51.1303 27.7024 51.1694C27.7799 51.2068 27.8662 51.2221 27.9518 51.2135H29.075H38.9511H39.4771L39.4226 51.2681C39.4226 49.7554 39.4226 48.2763 39.4226 46.8561L39.4624 46.9086L30.6759 44.8118H30.655L30.6445 44.7929C29.1441 41.6814 27.8659 39.1203 26.9439 37.3575C26.4849 36.473 26.1057 35.7902 25.8374 35.3301C25.7012 35.1032 25.5985 34.9267 25.5168 34.8174C25.4351 34.7082 25.4016 34.6431 25.4016 34.6431Z" fill="#263238"/>
<path d="M24.2447 33.9329C24.2447 33.9518 23.9723 33.8426 23.5281 33.7417C23.2671 33.6837 23.0024 33.6437 22.736 33.622C22.4103 33.5969 22.0831 33.5969 21.7574 33.622C21.4326 33.6562 21.111 33.7159 20.7955 33.8006C20.5376 33.8712 20.2848 33.9596 20.0391 34.0653C19.62 34.2481 19.3811 34.4035 19.3706 34.3867C19.4179 34.339 19.4715 34.298 19.5299 34.2649C19.6826 34.164 19.8422 34.0741 20.0076 33.996C20.2529 33.8777 20.5073 33.7793 20.7683 33.7018C21.0882 33.61 21.4158 33.5475 21.7469 33.5148C22.0787 33.4843 22.4126 33.4843 22.7444 33.5148C23.0152 33.5426 23.2835 33.5911 23.5469 33.6598C23.7235 33.7061 23.8965 33.765 24.0645 33.8363C24.184 33.8867 24.2489 33.9245 24.2447 33.9329Z" fill="#263238"/>
<path d="M29.0854 46.7784C29.2152 46.4014 29.4166 46.0532 29.6785 45.7531C29.9114 45.4293 30.2055 45.1545 30.5439 44.9442C30.5649 44.9694 30.1625 45.314 29.7623 45.8203C29.3621 46.3267 29.1169 46.7931 29.0854 46.7784Z" fill="#263238"/>
<path d="M28.8193 45.4253C29.2647 45.0299 29.8447 44.8215 30.4392 44.8434C30.4392 44.877 30.0557 44.9169 29.601 45.0808C29.1462 45.2446 28.8382 45.4526 28.8193 45.4253Z" fill="#263238"/>
<path d="M36.2855 68.0823C36.1178 67.7315 35.7113 67.5781 35.3404 67.452C28.0208 65.0863 20.1669 63.9518 12.6 65.33C11.6906 65.496 10.7518 65.7124 10.0288 66.2923C9.30589 66.8722 8.87212 67.9227 9.2577 68.763L10.8105 69.2631C18.5586 68.3983 26.3814 68.4533 34.1166 69.427C34.6384 69.4942 35.1874 69.5593 35.6694 69.3534C36.1514 69.1475 36.5139 68.5529 36.2855 68.0823Z" fill="#455A64"/>
<path d="M27.7926 65.6556C27.776 65.6588 27.7589 65.6588 27.7423 65.6556L27.6019 65.6367L27.0592 65.5569C26.5898 65.4813 25.9087 65.372 25.0621 65.2754C22.8608 65.0145 20.6439 64.9085 18.4278 64.9581C17.7803 64.9707 17.1474 65.0022 16.5418 65.0527C15.9362 65.1031 15.3453 65.1325 14.7816 65.1829C14.7119 65.1886 14.6418 65.1886 14.5721 65.1829C14.5066 65.1767 14.4406 65.1767 14.3751 65.1829C14.2424 65.1921 14.1107 65.2117 13.9811 65.2417L13.2226 65.4014C12.7343 65.5107 12.2859 65.6304 11.8814 65.7649C11.2426 65.9645 10.6325 66.247 10.0667 66.6053C9.85719 66.7334 9.71889 66.8448 9.6204 66.9225L9.50724 67.0087C9.4821 67.0276 9.46743 67.0381 9.46533 67.036L9.49886 67.0003L9.60573 66.9057C9.74511 66.7853 9.89134 66.673 10.0437 66.5696C10.6051 66.1923 11.2157 65.8947 11.8584 65.6851C12.2995 65.5364 12.7478 65.4102 13.2016 65.3069L13.9623 65.143C14.0997 65.1084 14.24 65.0866 14.3814 65.0779C14.4511 65.0718 14.5212 65.0718 14.5909 65.0779C14.6606 65.0859 14.7309 65.0859 14.8005 65.0779C15.3558 65.0253 15.9509 64.9896 16.5607 64.9413C17.1705 64.893 17.818 64.8573 18.4467 64.8447C20.6608 64.7941 22.8757 64.91 25.0726 65.1913C25.9108 65.2985 26.5982 65.4203 27.0654 65.5086L27.6061 65.6094L27.7444 65.6388L27.7926 65.6556Z" fill="#263238"/>
<path d="M9.44856 53.6968L21.9252 54.1338C21.9686 54.1355 22.0113 54.1462 22.0503 54.1654C22.0894 54.1846 22.1239 54.2119 22.1518 54.2454C22.1797 54.2789 22.2002 54.3178 22.2121 54.3598C22.2239 54.4018 22.2268 54.4457 22.2206 54.4889L20.4248 69.4899H23.237L24.687 52.9762C24.7034 52.843 24.6919 52.7078 24.6534 52.5792C24.6149 52.4506 24.5501 52.3315 24.4632 52.2294C24.3763 52.1272 24.2692 52.0443 24.1486 51.9859C24.0281 51.9275 23.8967 51.8948 23.7629 51.89L9.11328 51.3647L9.44856 53.6968Z" fill="#455A64"/>
<path d="M75.7564 52.6044H73.8013V53.0393L78.1054 94.2878H80.1129L75.7564 52.6044Z" fill="#455A64"/>
<path d="M32.1073 52.6044H34.0624V53.0477L30.0495 94.2752H28.042L32.1073 52.6044Z" fill="#455A64"/>
<path d="M32.1072 52.6044C32.1072 52.6044 32.1072 52.6779 32.0904 52.8145C32.0737 52.951 32.0569 53.1695 32.0318 53.4447C31.9794 53.9973 31.9039 54.8125 31.8054 55.8588C31.5959 57.9598 31.313 60.9915 30.9547 64.7522C30.2254 72.2653 29.2175 82.6757 28.0943 94.2731L28.0419 94.2122H30.0494L29.9949 94.2626C31.8977 74.8958 33.5091 58.4892 34.0455 53.0393C34.0455 52.8292 34.0455 52.7115 34.0455 52.5959L34.0602 52.6107H32.5934H32.2329H32.1135H32.2287H32.585L34.0686 52.6002H34.0833V52.617C34.0833 52.7325 34.0833 52.8544 34.0833 53.0603C33.5573 58.5102 31.9752 74.9105 30.1018 94.2899V94.3403H27.9854V94.2794C29.1253 82.6694 30.15 72.2464 30.8897 64.7249C31.2648 60.9705 31.5645 57.9408 31.774 55.8462C31.8788 54.7957 31.9605 53.9973 32.015 53.4447C32.0443 53.1737 32.0653 52.9657 32.08 52.8145C32.0946 52.6632 32.1072 52.6044 32.1072 52.6044Z" fill="#263238"/>
<path d="M83.3569 51.2618H27.4028V53.0372H83.3569V51.2618Z" fill="#455A64"/>
<path d="M77.3995 53.0391C77.3995 53.0684 66.2472 53.0936 52.4944 53.0936C38.7417 53.0936 27.5852 53.0684 27.5852 53.0391C27.5852 53.0098 38.7354 52.9846 52.4944 52.9846C66.2535 52.9846 77.3995 53.0056 77.3995 53.0391Z" fill="#263238"/>
</svg>
