<svg width="28" height="28" viewBox="0 0 28 28" fill="none" xmlns="http://www.w3.org/2000/svg">
<rect width="28" height="28" rx="10" fill="white"/>
<path d="M6.5 9.83334V8.16667H8.16667V7.33334C8.16667 6.89131 8.34226 6.46739 8.65482 6.15483C8.96738 5.84227 9.39131 5.66667 9.83333 5.66667H14.8333V11.5L16.9167 10.25L19 11.5V5.66667H19.8333C20.7083 5.66667 21.5 6.45834 21.5 7.33334V20.6667C21.5 21.5417 20.7083 22.3333 19.8333 22.3333H9.83333C8.95833 22.3333 8.16667 21.5417 8.16667 20.6667V19.8333H6.5V18.1667H8.16667V14.8333H6.5V13.1667H8.16667V9.83334H6.5ZM9.83333 13.1667H8.16667V14.8333H9.83333V13.1667ZM9.83333 9.83334V8.16667H8.16667V9.83334H9.83333ZM9.83333 19.8333V18.1667H8.16667V19.8333H9.83333Z" fill="#252525"/>
</svg>
